<svg preserveAspectRatio="none" width="100%" height="100%" overflow="visible" style="display: block;" viewBox="0 0 11.4943 11.5" fill="none" xmlns="http://www.w3.org/2000/svg">
<path id="icon" d="M0.2155 11.2845C0.0718332 11.141 0 10.9628 0 10.75V0.75C0 0.537167 0.0718332 0.359 0.2155 0.2155C0.359 0.0718332 0.537167 0 0.75 0C0.962833 0 1.141 0.0718332 1.2845 0.2155C1.42817 0.359 1.5 0.537167 1.5 0.75V10.75C1.5 10.9628 1.42817 11.141 1.2845 11.2845C1.141 11.4282 0.962833 11.5 0.75 11.5C0.537167 11.5 0.359 11.4282 0.2155 11.2845ZM7.20375 5.75L11.277 9.823C11.4153 9.9615 11.4862 10.1356 11.4895 10.3453C11.4927 10.5548 11.4218 10.732 11.277 10.877C11.132 11.0218 10.9563 11.0942 10.75 11.0942C10.5437 11.0942 10.368 11.0218 10.223 10.877L5.72875 6.38275C5.63525 6.28908 5.56925 6.19033 5.53075 6.0865C5.49225 5.98267 5.473 5.8705 5.473 5.75C5.473 5.6295 5.49225 5.51733 5.53075 5.4135C5.56925 5.30967 5.63525 5.21092 5.72875 5.11725L10.223 0.623C10.3615 0.484666 10.5356 0.413833 10.7453 0.4105C10.9548 0.407333 11.132 0.478166 11.277 0.623C11.4218 0.768 11.4943 0.943667 11.4943 1.15C11.4943 1.35633 11.4218 1.532 11.277 1.677L7.20375 5.75Z" fill="var(--fill-0, #121621)"/>
</svg>
