<svg preserveAspectRatio="none" width="100%" height="100%" overflow="visible" style="display: block;" viewBox="0 0 1102 68.0005" fill="none" xmlns="http://www.w3.org/2000/svg">
<g id="Series 3">
<path id="Line" d="M1.00021 67.0003L25.9294 61.5669L51.6376 59.032L77.3458 64.1018L103.833 61.5669H130.32L156.029 59.032H180.179L205.108 55.6522L230.037 59.032L259.64 53.1173L281.453 55.6522L304.825 53.1173L328.196 50.5824L357.799 53.1173L379.612 50.5824L399.867 45.5126L427.133 40.4429L454.4 36.218H481.666L510.49 33.6832L530.745 36.218H542.431L561.907 40.4429L584.499 48.0475L607.87 50.5824H616.439L635.915 40.4429L656.17 36.218L674.088 33.6832L709.145 31.1483L720.83 25.2335L746.538 22.6986L776.142 20.1638H788.606C793.54 21.0087 803.72 22.6986 804.966 22.6986C806.213 22.6986 822.105 24.3886 829.895 25.2335L850.15 31.1483H874.301L897.672 25.2335L914.031 27.7684L945.193 31.1483L964.669 27.7684L998.167 25.2335C1002.06 24.3886 1010.16 22.6986 1011.41 22.6986C1012.66 22.6986 1021.28 19.8821 1025.43 18.4738H1041.01L1052.7 10.0242H1077.63L1101 1.00027" stroke="var(--stroke-0, #53389E)" stroke-width="2" stroke-linecap="round" stroke-linejoin="round"/>
</g>
</svg>
