<svg preserveAspectRatio="none" width="100%" height="100%" overflow="visible" style="display: block;" viewBox="0 0 43.333 15.2925" fill="none" xmlns="http://www.w3.org/2000/svg">
<g id="Payoneer">
<path id="Payoneer_2" d="M35.0186 7.22497C35.8264 6.36739 36.8175 6.06178 37.9609 6.37731C38.6586 6.57198 39.0312 7.07726 39.0732 7.78747C39.1152 8.48206 38.8003 9.00375 38.1445 9.30895C37.4837 9.61395 36.7807 9.66133 36.0674 9.67712C35.9258 9.67186 35.7785 9.67126 35.6211 9.67126C35.5739 10.1869 35.9416 10.582 36.5029 10.6556C37.0275 10.7188 37.5313 10.6402 38.0244 10.4613C38.1083 10.4297 38.1868 10.3979 38.2969 10.3558C38.3283 10.6977 38.371 11.0184 38.3867 11.3392C38.392 11.4022 38.3184 11.502 38.2607 11.5287C37.369 11.897 36.4507 12.0237 35.5117 11.766C34.6671 11.5345 34.226 10.9185 34.1211 10.0765C33.99 8.9979 34.2684 8.02474 35.0186 7.22497ZM9.88867 6.25622C10.3346 6.28253 10.7758 6.38838 11.2217 6.45153C11.3998 6.47786 11.4259 6.57739 11.3945 6.72985C11.1952 7.77174 10.9853 8.80905 10.8174 9.85094C10.7283 10.4032 10.7017 10.9712 10.665 11.5287C10.6545 11.6971 10.6126 11.7664 10.4395 11.7611C10.1143 11.7506 9.78899 11.7506 9.46387 11.7611C9.29619 11.7663 9.23818 11.7025 9.25391 11.5394C9.27487 11.287 9.28604 11.0241 9.30176 10.7455C9.03951 11.019 8.82902 11.2971 8.56152 11.5023C8.01077 11.9285 7.38175 12.0234 6.74707 11.7289C6.11753 11.4395 5.86022 10.8763 5.83398 10.2132C5.77636 8.81894 6.2638 7.66635 7.43359 6.86657C8.16795 6.36148 9.0127 6.20892 9.88867 6.25622ZM30.0605 6.95641C30.8422 6.28819 31.7602 6.07749 32.7568 6.37731C33.4231 6.57727 33.7956 7.07763 33.8428 7.76696C33.8899 8.44564 33.5963 8.9669 32.9668 9.28258C32.4737 9.5298 31.9436 9.61918 31.4033 9.65075C31.0677 9.66651 30.7269 9.65076 30.3809 9.65075C30.3442 10.1979 30.7164 10.5872 31.2725 10.6556C31.8128 10.7188 32.3323 10.6345 32.8359 10.4398C32.8884 10.4188 32.9463 10.3974 33.0039 10.3763C33.0144 10.3714 33.0308 10.3763 33.0723 10.3763C33.1037 10.6972 33.1405 11.0184 33.1562 11.3392C33.1615 11.4024 33.0874 11.5024 33.0244 11.5287C32.1483 11.8865 31.2407 12.0135 30.3174 11.7767C29.4571 11.5557 28.9851 10.934 28.8906 10.0658C28.7544 8.83992 29.1111 7.76667 30.0605 6.95641ZM19.7881 6.2777C20.4596 6.20403 21.0898 6.28816 21.6406 6.6986C22.1651 7.08799 22.4223 7.63542 22.459 8.28258C22.5009 8.95605 22.385 9.59781 22.0703 10.1976C21.4775 11.3132 20.528 11.8549 19.5732 11.8812C18.1831 11.8812 17.3911 11.3659 17.1025 10.4398C16.6252 8.91392 17.5431 6.53057 19.7881 6.2777ZM27.2012 6.28258C27.7678 6.3773 28.1617 6.79322 28.2246 7.37731C28.298 8.02967 28.1617 8.66103 28.041 9.29235C27.8941 10.0554 27.7527 10.8188 27.6006 11.5765C27.5848 11.6449 27.5056 11.7451 27.4531 11.7504C27.002 11.7609 26.5507 11.7556 26.0996 11.7504C26.0787 11.7503 26.0575 11.7343 26.0156 11.7132C26.0995 11.2766 26.184 10.8348 26.2627 10.3929C26.3833 9.71424 26.4986 9.04038 26.6035 8.36169C26.6245 8.24603 26.6134 8.12481 26.5977 8.00915C26.5557 7.60405 26.2572 7.41951 25.8691 7.5404C25.4914 7.66142 25.2656 7.95634 25.082 8.28258C24.8093 8.7614 24.7145 9.29316 24.6201 9.82458C24.5152 10.4085 24.4152 10.9877 24.2998 11.5716C24.2838 11.6401 24.2056 11.7451 24.1533 11.7504C23.6918 11.7661 23.2249 11.7601 22.7109 11.7601C23.0571 9.95018 23.3818 8.17696 23.707 6.38805H25.04C25.0191 6.6722 24.9979 6.94608 24.9717 7.22497C25.1238 7.08289 25.2607 6.9456 25.4023 6.82458C25.9216 6.37228 26.5142 6.1722 27.2012 6.28258ZM1.53223 4.42516C2.51314 4.27785 3.49955 4.17299 4.48047 4.42028C5.33531 4.6308 5.9334 5.23551 6.0332 5.94567C6.2378 7.36117 5.41376 8.49264 4.19141 8.89782C3.54626 9.10822 2.89073 9.16112 2.22461 9.09801C2.06726 9.08223 2.0194 9.12422 1.99316 9.27672C1.85152 10.0502 1.70487 10.819 1.55273 11.5873C1.54213 11.6503 1.48492 11.7498 1.44824 11.7504C0.970841 11.7609 0.503632 11.7552 0 11.7552C0.0734374 11.3606 0.131638 10.9972 0.205078 10.6341C0.582775 8.63997 0.965078 6.65078 1.34277 4.65661C1.369 4.53039 1.40636 4.4462 1.53223 4.42516ZM43.333 6.26208C43.2334 6.76182 43.1495 7.22529 43.0498 7.68297C43.0389 7.71964 42.9715 7.76641 42.9297 7.77184C41.8962 7.90866 41.4602 8.27726 41.2031 9.3402C41.0248 10.0768 40.9041 10.8343 40.752 11.5814C40.7415 11.6445 40.6842 11.7442 40.6475 11.7445C40.165 11.7603 39.6823 11.7552 39.1631 11.7552C39.2313 11.3659 39.2941 11.0134 39.3623 10.6556C39.6351 9.2928 39.9129 7.92991 40.0283 6.53551C40.0336 6.47763 40.1123 6.38257 40.1543 6.37731C40.553 6.36679 40.9517 6.37243 41.3818 6.37243C41.3504 6.74596 41.3241 7.09844 41.2979 7.44567C41.7804 6.73538 42.3364 6.15698 43.333 6.26208ZM20.8271 8.26696C20.7747 7.66192 20.3187 7.34102 19.7627 7.46715C19.4899 7.5303 19.2847 7.6983 19.1221 7.9193C18.7602 8.41915 18.6134 8.98221 18.5977 9.58727C18.5977 9.6662 18.5924 9.75053 18.5977 9.82946C18.6396 10.3819 19.0334 10.7342 19.5527 10.6869C19.8411 10.6605 20.0668 10.5084 20.2451 10.2875C20.7119 9.69295 20.89 9.00877 20.8271 8.26696ZM9.66895 7.49254C9.16007 7.35047 8.73467 7.4514 8.37793 7.75133C7.70668 8.3196 7.40226 9.05632 7.45996 9.93493C7.47576 10.2032 7.58107 10.4608 7.86426 10.5765C8.14749 10.6922 8.4047 10.6077 8.625 10.4183C8.75603 10.3026 8.88222 10.171 8.97656 10.0238C9.47472 9.26087 9.48536 8.36591 9.66895 7.49254ZM37.2324 7.41442C36.6134 7.24603 35.8416 7.81445 35.7734 8.55114C36.1091 8.5301 36.424 8.52483 36.7334 8.48278C36.9432 8.45648 37.153 8.39249 37.3418 8.30309C37.5463 8.21367 37.6466 8.02473 37.6152 7.79333C37.5838 7.57245 37.4368 7.46707 37.2324 7.41442ZM31.9805 7.41442C31.3563 7.26188 30.6164 7.80851 30.5322 8.50817C30.9362 8.59236 31.7659 8.49296 32.0859 8.32458C32.3061 8.2088 32.4156 8.02401 32.3789 7.80309C32.3421 7.57713 32.1902 7.46701 31.9805 7.41442ZM3.92383 5.61462C3.55156 5.48321 3.16889 5.50931 2.78613 5.56188C2.73901 5.56713 2.67572 5.64049 2.66504 5.68786C2.53388 6.37719 2.40275 7.07254 2.25586 7.84606C2.57587 7.84606 2.86453 7.87177 3.14258 7.8402C3.68812 7.78229 4.12357 7.53493 4.37012 7.01403C4.64805 6.42473 4.44839 5.79877 3.92383 5.61462Z" fill="var(--fill-0, black)"/>
<path id="Payoneer_3" d="M25.3129 5.60466e-06C25.4544 0.0315627 25.5961 0.0785513 25.7377 0.099615C26.3252 0.19432 26.7976 0.510163 27.2015 0.925787C27.3012 1.02571 27.4006 1.22577 27.3588 1.33106C27.3115 1.44683 27.1225 1.55806 26.9808 1.57911C25.659 1.77381 24.3737 2.12051 23.141 2.63086C22.4277 2.92548 21.7301 3.28348 21.0482 3.64649C19.5635 4.44633 18.3809 5.50549 17.2006 6.68946C15.9521 7.94178 14.7632 9.36161 13.7455 10.8086C13.1107 11.7084 12.6627 12.4415 12.0961 13.3887C11.8129 13.8622 11.4841 14.5917 11.2533 15.0967C11.2167 15.1701 11.1382 15.3015 11.1117 15.292C11.012 15.2604 10.8645 15.202 10.8383 15.1231C10.7754 14.9285 10.7128 14.7024 10.7494 14.5078C10.9487 13.4503 11.3895 12.4767 11.8773 11.5244C12.8269 9.68269 14.0183 8.00355 15.4086 6.47754C16.2007 5.60939 17.0191 4.76243 17.8636 3.95215C19.1331 2.72616 20.5493 1.68947 22.1283 0.889654C22.8574 0.521377 23.6129 0.242468 24.4154 0.0898494C24.5518 0.063539 24.6837 0.0311988 24.8148 0.00488842C24.9878 -0.000363472 25.1503 5.60467e-06 25.3129 5.60466e-06ZM11.7045 1.18946C11.694 1.03166 11.783 0.952393 11.9193 1.00489C12.0557 1.05225 12.1927 1.13147 12.2924 1.23145C13.1263 2.12065 13.6507 3.15731 13.7924 4.37794C13.8238 4.61473 13.8339 4.85208 13.8549 5.08887C13.8391 5.8254 13.714 6.53581 13.4623 7.21973C13.436 7.2934 13.3829 7.35678 13.3304 7.41993C13.2152 7.57208 13.0895 7.58776 13.0004 7.41993C12.8849 7.19892 12.7905 6.96141 12.7328 6.72461C12.5649 5.9828 12.4076 5.23574 12.266 4.4834C12.0824 3.52571 11.9192 2.5622 11.7513 1.6045C11.7252 1.4679 11.7149 1.32605 11.7045 1.18946Z" fill="var(--fill-0, #FC461E)"/>
</g>
</svg>
