<svg preserveAspectRatio="none" width="100%" height="100%" overflow="visible" style="display: block;" viewBox="0 0 45.8535 10.833" fill="none" xmlns="http://www.w3.org/2000/svg">
<path id="Klarna" d="M16.2578 3.0752C17.0226 3.07524 17.7318 3.32394 18.3193 3.74805V3.27832H20.3994V10.6299H18.3193V10.1602C17.7318 10.5842 17.0226 10.833 16.2578 10.833C14.2334 10.833 12.5918 9.09653 12.5918 6.9541C12.5918 4.81169 14.2334 3.0752 16.2578 3.0752ZM38.1992 3.0752C38.9641 3.0752 39.6732 3.32401 40.2607 3.74805V3.27832H42.3408V10.6299H40.2607V10.1602C39.6732 10.5841 38.9641 10.833 38.1992 10.833C36.1749 10.833 34.5342 9.09651 34.5342 6.9541C34.5342 4.81171 36.1749 3.07523 38.1992 3.0752ZM44.5488 8.02246C45.2694 8.02263 45.8534 8.64062 45.8535 9.40332C45.8535 10.1659 45.2695 10.785 44.5488 10.7852C43.828 10.7852 43.2432 10.166 43.2432 9.40332C43.2433 8.64051 43.8281 8.02246 44.5488 8.02246ZM2.30566 0V10.6328H0V0H2.30566ZM8.0625 0C8.0625 2.3019 7.21444 4.4435 5.7041 6.03516L8.89062 10.6328H6.04395L2.58105 5.63574L3.47461 4.92773C4.95669 3.75278 5.80664 1.95669 5.80664 0H8.0625ZM11.7402 10.6299H9.5625V0.00195312H11.7402V10.6299ZM23.6162 4.23535C24.0332 3.66109 24.8108 3.27832 25.6553 3.27832V5.41797C25.6469 5.41786 25.6383 5.41699 25.6299 5.41699C24.807 5.41711 23.6212 6.03946 23.6211 7.19727V10.6299H21.4873V3.27832H23.6162V4.23535ZM30.8379 3.08008C32.5134 3.08008 33.7988 4.24425 33.7988 5.95508V10.6299H31.7217V6.75098C31.7216 5.67899 31.196 5.10169 30.2822 5.10156C29.4293 5.10156 28.7207 5.64866 28.7207 6.7666V10.6299H26.624V3.27832H28.6953V4.10645C29.221 3.35342 30.0071 3.0801 30.8379 3.08008ZM16.4287 5.0625C15.388 5.0625 14.544 5.9095 14.5439 6.9541C14.5439 7.99874 15.388 8.8457 16.4287 8.8457C17.4694 8.84549 18.3125 7.9986 18.3125 6.9541C18.3125 5.90963 17.4694 5.06271 16.4287 5.0625ZM38.3701 5.0625C37.3293 5.0625 36.4854 5.9095 36.4854 6.9541C36.4854 7.99874 37.3293 8.8457 38.3701 8.8457C39.4109 8.84566 40.2549 7.99871 40.2549 6.9541C40.2549 5.90952 39.4109 5.06254 38.3701 5.0625Z" fill="var(--fill-0, #17120F)"/>
</svg>
