<svg preserveAspectRatio="none" width="100%" height="100%" overflow="visible" style="display: block;" viewBox="0 0 29.8106 17.8662" fill="none" xmlns="http://www.w3.org/2000/svg">
<g id="Mastercard">
<path id="Left" d="M20.7695 0C25.7627 0 29.8105 3.99985 29.8105 8.93359C29.8104 13.8672 25.7626 17.8662 20.7695 17.8662C18.5311 17.8662 16.4842 17.061 14.9053 15.7295C13.3264 17.061 11.2795 17.8662 9.04102 17.8662C4.04794 17.8662 0.000142922 13.8672 0 8.93359C0 3.99985 4.04785 0 9.04102 0C11.2794 2.32863e-05 13.3264 0.80536 14.9053 2.13672C16.4842 0.805355 18.5312 3.60719e-05 20.7695 0Z" fill="var(--fill-0, #ED0006)"/>
<path id="Right" d="M20.7696 0C25.7627 0 29.8106 3.99985 29.8106 8.93359C29.8104 13.8672 25.7626 17.8662 20.7696 17.8662C18.5311 17.8662 16.4842 17.061 14.9053 15.7295C16.8483 14.091 18.082 11.6554 18.0821 8.93359C18.0821 6.2116 16.8485 3.77525 14.9053 2.13672C16.4842 0.805358 18.5312 2.96795e-05 20.7696 0Z" fill="var(--fill-0, #F9A000)"/>
<path id="Middle" d="M14.9046 2.13703C16.8478 3.77548 18.0812 6.21098 18.0814 8.93293C18.0814 11.6549 16.8477 14.0903 14.9046 15.7288C12.962 14.0903 11.7288 11.6545 11.7288 8.93293C11.7289 6.21137 12.9619 3.77547 14.9046 2.13703Z" fill="var(--fill-0, #FF5E00)"/>
</g>
</svg>
