<svg preserveAspectRatio="none" width="100%" height="100%" overflow="visible" style="display: block;" viewBox="0 0 24 24" fill="none" xmlns="http://www.w3.org/2000/svg">
<g id="lucide/mouse-pointer-2">
<path id="Vector" d="M4.037 4.688C3.99753 4.59692 3.98636 4.49607 4.00494 4.39856C4.02352 4.30104 4.07098 4.21137 4.14118 4.14118C4.21137 4.07098 4.30104 4.02352 4.39856 4.00494C4.49607 3.98636 4.59692 3.99753 4.688 4.037L20.688 10.537C20.7853 10.5766 20.8676 10.6459 20.9233 10.735C20.979 10.8241 21.0052 10.9284 20.9982 11.0332C20.9913 11.1381 20.9515 11.238 20.8845 11.3189C20.8175 11.3998 20.7267 11.4576 20.625 11.484L14.501 13.064C14.155 13.153 13.8391 13.333 13.5862 13.5853C13.3333 13.8377 13.1527 14.1532 13.063 14.499L11.484 20.625C11.4576 20.7267 11.3998 20.8175 11.3189 20.8845C11.238 20.9515 11.1381 20.9913 11.0332 20.9982C10.9284 21.0052 10.8241 20.979 10.735 20.9233C10.6459 20.8676 10.5766 20.7853 10.537 20.688L4.037 4.688Z" fill="var(--fill-0, black)" stroke="var(--stroke-0, white)" stroke-linecap="round" stroke-linejoin="round"/>
</g>
</svg>
