<svg preserveAspectRatio="none" width="100%" height="100%" overflow="visible" style="display: block;" viewBox="0 0 22.3584 13.4004" fill="none" xmlns="http://www.w3.org/2000/svg">
<g id="Mastercard">
<path id="Left" d="M15.5771 0C19.322 0 22.3584 2.99989 22.3584 6.7002C22.3583 10.4004 19.322 13.4004 15.5771 13.4004C13.8982 13.4004 12.3629 12.7956 11.1787 11.7969C9.99451 12.7955 8.45913 13.4004 6.78027 13.4004C3.03566 13.4002 0.000106927 10.4003 0 6.7002C0 3.00002 3.03559 0.00022229 6.78027 0C8.45899 0 9.99455 0.604078 11.1787 1.60254C12.3629 0.603945 13.8983 2.73975e-05 15.5771 0Z" fill="var(--fill-0, #ED0006)"/>
<path id="Right" d="M15.5774 0C19.3222 8.12273e-05 22.3577 2.99994 22.3577 6.7002C22.3576 10.4004 19.3221 13.4003 15.5774 13.4004C13.8985 13.4004 12.3632 12.7956 11.179 11.7969C12.6361 10.568 13.5617 8.74148 13.5618 6.7002C13.5618 4.6587 12.6363 2.83144 11.179 1.60254C12.3632 0.604 13.8986 0 15.5774 0Z" fill="var(--fill-0, #F9A000)"/>
<path id="Middle" d="M11.1785 1.60253C12.636 2.83143 13.5613 4.65855 13.5613 6.70018C13.5612 8.7416 12.6358 10.568 11.1785 11.7969C9.72149 10.568 8.79667 8.74131 8.79662 6.70018C8.79662 4.65884 9.72128 2.83142 11.1785 1.60253Z" fill="var(--fill-0, #FF5E00)"/>
</g>
</svg>
