<svg preserveAspectRatio="none" width="100%" height="100%" overflow="visible" style="display: block;" viewBox="0 0 3.33333 15" fill="none" xmlns="http://www.w3.org/2000/svg">
<g id="Icon">
<path d="M1.66667 8.33333C2.1269 8.33333 2.5 7.96024 2.5 7.5C2.5 7.03976 2.1269 6.66667 1.66667 6.66667C1.20643 6.66667 0.833333 7.03976 0.833333 7.5C0.833333 7.96024 1.20643 8.33333 1.66667 8.33333Z" stroke="var(--stroke-0, #98A2B3)" stroke-width="1.66667" stroke-linecap="round" stroke-linejoin="round"/>
<path d="M1.66667 2.5C2.1269 2.5 2.5 2.1269 2.5 1.66667C2.5 1.20643 2.1269 0.833333 1.66667 0.833333C1.20643 0.833333 0.833333 1.20643 0.833333 1.66667C0.833333 2.1269 1.20643 2.5 1.66667 2.5Z" stroke="var(--stroke-0, #98A2B3)" stroke-width="1.66667" stroke-linecap="round" stroke-linejoin="round"/>
<path d="M1.66667 14.1667C2.1269 14.1667 2.5 13.7936 2.5 13.3333C2.5 12.8731 2.1269 12.5 1.66667 12.5C1.20643 12.5 0.833333 12.8731 0.833333 13.3333C0.833333 13.7936 1.20643 14.1667 1.66667 14.1667Z" stroke="var(--stroke-0, #98A2B3)" stroke-width="1.66667" stroke-linecap="round" stroke-linejoin="round"/>
</g>
</svg>
