<svg preserveAspectRatio="none" width="100%" height="100%" overflow="visible" style="display: block;" viewBox="0 0 1102 26.8427" fill="none" xmlns="http://www.w3.org/2000/svg">
<g id="Series 2">
<path id="Line" d="M1.00005 25.8426L25.9292 23.7975L51.6374 22.8433L77.3457 24.7516L103.833 23.7975H130.32L156.028 22.8433H180.179L205.108 21.5712L230.037 22.8433L259.64 20.617L281.453 21.5712L304.824 20.617L328.196 19.6629L357.799 20.617L379.612 19.6629L399.867 17.7546L427.133 15.8464L454.399 14.2561H481.666L510.49 13.302L530.745 14.2561H542.431L561.907 15.8464L584.499 18.7088L607.87 19.6629H616.439L635.915 15.8464L656.17 14.2561L674.088 13.302L709.145 12.3479L720.83 10.1216L746.538 9.16742L776.142 8.21329H788.606C793.54 8.53133 803.72 9.16742 804.966 9.16742C806.213 9.16742 822.105 9.80351 829.895 10.1216L850.15 12.3479H874.3L897.671 10.1216L914.031 11.0757L945.193 12.3479L964.669 11.0757L998.167 10.1216C1002.06 9.80351 1010.16 9.16742 1011.41 9.16742C1012.66 9.16742 1021.28 8.10727 1025.43 7.5772H1041.01L1052.7 4.39675H1077.63L1101 1.00013" stroke="var(--stroke-0, #B692F6)" stroke-width="2" stroke-linecap="round" stroke-linejoin="round"/>
</g>
</svg>
