<svg preserveAspectRatio="none" width="100%" height="100%" overflow="visible" style="display: block;" viewBox="0 0 23.2163 24.4547" fill="none" xmlns="http://www.w3.org/2000/svg">
<path id="Forbrugsforeningen" d="M17.1484 0.570312C21.025 1.60281 22.7045 4.18274 23.1055 9.4834C23.2303 11.1299 23.2158 12.2275 23.2158 12.2275C23.2161 12.2539 23.2288 13.3445 23.1055 14.9707C22.5598 22.1865 19.6505 24.3665 12.0439 24.4541C11.9269 24.4548 11.2649 24.4548 11.1475 24.4541C9.82818 24.4387 8.65423 24.3581 7.60547 24.2021C7.64217 24.2018 7.67777 24.2018 7.71484 24.1992C9.09109 24.1203 11.007 23.059 12.1475 20.5898C12.6456 19.51 12.7803 17.582 12.7803 17.582V13.4814H17.1484V9.42676H12.7803V9.42578C12.7803 9.42578 12.7788 9.42152 12.7773 9.41406C12.777 9.41278 12.7758 9.40967 12.7754 9.4082C12.7731 9.40097 12.7723 9.39274 12.7686 9.38086C12.7682 9.3776 12.767 9.37236 12.7666 9.36816C12.7635 9.35642 12.76 9.3447 12.7578 9.3291C12.756 9.32271 12.7563 9.31405 12.7549 9.30664C12.752 9.29146 12.7494 9.27592 12.7471 9.25781C12.7449 9.24902 12.7439 9.23739 12.7432 9.22754C12.7403 9.20843 12.7387 9.18982 12.7363 9.16797C12.7356 9.15715 12.7354 9.14479 12.7344 9.13379C12.7329 9.11029 12.7308 9.0868 12.7305 9.06055V8.93652C12.7305 8.9241 12.732 8.90983 12.7324 8.89648C12.7332 8.86412 12.7338 8.83171 12.7373 8.7959C12.738 8.78507 12.7405 8.77231 12.7412 8.76074C12.7447 8.7215 12.7488 8.68182 12.7549 8.63965C12.7556 8.63176 12.7581 8.62294 12.7588 8.61523C12.7661 8.56775 12.7738 8.5195 12.7842 8.46875C12.7842 8.46765 12.7848 8.46552 12.7852 8.46387C12.859 8.10945 13.017 7.67296 13.334 7.17871C14.1863 5.85269 16.6063 5.91485 17.0713 5.93945C17.1199 5.94239 17.1477 5.94434 17.1484 5.94434V0.570312ZM7.68555 16.3281C7.6914 16.5542 7.63394 17.3241 6.97168 18.1514C6.1155 19.2221 4.88273 19.1495 4.86621 19.1484V23.5C1.81775 22.2693 0.443258 19.7025 0.0849609 14.9707C0.0416498 14.4007 0.0161512 13.8995 0 13.4844L7.71484 13.4814C7.71411 13.5765 7.68298 16.26 7.68555 16.3281ZM12.0439 0.000976562C13.0048 0.0119947 13.8902 0.0561386 14.7061 0.139648C14.6462 0.141668 14.5874 0.144209 14.5215 0.151367C13.8535 0.217626 11.3403 0.103409 9.06055 2.85742C7.83743 4.33679 7.7151 9.41624 7.71484 9.42676H0.0898438C0.647297 2.25678 3.56063 0.0881647 11.1475 0.000976562C11.2639 0.000246002 11.3772 1.77697e-09 11.4922 0H11.6973C11.8129 0 11.9268 0.000242347 12.0439 0.000976562Z" fill="var(--fill-0, #659AD2)"/>
</svg>
