<svg preserveAspectRatio="none" width="100%" height="100%" overflow="visible" style="display: block;" viewBox="0 0 45.333 14.3617" fill="none" xmlns="http://www.w3.org/2000/svg">
<g id="Amazon">
<path id="Amazon_2" d="M3.37109 0.0195312C4.05379 0.0195312 4.94522 0.210101 5.48145 0.75293C6.11092 1.37249 6.10679 2.18396 6.10254 3.07031C6.10219 3.14336 6.10156 3.21701 6.10156 3.29102V5.58594C6.10156 6.2041 6.31999 6.51204 6.5498 6.83594C6.57703 6.87431 6.60463 6.91277 6.63184 6.95215C6.72121 7.08264 6.74107 7.24588 6.63184 7.34375C6.34522 7.59549 5.83696 8.05994 5.55762 8.32227L5.5459 8.32031C5.45371 8.40419 5.32115 8.4182 5.21484 8.35547C4.81769 8.0081 4.69755 7.81961 4.51367 7.53125C4.48214 7.4818 4.44817 7.42973 4.41113 7.37305C3.64051 8.1974 3.0952 8.44434 2.09863 8.44434C0.918357 8.44419 0 7.67729 0 6.14551C0.000166657 4.94932 0.620625 4.13659 1.48926 3.7373C2.13085 3.44133 2.98744 3.34895 3.72754 3.26953C3.86504 3.25478 3.9986 3.24071 4.12598 3.22559V3.03516C4.12598 2.99879 4.12667 2.96137 4.12695 2.92383C4.12941 2.59909 4.13179 2.23728 3.95605 1.96484C3.78473 1.69355 3.45934 1.58301 3.16895 1.58301C2.63396 1.58301 2.15769 1.87144 2.04102 2.46777C2.02616 2.60679 1.92358 2.71828 1.79199 2.73926L0.444336 2.58398C0.377071 2.57386 0.316751 2.53476 0.277344 2.47656C0.237974 2.41838 0.223416 2.34549 0.236328 2.27539C0.548032 0.542916 2.03689 0.019577 3.37109 0.0195312ZM21.749 0.0146484C22.4305 0.0146484 23.3219 0.205218 23.8594 0.748047C24.4901 1.36439 24.4863 2.16898 24.4814 3.05078C24.481 3.12851 24.4805 3.20728 24.4805 3.28613V5.58203C24.4805 6.1987 24.6981 6.50638 24.9277 6.83008C24.955 6.86856 24.9825 6.90778 25.0098 6.94727C25.1041 7.08297 25.1243 7.24199 25.0039 7.33203C24.7172 7.58388 24.208 8.04958 23.9287 8.31055C23.8358 8.39346 23.704 8.4073 23.5977 8.34473C23.1988 7.9959 23.081 7.81063 22.8945 7.51855C22.8634 7.46977 22.8296 7.41832 22.793 7.3623C22.0236 8.18668 21.4751 8.43354 20.4824 8.43359C19.302 8.43359 18.3828 7.66734 18.3828 6.13672C18.3829 4.93891 19.0001 4.12584 19.8789 3.72656C20.5219 3.4295 21.3828 3.3386 22.125 3.25977C22.2597 3.24546 22.3908 3.23143 22.5156 3.2168V2.91992C22.5181 2.59495 22.5208 2.23246 22.3438 1.96094C22.1774 1.68976 21.8457 1.57715 21.5566 1.57715C21.0219 1.57729 20.5477 1.86595 20.4297 2.46191C20.4145 2.60082 20.3131 2.71199 20.1816 2.7334L18.8223 2.58008C18.7546 2.57026 18.694 2.53112 18.6543 2.47266C18.6146 2.41415 18.599 2.341 18.6123 2.27051C18.9251 0.536502 20.4148 0.0147544 21.749 0.0146484ZM35.2988 0.0107422C37.3804 0.0107422 38.5068 1.88944 38.5068 4.27734C38.5068 6.58567 37.265 8.41602 35.2988 8.41602C33.2572 8.41591 32.1447 6.53761 32.1445 4.19824C32.1445 1.85866 33.2707 0.0108501 35.2988 0.0107422ZM14.873 0.0371094C15.6121 -0.0832263 16.3562 0.224729 16.8184 0.842773C17.2638 1.47946 17.1719 2.40856 17.1719 3.21484V7.99023C17.1705 8.06401 17.1405 8.13447 17.0898 8.18555C17.0392 8.23642 16.9714 8.26427 16.9014 8.2627H15.5C15.3622 8.25507 15.2528 8.13625 15.251 7.99121V3.97949C15.251 3.66086 15.2777 2.86512 15.2119 2.5625C15.1076 2.05385 14.7934 1.91021 14.3877 1.91016C14.0157 1.9221 13.6861 2.16617 13.5498 2.53027C13.4418 2.81809 13.4212 3.24754 13.418 3.62598V7.99023C13.4165 8.06377 13.3873 8.13354 13.3369 8.18457C13.2864 8.23571 13.2186 8.26401 13.1484 8.2627H11.7432C11.6058 8.25423 11.4976 8.13584 11.4951 7.99121V3.97949C11.4952 3.13524 11.6188 1.8916 10.626 1.8916C9.6336 1.89199 9.6582 3.10148 9.6582 3.97949V7.99023C9.65678 8.064 9.62782 8.13447 9.57715 8.18555C9.52637 8.23671 9.45801 8.26436 9.3877 8.2627H7.98535C7.85548 8.25553 7.74921 8.14968 7.73633 8.01367V0.445312C7.74104 0.293662 7.86056 0.173323 8.00488 0.174805H9.31152C9.44537 0.182567 9.55305 0.294873 9.56055 0.435547V1.42383H9.58594C9.92599 0.4675 10.5679 0.0225979 11.4316 0.0224609C12.2956 0.0224609 12.8585 0.467353 13.252 1.42383C13.5146 0.687831 14.1341 0.157521 14.873 0.0371094ZM43.3301 0C43.9581 3.76448e-05 44.5709 0.239214 44.9668 0.891602C45.3329 1.49708 45.333 2.51606 45.333 3.24805V8.00977C45.3123 8.14829 45.1978 8.24972 45.0645 8.24707H43.6543C43.5279 8.24132 43.4227 8.14141 43.4053 8.00977V3.23242C43.3856 2.54304 43.255 1.86246 42.5283 1.8623C42.1684 1.8798 41.8504 2.11639 41.7158 2.46777C41.5198 2.92957 41.4941 3.39195 41.4941 3.90332V7.97559C41.4887 8.12912 41.3668 8.24996 41.2207 8.24707H39.8223C39.6845 8.23946 39.5761 8.12062 39.5742 7.97559V0.407227C39.589 0.263687 39.7055 0.155871 39.8428 0.15918H41.1445C41.2627 0.163381 41.3642 0.24948 41.3926 0.370117V1.52832H41.4199C41.8122 0.493553 42.3619 0 43.3301 0ZM31.0674 0.146484C31.1374 0.143989 31.2057 0.171187 31.2559 0.222656C31.306 0.274153 31.3337 0.345245 31.333 0.418945V1.34668C31.333 1.50191 31.2093 1.70557 30.9873 2.02637L28.5986 5.60938C29.4848 5.58719 30.422 5.72693 31.2275 6.20312C31.3763 6.28652 31.4709 6.44782 31.4756 6.625V7.7832C31.4756 7.9424 31.3108 8.12651 31.1357 8.03125C29.607 7.20529 27.7925 7.20929 26.2666 8.04102C26.1065 8.13105 25.9385 7.94923 25.9385 7.79004V6.6875C25.9238 6.4276 25.9841 6.16928 26.1104 5.94531L28.877 1.76953H26.4639C26.3936 1.77239 26.3248 1.7449 26.2744 1.69336C26.2241 1.64191 26.1966 1.57086 26.1973 1.49707V0.418945C26.194 0.345154 26.2206 0.273665 26.2705 0.22168C26.3204 0.169695 26.3888 0.142341 26.459 0.146484H31.0674ZM4.13184 4.40918C3.11788 4.40923 2.04702 4.63763 2.04688 5.89258C2.04688 6.53197 2.36097 6.96289 2.89844 6.96289C3.29311 6.96284 3.64671 6.7069 3.87012 6.29199C4.13293 5.80065 4.13233 5.34053 4.13184 4.79785V4.40918ZM22.5176 4.40234C21.5035 4.40237 20.4326 4.6302 20.4326 5.88672C20.4328 6.52456 20.7468 6.95508 21.2842 6.95508C21.6776 6.95498 22.0327 6.69872 22.2549 6.28516C22.5184 5.79124 22.5179 5.32867 22.5176 4.7793V4.40234ZM35.3125 1.55566C34.2787 1.55579 34.2129 3.03517 34.2129 3.95898C34.2129 3.96895 34.2129 3.97905 34.2129 3.98926C34.2128 4.92528 34.2124 6.85529 35.2988 6.85547C36.3973 6.85547 36.4385 5.2638 36.4385 4.29297C36.4385 3.6562 36.4122 2.89124 36.2285 2.28711C36.0708 1.76542 35.7568 1.55566 35.3125 1.55566Z" fill="var(--fill-0, black)"/>
<path id="Smile" fill-rule="evenodd" clip-rule="evenodd" d="M28.5019 13.0748C28.8209 12.241 29.5309 10.3724 29.1932 9.91965H29.1957C28.8596 9.46587 26.9728 9.704 26.1242 9.81111L26.1223 9.81134C25.8642 9.84396 25.8244 9.60778 26.0566 9.43684C27.5635 8.32378 30.0323 8.64217 30.3191 9.01798C30.6058 9.39378 30.2409 11.9957 28.8295 13.238C28.6123 13.4285 28.405 13.3267 28.5019 13.0748ZM18.362 14.3615C21.6439 14.3615 25.4657 13.2719 28.0984 11.2298V11.2337C28.5341 10.8892 28.1605 10.3829 27.7161 10.5812C24.8424 11.8555 21.7576 12.5207 18.6388 12.5386C14.3117 12.5386 10.1262 11.2911 6.74002 9.22026C6.44336 9.03888 6.22242 9.35857 6.47067 9.59215C9.7306 12.6841 13.9713 14.385 18.362 14.3615Z" fill="var(--fill-0, #FF9900)"/>
</g>
</svg>
