<svg preserveAspectRatio="none" width="100%" height="100%" overflow="visible" style="display: block;" viewBox="0 0 23.7998 8.32422" fill="none" xmlns="http://www.w3.org/2000/svg">
<path id="Skrill" d="M3.02441 0.455078C4.31987 0.455078 5.01856 0.662511 5.62012 0.87793L5.65039 0.886719V2.65332L5.62793 2.64746C5.38648 2.54284 5.10254 2.43945 5.10254 2.43945C4.59299 2.28317 3.87988 2.11719 3.3291 2.11719C3.01568 2.11719 2.18198 2.11745 2.18164 2.76172C2.18164 3.2962 2.76236 3.33499 3.0127 3.35156C4.84843 3.47773 5.94226 4.39839 5.94238 5.81445C5.94238 7.06408 4.96413 8.32422 2.78125 8.32422C1.76919 8.32422 0.905528 8.2229 0.139648 8.0166V6.19727C0.651103 6.41268 1.49423 6.63867 2.3623 6.63867C3.15426 6.63856 3.625 6.37015 3.625 5.91406C3.62473 5.36207 3.04932 5.3281 2.83203 5.31445C0.275366 5.13597 0 3.58631 0 2.92871C0.000189922 1.78676 0.791513 0.455162 3.02441 0.455078ZM8.48535 4.52246C9.25264 3.57206 9.56918 2.65469 9.61328 2.54004H11.9521C11.8855 2.75826 11.4677 4.0734 10.5166 5.30859C10.5166 5.30859 11.5763 7.20993 11.8184 8.24121H9.37012C9.37012 8.24121 9.0774 6.87168 8.48535 5.96191V8.24121H6.44043V0.869141L8.48535 0.455078V4.52246ZM14.9883 2.46289C14.9948 2.46264 15.3205 2.45012 15.5137 2.49219V4.15723C14.3537 4.19822 14.2256 4.62713 14.2256 5.62793V8.24121H12.2275V5.03711C12.2277 3.3647 13.158 2.52332 14.9883 2.46289ZM18.0869 8.24121H16.1055V2.5459H18.0869V8.24121ZM20.9062 8.24121H18.9268V0.818359L20.9062 0.455078V8.24121ZM23.7998 8.24121H21.8184V0.818359L23.7998 0.455078V8.24121ZM17.0957 0C17.6352 4.83823e-05 18.072 0.447864 18.0723 1C18.0723 1.55265 17.6354 1.99995 17.0957 2C16.557 2 16.1191 1.55268 16.1191 1C16.1194 0.447834 16.5571 0 17.0957 0Z" fill="var(--fill-0, #862165)"/>
</svg>
