<svg preserveAspectRatio="none" width="100%" height="100%" overflow="visible" style="display: block;" viewBox="0 0 43.3333 18.3333" fill="none" xmlns="http://www.w3.org/2000/svg">
<path id="Citadele" d="M0.631719 6.34652C0.240365 6.34652 0.201771 6.21944 0.201771 5.29319V5.13513C0.201771 4.20572 0.240365 4.07991 0.631719 4.07991H9.58073C9.97344 4.07991 10.012 4.20572 10.012 5.13387V5.29193C10.012 6.21944 9.97276 6.34589 9.58073 6.34589H0.631719V6.34652V6.34652ZM0.631719 2.26788C0.240365 2.26788 0.201771 2.14143 0.201771 1.21392V1.05586C0.201771 0.125185 0.240365 0 0.631719 0H9.58073C9.97344 0 10.012 0.126449 10.012 1.05586V1.21392C10.012 2.14143 9.97276 2.26788 9.58073 2.26788H0.631719ZM1.97234 14.3805C1.97234 12.8454 2.77333 12.0014 3.97854 12.0014C4.43354 12.0014 4.79781 12.1253 5.25349 12.3371C5.4187 12.4155 5.55547 12.3839 5.77214 11.904L5.9299 11.5778C6.08562 11.1845 6.09714 11.022 5.90823 10.9348C5.34964 10.6294 4.485 10.4365 3.73818 10.4365C1.6101 10.4365 0 12.0108 0 14.3805C0 16.7496 1.6101 18.3239 3.7375 18.3239C4.485 18.3239 5.36927 18.1316 5.9299 17.8244C6.11677 17.739 6.10458 17.5746 5.95021 17.1814L5.79448 16.8368C5.57781 16.3563 5.44036 16.3291 5.2738 16.4037C4.81812 16.6168 4.43422 16.7407 3.97854 16.7407C2.77333 16.7407 1.97438 15.915 1.97438 14.3805H1.97302H1.97234ZM27.3291 17.9609C27.3291 18.1696 27.2452 18.2265 26.6134 18.2265H26.5505C25.8849 18.2265 25.7921 18.198 25.74 18.0457C25.7051 17.9423 25.6773 17.8369 25.6567 17.7302C25.3046 18.1234 24.8801 18.3333 24.2335 18.3333C22.6654 18.3333 21.7229 17.2585 21.7229 15.5299C21.7229 13.6616 22.7717 12.5552 24.3269 12.5552C24.765 12.5552 25.1685 12.6817 25.48 12.9118V10.484C25.48 10.3215 25.5003 10.2538 26.3738 10.2538H26.4367C27.2452 10.2538 27.3284 10.3215 27.3284 10.484V17.9609H27.3291ZM25.4807 14.2749C25.3739 14.166 25.244 14.079 25.0992 14.0195C24.9544 13.9601 24.7979 13.9295 24.6397 13.9297C23.9437 13.9297 23.6133 14.4943 23.6133 15.5312C23.6133 16.1255 23.748 16.503 23.9437 16.7009C24.1197 16.9051 24.3906 16.9708 24.6513 16.9708C24.9729 16.9708 25.2214 16.8969 25.3365 16.7597C25.4387 16.6547 25.48 16.4922 25.48 16.1179V14.2743L25.4814 14.2749H25.4807ZM36.7514 17.9989C36.7514 18.1601 36.6681 18.2265 35.8577 18.2265H35.7954C34.9233 18.2265 34.905 18.1601 34.905 17.9989V10.484C34.905 10.3215 34.9233 10.2538 35.7947 10.2538H35.857C36.6668 10.2538 36.7507 10.3215 36.7507 10.484V17.9989H36.7514ZM30.2487 16.001C30.3516 16.6819 30.808 17.0094 31.525 17.0094C32.0768 17.0094 32.5934 16.8956 33.1974 16.6547C33.3233 16.6073 33.4364 16.6547 33.5698 17.036L33.6646 17.2497C33.798 17.6429 33.7865 17.7302 33.6429 17.8054C32.9252 18.1791 32.1784 18.3321 31.3476 18.3321C29.5114 18.3321 28.3596 17.2889 28.3596 15.5028C28.3596 13.766 29.4179 12.5552 31.2345 12.5552C33.0315 12.5552 33.9537 13.7464 33.9537 15.3965C33.9537 15.9441 33.9029 16.001 33.6951 16.001H30.2487ZM32.1053 14.9369C32.0768 14.3628 31.8277 13.8621 31.2149 13.8621C30.6834 13.8621 30.2988 14.2351 30.2264 14.9369H32.1053ZM39.6277 16.001C39.7292 16.6819 40.1869 17.0094 40.9046 17.0094C41.4517 17.0094 41.9731 16.8956 42.575 16.6547C42.6982 16.6073 42.8147 16.6547 42.9488 17.036L43.0429 17.2497C43.1763 17.6429 43.1654 17.7302 43.0226 17.8054C42.3048 18.1791 41.5567 18.3321 40.7252 18.3321C38.8883 18.3321 37.7379 17.2889 37.7379 15.5028C37.7379 13.766 38.7942 12.5552 40.6115 12.5552C42.4098 12.5552 43.3333 13.7464 43.3333 15.3965C43.3333 15.9441 43.2812 16.001 43.0733 16.001H39.627H39.6277ZM41.4863 14.9369C41.4524 14.3628 41.2053 13.8621 40.5925 13.8621C40.063 13.8621 39.6771 14.2351 39.6053 14.9369H41.4863V14.9369ZM18.7681 14.3129C18.6745 14.1976 18.5538 14.104 18.4152 14.0393C18.2767 13.9746 18.124 13.9406 17.9691 13.9398C17.2731 13.9398 16.942 14.5057 16.942 15.5122C16.942 16.3658 17.1884 16.9999 17.9468 16.9999C18.2284 16.9999 18.4343 16.9329 18.5812 16.797C18.7153 16.6642 18.7681 16.4808 18.7681 16.08V14.3129ZM20.6368 17.9609C20.6368 18.1696 20.5549 18.2265 19.9218 18.2265H19.8365C19.173 18.2265 19.0795 18.198 19.0281 18.0457C18.9924 17.9424 18.9646 17.837 18.9448 17.7302C18.5927 18.1234 18.1661 18.3333 17.5216 18.3333C16.0164 18.3333 15.0502 17.2762 15.0502 15.5514C15.0502 13.6326 16.2446 12.5552 17.657 12.5552C18.2284 12.5552 18.7254 12.7778 18.9963 13.0939L19.0281 12.8536C19.0369 12.7398 19.0701 12.664 19.7526 12.664H19.8264C20.5332 12.664 20.6355 12.7101 20.6355 12.8852V17.9609H20.6368V17.9609ZM11.9708 11.0422C12.6655 11.0422 12.7075 11.0505 12.7075 11.2616V12.6627H13.9026C14.0678 12.6627 14.1192 12.6911 14.1192 13.2184V13.2962C14.1192 13.8222 14.0678 13.8526 13.9026 13.8526H12.7075V16.367C12.7075 16.7881 12.7894 17.0094 13.2045 17.0094C13.4211 17.0094 13.6107 16.9708 13.7976 16.9146C13.994 16.8444 14.0684 16.9329 14.2025 17.373L14.2336 17.4785C14.3785 17.9609 14.3359 17.9989 14.151 18.0836C13.7773 18.2467 13.2776 18.3333 12.8111 18.3333C11.3371 18.3333 10.922 17.6429 10.922 16.4416V13.8526H10.226C10.0499 13.8526 10.0059 13.821 10.0059 13.2962V13.2184C10.0059 12.6911 10.0493 12.664 10.226 12.664H11.0046C11.0893 12.2132 11.2328 11.5784 11.3269 11.2616C11.3791 11.0789 11.4102 11.0422 11.9708 11.0422V11.0422ZM8.10875 12.664C8.91922 12.664 8.99099 12.7291 8.99099 12.8935V17.9989C8.99099 18.1696 8.91922 18.2265 8.10875 18.2265H8.05594C7.16422 18.2265 7.14391 18.1696 7.14391 17.9989V12.8935C7.14391 12.7291 7.16422 12.664 8.05594 12.664H8.10875ZM8.05594 10.1685C8.64094 10.1685 9.06479 10.5902 9.06479 11.0694C9.06218 11.1895 9.03402 11.3079 8.98194 11.4178C8.92987 11.5276 8.85492 11.6267 8.76146 11.7093C8.57188 11.8768 8.31797 11.9678 8.05594 11.9622C7.47771 11.9622 7.04911 11.5404 7.04911 11.0694C7.04911 10.5889 7.47771 10.1685 8.05594 10.1685V10.1685Z" fill="var(--fill-0, #EE293D)"/>
</svg>
