<svg preserveAspectRatio="none" width="100%" height="100%" overflow="visible" style="display: block;" viewBox="0 0 21.8745 13.9743" fill="none" xmlns="http://www.w3.org/2000/svg">
<g id="Bancontact">
<path id="Path" d="M19.4911 2.43803H12.7193L12.0306 3.23721L9.79575 5.83037V5.83046L9.10705 6.62955H2.42477L3.10282 5.82029L3.42376 5.43725L4.10181 4.62799H1.02279C0.460286 4.62799 0 5.11442 0 5.70888V7.98956C0 8.58411 0.460286 9.07054 1.02279 9.07054H12.8106C13.3731 9.07054 14.1415 8.70926 14.5182 8.2677L16.3013 6.17747L19.4911 2.43803Z" fill="var(--fill-0, #005697)"/>
<path id="Path_2" d="M20.8517 0C21.4142 0 21.8745 0.48643 21.8745 1.08098V3.36157C21.8745 3.95603 21.4142 4.44255 20.8517 4.44255H17.7828L18.4672 3.63935H18.4673L18.8067 3.24114L19.4911 2.43804H12.7194L9.10717 6.6326H2.38343L7.20535 1.01336L7.3878 0.800697C7.76578 0.360296 8.53523 0 9.09773 0H20.8517V0Z" fill="var(--fill-0, #FBD500)"/>
<path id="Shape" fill-rule="evenodd" clip-rule="evenodd" d="M2.30498 12.9475C2.30498 12.7986 2.27088 12.6697 2.20285 12.5609C2.13473 12.4521 2.04515 12.369 1.93401 12.3118C2.04515 12.2545 2.13127 12.1699 2.19246 12.0582C2.25357 11.9466 2.28412 11.8206 2.28412 11.6803V11.603C2.28412 11.4311 2.25218 11.288 2.18831 11.1733C2.12434 11.0588 2.03467 10.9671 1.91939 10.8984C1.8041 10.8296 1.66579 10.7803 1.50471 10.7502C1.34347 10.7201 1.1643 10.7051 0.966964 10.7051C0.900319 10.7051 0.830817 10.7065 0.758632 10.7094C0.686274 10.7122 0.616167 10.7158 0.548137 10.7201C0.48002 10.7244 0.417442 10.7295 0.360577 10.7352C0.303539 10.741 0.256974 10.7467 0.220882 10.7523C0.140302 10.7668 0.08335 10.7924 0.0500273 10.8296C0.0167046 10.8669 0 10.9343 0 11.0316V13.6435C0 13.7409 0.0173105 13.8082 0.0521046 13.8454C0.0868121 13.8827 0.145841 13.9083 0.229277 13.9227C0.270909 13.9313 0.320936 13.9384 0.379273 13.9442C0.437609 13.9499 0.500792 13.9549 0.568909 13.9592C0.637026 13.9635 0.707133 13.967 0.779405 13.97C0.851676 13.9727 0.922476 13.9743 0.991978 13.9743C1.17261 13.9743 1.34277 13.9599 1.50264 13.9313C1.66233 13.9027 1.80124 13.8518 1.91939 13.7787C2.03753 13.7058 2.13127 13.6069 2.20077 13.4824C2.27018 13.3578 2.30498 13.201 2.30498 13.0119V12.9475ZM1.59643 11.7146C1.59643 11.7605 1.58951 11.8042 1.57557 11.8456C1.56164 11.8871 1.53879 11.9229 1.50685 11.9531C1.47482 11.9831 1.43181 12.0075 1.37763 12.026C1.32344 12.0447 1.25463 12.0539 1.17129 12.0539H0.704508V11.3108C0.718357 11.3108 0.739908 11.3102 0.769076 11.3086C0.798244 11.3072 0.828797 11.3065 0.860735 11.3065H1.0212C1.23516 11.3065 1.38455 11.3344 1.46928 11.3903C1.55402 11.4461 1.59643 11.5327 1.59643 11.6501V11.7146ZM1.49015 13.274C1.57211 13.2082 1.61314 13.115 1.61314 12.9948V12.9475C1.61314 12.8444 1.58111 12.7549 1.51724 12.679C1.45327 12.6032 1.33799 12.5652 1.17129 12.5652H0.704508V13.3685H0.777386C0.809323 13.3685 0.842646 13.3694 0.87744 13.3707C0.912148 13.3721 0.945471 13.3729 0.977495 13.3729H1.04622C1.26018 13.3729 1.40818 13.3399 1.49015 13.274ZM4.58913 12.316C4.58913 12.1586 4.5662 12.0246 4.52033 11.9143C4.47454 11.8042 4.40988 11.7139 4.32653 11.6437C4.24318 11.5736 4.14105 11.5221 4.02014 11.4891C3.89931 11.4562 3.76386 11.4397 3.61378 11.4397C3.47477 11.4397 3.33932 11.4498 3.20741 11.4698C3.07533 11.4898 2.97043 11.5099 2.89271 11.5299C2.83991 11.5443 2.81351 11.5757 2.81351 11.6243V11.9723C2.81351 12.001 2.82044 12.0211 2.83437 12.0324C2.84822 12.0439 2.86622 12.0497 2.88855 12.0497H2.90932L3.03439 12.0389C3.08442 12.0347 3.14068 12.0312 3.20326 12.0282C3.26575 12.0254 3.33101 12.0232 3.39913 12.0217C3.46716 12.0203 3.53458 12.0196 3.60131 12.0196C3.69851 12.0196 3.77494 12.0382 3.8305 12.0754C3.88607 12.1127 3.91385 12.1929 3.91385 12.316V12.4707H3.68882C3.33032 12.4707 3.06979 12.5287 2.90725 12.6446C2.7447 12.7606 2.66343 12.9446 2.66343 13.1966V13.2354C2.66343 13.3757 2.6836 13.4931 2.72384 13.5875C2.76409 13.6821 2.81767 13.758 2.88431 13.8154C2.95104 13.8725 3.02669 13.9134 3.11151 13.9377C3.19625 13.962 3.28453 13.9742 3.37619 13.9742C3.50126 13.9742 3.60893 13.957 3.6992 13.9227C3.78948 13.8883 3.8749 13.8411 3.95557 13.7809V13.8496C3.95557 13.8725 3.96388 13.8926 3.98058 13.9097C3.99729 13.927 4.01668 13.9355 4.03892 13.9355H4.50578C4.52794 13.9355 4.54742 13.927 4.56412 13.9097C4.58083 13.8926 4.58913 13.8725 4.58913 13.8496V12.316ZM3.76594 13.4221C3.82281 13.4036 3.87638 13.3814 3.92641 13.3556V12.8831H3.68882C3.61655 12.8831 3.55683 12.8895 3.50957 12.9024C3.46232 12.9153 3.42475 12.9346 3.39706 12.9604C3.36927 12.9861 3.3498 13.0191 3.33872 13.0592C3.32755 13.0993 3.32201 13.1451 3.32201 13.1966V13.2354C3.32201 13.327 3.34348 13.3857 3.38658 13.4114C3.42969 13.4372 3.49564 13.4501 3.58461 13.4501C3.64849 13.4501 3.7089 13.4409 3.76594 13.4221ZM7.14004 13.8453V12.4148C7.14004 12.2803 7.12966 12.1535 7.1088 12.0347C7.08794 11.9159 7.05046 11.8127 6.99628 11.7253C6.9421 11.638 6.86706 11.5685 6.77116 11.517C6.67534 11.4655 6.55235 11.4397 6.40227 11.4397C6.26889 11.4397 6.15075 11.4563 6.04801 11.4895C5.94519 11.5226 5.83682 11.5811 5.72292 11.6647V11.5606C5.72292 11.5376 5.71452 11.5174 5.69791 11.5001C5.6812 11.4828 5.66173 11.474 5.63948 11.474H5.17271C5.15038 11.474 5.13099 11.4826 5.11437 11.4998C5.09767 11.517 5.08936 11.5371 5.08936 11.5599V13.8453C5.08936 13.8683 5.09827 13.889 5.11645 13.9076C5.13445 13.9262 5.15462 13.9355 5.17686 13.9355H5.6812C5.70345 13.9355 5.72292 13.9262 5.73954 13.9077C5.75624 13.8891 5.76455 13.8684 5.76455 13.8455V12.1567C5.83682 12.1167 5.90485 12.0839 5.96882 12.0582C6.03269 12.0324 6.09518 12.0196 6.15637 12.0196C6.22025 12.0196 6.27236 12.026 6.31269 12.0389C6.35294 12.0518 6.38418 12.0739 6.40642 12.1055C6.42867 12.1368 6.44399 12.1782 6.4523 12.2296C6.46061 12.281 6.46485 12.3439 6.46485 12.4182V13.8455C6.46485 13.8684 6.47316 13.8891 6.48986 13.9077C6.50648 13.9262 6.52587 13.9355 6.5482 13.9355H7.05254C7.0747 13.9355 7.09486 13.9262 7.11295 13.9076C7.13104 13.889 7.14004 13.8683 7.14004 13.8453ZM9.19074 13.4288V13.811C9.19074 13.8425 9.18373 13.8647 9.16988 13.8775C9.15595 13.8905 9.1337 13.9012 9.10315 13.9097C9.04481 13.9241 8.96908 13.9384 8.87604 13.9528C8.78291 13.967 8.67385 13.9742 8.54878 13.9742C8.25424 13.9742 8.01874 13.8812 7.84234 13.6949C7.66586 13.5089 7.57767 13.2396 7.57767 12.8874V12.5265C7.57767 12.1743 7.66586 11.9051 7.84234 11.719C8.01874 11.5327 8.25424 11.4397 8.54878 11.4397C8.67385 11.4397 8.78291 11.4468 8.87604 11.4611C8.96908 11.4755 9.04481 11.4898 9.10315 11.5041C9.1337 11.5126 9.15595 11.5234 9.16988 11.5363C9.18373 11.5492 9.19074 11.5714 9.19074 11.6029V11.9852C9.19074 12.0082 9.18304 12.026 9.1678 12.0389C9.15248 12.0518 9.1337 12.0582 9.11155 12.0582H9.10315C9.02534 12.0497 8.95108 12.0425 8.88019 12.0368C8.8093 12.0312 8.7141 12.0282 8.59466 12.0282C8.5474 12.0282 8.503 12.0361 8.46128 12.0518C8.41956 12.0676 8.38347 12.0948 8.35291 12.1334C8.32228 12.1721 8.29804 12.2236 8.27995 12.2881C8.26186 12.3525 8.25286 12.432 8.25286 12.5265V12.8874C8.25286 12.9818 8.26186 13.0613 8.27995 13.1258C8.29804 13.1902 8.32228 13.2418 8.35291 13.2804C8.38347 13.3191 8.41956 13.3463 8.46128 13.362C8.503 13.3778 8.5474 13.3857 8.59466 13.3857C8.7141 13.3857 8.8093 13.3828 8.88019 13.3771C8.95108 13.3714 9.02534 13.3642 9.10315 13.3556H9.11155C9.1337 13.3556 9.15248 13.362 9.1678 13.375C9.18304 13.3879 9.19074 13.4057 9.19074 13.4288ZM11.5042 12.5566C11.5042 12.3847 11.4812 12.2301 11.4352 12.0927C11.3893 11.9552 11.3224 11.8385 11.2348 11.7425C11.1471 11.6466 11.0385 11.5721 10.9091 11.5192C10.7796 11.4663 10.6299 11.4397 10.46 11.4397C10.2902 11.4397 10.1406 11.4663 10.0111 11.5192C9.88161 11.5721 9.77229 11.6466 9.68323 11.7425C9.59408 11.8385 9.52657 11.9552 9.4807 12.0927C9.43465 12.2301 9.41171 12.3847 9.41171 12.5566V12.8573C9.41171 13.0291 9.43465 13.1838 9.4807 13.3213C9.52657 13.4587 9.59408 13.5754 9.68323 13.6714C9.77229 13.7674 9.88161 13.8418 10.0111 13.8948C10.1406 13.9477 10.2902 13.9742 10.46 13.9742C10.6299 13.9742 10.7796 13.9477 10.9091 13.8948C11.0385 13.8418 11.1471 13.7674 11.2348 13.6714C11.3224 13.5754 11.3893 13.4587 11.4352 13.3213C11.4812 13.1838 11.5042 13.0291 11.5042 12.8573V12.5566ZM10.46 13.3857C10.7059 13.3857 10.8289 13.2096 10.8289 12.8573V12.5566C10.8289 12.2072 10.7059 12.0324 10.46 12.0324C10.3384 12.0324 10.2459 12.0762 10.1824 12.1635C10.1188 12.2509 10.087 12.3819 10.087 12.5566V12.8573C10.087 13.032 10.1188 13.1637 10.1824 13.2525C10.2459 13.3413 10.3384 13.3857 10.46 13.3857ZM13.9841 13.8453V12.4148C13.9841 12.2803 13.9735 12.1535 13.9528 12.0347C13.932 11.9159 13.8944 11.8127 13.8401 11.7253C13.786 11.638 13.711 11.5685 13.6152 11.517C13.5193 11.4655 13.3963 11.4397 13.2463 11.4397C13.1129 11.4397 12.9948 11.4563 12.892 11.4895C12.7891 11.5226 12.6808 11.5811 12.5669 11.6647V11.5606C12.5669 11.5376 12.5586 11.5174 12.5418 11.5001C12.5252 11.4828 12.5057 11.474 12.4835 11.474H12.0167C11.9944 11.474 11.975 11.4826 11.9583 11.4998C11.9417 11.517 11.9333 11.5371 11.9333 11.5599V13.8453C11.9333 13.8683 11.9423 13.889 11.9604 13.9076C11.9785 13.9262 11.9986 13.9355 12.0209 13.9355H12.5252C12.5474 13.9355 12.5669 13.9262 12.5836 13.9077C12.6002 13.8891 12.6086 13.8684 12.6086 13.8455V12.1567C12.6808 12.1167 12.7489 12.0839 12.8128 12.0582C12.8767 12.0324 12.9392 12.0196 13.0004 12.0196C13.0643 12.0196 13.1164 12.026 13.1566 12.0389C13.1969 12.0518 13.2282 12.0739 13.2505 12.1055C13.2727 12.1368 13.2879 12.1782 13.2963 12.2296C13.3046 12.281 13.3088 12.3439 13.3088 12.4182V13.8455C13.3088 13.8684 13.3171 13.8891 13.3338 13.9077C13.3505 13.9262 13.3699 13.9355 13.3922 13.9355H13.8965C13.9187 13.9355 13.9389 13.9262 13.957 13.9076C13.975 13.889 13.9841 13.8683 13.9841 13.8453ZM15.8015 13.5225V13.855C15.8015 13.9032 15.7751 13.9317 15.7223 13.9401C15.6584 13.9515 15.6028 13.96 15.5556 13.9657C15.5084 13.9714 15.4541 13.9742 15.3931 13.9742C15.2797 13.9742 15.1796 13.9649 15.0926 13.9463C15.0056 13.9277 14.933 13.8912 14.875 13.8368C14.8171 13.7823 14.7729 13.7071 14.7425 13.6112C14.7122 13.5153 14.6969 13.3915 14.6969 13.2396V11.9939L14.3635 11.938C14.3412 11.9322 14.3211 11.9215 14.303 11.9058C14.285 11.8901 14.276 11.8707 14.276 11.8478V11.5642C14.276 11.5414 14.285 11.5206 14.303 11.5019C14.3211 11.4834 14.3412 11.474 14.3635 11.474H14.6969V11.1217C14.6969 11.0988 14.7053 11.0803 14.7218 11.0659C14.7382 11.0516 14.7577 11.0416 14.7799 11.0358L15.2852 10.9457H15.2976C15.3197 10.9457 15.3377 10.9521 15.3515 10.9649C15.3653 10.9779 15.3722 10.9958 15.3722 11.0186V11.474H15.714C15.7362 11.474 15.7557 11.4827 15.7724 11.5C15.7891 11.5173 15.7974 11.5376 15.7974 11.5606V11.9115C15.7974 11.9347 15.7891 11.9548 15.7724 11.9721C15.7557 11.9894 15.7362 11.9981 15.714 11.9981H15.3722V13.2482C15.3722 13.3341 15.3792 13.3893 15.3931 13.4136C15.4069 13.4379 15.4458 13.4501 15.5097 13.4501H15.714C15.7724 13.4501 15.8015 13.4742 15.8015 13.5225ZM18.0272 12.316C18.0272 12.1586 18.0044 12.0246 17.9584 11.9143C17.9126 11.8042 17.8481 11.7139 17.7647 11.6437C17.6814 11.5736 17.5792 11.5221 17.4583 11.4891C17.3375 11.4562 17.202 11.4397 17.0519 11.4397C16.9129 11.4397 16.7775 11.4498 16.6456 11.4698C16.5135 11.4898 16.4086 11.5099 16.3309 11.5299C16.2779 11.5443 16.2517 11.5757 16.2517 11.6243V11.9723C16.2517 12.001 16.2585 12.0211 16.2724 12.0324C16.2864 12.0439 16.3044 12.0497 16.3266 12.0497H16.3475L16.4726 12.0389C16.5226 12.0347 16.5788 12.0312 16.6413 12.0282C16.7039 12.0254 16.7692 12.0232 16.8373 12.0217C16.9053 12.0203 16.9727 12.0196 17.0394 12.0196C17.1367 12.0196 17.2131 12.0382 17.2687 12.0754C17.3242 12.1127 17.352 12.1929 17.352 12.316V12.4707H17.127C16.7684 12.4707 16.508 12.5287 16.3454 12.6446C16.1829 12.7606 16.1016 12.9446 16.1016 13.1966V13.2354C16.1016 13.3757 16.1217 13.4931 16.162 13.5875C16.2022 13.6821 16.2558 13.758 16.3225 13.8154C16.3892 13.8725 16.4649 13.9134 16.5497 13.9377C16.6344 13.962 16.7226 13.9742 16.8144 13.9742C16.9394 13.9742 17.047 13.957 17.1374 13.9227C17.2276 13.8883 17.313 13.8411 17.3937 13.7809V13.8496C17.3937 13.8725 17.402 13.8926 17.4188 13.9097C17.4354 13.927 17.4548 13.9355 17.4771 13.9355H17.944C17.9661 13.9355 17.9856 13.927 18.0023 13.9097C18.0189 13.8926 18.0272 13.8725 18.0272 13.8496V12.316ZM17.2041 13.4221C17.261 13.4036 17.3145 13.3814 17.3646 13.3556V12.8831H17.127C17.0547 12.8831 16.995 12.8895 16.9477 12.9024C16.9005 12.9153 16.8629 12.9346 16.8352 12.9604C16.8073 12.9861 16.7879 13.0191 16.7769 13.0592C16.7657 13.0993 16.7602 13.1451 16.7602 13.1966V13.2354C16.7602 13.327 16.7816 13.3857 16.8247 13.4114C16.8678 13.4372 16.9338 13.4501 17.0228 13.4501C17.0866 13.4501 17.147 13.4409 17.2041 13.4221ZM20.078 13.811V13.4288C20.078 13.4057 20.0703 13.3879 20.055 13.375C20.0397 13.362 20.021 13.3556 19.9988 13.3556H19.9905C19.9127 13.3642 19.8383 13.3714 19.7674 13.3771C19.6966 13.3828 19.6014 13.3857 19.482 13.3857C19.4346 13.3857 19.3902 13.3778 19.3486 13.362C19.3069 13.3463 19.2707 13.3191 19.2402 13.2804C19.2096 13.2418 19.1853 13.1902 19.1673 13.1258C19.1491 13.0613 19.1402 12.9818 19.1402 12.8874V12.5265C19.1402 12.432 19.1491 12.3525 19.1673 12.2881C19.1853 12.2236 19.2096 12.1721 19.2402 12.1334C19.2707 12.0948 19.3069 12.0676 19.3486 12.0518C19.3902 12.0361 19.4346 12.0282 19.482 12.0282C19.6014 12.0282 19.6966 12.0312 19.7674 12.0368C19.8383 12.0425 19.9127 12.0497 19.9905 12.0582H19.9988C20.021 12.0582 20.0397 12.0518 20.055 12.0389C20.0703 12.026 20.078 12.0082 20.078 11.9852V11.6029C20.078 11.5714 20.0711 11.5492 20.0571 11.5363C20.0431 11.5234 20.021 11.5126 19.9905 11.5041C19.9321 11.4898 19.8563 11.4755 19.7633 11.4611C19.6701 11.4468 19.5612 11.4397 19.4361 11.4397C19.1414 11.4397 18.9061 11.5327 18.7296 11.719C18.5531 11.9051 18.4649 12.1743 18.4649 12.5265V12.8874C18.4649 13.2396 18.5531 13.5089 18.7296 13.6949C18.9061 13.8812 19.1414 13.9742 19.4361 13.9742C19.5612 13.9742 19.6701 13.967 19.7633 13.9528C19.8563 13.9384 19.9321 13.9241 19.9905 13.9097C20.021 13.9012 20.0431 13.8905 20.0571 13.8775C20.0711 13.8647 20.078 13.8425 20.078 13.811ZM21.8744 13.5225V13.855C21.8744 13.9032 21.8479 13.9317 21.7952 13.9401C21.7312 13.9515 21.6757 13.96 21.6285 13.9657C21.5812 13.9714 21.527 13.9742 21.466 13.9742C21.3526 13.9742 21.2524 13.9649 21.1655 13.9463C21.0784 13.9277 21.0059 13.8912 20.9479 13.8368C20.89 13.7823 20.8457 13.7071 20.8153 13.6112C20.7851 13.5153 20.7698 13.3915 20.7698 13.2396V11.9939L20.4364 11.938C20.4141 11.9322 20.394 11.9215 20.3759 11.9058C20.3578 11.8901 20.3488 11.8707 20.3488 11.8478V11.5642C20.3488 11.5414 20.3578 11.5206 20.3759 11.5019C20.394 11.4834 20.4141 11.474 20.4364 11.474H20.7698V11.1217C20.7698 11.0988 20.7781 11.0803 20.7947 11.0659C20.8111 11.0516 20.8305 11.0416 20.8527 11.0358L21.358 10.9457H21.3705C21.3926 10.9457 21.4106 10.9521 21.4242 10.9649C21.4382 10.9779 21.4451 10.9958 21.4451 11.0186V11.474H21.7869C21.8091 11.474 21.8285 11.4827 21.8452 11.5C21.8619 11.5173 21.8703 11.5376 21.8703 11.5606V11.9115C21.8703 11.9347 21.8619 11.9548 21.8452 11.9721C21.8285 11.9894 21.8091 11.9981 21.7869 11.9981H21.4451V13.2482C21.4451 13.3341 21.452 13.3893 21.466 13.4136C21.4798 13.4379 21.5187 13.4501 21.5826 13.4501H21.7869C21.8452 13.4501 21.8744 13.4742 21.8744 13.5225Z" fill="var(--fill-0, #005697)"/>
</g>
</svg>
