<svg preserveAspectRatio="none" width="100%" height="100%" overflow="visible" style="display: block;" viewBox="0 0 750 94.1043" fill="none" xmlns="http://www.w3.org/2000/svg">
<path id="Line" d="M0.500024 77.1476L14.5887 88.0565C16.5881 89.6046 18.7988 90.8586 21.1535 91.7804C29.8841 95.198 39.7706 93.7487 47.1529 87.969L47.8755 87.4032C51.1694 84.8243 53.8462 81.5428 55.7107 77.7979L66.7916 55.5418C69.4012 50.3002 74.7523 46.9868 80.6075 46.9868C85.9623 46.9868 90.9344 49.7624 93.7448 54.3205L97.7251 60.7761C102.73 68.8931 113.446 71.2808 121.423 66.0564C122.754 65.1846 124.201 64.5048 125.722 64.0369L134.722 61.2682C138.508 60.1032 142.557 60.1032 146.344 61.2682L147.352 61.5782C153.685 63.5268 160.577 61.8376 165.292 57.1812L168.389 54.1221C173.685 48.891 182.204 48.8934 187.498 54.1276C190.861 57.453 195.711 58.7912 200.304 57.6608C202.961 57.007 205.548 56.3701 208.946 55.5339L215.536 53.9119C221.742 52.3845 227.491 49.3923 232.303 45.1858L242.577 36.2036C244.362 34.6437 246.483 33.5175 248.774 32.9132C255.537 31.1298 262.651 34.1367 266.085 40.2297L266.704 41.3292C270.948 48.8595 280.165 52.0083 288.129 48.6481L292.859 46.6525L305.124 42.3397C309.388 40.8408 313.874 40.0751 318.393 40.0751H326.32C328.948 40.0751 331.57 39.816 334.148 39.3016L350.048 36.1287L356.063 35.4885C360.903 34.9732 365.052 31.7998 366.817 27.2626L367.007 26.7716C369.671 19.9217 377.63 16.8234 384.224 20.0692C384.955 20.4291 385.649 20.8593 386.297 21.3539L390.489 24.5562C396.814 29.3878 405.337 30.2001 412.462 26.6502L415.13 25.3206C416.266 24.7546 417.518 24.4601 418.787 24.4601C421.282 24.4601 423.642 25.5971 425.198 27.549L429.075 32.4142C433.464 37.9217 440.31 40.8779 447.329 40.2961L447.541 40.2785C449.171 40.1434 450.781 39.8226 452.339 39.3225L459.464 37.0351C461.344 36.4316 463.266 35.9682 465.214 35.6485L480.034 33.2168C484.109 32.5481 487.823 30.4778 490.535 27.363C493.017 24.5117 496.346 22.5286 500.035 21.7031L511.994 19.0274L529.456 15.6343C531.35 15.2662 533.275 15.0809 535.205 15.0809H537.63C539.762 15.0809 542.337 15.6488 544.345 16.362C549.486 18.1874 554.657 17.0511 559.538 14.6154C561.145 13.8136 562.842 13.0775 564.444 12.5883C567.492 11.6573 570.541 13.0229 573.198 14.7835L583.079 21.3313L584.18 22.052C593.669 28.2667 605.846 28.623 615.682 22.9738L616.255 22.6213C623.07 18.4295 631.28 17.1459 639.049 19.0579C645.058 20.5369 651.378 20.1134 657.136 17.8459L658.383 17.3546C660.554 16.5 662.806 15.8704 665.105 15.4757L678.926 13.1023C682.709 12.4527 686.362 11.2246 689.863 9.65236C691.69 8.83204 693.289 8.17641 693.716 8.17641C694.104 8.17641 695.535 7.27283 697.248 6.08092C701.272 3.282 705.994 1.59899 710.896 1.59899H712.037C713.356 1.59899 714.67 1.41404 715.938 1.04953C719.821 -0.0662893 723.996 0.533797 727.407 2.69808L728.463 3.3681C734.797 7.38644 743.021 6.75134 748.662 1.80822L749.5 1.07431" stroke="var(--stroke-0, #F79009)" stroke-linecap="round" stroke-linejoin="round"/>
</svg>
