<svg preserveAspectRatio="none" width="100%" height="100%" overflow="visible" style="display: block;" viewBox="0 0 21.268 21.2652" fill="none" xmlns="http://www.w3.org/2000/svg">
<g id="Interac">
<path id="Vector" fill-rule="evenodd" clip-rule="evenodd" d="M21.268 19.4945C21.268 19.9641 21.0814 20.4145 20.7494 20.7465C20.4173 21.0786 19.9669 21.2652 19.4973 21.2652H1.77267C1.53997 21.2654 1.30951 21.2198 1.09445 21.131C0.879391 21.0421 0.683957 20.9117 0.519324 20.7473C0.35469 20.5828 0.224085 20.3875 0.134975 20.1726C0.0458659 19.9576 -1.50242e-07 19.7272 0 19.4945V1.77066C-1.50242e-07 1.53796 0.0458659 1.30755 0.134975 1.09259C0.224085 0.877634 0.35469 0.682349 0.519324 0.517902C0.683957 0.353455 0.879391 0.223072 1.09445 0.134206C1.30951 0.0453409 1.53997 -0.000263283 1.77267 1.14335e-06H19.4961C19.9657 1.14335e-06 20.4161 0.186552 20.7482 0.518614C21.0802 0.850676 21.2668 1.30105 21.2668 1.77066L21.268 19.4945Z" fill="var(--fill-0, #EDAA00)"/>
<path id="Vector_2" d="M11.8751 10.8622V7.05406L12.8694 6.81864V7.31724C12.8694 7.31724 13.1266 6.66089 13.7238 6.50837C13.9077 6.46209 14.0003 6.48986 14.0003 6.48986V7.46131C13.8213 7.46375 13.6445 7.50064 13.4795 7.56996C13.1109 7.71524 12.9258 8.03315 12.9258 8.51605V10.6187L11.8751 10.8622ZM6.63513 12.1004C6.63513 12.1004 6.47416 11.859 6.47416 11.001V9.1052L5.96228 9.22593V8.44563L6.47457 8.3249V7.47338L7.53173 7.22388V8.07339L8.27862 7.89633V8.67702L7.53173 8.85449V10.7861C7.53173 11.6638 7.76473 11.8324 7.76473 11.8324L6.63513 12.1004ZM8.38889 9.83519C8.38889 9.15792 8.48547 8.66415 8.69231 8.28506C8.93819 7.83516 9.34262 7.54219 9.93097 7.40819C11.0903 7.1446 11.5085 7.83113 11.492 8.75107C11.4867 9.07985 11.4879 9.24041 11.4879 9.24041L9.44524 9.7205V9.7535C9.44524 10.3974 9.58046 10.702 9.98771 10.6151C10.3394 10.541 10.4372 10.3205 10.465 10.0485C10.4698 10.0038 10.4714 9.89234 10.4714 9.89234L11.4288 9.66296C11.4288 9.66296 11.4312 9.74143 11.4288 9.82875C11.4199 10.1946 11.3137 11.1016 9.98368 11.4155C8.7241 11.7145 8.38768 10.9451 8.38768 9.83519H8.38889ZM9.97201 8.11725C9.63358 8.19412 9.45611 8.52612 9.44886 9.07623L10.4766 8.83155C10.4787 8.8066 10.4787 8.75107 10.4787 8.66576C10.4766 8.25086 10.3483 8.03194 9.97241 8.11725H9.97201ZM17.5762 7.60819C17.5359 6.44841 17.8369 5.52767 19.1307 5.2339C19.9565 5.04638 20.2692 5.26046 20.4277 5.46771C20.5802 5.6657 20.639 5.93251 20.639 6.30636V6.37557L19.6257 6.61703V6.47578C19.6257 6.03311 19.505 5.8641 19.183 5.94458C18.8003 6.04076 18.6458 6.40374 18.6458 7.12649V7.46332C18.6458 8.19774 18.7464 8.53416 19.1871 8.44161C19.5702 8.36112 19.6225 8.02631 19.6297 7.73173C19.6297 7.68546 19.6325 7.53736 19.6325 7.53736L20.6442 7.29913V7.45648C20.6414 8.41907 20.134 9.02592 19.1826 9.24726C17.8736 9.55471 17.6168 8.79694 17.5766 7.60819H17.5762ZM14.0763 9.23156C14.0763 8.34945 14.5938 8.07057 15.3717 7.74904C16.0707 7.4597 16.0856 7.31603 16.0888 7.06492C16.0924 6.85365 15.9947 6.67216 15.6462 6.76109C15.3262 6.84158 15.2413 7.07418 15.2244 7.25929C15.2185 7.32431 15.2164 7.38961 15.218 7.45487L14.2373 7.68626C14.2307 7.4908 14.2535 7.29546 14.3049 7.10677C14.4618 6.5792 14.9274 6.22426 15.7299 6.03875C16.7729 5.79729 17.121 6.25605 17.1226 6.96834V8.65489C17.1226 9.4706 17.274 9.58972 17.274 9.58972L16.311 9.81789C16.2577 9.70654 16.2144 9.59073 16.1814 9.47181C16.1814 9.47181 15.9709 10.0026 15.2441 10.174C14.4795 10.3535 14.0771 9.88107 14.0771 9.23196L14.0763 9.23156ZM16.0832 8.02751C15.9208 8.14133 15.7493 8.2416 15.5705 8.32732C15.2486 8.48467 15.1041 8.67783 15.1041 8.97562C15.1041 9.23357 15.2651 9.40339 15.5548 9.33096C15.8667 9.25289 16.0832 8.96194 16.0832 8.55831V8.02751ZM1.10908 14.7697C0.999182 14.7695 0.891379 14.7396 0.797017 14.6833C0.702654 14.6269 0.625224 14.5462 0.572874 14.4496C0.520524 14.353 0.495191 14.244 0.499542 14.1342C0.503894 14.0244 0.537769 13.9178 0.597601 13.8256L0.60404 13.8172L0.61571 13.8143L2.05236 13.4751V14.5669L2.02982 14.5721C1.70386 14.6506 1.31431 14.7395 1.23383 14.756C1.19262 14.7652 1.1505 14.7698 1.10827 14.7697H1.10908ZM1.10908 16.1665C0.947626 16.1665 0.792756 16.1025 0.678403 15.9885C0.56405 15.8745 0.49954 15.7199 0.499008 15.5584C0.498364 15.4406 0.532675 15.3252 0.597601 15.2268L0.60404 15.216L0.61571 15.2136L2.05236 14.8743V15.9661L2.02982 15.9721C1.70386 16.0502 1.31431 16.1407 1.23383 16.1564C1.19247 16.1645 1.15042 16.1686 1.10827 16.1685L1.10908 16.1665ZM1.10908 17.5657C0.947241 17.5656 0.792068 17.5012 0.677669 17.3868C0.56327 17.2723 0.499007 17.1171 0.499008 16.9552C0.498364 16.8374 0.532675 16.722 0.597601 16.6236L0.60404 16.6124L2.05276 16.2711V17.3629L2.03022 17.3685C1.68615 17.4514 1.30345 17.5379 1.23423 17.5536C1.19284 17.5615 1.15081 17.5656 1.10868 17.5657" fill="var(--fill-0, #231F20)"/>
<path id="Vector_3" d="M0.940053 13.4316L0.939651 7.32328L2.05315 7.0601V13.1681L0.940053 13.4316V13.4316Z" fill="var(--fill-0, #231F20)"/>
<path id="Vector_4" d="M3.71395 12.9121C3.70961 12.7327 3.63531 12.5622 3.50692 12.4369C3.37853 12.3115 3.20623 12.2414 3.02682 12.2414C2.8474 12.2414 2.6751 12.3115 2.54671 12.4369C2.41832 12.5622 2.34402 12.7327 2.33968 12.9121V18.6217C2.34053 19.1147 2.53675 19.5874 2.88538 19.9361C3.234 20.2848 3.7066 20.4811 4.19967 20.482C4.7196 20.482 6.14417 20.4796 6.14417 20.4796V15.4417C6.14443 15.2936 6.10809 15.1478 6.03838 15.0171C5.96866 14.8865 5.86773 14.775 5.74457 14.6928L4.01094 13.5153V16.189C4.01198 16.209 4.00894 16.2291 4.002 16.2479C3.99507 16.2667 3.98437 16.2839 3.97057 16.2984C3.95677 16.3129 3.94016 16.3245 3.92174 16.3324C3.90333 16.3403 3.88349 16.3444 3.86345 16.3444C3.84341 16.3444 3.82357 16.3403 3.80516 16.3324C3.78674 16.3245 3.77013 16.3129 3.75633 16.2984C3.74253 16.2839 3.73184 16.2667 3.7249 16.2479C3.71796 16.2291 3.71492 16.209 3.71596 16.189C3.71596 16.1604 3.71234 13.265 3.71234 12.9121H3.71395ZM4.64193 8.65247C4.4314 8.70112 4.23384 8.79461 4.06272 8.92656C3.8916 9.05851 3.75095 9.22582 3.65037 9.41707V8.98929L2.64794 9.22672V11.9684C2.82376 11.899 3.01534 11.8796 3.20152 11.9122C3.38771 11.9448 3.56128 12.0282 3.70309 12.1531V10.3825C3.70309 9.95873 3.91476 9.61989 4.21577 9.55349C4.44314 9.50359 4.63228 9.58488 4.63228 9.9885V12.5716L5.68783 12.3238V9.59172C5.68783 8.92893 5.4335 8.46494 4.64153 8.65247H4.64193ZM19.9883 4.74294C19.8591 4.74302 19.7328 4.70479 19.6254 4.63309C19.5179 4.56139 19.4341 4.45944 19.3846 4.34012C19.3351 4.22081 19.3221 4.0895 19.3472 3.96279C19.3723 3.83608 19.4345 3.71966 19.5258 3.62826C19.617 3.53686 19.7334 3.47459 19.8601 3.44931C19.9867 3.42403 20.1181 3.43688 20.2374 3.48624C20.3568 3.5356 20.4589 3.61925 20.5307 3.72662C20.6025 3.83398 20.6409 3.96023 20.641 4.08941C20.6407 4.26239 20.5718 4.42818 20.4495 4.55046C20.3271 4.67274 20.1613 4.74152 19.9883 4.74173V4.74294ZM19.9883 3.51797C19.8754 3.51797 19.765 3.55145 19.6711 3.61418C19.5772 3.67691 19.504 3.76607 19.4608 3.87039C19.4175 3.97471 19.4062 4.0895 19.4282 4.20026C19.4502 4.31102 19.5045 4.41277 19.5844 4.49265C19.6642 4.57252 19.7659 4.62694 19.8766 4.64902C19.9874 4.6711 20.1022 4.65985 20.2065 4.61669C20.3109 4.57353 20.4001 4.5004 20.4629 4.40655C20.5257 4.3127 20.5592 4.20233 20.5593 4.08941C20.5591 3.93799 20.4989 3.79283 20.3919 3.68572C20.2848 3.57861 20.1397 3.51829 19.9883 3.51797" fill="var(--fill-0, #231F20)"/>
<path id="Vector_5" d="M19.7505 3.70108H20.0322C20.1444 3.70108 20.2334 3.75701 20.2334 3.90551C20.2334 4.00893 20.1875 4.08861 20.1006 4.10229C20.1811 4.11034 20.2213 4.1538 20.2249 4.26608C20.2249 4.31638 20.2273 4.37916 20.2298 4.42705C20.2297 4.44072 20.2332 4.45418 20.2398 4.46615C20.2464 4.47812 20.256 4.48821 20.2676 4.49546H20.1243C20.1099 4.47482 20.1023 4.4502 20.1026 4.42503C20.0978 4.37715 20.0986 4.33248 20.097 4.27453C20.097 4.18761 20.0684 4.14938 19.9807 4.14938H19.8796V4.49546H19.7521L19.7505 3.70108ZM19.9794 4.05601C19.9968 4.05761 20.0142 4.05534 20.0305 4.04936C20.0468 4.04338 20.0616 4.03384 20.0738 4.02143C20.086 4.00902 20.0952 3.99406 20.1009 3.97763C20.1066 3.9612 20.1085 3.94371 20.1066 3.92643C20.1066 3.84152 20.0704 3.79726 19.9859 3.79726H19.8796V4.05601H19.9794Z" fill="var(--fill-0, #231F20)"/>
</g>
</svg>
