<svg preserveAspectRatio="none" width="100%" height="100%" overflow="visible" style="display: block;" viewBox="0 0 26 11" fill="none" xmlns="http://www.w3.org/2000/svg">
<path id="Citadele" d="M0.379031 3.80791C0.144219 3.80791 0.121063 3.73166 0.121063 3.17591V3.08108C0.121063 2.52343 0.144219 2.44794 0.379031 2.44794H5.74844C5.98406 2.44794 6.00722 2.52343 6.00722 3.08032V3.17516C6.00722 3.73166 5.98366 3.80753 5.74844 3.80753H0.379031V3.80791V3.80791ZM0.379031 1.36073C0.144219 1.36073 0.121063 1.28486 0.121063 0.728351V0.633514C0.121063 0.0751109 0.144219 0 0.379031 0H5.74844C5.98406 0 6.00722 0.0758696 6.00722 0.633514V0.728351C6.00722 1.28486 5.98366 1.36073 5.74844 1.36073H0.379031ZM1.18341 8.62831C1.18341 7.70725 1.664 7.20081 2.38712 7.20081C2.66012 7.20081 2.87869 7.27517 3.15209 7.40225C3.25122 7.44929 3.33328 7.43032 3.46328 7.14239L3.55794 6.94665C3.65137 6.71069 3.65828 6.6132 3.54494 6.56085C3.20978 6.37763 2.691 6.26192 2.24291 6.26192C0.966063 6.26192 0 7.2065 0 8.62831C0 10.0497 0.966063 10.9943 2.2425 10.9943C2.691 10.9943 3.22156 10.879 3.55794 10.6946C3.67006 10.6434 3.66275 10.5448 3.57013 10.3088L3.47669 10.1021C3.34669 9.81377 3.26422 9.79746 3.16428 9.84223C2.89087 9.97007 2.66053 10.0444 2.38712 10.0444C1.664 10.0444 1.18463 9.54899 1.18463 8.62831H1.18381H1.18341ZM16.3975 10.7766C16.3975 10.9017 16.3471 10.9359 15.9681 10.9359H15.9303C15.5309 10.9359 15.4753 10.9188 15.444 10.8274C15.4231 10.7653 15.4064 10.7021 15.394 10.6381C15.1828 10.8741 14.9281 11 14.5401 11C13.5992 11 13.0337 10.3551 13.0337 9.31796C13.0337 8.19699 13.663 7.53312 14.5962 7.53312C14.859 7.53312 15.1011 7.60899 15.288 7.74708V6.29037C15.288 6.19288 15.3002 6.15229 15.8242 6.15229H15.862C16.3471 6.15229 16.3971 6.19288 16.3971 6.29037V10.7766H16.3975ZM15.2884 8.56496C15.2243 8.49957 15.1464 8.44738 15.0595 8.41172C14.9726 8.37605 14.8787 8.3577 14.7838 8.35783C14.3662 8.35783 14.168 8.69659 14.168 9.31872C14.168 9.67531 14.2488 9.90178 14.3662 10.0205C14.4718 10.143 14.6343 10.1825 14.7908 10.1825C14.9837 10.1825 15.1328 10.1381 15.2019 10.0558C15.2632 9.99283 15.288 9.89533 15.288 9.67076V8.56458L15.2888 8.56496H15.2884ZM22.0508 10.7993C22.0508 10.8961 22.0009 10.9359 21.5146 10.9359H21.4772C20.954 10.9359 20.943 10.8961 20.943 10.7993V6.29037C20.943 6.19288 20.954 6.15229 21.4768 6.15229H21.5142C22.0001 6.15229 22.0504 6.19288 22.0504 6.29037V10.7993H22.0508ZM18.1492 9.60058C18.211 10.0091 18.4848 10.2056 18.915 10.2056C19.2461 10.2056 19.5561 10.1374 19.9184 9.99283C19.994 9.96438 20.0618 9.99283 20.1419 10.2216L20.1988 10.3498C20.2788 10.5858 20.2719 10.6381 20.1858 10.6832C19.7551 10.9074 19.307 10.9992 18.8086 10.9992C17.7068 10.9992 17.0158 10.3733 17.0158 9.30165C17.0158 8.25958 17.6507 7.53312 18.7407 7.53312C19.8189 7.53312 20.3722 8.24782 20.3722 9.23792C20.3722 9.56644 20.3417 9.60058 20.217 9.60058H18.1492ZM19.2632 8.96213C19.2461 8.61769 19.0966 8.31724 18.7289 8.31724C18.41 8.31724 18.1793 8.54106 18.1358 8.96213H19.2632ZM23.7766 9.60058C23.8375 10.0091 24.1122 10.2056 24.5428 10.2056C24.871 10.2056 25.1838 10.1374 25.545 9.99283C25.6189 9.96438 25.6888 9.99283 25.7692 10.2216L25.8257 10.3498C25.9057 10.5858 25.8993 10.6381 25.8135 10.6832C25.3829 10.9074 24.934 10.9992 24.4351 10.9992C23.333 10.9992 22.6428 10.3733 22.6428 9.30165C22.6428 8.25958 23.2765 7.53312 24.3669 7.53312C25.4459 7.53312 26 8.24782 26 9.23792C26 9.56644 25.9687 9.60058 25.844 9.60058H23.7762H23.7766ZM24.8918 8.96213C24.8714 8.61769 24.7232 8.31724 24.3555 8.31724C24.0378 8.31724 23.8063 8.54106 23.7632 8.96213H24.8918V8.96213ZM11.2608 8.58772C11.2047 8.51855 11.1323 8.46238 11.0491 8.42357C10.966 8.38475 10.8744 8.36434 10.7815 8.3639C10.3638 8.3639 10.1652 8.70342 10.1652 9.30734C10.1652 9.81946 10.3131 10.2 10.7681 10.2C10.9371 10.2 11.0606 10.1597 11.1487 10.0782C11.2292 9.99852 11.2608 9.88851 11.2608 9.648V8.58772ZM12.3821 10.7766C12.3821 10.9017 12.3329 10.9359 11.9531 10.9359H11.9019C11.5038 10.9359 11.4477 10.9188 11.4168 10.8274C11.3955 10.7655 11.3788 10.7022 11.3669 10.6381C11.1556 10.8741 10.8997 11 10.5129 11C9.60984 11 9.03013 10.3657 9.03013 9.33086C9.03013 8.17954 9.74675 7.53312 10.5942 7.53312C10.9371 7.53312 11.2352 7.66666 11.3977 7.85633L11.4168 7.71218C11.4221 7.64389 11.442 7.59837 11.8515 7.59837H11.8958C12.3199 7.59837 12.3813 7.62606 12.3813 7.73114V10.7766H12.3821V10.7766ZM7.1825 6.62534C7.59931 6.62534 7.6245 6.63027 7.6245 6.75698V7.59761H8.34153C8.44066 7.59761 8.47153 7.61468 8.47153 7.93106V7.97772C8.47153 8.29334 8.44066 8.31155 8.34153 8.31155H7.6245V9.82022C7.6245 10.0729 7.67366 10.2056 7.92269 10.2056C8.05269 10.2056 8.16644 10.1825 8.27856 10.1487C8.39637 10.1066 8.44106 10.1597 8.5215 10.4238L8.54019 10.4871C8.62712 10.7766 8.60153 10.7993 8.49063 10.8502C8.26638 10.948 7.96656 11 7.68666 11C6.80225 11 6.55322 10.5858 6.55322 9.86499V8.31155H6.13559C6.02997 8.31155 6.00356 8.29258 6.00356 7.97772V7.93106C6.00356 7.61468 6.02956 7.59837 6.13559 7.59837H6.60278C6.65356 7.3279 6.73969 6.94703 6.79616 6.75698C6.82744 6.64734 6.84613 6.62534 7.1825 6.62534V6.62534ZM4.86525 7.59837C5.35153 7.59837 5.39459 7.63745 5.39459 7.73608V10.7993C5.39459 10.9017 5.35153 10.9359 4.86525 10.9359H4.83356C4.29853 10.9359 4.28634 10.9017 4.28634 10.7993V7.73608C4.28634 7.63745 4.29853 7.59837 4.83356 7.59837H4.86525ZM4.83356 6.10108C5.18456 6.10108 5.43888 6.35411 5.43888 6.64165C5.43731 6.71371 5.42041 6.78477 5.38917 6.85067C5.35792 6.91658 5.31295 6.97603 5.25688 7.02556C5.14313 7.12608 4.99078 7.18071 4.83356 7.17729C4.48663 7.17729 4.22947 6.92427 4.22947 6.64165C4.22947 6.35335 4.48663 6.10108 4.83356 6.10108V6.10108Z" fill="var(--fill-0, #EE293D)"/>
</svg>
