<svg preserveAspectRatio="none" width="100%" height="100%" overflow="visible" style="display: block;" viewBox="0 0 13.93 14.6722" fill="none" xmlns="http://www.w3.org/2000/svg">
<path id="Forbrugsforeningen" d="M10.2891 0.341797C12.6151 0.961297 13.6228 2.50982 13.8633 5.69043C13.9372 6.66614 13.9299 7.32006 13.9297 7.33594C13.9297 7.33594 13.9382 7.99464 13.8633 8.98242C13.5359 13.3118 11.7904 14.6193 7.22656 14.6719C7.15635 14.6723 6.75894 14.6723 6.68848 14.6719C5.897 14.6626 5.19268 14.6151 4.56348 14.5215C4.58543 14.5213 4.60673 14.5211 4.62891 14.5195C5.45468 14.4722 6.60481 13.8351 7.28906 12.3535C7.58436 11.713 7.66612 10.576 7.66797 10.5498V8.08887H10.2891V5.65625H7.66797C7.66797 5.65625 7.66689 5.65296 7.66602 5.64844L7.66504 5.64551C7.66364 5.64119 7.66335 5.63594 7.66113 5.62891C7.66092 5.62701 7.6604 5.62357 7.66016 5.62109C7.65829 5.61408 7.65659 5.60695 7.65527 5.59766C7.65417 5.5938 7.65322 5.5885 7.65234 5.58398C7.6506 5.57491 7.64986 5.56551 7.64844 5.55469C7.64715 5.54951 7.64691 5.54295 7.64648 5.53711C7.64472 5.52555 7.64303 5.51419 7.6416 5.50098C7.64117 5.49451 7.64125 5.48708 7.64062 5.48047C7.63974 5.46637 7.63889 5.45227 7.63867 5.43652C7.63845 5.42904 7.63792 5.42068 7.6377 5.41309C7.63769 5.39659 7.63674 5.3804 7.6377 5.3623C7.6377 5.35485 7.63942 5.3459 7.63965 5.33789C7.64009 5.31841 7.64049 5.29892 7.64258 5.27734C7.64301 5.27095 7.64408 5.26367 7.64453 5.25684C7.64662 5.23327 7.64969 5.20892 7.65332 5.18359C7.65379 5.17893 7.65484 5.17349 7.65527 5.16895C7.65966 5.14045 7.66465 5.11152 7.6709 5.08105C7.6709 5.08039 7.67068 5.07912 7.6709 5.07812C7.71519 4.8655 7.81084 4.6041 8.00098 4.30762C8.51244 3.51182 9.96464 3.54872 10.2432 3.56348C10.2722 3.56523 10.2886 3.56641 10.2891 3.56641V0.341797ZM4.61133 9.79688C4.61484 9.93252 4.58003 10.3942 4.18262 10.8906C3.67151 11.5298 2.93712 11.4903 2.91992 11.4893V14.0996C1.09084 13.3612 0.26576 11.8215 0.0507812 8.98242C0.0248011 8.64048 0.00969102 8.33988 0 8.09082L4.62891 8.08887C4.62847 8.14592 4.60979 9.75602 4.61133 9.79688ZM7.22656 0C7.80288 0.00661352 8.33386 0.0338991 8.82324 0.0839844C8.78742 0.0851933 8.75235 0.0865342 8.71289 0.0908203C8.3121 0.130575 6.80435 0.0624371 5.43652 1.71484C4.702 2.60356 4.62891 5.65625 4.62891 5.65625H0.0537109C0.388183 1.35426 2.13638 0.0523129 6.68848 0H7.22656Z" fill="var(--fill-0, #659AD2)"/>
</svg>
