<svg preserveAspectRatio="none" width="100%" height="100%" overflow="visible" style="display: block;" viewBox="0 0 14.4863 16.9916" fill="none" xmlns="http://www.w3.org/2000/svg">
<path id="Sofort" d="M1.21191 13.2416C1.64389 13.2417 2.04402 13.4498 2.22168 13.8529L1.65137 14.223C1.54235 14.0403 1.39321 13.9193 1.19141 13.9193C0.953132 13.9193 0.803711 14.0862 0.803711 14.2982C0.803834 14.5516 1.02192 14.6308 1.36914 14.7347C1.91425 14.901 2.35834 15.1794 2.3584 15.8236C2.3584 16.5179 1.83304 16.9916 1.14648 16.9916C0.666096 16.9914 0.254347 16.767 0 16.4095L0.472656 15.9232C0.614005 16.1103 0.848344 16.3138 1.15527 16.3138C1.44188 16.3137 1.63965 16.1394 1.63965 15.8568C1.63955 15.5577 1.40548 15.4824 1.03809 15.3744C0.363648 15.1707 0.0888672 14.809 0.0888672 14.3392C0.0890362 13.749 0.525494 13.2416 1.21191 13.2416ZM3.9209 14.3392C4.64771 14.3392 5.23808 14.938 5.23828 15.6654C5.23828 16.3929 4.64784 16.9916 3.9209 16.9916C3.19415 16.9914 2.60449 16.3928 2.60449 15.6654C2.60469 14.9382 3.19427 14.3395 3.9209 14.3392ZM8.43652 14.3392C9.16328 14.3393 9.75273 14.9381 9.75293 15.6654C9.75293 16.3929 9.1634 16.9915 8.43652 16.9916C7.70958 16.9916 7.12012 16.3929 7.12012 15.6654C7.12032 14.938 7.70971 14.3392 8.43652 14.3392ZM14.0254 16.0189C14.2798 16.0189 14.4863 16.2358 14.4863 16.4935C14.4861 16.7552 14.2756 16.9672 14.0254 16.9672C13.7713 16.9669 13.5657 16.7551 13.5654 16.4935C13.5654 16.2318 13.7711 16.0191 14.0254 16.0189ZM12.5439 13.9984C12.5439 14.3393 12.8141 14.5974 13.1855 14.6058V15.2748C12.9112 15.2747 12.6974 15.1918 12.5439 15.0258V15.641C12.544 16.0816 12.8224 16.2765 13.2061 16.264V16.9301H13.1055C12.2655 16.9301 11.8574 16.3555 11.8574 15.682V13.6039H12.5439V13.9984ZM6.93848 13.9525C6.55482 13.9359 6.2754 14.1359 6.27539 14.5765V14.847C6.42886 14.6808 6.64739 14.597 6.91797 14.597V15.2709C6.53834 15.2792 6.27539 15.5291 6.27539 15.8783V16.9252H5.58887V14.5345C5.58905 13.8613 6.00125 13.2876 6.83691 13.2875H6.93848V13.9525ZM11.4609 15.1293C11.0493 15.1294 10.8116 15.3623 10.8115 15.7777V16.9252H10.124V14.4105H10.791V14.6967C10.9283 14.4684 11.1503 14.3601 11.4609 14.3724V15.1293ZM3.9209 15.0043C3.56574 15.0044 3.2912 15.2915 3.29102 15.6654C3.29102 16.0436 3.56966 16.3264 3.9209 16.3265C4.27225 16.3265 4.55078 16.0396 4.55078 15.6654C4.5506 15.2914 4.27214 15.0043 3.9209 15.0043ZM8.43652 15.0043C8.08529 15.0043 7.80682 15.2914 7.80664 15.6654C7.80664 16.0437 8.08517 16.3265 8.43652 16.3265C8.79183 16.3264 9.06641 16.0395 9.06641 15.6654C9.06622 15.2915 8.78768 15.0044 8.43652 15.0043ZM8.88867 0.82361C9.03823 0.233618 9.62376 -0.114863 10.2051 0.0345474C10.7261 0.192526 11.0379 0.737258 10.9248 1.27771L9.98438 6.09412L10.3877 6.1908C10.5047 6.20753 10.6576 6.2831 10.8027 6.4408C11.0652 6.7276 11.1912 7.20546 11.1348 7.90369C10.9558 10.1141 9.91117 11.5697 7.53516 11.5941C7.51612 11.5996 7.49642 11.6039 7.47559 11.6039C5.72182 11.6039 4.23454 10.2859 4.18945 8.40369L3.79199 7.99548C3.30355 7.49258 3.22679 6.79013 3.61816 6.37439L3.65918 6.32849C3.82728 6.15127 4.04826 6.05415 4.27441 6.04138C4.00154 5.48766 4.08652 4.88005 4.51074 4.5824L4.57129 4.54041C5.03719 4.26257 5.43902 4.37248 5.7832 4.72595L5.3877 1.37732C5.25442 0.795294 5.60168 0.154859 6.13477 0.0384537C6.40516 -0.0196031 6.69182 0.0339683 6.92188 0.191774C7.15199 0.349697 7.31365 0.595242 7.36621 0.869508L8.03711 3.82459L8.88867 0.82361ZM7.68164 6.00818C7.54433 5.98324 7.40267 5.97908 7.27344 6.00818C7.07564 6.0539 6.95037 6.16617 6.88574 6.3822C6.79921 6.67913 6.80838 6.90436 6.99414 7.08533C7.03635 7.10257 7.06981 7.13215 7.09375 7.16834C7.22124 7.25596 7.40143 7.33211 7.64551 7.40076L9.32129 7.78748C9.59969 7.85413 9.51092 8.28179 9.23242 8.22791L9.17969 8.22009C8.96975 8.19932 8.73169 8.21612 8.51367 8.2992C8.10578 8.45717 7.85067 8.81907 7.81836 9.49256C7.81008 9.61693 7.70972 9.70843 7.58887 9.70447C7.46771 9.69615 7.37474 9.59188 7.38281 9.46716C7.41512 8.72328 7.69738 8.23695 8.14941 7.97498L7.54004 7.82947C7.32844 7.77044 7.15089 7.69922 7.00293 7.61951C6.93211 7.73407 6.84247 7.83534 6.73242 7.91248L6.68359 7.94568C6.65586 7.96496 6.62746 7.98242 6.59863 7.99841C6.79459 8.37555 6.74276 8.85244 6.44141 9.17615L6.39746 9.22205C6.01784 9.62115 5.39955 9.62919 5.00781 9.24256L4.68066 8.90759C4.94279 10.2337 6.07777 11.1255 7.41504 11.1517C7.41893 11.1515 7.42282 11.1508 7.42676 11.1508C9.61565 11.1715 10.5366 9.90758 10.7021 7.87048C10.7505 7.2888 10.6539 6.93551 10.4844 6.74841C10.44 6.70268 10.3949 6.66934 10.3545 6.65271L10.3066 6.63611L7.76172 6.02478C7.74938 6.02068 7.72142 6.01637 7.68164 6.00818ZM4.61426 6.58728C4.41726 6.44327 4.14243 6.46217 3.97363 6.64392L3.93359 6.68982C3.72359 6.91432 3.76832 7.3389 4.10352 7.68396L5.31445 8.91834C5.52842 9.13444 5.87201 9.13064 6.08203 8.91052L6.12207 8.86463C6.3193 8.65769 6.32545 8.33532 6.14844 8.11756C5.83068 8.12158 5.51737 7.96703 5.32324 7.67517L4.61426 6.58728ZM5.67383 5.29334C5.39519 4.87353 5.12481 4.72809 4.80176 4.91931L4.75781 4.95252C4.50745 5.13126 4.47502 5.5549 4.7334 5.96228L5.68652 7.42224C5.85617 7.67957 6.19508 7.74593 6.44531 7.57166L6.49414 7.54236C6.56172 7.49686 6.61543 7.43291 6.65527 7.36072C6.41779 7.10896 6.35868 6.79914 6.42383 6.4447L5.93848 5.69959C5.92512 5.68442 5.91415 5.66732 5.90527 5.64881L5.67383 5.29334ZM10.0889 0.466188C9.74963 0.378884 9.40148 0.59133 9.30859 0.944704L8.22266 4.77771C8.19037 4.89819 8.06919 4.9651 7.95215 4.93201C7.85972 4.90576 7.80011 4.82206 7.79492 4.72888L6.93848 0.961305C6.90619 0.799286 6.81281 0.658241 6.67969 0.566774C6.54654 0.475398 6.381 0.445772 6.22363 0.478883C5.94093 0.541243 5.73062 0.932402 5.81543 1.28162L5.81934 1.30603L6.30859 5.45935L6.61719 5.93494C6.75166 5.7423 6.94492 5.62173 7.17676 5.56775C7.37048 5.52623 7.56812 5.53063 7.75781 5.56384C7.81417 5.57213 7.85484 5.58406 7.87109 5.58826L9.55859 5.99158L10.4961 1.18591C10.5607 0.87007 10.3795 0.557774 10.0889 0.466188Z" fill="var(--fill-0, white)"/>
</svg>
