<svg preserveAspectRatio="none" width="100%" height="100%" overflow="visible" style="display: block;" viewBox="0 0 37.3333 9.41335" fill="none" xmlns="http://www.w3.org/2000/svg">
<g id="Alipay">
<path id="Vector" d="M7.83946 0H1.49541C0.669233 0 0 0.675406 0 1.50776V7.90559C0 8.73794 0.669233 9.41335 1.49541 9.41335H7.83946C8.66564 9.41335 9.33399 8.73794 9.33399 7.90559V1.50776C9.33487 0.674524 8.66564 0 7.83946 0Z" fill="var(--fill-0, #1677FF)"/>
<path id="Vector_2" d="M7.68514 5.91111C7.31217 5.78502 6.81046 5.59193 6.25233 5.38825C6.58739 4.80013 6.85543 4.1309 7.03178 3.40347H5.19161V2.73512H7.44531V2.36215H5.19161V1.24764H4.27196C4.11061 1.24764 4.11061 1.40812 4.11061 1.40812V2.36127H1.83134V2.73424H4.11061V3.40259H2.22811V3.77556H5.87848C5.74533 4.23935 5.56546 4.67581 5.35296 5.07171C4.1688 4.67757 2.9044 4.35838 2.11084 4.55501C1.60297 4.6811 1.27585 4.90594 1.08363 5.14224C0.201899 6.22412 0.834099 7.86767 2.69631 7.86767C3.79759 7.86767 4.85831 7.2487 5.68009 6.22853C6.90657 6.82282 9.33397 7.84386 9.33397 7.84386V6.38901C9.33486 6.38901 9.02978 6.36432 7.68514 5.91111ZM2.52261 7.239C1.0704 7.239 0.641 6.08569 1.35873 5.45438C1.59856 5.241 2.0359 5.13695 2.26867 5.11403C3.13101 5.0285 3.92985 5.36003 4.87242 5.82382C4.21024 6.69497 3.36643 7.239 2.52261 7.239Z" fill="var(--fill-0, white)"/>
<path id="Vector_3" d="M20.2683 1.37815C20.2683 1.86486 20.6245 2.19286 21.1209 2.19286C21.6174 2.19286 21.9736 1.86486 21.9736 1.37815C21.9736 0.900249 21.6174 0.563428 21.1209 0.563428C20.6245 0.563428 20.2683 0.900249 20.2683 1.37815Z" fill="var(--fill-0, #1677FF)"/>
<path id="Vector_4" d="M19.369 0.768879H17.8894V7.60581H19.369V0.768879Z" fill="var(--fill-0, black)"/>
<path id="Vector_5" d="M15.2953 1.00339H13.3097L11.0904 7.60667H12.4579L12.8327 6.31405H15.1834L15.5396 7.60667H17.2907L15.2953 1.00339ZM13.1413 5.23658L14.0212 2.19284H14.0583L14.8915 5.23658H13.1413Z" fill="var(--fill-0, black)"/>
<path id="Vector_6" d="M21.8607 2.58614H20.3812V7.60671H21.8607V2.58614Z" fill="var(--fill-0, black)"/>
<path id="Vector_7" d="M37.3245 2.59584L37.3333 2.58614H35.9384L35.0576 5.63957H35.0109L33.9995 2.58614H32.3419L34.3363 7.62523L33.5031 9.1612V9.19823H34.8045L37.3245 2.59584Z" fill="var(--fill-0, black)"/>
<path id="Vector_8" d="M25.5419 2.48298C24.9988 2.48298 24.5773 2.6893 24.0994 3.08256V2.58614H22.6199V9.19824H24.0994V7.5591C24.3807 7.63405 24.6426 7.67196 24.9609 7.67196C26.2817 7.67196 27.4712 6.69765 27.4712 4.96505C27.4712 3.41056 26.6097 2.48298 25.5419 2.48298ZM24.6047 6.74438C24.4362 6.74438 24.2767 6.72587 24.0985 6.66944V3.95371C24.408 3.73856 24.6602 3.6354 24.9785 3.6354C25.5314 3.6354 25.9713 4.07539 25.9713 5.01266C25.9722 6.21094 25.3259 6.74438 24.6047 6.74438Z" fill="var(--fill-0, black)"/>
<path id="Vector_9" d="M32.0509 6.35113V4.25349C32.0509 3.11077 31.3764 2.48298 30.1869 2.48298C29.4277 2.48298 28.904 2.61436 27.9482 2.90445L28.2101 4.05687C29.0812 3.66362 29.4648 3.49521 29.8677 3.49521C30.3544 3.49521 30.5705 3.84173 30.5705 4.37606V4.41309C28.8749 4.73139 28.3503 4.9095 28.0231 5.2375C27.7798 5.48086 27.6766 5.82738 27.6766 6.23033C27.6766 7.19495 28.4261 7.70988 29.128 7.70988C29.6526 7.70988 30.0741 7.51325 30.6454 7.08208L30.7486 7.60672H32.2281L32.0509 6.35113ZM30.5713 6.38904C30.1781 6.60419 29.9533 6.68883 29.6914 6.68883C29.3352 6.68883 29.1103 6.45429 29.1103 6.08044C29.1103 5.94024 29.1385 5.79917 29.2505 5.68719C29.4286 5.50908 29.7751 5.3777 30.5713 5.19077V6.38904Z" fill="var(--fill-0, black)"/>
</g>
</svg>
