<svg preserveAspectRatio="none" width="100%" height="100%" overflow="visible" style="display: block;" viewBox="0 0 36.6826 8.66699" fill="none" xmlns="http://www.w3.org/2000/svg">
<path id="Klarna" d="M13.0059 2.45996C13.6178 2.45996 14.1852 2.65967 14.6553 2.99902V2.62207H16.3193V8.50391H14.6553V8.12793C14.1852 8.46717 13.6177 8.66699 13.0059 8.66699C11.3865 8.66687 10.0733 7.27726 10.0732 5.56348C10.0732 3.84961 11.3865 2.46009 13.0059 2.45996ZM30.5596 2.45996C31.1715 2.45999 31.739 2.65969 32.209 2.99902V2.62207H33.873V8.50391H32.209V8.12793C31.739 8.46717 31.1715 8.66696 30.5596 8.66699C28.9401 8.66699 27.627 7.27734 27.627 5.56348C27.627 3.84954 28.9401 2.45996 30.5596 2.45996ZM35.6387 6.41797C36.2152 6.41797 36.6824 6.91231 36.6826 7.52246C36.6826 8.13263 36.2153 8.62793 35.6387 8.62793C35.0621 8.62784 34.5947 8.13257 34.5947 7.52246C34.5949 6.91236 35.0622 6.41806 35.6387 6.41797ZM6.4502 0C6.4502 1.84152 5.77174 3.5548 4.56348 4.82812L7.1123 8.50684H4.83496L2.06445 4.50879L2.7793 3.94238C3.96496 3.00242 4.64551 1.56535 4.64551 0H6.4502ZM1.84473 0V8.50586H0V0H1.84473ZM9.39258 8.50391H7.65039V0.00195312H9.39258V8.50391ZM18.8936 3.38867C19.2271 2.92937 19.848 2.62317 20.5234 2.62305V4.33398C20.5169 4.33388 20.5105 4.33398 20.5039 4.33398C19.8456 4.33408 18.8976 4.83157 18.8975 5.75781V8.50391H17.1895V2.62305H18.8936V3.38867ZM24.6699 2.46387C26.0103 2.46387 27.039 3.39507 27.0391 4.76367V8.50391H25.377V5.40137C25.377 4.54356 24.9568 4.08108 24.2256 4.08105C23.5433 4.08105 22.9766 4.5188 22.9766 5.41309V8.50391H21.2998V2.62305H22.9561V3.28516C23.3765 2.6828 24.0054 2.46397 24.6699 2.46387ZM13.1426 4.0498C12.31 4.04984 11.6348 4.72779 11.6348 5.56348C11.6348 6.39909 12.3101 7.07613 13.1426 7.07617C13.9752 7.07617 14.6503 6.39912 14.6504 5.56348C14.6504 4.72777 13.9753 4.0498 13.1426 4.0498ZM30.6963 4.0498C29.8636 4.0498 29.1885 4.72777 29.1885 5.56348C29.1886 6.39912 29.8637 7.07617 30.6963 7.07617C31.5288 7.07603 32.204 6.39903 32.2041 5.56348C32.2041 4.72786 31.5288 4.04995 30.6963 4.0498Z" fill="var(--fill-0, #17120F)"/>
</svg>
