<svg preserveAspectRatio="none" width="100%" height="100%" overflow="visible" style="display: block;" viewBox="0 0 24.1436 28.3203" fill="none" xmlns="http://www.w3.org/2000/svg">
<path id="Sofort" d="M2.01953 22.0703C2.73954 22.0704 3.40596 22.417 3.70215 23.0888L2.75293 23.706C2.5712 23.4011 2.3219 23.2002 1.98535 23.2002C1.58838 23.2003 1.33984 23.4777 1.33984 23.831C1.34006 24.2534 1.70354 24.3854 2.28223 24.5585C3.19066 24.8357 3.93066 25.3002 3.93066 26.374C3.93044 27.5309 3.05524 28.3203 1.91113 28.3203C1.11036 28.3201 0.42397 27.9463 0 27.3505L0.787109 26.54C1.02266 26.8517 1.41337 27.1913 1.9248 27.1914C2.4027 27.1914 2.73242 26.8998 2.73242 26.4287C2.73227 25.93 2.34189 25.8051 1.72949 25.625C0.605923 25.2855 0.148606 24.683 0.148438 23.9003C0.148438 22.9164 0.875276 22.0703 2.01953 22.0703ZM6.53516 23.9003C7.74672 23.9003 8.72949 24.8978 8.72949 26.1103C8.72946 27.3228 7.7467 28.3203 6.53516 28.3203C5.32377 28.3201 4.34085 27.3227 4.34082 26.1103C4.34082 24.8979 5.32375 23.9005 6.53516 23.9003ZM14.0605 23.9003C15.2721 23.9003 16.2549 24.8978 16.2549 26.1103C16.2548 27.3228 15.2721 28.3203 14.0605 28.3203C12.8491 28.3202 11.8662 27.3228 11.8662 26.1103C11.8662 24.8978 12.849 23.9004 14.0605 23.9003ZM23.376 26.6992C23.8 26.6992 24.1436 27.0596 24.1436 27.4892C24.1435 27.9257 23.7933 28.2793 23.376 28.2793C22.9521 28.2791 22.6094 27.9256 22.6094 27.4892C22.6094 27.0528 22.9521 26.6994 23.376 26.6992ZM20.9062 23.332C20.9064 23.9001 21.3574 24.3299 21.9766 24.3437V25.4589C21.5189 25.4589 21.162 25.3201 20.9062 25.0429V26.0683C20.9062 26.8027 21.3704 27.1291 22.0098 27.1084V28.2168H21.8418C20.4418 28.2168 19.7617 27.2601 19.7617 26.1377V22.6738H20.9062V23.332ZM11.5635 23.2558C10.924 23.2281 10.46 23.5604 10.46 24.2949V24.7451C10.7157 24.4681 11.0795 24.3291 11.5303 24.3291V25.4521C10.8976 25.466 10.46 25.8818 10.46 26.4638V28.2099H9.31543V24.2255C9.31545 23.1031 10.0022 22.1474 11.3955 22.1474H11.5635V23.2558ZM19.1025 25.2168C18.416 25.2168 18.0186 25.6049 18.0186 26.2978V28.2099H16.874V24.0175H17.9844V24.496C18.2132 24.115 18.5843 23.9342 19.1025 23.955V25.2168ZM6.53516 25.0087C5.94287 25.0088 5.48535 25.4867 5.48535 26.1103C5.48538 26.7408 5.94962 27.2118 6.53516 27.2119C7.12073 27.2119 7.58493 26.7339 7.58496 26.1103C7.58496 25.4867 7.12075 25.0087 6.53516 25.0087ZM14.0605 25.0087C13.475 25.0088 13.0107 25.4867 13.0107 26.1103C13.0108 26.7408 13.475 27.2119 14.0605 27.2119C14.6528 27.2119 15.1103 26.7339 15.1104 26.1103C15.1104 25.4867 14.6461 25.0087 14.0605 25.0087ZM14.8145 1.37398C15.0635 0.390221 16.0397 -0.191601 17.0088 0.0575734C17.8771 0.320871 18.3955 1.22908 18.207 2.12984L16.6396 10.1582L17.3125 10.3193C17.5076 10.3471 17.7628 10.4723 18.0049 10.7353C18.4424 11.2134 18.6518 12.0099 18.5576 13.1738C18.2594 16.8582 16.5183 19.2849 12.5576 19.3252C12.5262 19.3342 12.4933 19.3408 12.459 19.3408C9.53616 19.3407 7.05856 17.1436 6.9834 14.0068L6.32031 13.3261C5.50602 12.4877 5.3784 11.3168 6.03125 10.624L6.09863 10.5478C6.37879 10.2525 6.74716 10.0906 7.12402 10.0693C6.66928 9.14628 6.81116 8.13358 7.51855 7.63765L7.61914 7.56832C8.39558 7.10529 9.06506 7.28791 9.63867 7.87691L8.97852 2.29585C8.75642 1.3259 9.33529 0.258565 10.2236 0.0644093C10.6746 -0.0325893 11.1525 0.0579844 11.5361 0.321245C11.9198 0.584527 12.1898 0.992878 12.2773 1.45015L13.3955 6.37398L14.8145 1.37398ZM12.8027 10.0146C12.5739 9.97303 12.3375 9.9661 12.1221 10.0146C11.7927 10.0909 11.5842 10.2778 11.4766 10.6377C11.3324 11.1324 11.347 11.508 11.6562 11.8095C11.7267 11.8382 11.7832 11.8869 11.8232 11.9472C12.0357 12.0933 12.3353 12.2215 12.7422 12.3359L15.5352 12.9804C15.9994 13.0914 15.8511 13.8049 15.3867 13.7148L15.2998 13.7002C14.9498 13.6655 14.5519 13.6934 14.1885 13.832C13.5088 14.0953 13.0851 14.6989 13.0312 15.8212C13.0176 16.0289 12.8493 16.1807 12.6475 16.1738C12.4456 16.1599 12.2912 15.9871 12.3047 15.7793C12.3585 14.5391 12.8292 13.7285 13.583 13.2919L12.5664 13.0498C12.2149 12.9517 11.9199 12.8334 11.6738 12.7011C11.5559 12.892 11.404 13.0589 11.2207 13.1875L11.1396 13.2431C11.0932 13.2754 11.0454 13.3042 10.9971 13.331C11.324 13.9596 11.2377 14.7543 10.7354 15.2939L10.6621 15.3701C10.0295 16.0352 8.99959 16.0494 8.34668 15.4052L7.80176 14.8457C8.23688 17.0489 10.1166 18.5355 12.3359 18.5888C12.3497 18.5872 12.3637 18.5859 12.3779 18.5859C16.0261 18.6205 17.5609 16.5133 17.8369 13.1181C17.9176 12.1485 17.7562 11.5598 17.4736 11.248C17.3996 11.1718 17.3251 11.1165 17.2578 11.0888L17.1777 11.0605L12.9365 10.0419C12.9161 10.0351 12.8693 10.0283 12.8027 10.0146ZM7.68848 10.9775C7.36029 10.7392 6.90374 10.7719 6.62305 11.0742L6.55566 11.1503C6.20566 11.5245 6.2802 12.2315 6.83887 12.8066L8.85742 14.8642C9.21416 15.2245 9.78671 15.2178 10.1367 14.8505L10.2041 14.7744C10.5317 14.4305 10.546 13.8931 10.2539 13.5302C9.72207 13.5391 9.19597 13.2814 8.87109 12.7929L7.68848 10.9775ZM9.45703 8.82222C8.99267 8.12265 8.54132 7.88049 8.00293 8.19917L7.92871 8.25484C7.51179 8.55296 7.45804 9.25963 7.88867 9.93843L9.47754 12.3701C9.76013 12.7995 10.3249 12.9107 10.7422 12.6201L10.8232 12.5712C10.9359 12.4954 11.0254 12.3888 11.0918 12.2685C10.696 11.8488 10.5973 11.3321 10.7061 10.7412L9.89844 9.50093C9.87445 9.4739 9.85422 9.44353 9.83887 9.41011L9.45703 8.82222ZM16.8145 0.778276C16.2491 0.63277 15.6695 0.986196 15.5146 1.57515L13.7041 7.96382C13.6501 8.16452 13.448 8.27508 13.2529 8.21968C13.1003 8.17614 13.0022 8.03937 12.9922 7.8857L11.5635 1.6025C11.5096 1.33238 11.3548 1.09668 11.1328 0.944292C10.9107 0.791877 10.6345 0.743389 10.3721 0.798784C9.90091 0.902718 9.55103 1.55465 9.69238 2.13667L9.69922 2.17769L10.5137 9.10054L11.0273 9.8896C11.2514 9.56922 11.575 9.3701 11.9609 9.28023C12.284 9.21094 12.6143 9.21796 12.9307 9.27339C13.0247 9.28725 13.0923 9.30749 13.1191 9.31441L15.9316 9.98824L17.4941 1.97652C17.6015 1.45023 17.2987 0.930836 16.8145 0.778276Z" fill="var(--fill-0, white)"/>
</svg>
