<svg preserveAspectRatio="none" width="100%" height="100%" overflow="visible" style="display: block;" viewBox="0 0 749 144" fill="none" xmlns="http://www.w3.org/2000/svg">
<path id="Line" d="M13.2896 124.992L0 134V144H749V0L743.232 6.92582C740.327 10.415 735.991 12.4327 731.45 12.4327C725.451 12.4327 719.972 15.9652 717.535 21.447L716.14 24.5823C714.55 28.1575 711.005 30.4613 707.092 30.4613C704.375 30.4613 701.785 31.5849 699.876 33.518C697.052 36.3775 693.83 39.4756 693.216 39.4756C692.864 39.4756 691.715 40.0863 690.299 40.9306C686.138 43.4118 681.713 45.4529 676.997 46.5628L664.603 49.4796C662.309 50.0193 660.097 50.8596 658.023 51.9787C651.493 55.503 643.793 56.1575 636.762 53.7857L626.406 50.2927C619.538 46.9828 611.383 47.8742 605.392 52.5899L604.871 53.0001C601.164 55.9178 596.583 57.5042 591.866 57.5042H591.316C585.694 57.5042 580.273 55.4103 576.112 51.6307L573.561 49.3141C570.344 46.3923 566.56 44.1602 562.431 42.8017C557.442 41.1599 552.164 39.4756 551.58 39.4756C551.055 39.4756 548.225 38.1193 545.334 36.6545C542.048 34.9894 538.429 34.067 534.745 34.067C532.793 34.067 530.849 34.3214 528.962 34.8238L511.494 39.4756L500.601 42.8158C496.248 44.1507 492.515 46.9959 490.073 50.8391C487.362 55.1075 483.069 58.1271 478.135 59.2366L465.571 62.062C463.055 62.6278 460.599 63.4358 458.238 64.4745L452.448 67.0221C450.482 67.8869 448.59 68.9085 446.788 70.077L441.725 73.3615C437.691 75.9783 434.288 79.4577 431.761 83.5488L424.623 95.1051C423.14 97.5075 420.517 98.97 417.694 98.97C416.809 98.97 415.929 98.8257 415.091 98.5427L409.657 96.71C403.526 94.6418 397.988 91.117 393.518 86.4381L387.725 80.3737C385.796 78.3542 383.655 76.5479 381.34 74.9859L375.579 71.0993C372.895 69.2887 369.731 68.3213 366.494 68.3213C364.478 68.3213 362.48 67.9462 360.602 67.2151L358.408 66.3614C352.654 64.1218 346.332 63.7922 340.376 65.4211L334.953 66.9043C331.514 67.8448 327.965 68.3213 324.401 68.3213H320.2C314.188 68.3213 308.252 69.6768 302.836 72.2868L292.359 77.3356L273.652 88.1528L263.977 95.6838C261.18 97.861 258.058 99.5836 254.724 100.788C248.256 103.126 241.157 103.411 234.511 101.641C228.015 99.9113 221.083 100.116 214.713 102.265L208.446 104.379L198.726 107.657C194.638 109.036 190.202 108.989 186.144 107.522C180.651 105.537 174.552 106.177 169.591 109.26L165.823 111.601C160.375 114.986 153.623 115.517 147.712 113.025C142.802 110.955 137.264 110.955 132.354 113.025L128.473 114.661C124.814 116.204 120.884 116.999 116.913 116.999H112.356C108.381 116.999 104.429 117.591 100.629 118.756L94.4548 120.649C90.6549 121.815 86.7025 122.407 82.7279 122.407H75.2168C72.1225 122.407 69.0446 122.855 66.0789 123.738L62.2393 124.881C55.9638 126.749 49.1901 125.86 43.6086 122.437C37.9705 118.979 31.1189 118.109 24.7955 120.048L21.508 121.056C18.5879 121.952 15.8178 123.278 13.2896 124.992Z" fill="url(#paint0_linear_1560_43002)"/>
<defs>
<linearGradient id="paint0_linear_1560_43002" x1="374.5" y1="0" x2="374.5" y2="144" gradientUnits="userSpaceOnUse">
<stop stop-color="#15B79E" stop-opacity="0.04"/>
<stop offset="1" stop-color="#15B79E" stop-opacity="0"/>
</linearGradient>
</defs>
</svg>
