<svg preserveAspectRatio="none" width="100%" height="100%" overflow="visible" style="display: block;" viewBox="0 0 5.15133 10.9693" fill="none" xmlns="http://www.w3.org/2000/svg">
<path id="icon" d="M2.57567 9.7745L4.27317 8.077C4.37228 7.97789 4.49172 7.92722 4.6315 7.925C4.77117 7.92289 4.89272 7.97356 4.99617 8.077C5.09961 8.18044 5.15133 8.30094 5.15133 8.4385C5.15133 8.57617 5.09961 8.69667 4.99617 8.8L2.9975 10.7988C2.93506 10.8612 2.86922 10.9052 2.8 10.9308C2.73078 10.9565 2.656 10.9693 2.57567 10.9693C2.49533 10.9693 2.42056 10.9565 2.35133 10.9308C2.28211 10.9052 2.21628 10.8612 2.15383 10.7988L0.155167 8.8C0.0560555 8.70089 0.00538893 8.58144 0.00316671 8.44167C0.0010556 8.302 0.0517222 8.18044 0.155167 8.077C0.258611 7.97356 0.379111 7.92183 0.516667 7.92183C0.654333 7.92183 0.774833 7.97356 0.878167 8.077L2.57567 9.7745ZM2.57567 1.19483L0.878167 2.89233C0.779056 2.99144 0.659611 3.04211 0.519833 3.04433C0.380167 3.04644 0.258611 2.99578 0.155167 2.89233C0.0517222 2.78889 0 2.66839 0 2.53083C0 2.39328 0.0517222 2.27278 0.155167 2.16933L2.15383 0.170667C2.21628 0.108222 2.28211 0.0641666 2.35133 0.0385C2.42056 0.0128333 2.49533 0 2.57567 0C2.656 0 2.73078 0.0128333 2.8 0.0385C2.86922 0.0641666 2.93506 0.108222 2.9975 0.170667L4.99617 2.16933C5.09528 2.26844 5.14594 2.38789 5.14817 2.52767C5.15028 2.66733 5.09961 2.78889 4.99617 2.89233C4.89272 2.99578 4.77222 3.0475 4.63467 3.0475C4.497 3.0475 4.3765 2.99578 4.27317 2.89233L2.57567 1.19483Z" fill="var(--fill-0, #121621)"/>
</svg>
