<svg preserveAspectRatio="none" width="100%" height="100%" overflow="visible" style="display: block;" viewBox="0 0 43.3334 17.2909" fill="none" xmlns="http://www.w3.org/2000/svg">
<g id="Affirm">
<path id="Affirm_2" d="M3.55078 9.73917C5.28933 9.73927 6.62207 10.5182 6.62207 12.4364V17.081H4.7168V15.9726C4.28354 16.7228 3.37264 17.2909 2.35059 17.2909C0.917549 17.2909 0.000228844 16.5114 0 15.2235C0 13.5982 1.65417 13.0168 3.76172 12.7421C4.32656 12.6691 4.625 12.482 4.625 12.1112C4.62479 11.563 4.17469 11.29 3.35938 11.2899C2.50075 11.2899 1.54885 11.7502 0.959961 12.289L0.289062 10.8778C1.023 10.2929 2.37601 9.73917 3.55078 9.73917ZM16.624 6.38272C17.7835 6.38272 18.4219 6.79971 18.4219 6.79971L17.792 8.23721C17.7775 8.22907 17.3832 8.00973 16.8799 8.00967C16.4149 8.00967 15.876 8.28022 15.876 9.22354V9.94815H17.7236V11.5224H15.876V17.081H13.8379V11.5224H10.7432V17.081H8.70508V11.5224H7.52148V9.94815H8.70508V9.42374C8.7052 7.11775 10.1878 6.38286 11.4912 6.38272C12.3097 6.38272 12.9135 6.57877 13.2891 6.79971L12.6602 8.23721C12.3662 8.07103 12.0103 8.00967 11.7461 8.00967C11.2821 8.0097 10.7432 8.28026 10.7432 9.22354V9.94815H13.8379V9.42374C13.838 7.11761 15.3206 6.38277 16.624 6.38272ZM20.9775 9.94913V17.081H18.9414V9.94913H20.9775ZM26.7383 9.73917C27.0081 9.73919 27.3374 9.76885 27.6523 9.90323L27.2803 11.789C27.0401 11.6095 26.6771 11.5312 26.4082 11.5312C25.7185 11.5313 24.7305 12.0116 24.7305 13.6454V17.081H22.6895V9.94815H24.5947V11.1474C25.0299 10.204 25.6893 9.73917 26.7383 9.73917ZM37.1104 9.73917C38.4137 9.73936 39.4921 10.5483 39.4922 12.1513V17.081H37.4541V12.7958C37.454 11.8519 36.8854 11.4601 36.3467 11.4599C35.6723 11.4599 34.9971 12.0767 34.9971 13.4101V17.081H32.959V12.8105C32.959 11.8374 32.4229 11.4599 31.8398 11.4599C31.1953 11.4599 30.5059 12.0912 30.5059 13.4101V17.081H28.4639V9.94913H30.4307V11.0273C30.7755 10.3386 31.522 9.73923 32.6006 9.73917C33.5891 9.73917 34.4157 10.1977 34.8057 10.9921C35.2255 10.3773 36.0316 9.73917 37.1104 9.73917ZM4.58398 13.8485C2.93947 14.0224 2.03809 14.2984 2.03809 15.1034C2.03827 15.5383 2.30595 15.8017 2.8418 15.8017C3.85602 15.8015 4.58393 14.9252 4.58398 13.8485Z" fill="var(--fill-0, #060809)"/>
<path id="Affirm-Arc" fill-rule="evenodd" clip-rule="evenodd" d="M30.8222 0C25.316 0 20.4082 3.82229 19.0153 8.73681H21.0115C22.1748 5.07686 26.1239 1.86456 30.8222 1.86456C36.5331 1.86456 41.4688 6.21231 41.4688 12.9808C41.4688 14.5005 41.2718 15.8704 40.8991 17.0807H42.8357L42.8549 17.0144C43.1719 15.7656 43.3333 14.4093 43.3333 12.9808C43.3333 5.43229 37.8328 0 30.8222 0Z" fill="var(--fill-0, #0FA0EA)"/>
</g>
</svg>
