<svg preserveAspectRatio="none" width="100%" height="100%" overflow="visible" style="display: block;" viewBox="0 0 42 17.3636" fill="none" xmlns="http://www.w3.org/2000/svg">
<path id="ApplePay" fill-rule="evenodd" clip-rule="evenodd" d="M7.67424 2.2386C7.182 2.82509 6.39441 3.28768 5.60682 3.2216C5.50837 2.42859 5.89396 1.58602 6.34518 1.06561C6.83743 0.462588 7.69885 0.033042 8.3962 0C8.47824 0.826051 8.15828 1.63558 7.67424 2.2386ZM8.38793 3.37854C7.69408 3.33833 7.06097 3.58865 6.54959 3.79083C6.2205 3.92094 5.94183 4.03112 5.72982 4.03112C5.4919 4.03112 5.20172 3.91505 4.87591 3.78473C4.449 3.61397 3.96092 3.41873 3.44909 3.4281C2.27591 3.44463 1.18477 4.11373 0.585879 5.17933C-0.644728 7.31054 0.265922 10.466 1.45551 12.2008C2.038 13.0598 2.73534 14.0015 3.65419 13.9685C4.05843 13.9531 4.34922 13.8289 4.65016 13.7003C4.99662 13.5523 5.35653 13.3985 5.91851 13.3985C6.46101 13.3985 6.80518 13.5483 7.13556 13.6921C7.44971 13.8288 7.75139 13.96 8.19924 13.952C9.1509 13.9355 9.7498 13.0929 10.3323 12.2338C10.9609 11.3118 11.2371 10.4119 11.279 10.2753L11.284 10.2595C11.283 10.2585 11.2752 10.2549 11.2615 10.2486C11.0513 10.1518 9.44525 9.41143 9.42984 7.42619C9.41438 5.75986 10.7038 4.91559 10.9067 4.78269C10.9191 4.7746 10.9274 4.76915 10.9312 4.76631C10.1108 3.54375 8.83095 3.41158 8.38793 3.37854ZM14.9758 13.8611V0.983002H19.7752C22.2528 0.983002 23.9839 2.70118 23.9839 5.21238C23.9839 7.72357 22.22 9.45827 19.7096 9.45827H16.9612V13.8611H14.9758ZM16.9611 2.66814H19.25C20.9728 2.66814 21.9573 3.59331 21.9573 5.22063C21.9573 6.84795 20.9728 7.78138 19.2418 7.78138H16.9611V2.66814ZM30.539 12.3164C30.014 13.3242 28.8572 13.9602 27.6102 13.9602C25.7643 13.9602 24.4762 12.8533 24.4762 11.1847C24.4762 9.53262 25.7232 8.58266 28.0286 8.44223L30.5062 8.29354V7.58314C30.5062 6.53406 29.8253 5.96409 28.6111 5.96409C27.6102 5.96409 26.88 6.4845 26.7323 7.2775H24.9439C25.0013 5.60888 26.5601 4.39459 28.6685 4.39459C30.941 4.39459 32.4177 5.59236 32.4177 7.45097V13.8611H30.58V12.3164H30.539ZM28.1433 12.432C27.085 12.432 26.4122 11.9199 26.4122 11.1351C26.4122 10.3256 27.0604 9.85477 28.2992 9.78043L30.5061 9.64V10.3669C30.5061 11.573 29.4888 12.432 28.1433 12.432ZM38.5133 14.365C37.7175 16.6201 36.8068 17.3636 34.8707 17.3636C34.723 17.3636 34.2308 17.3471 34.1159 17.314V15.7693C34.239 15.7858 34.5425 15.8023 34.6984 15.8023C35.5762 15.8023 36.0685 15.4306 36.372 14.4641L36.5525 13.8942L33.1888 4.51851H35.2645L37.6026 12.1264H37.6436L39.9818 4.51851H42L38.5133 14.365Z" fill="var(--fill-0, black)"/>
</svg>
