<svg preserveAspectRatio="none" width="100%" height="100%" overflow="visible" style="display: block;" viewBox="0 0 42.5889 16.8008" fill="none" xmlns="http://www.w3.org/2000/svg">
<g id="giropay">
<path id="Subtract" d="M39.4111 0C41.1662 0.000459658 42.5883 1.29648 42.5889 2.89648V13.9043C42.5883 15.5037 41.1662 16.8 39.4111 16.8008H3.17773C1.42243 16.8001 0.000601345 15.5038 0 13.9043V2.89648C0.000601345 1.29642 1.42243 0.000362299 3.17773 0H39.4111ZM3.17773 1.23828C2.487 1.23947 1.88728 1.58993 1.5791 2.10645C1.52305 2.20039 1.47596 2.2995 1.44043 2.40332C1.38718 2.55892 1.35876 2.7249 1.3584 2.89648V13.9043C1.36035 14.8196 2.17309 15.5606 3.17773 15.5625H22.1094V1.23828H3.17773Z" fill="var(--fill-0, #0F3365)"/>
<path id="Union" d="M37.2516 8.95663H37.2692L38.2145 6.2203H39.8043L38.1168 10.1246C37.6668 11.1782 37.3223 12.2008 35.8649 12.2008C35.5292 12.2008 35.2026 12.1687 34.8756 12.1041L34.9821 11.0006C35.1936 11.0656 35.3885 11.0894 35.61 11.0894C35.9977 11.0893 36.2976 10.8803 36.4117 10.5103L34.5494 6.2203H36.2623L37.2516 8.95663ZM26.816 6.12362C28.0877 6.12368 28.7846 7.22608 28.7848 8.23983C28.7848 9.47943 28.0521 10.5103 26.6832 10.5103C26.1271 10.5103 25.5267 10.3254 25.2262 9.82675H25.2086V12.1041H23.6188V6.2203H25.0846V6.97714H25.1022C25.42 6.38955 26.0919 6.12362 26.816 6.12362ZM32.0045 6.26034C33.1791 6.26034 34.195 6.71883 34.195 7.99862V9.56014C34.195 9.89029 34.2123 10.2205 34.2828 10.5504H32.8258C32.8172 10.3256 32.7907 10.1076 32.7907 9.89022H32.7731C32.4112 10.4132 31.9695 10.647 31.316 10.6471C30.4063 10.6471 29.5934 10.2366 29.5934 9.32675C29.5934 8.04717 31.1214 7.89415 31.9694 7.89413C32.2255 7.89413 32.5084 7.91827 32.7116 7.95077C32.7028 7.37909 32.2341 7.22616 31.6598 7.22616C31.148 7.22616 30.6359 7.31455 30.194 7.53964L30.1676 6.55819C30.7327 6.34854 31.3243 6.26035 32.0045 6.26034ZM32.0397 8.66659C31.5009 8.66662 31.0768 8.81984 31.0768 9.22225C31.0768 9.51146 31.3596 9.68109 31.7301 9.68124C32.3311 9.68124 32.7115 9.18174 32.7116 8.691C32.5084 8.68305 32.2783 8.66659 32.0397 8.66659ZM26.1803 7.23397C25.5972 7.23397 25.2077 7.70116 25.2076 8.3287C25.2076 8.94069 25.6502 9.39901 26.1803 9.39901C26.7803 9.39897 27.1421 8.941 27.1422 8.27303C27.1422 7.71743 26.7982 7.23402 26.1803 7.23397Z" fill="var(--fill-0, #FFFFFE)"/>
<path id="Union_2" d="M5.68634 6.12384C6.36616 6.12384 6.9141 6.46151 7.24982 6.97638H7.2674V6.22052H8.70685V9.92267C8.70685 11.6448 7.78802 12.201 5.93341 12.201C5.17443 12.2009 4.5476 12.0556 4.17658 11.9354L4.25568 10.7918C4.74128 11.0091 5.14796 11.1385 5.81037 11.1385C6.72884 11.1384 7.22345 10.7436 7.22345 9.92267V9.69708H7.2049C6.82545 10.1885 6.29567 10.4129 5.65998 10.4129C4.39707 10.4128 3.61115 9.54447 3.61115 8.3045C3.61123 7.05695 4.25603 6.12389 5.68634 6.12384ZM18.5565 6.12384C20.0751 6.12384 21.2322 6.92832 21.2322 8.3211C21.2322 9.70549 20.075 10.5106 18.5565 10.5106C17.0376 10.5105 15.8807 9.70547 15.8807 8.3211C15.8807 6.92834 17.0376 6.12386 18.5565 6.12384ZM11.3934 10.4129H9.80353V6.22052H11.3934V10.4129ZM15.2811 6.12384C15.4661 6.12385 15.6602 6.14798 15.8192 6.17169L15.7401 7.37872C15.5637 7.33059 15.3862 7.33087 15.201 7.33087C14.4595 7.33107 14.0447 7.82229 14.0447 8.64337V10.4129H12.4549V6.22052H13.9031V6.99298H13.9207C14.1946 6.46203 14.5922 6.12384 15.2811 6.12384ZM18.5565 7.13751C17.8235 7.13755 17.5233 7.69323 17.5233 8.3211C17.5233 8.94086 17.8235 9.49586 18.5565 9.49591C19.2894 9.49591 19.5896 8.94089 19.5897 8.3211C19.5897 7.69321 19.2894 7.13751 18.5565 7.13751ZM6.15509 7.23419C5.56348 7.23419 5.25386 7.70899 5.25373 8.28009C5.25373 8.93184 5.67821 9.30255 6.15509 9.30255C6.71979 9.30234 7.17057 8.86831 7.17072 8.22442C7.17072 7.75746 6.86997 7.23439 6.15509 7.23419ZM11.3934 5.53595H9.80353V4.47345H11.3934V5.53595Z" fill="var(--fill-0, #D8232A)"/>
</g>
</svg>
