<svg preserveAspectRatio="none" width="100%" height="100%" overflow="visible" style="display: block;" viewBox="0 0 29.1429 17.882" fill="none" xmlns="http://www.w3.org/2000/svg">
<g id="Maestro">
<path id="Left" d="M8.83887 0C13.72 0.000251821 17.6768 4.00358 17.6768 8.94141C17.6765 13.8791 13.7198 17.8816 8.83887 17.8818C3.95768 17.8818 0.000211945 13.8792 0 8.94141C0 4.00342 3.95755 0 8.83887 0Z" fill="var(--fill-0, #ED0006)"/>
<path id="Right" d="M20.3049 0C25.186 0.000250778 29.1428 4.00358 29.1428 8.94141C29.1426 13.8791 25.1859 17.8816 20.3049 17.8818C15.4237 17.8818 11.4662 13.8792 11.466 8.94141C11.466 4.00342 15.4236 0 20.3049 0Z" fill="var(--fill-0, #0099DF)"/>
<path id="Middle" d="M14.5716 2.13886C16.471 3.77871 17.6769 6.21658 17.677 8.94062C17.677 11.6646 16.4708 14.1024 14.5716 15.7424C12.6723 14.1024 11.4661 11.6647 11.4661 8.94062C11.4662 6.21651 12.6721 3.77872 14.5716 2.13886Z" fill="var(--fill-0, #6C6BBD)"/>
</g>
</svg>
