<svg preserveAspectRatio="none" width="100%" height="100%" overflow="visible" style="display: block;" viewBox="0 0 21 11" fill="none" xmlns="http://www.w3.org/2000/svg">
<path id="battery_android_frame_1" d="M2.69225 11C1.94442 11 1.30875 10.7383 0.78525 10.2148C0.26175 9.69125 0 9.05558 0 8.30775V2.69225C0 1.94442 0.26175 1.30875 0.78525 0.785249C1.30875 0.261749 1.94442 0 2.69225 0H16C16.7478 0 17.3835 0.261749 17.907 0.785249C18.4305 1.30875 18.6923 1.94442 18.6923 2.69225V8.30775C18.6923 9.05558 18.4305 9.69125 17.907 10.2148C17.3835 10.7383 16.7478 11 16 11H2.69225ZM2.69225 9.5H16C16.3378 9.5 16.621 9.38575 16.8495 9.15725C17.078 8.92875 17.1923 8.64558 17.1923 8.30775V2.69225C17.1923 2.35442 17.078 2.07125 16.8495 1.84275C16.621 1.61425 16.3378 1.5 16 1.5H2.69225C2.35442 1.5 2.07125 1.61425 1.84275 1.84275C1.61425 2.07125 1.5 2.35442 1.5 2.69225V8.30775C1.5 8.64558 1.61425 8.92875 1.84275 9.15725C2.07125 9.38575 2.35442 9.5 2.69225 9.5ZM19.6923 7.80775V3.202H20.096C20.3522 3.202 20.5668 3.28858 20.74 3.46175C20.9133 3.63508 21 3.84975 21 4.10575V6.90375C21 7.15992 20.9133 7.37458 20.74 7.54775C20.5668 7.72108 20.3522 7.80775 20.096 7.80775H19.6923ZM2.90775 8.092C2.76408 7.94833 2.69225 7.77025 2.69225 7.55775V3.44225C2.69225 3.22975 2.76417 3.05167 2.908 2.908C3.05183 2.76417 3.23008 2.69225 3.44275 2.69225C3.65525 2.69225 3.83333 2.76417 3.977 2.908C4.1205 3.05167 4.19225 3.22975 4.19225 3.44225V7.55775C4.19225 7.77025 4.12033 7.94833 3.9765 8.092C3.83267 8.23583 3.6545 8.30775 3.442 8.30775C3.22933 8.30775 3.05125 8.23583 2.90775 8.092Z" fill="var(--fill-0, #F04438)"/>
</svg>
