<svg preserveAspectRatio="none" width="100%" height="100%" overflow="visible" style="display: block;" viewBox="0 0 15.8701 15.8701" fill="none" xmlns="http://www.w3.org/2000/svg">
<path id="Bitcoin" d="M7.93457 0C12.3168 0 15.8699 3.55239 15.8701 7.93457C15.8701 12.317 12.3169 15.8701 7.93457 15.8701C3.55239 15.8699 0 12.3168 0 7.93457C0.000232196 3.55253 3.55253 0.000231415 7.93457 0ZM7.39453 4.37891L5.63184 3.94434L5.39844 4.87402C5.40972 4.8766 6.03798 5.02001 6.03418 5.03125C6.38804 5.11962 6.45236 5.35309 6.44141 5.53809L5.45996 9.45801C5.41651 9.56461 5.30637 9.72466 5.05957 9.66406C5.05159 9.67146 4.44297 9.51188 4.42383 9.50684L3.98926 10.5039L5.75 10.9463L5.38867 12.3936L6.26172 12.6104L6.62012 11.1787C6.85865 11.2427 7.0908 11.3033 7.31738 11.3594L6.95996 12.7842L7.83398 13.001L8.19629 11.5566C9.68738 11.8374 10.8085 11.724 11.2803 10.3809C11.5286 9.44748 11.2608 8.67537 10.4766 8.26855C11.0482 8.13761 11.4786 7.76331 11.5938 6.99023C11.7521 5.93415 10.9453 5.36634 9.8418 4.9873L10.1992 3.55566L9.3252 3.33887L8.97656 4.73242C8.74719 4.67543 8.51121 4.62139 8.27637 4.56836L8.62695 3.16602L7.75293 2.94824L7.39453 4.37891ZM7.38574 8.21289C7.97889 8.36025 9.87818 8.65289 9.59668 9.78027C9.32589 10.8611 7.49817 10.2768 6.90527 10.1299L7.38574 8.21289ZM8.04102 5.59668C8.53544 5.71975 10.123 5.94956 9.86719 6.97461C9.62024 7.95671 8.09959 7.4582 7.60547 7.33594L8.04102 5.59668Z" fill="var(--fill-0, #F7931A)"/>
</svg>
