<svg preserveAspectRatio="none" width="100%" height="100%" overflow="visible" style="display: block;" viewBox="0 0 20.076 21.1246" fill="none" xmlns="http://www.w3.org/2000/svg">
<path id="Qiwi" d="M9.1543 0C14.2179 0.000226458 18.3075 4.21033 18.3076 9.42285C18.3076 11.1772 17.821 12.8319 17.042 14.2354C16.9933 14.2853 16.9443 14.2847 16.9443 14.1846C16.6035 11.8792 15.2404 10.6256 13.293 10.2246C13.0983 10.1745 13.0979 10.0753 13.3408 10.0752C13.9738 10.0251 14.8022 10.0248 15.2891 10.125C15.3378 9.87439 15.3379 9.62334 15.3379 9.42285C15.3377 6.01461 12.6107 3.20801 9.2998 3.20801C5.98898 3.2081 3.26284 6.01466 3.2627 9.42285C3.2627 12.8312 5.98889 15.6386 9.2998 15.6387H9.5918C9.49443 15.0874 9.44647 14.5359 9.49512 13.9346C9.49512 13.5336 9.59221 13.4834 9.73828 13.7842C10.566 15.2877 11.7833 16.5902 14.1201 17.1416C16.019 17.5927 17.918 18.0945 20.0117 20.751C20.2065 21.0016 19.9145 21.2522 19.7197 21.0518C17.6261 19.1472 15.7274 18.4952 13.9746 18.4951C11.7837 18.5452 10.4688 18.7958 9.1543 18.7959C4.09044 18.7959 0 14.5855 0 9.42285C0.000143107 4.2603 4.09053 0 9.1543 0ZM13.7793 14.8369C13.974 14.8369 14.2176 14.9364 14.4609 15.1367C14.8504 15.4875 14.9964 15.8887 14.8018 16.1895C14.7044 16.3398 14.4613 16.4404 14.2666 16.4404C14.0232 16.4404 13.7799 16.3398 13.6338 16.1895C13.2444 15.8387 13.1465 15.3379 13.3896 15.0371C13.4383 14.9369 13.5846 14.837 13.7793 14.8369ZM15.3379 13.3828C15.4837 13.2828 15.6296 13.2324 15.7754 13.2822C16.1161 13.4325 16.2626 13.9339 16.2627 14.1846C16.3113 14.5852 16.2142 14.7857 16.0684 14.7861C15.9223 14.7861 15.727 14.636 15.5322 14.2852C15.3375 13.9343 15.2405 13.5833 15.3379 13.3828Z" fill="var(--fill-0, #F28A1A)"/>
</svg>
