<svg preserveAspectRatio="none" width="100%" height="100%" overflow="visible" style="display: block;" viewBox="0 0 41.2861 17.6416" fill="none" xmlns="http://www.w3.org/2000/svg">
<path id="Stripe" d="M28.3379 3.72168C30.3448 3.7217 32.2374 5.58205 32.249 8.99707C32.249 12.7303 30.379 14.4268 28.3262 14.4268C27.3173 14.4267 26.7097 13.9907 26.2969 13.6846L26.2852 17.0176L23.418 17.6416V3.91016H25.9414L26.0898 4.63965C26.4912 4.2628 27.2141 3.72168 28.3379 3.72168ZM3.87598 3.72168C4.82785 3.72168 5.76883 3.87504 6.7207 4.26367V7.03027C5.84911 6.54743 4.74757 6.27734 3.87598 6.27734C3.26831 6.2774 2.90137 6.45386 2.90137 6.91309C2.90166 8.2319 7.27071 7.60791 7.28223 11.1172C7.28223 13.2252 5.64224 14.4385 3.25684 14.4385C2.27059 14.4385 1.19249 14.2377 0.125977 13.7666V10.9639C1.08928 11.5056 2.30498 11.9062 3.25684 11.9062C3.89906 11.9062 4.3584 11.7292 4.3584 11.1875C4.35755 9.78664 0.000367871 10.3043 0 7.05469C0 4.97028 1.54806 3.72177 3.87598 3.72168ZM10.6426 3.92188H12.8213V6.42969H10.6426V10.6104C10.6426 12.3531 12.4539 11.8124 12.8213 11.6592V14.0498C12.4428 14.2617 11.7547 14.4385 10.8145 14.4385C9.1173 14.4385 7.84398 13.1548 7.84375 11.4121L7.85547 1.97852L10.6543 1.36621L10.6426 3.92188ZM37.1455 3.72168C39.8635 3.72168 41.2861 6.10039 41.2861 9.11523C41.2861 9.39777 41.2627 10.0096 41.2627 10.1631H35.6543C35.7804 11.5527 36.7675 11.9531 37.8799 11.9531C39.0151 11.9531 39.9097 11.706 40.6895 11.3057V13.6611C39.9096 14.1086 38.8774 14.4267 37.5127 14.4268C34.7145 14.4268 32.7647 12.6365 32.7646 9.0918C32.7646 6.10055 34.4161 3.72175 37.1455 3.72168ZM16.3877 4.79297C17.0643 3.52114 18.4064 3.78055 18.7734 3.92188V6.62988C18.4176 6.50035 17.2712 6.33658 16.5947 7.24316V14.2266H13.7275V3.92188H16.2051L16.3877 4.79297ZM22.3516 14.2266H19.4727V3.92188H22.3516V14.2266ZM27.6494 6.33594C26.9959 6.33602 26.5833 6.57162 26.2852 6.91309L26.2969 11.2822C26.5721 11.5882 26.9732 11.8359 27.6494 11.8359C28.7044 11.8359 29.4159 10.658 29.416 9.08008C29.416 7.53733 28.693 6.33594 27.6494 6.33594ZM37.1338 6.1123C36.4114 6.11245 35.6202 6.66572 35.6201 7.99609H38.5791C38.579 6.66554 37.8333 6.1123 37.1338 6.1123ZM22.3516 2.39062L19.4727 3.02637V0.624023L22.3516 0V2.39062Z" fill="var(--fill-0, #6461FC)"/>
</svg>
