<svg preserveAspectRatio="none" width="100%" height="100%" overflow="visible" style="display: block;" viewBox="0 0 36.4282 22.3525" fill="none" xmlns="http://www.w3.org/2000/svg">
<g id="Maestro">
<path id="Left" d="M11.0479 0C17.1493 0 22.0954 5.00352 22.0957 11.1758C22.0957 17.3483 17.1495 22.3525 11.0479 22.3525C4.94628 22.3525 0 17.3482 0 11.1758C0.000256773 5.00358 4.94644 8.55069e-05 11.0479 0Z" fill="var(--fill-0, #ED0006)"/>
<path id="Right" d="M25.3804 0C31.4819 0 36.428 5.00352 36.4282 11.1758C36.4282 17.3483 31.482 22.3525 25.3804 22.3525C19.2788 22.3525 14.3325 17.3482 14.3325 11.1758C14.3328 5.00358 19.279 8.7071e-05 25.3804 0Z" fill="var(--fill-0, #0099DF)"/>
<path id="Middle" d="M18.2135 2.67284C20.5884 4.72277 22.0963 7.77106 22.0963 11.1768C22.0962 14.582 20.588 17.6289 18.2135 19.6787C15.8396 17.6289 14.3328 14.5816 14.3326 11.1768C14.3326 7.77151 15.8392 4.72276 18.2135 2.67284Z" fill="var(--fill-0, #6C6BBD)"/>
</g>
</svg>
