<svg preserveAspectRatio="none" width="100%" height="100%" overflow="visible" style="display: block;" viewBox="0 0 18 18" fill="none" xmlns="http://www.w3.org/2000/svg">
<path id="icon" d="M9.00166 18C7.75682 18 6.58674 17.7638 5.49142 17.2914C4.3961 16.8189 3.44337 16.1778 2.63321 15.368C1.82305 14.5581 1.18161 13.6058 0.708868 12.5109C0.236289 11.4161 0 10.2463 0 9.00166C0 7.75682 0.23621 6.58674 0.708632 5.49142C1.18105 4.3961 1.82218 3.44337 2.63203 2.63321C3.44187 1.82305 4.39421 1.18161 5.48905 0.708868C6.58389 0.236289 7.75366 0 8.99834 0C10.2432 0 11.4133 0.23621 12.5086 0.708631C13.6039 1.18105 14.5566 1.82218 15.3668 2.63203C16.1769 3.44187 16.8184 4.39421 17.2911 5.48905C17.7637 6.58389 18 7.75366 18 8.99834C18 10.2432 17.7638 11.4133 17.2914 12.5086C16.8189 13.6039 16.1778 14.5566 15.368 15.3668C14.5581 16.1769 13.6058 16.8184 12.5109 17.2911C11.4161 17.7637 10.2463 18 9.00166 18ZM9 16.5789C9.88879 16.5789 10.7447 16.4286 11.5678 16.128C12.3908 15.8274 13.1429 15.3923 13.8242 14.8228L3.17724 4.17576C2.61371 4.85708 2.18013 5.60921 1.8765 6.43216C1.57287 7.25526 1.42105 8.11121 1.42105 9C1.42105 11.1158 2.15526 12.9079 3.62368 14.3763C5.09211 15.8447 6.88421 16.5789 9 16.5789ZM14.8228 13.8242C15.3923 13.1429 15.8274 12.3908 16.128 11.5678C16.4286 10.7447 16.5789 9.88879 16.5789 9C16.5789 6.88421 15.8447 5.09211 14.3763 3.62368C12.9079 2.15526 11.1158 1.42105 9 1.42105C8.109 1.42105 7.251 1.56987 6.426 1.8675C5.60116 2.16497 4.85108 2.60155 4.17576 3.17724L14.8228 13.8242Z" fill="var(--fill-0, #121621)"/>
</svg>
