<svg preserveAspectRatio="none" width="100%" height="100%" overflow="visible" style="display: block;" viewBox="0 0 42.9043 15.7158" fill="none" xmlns="http://www.w3.org/2000/svg">
<path id="Bitpay" d="M38.2607 3.72461L37.8145 5.67773L37.1387 8.62109C37.0772 8.86661 37.0388 9.09636 37.0234 9.30957C37.008 9.52302 37.033 9.7069 37.0996 9.86133C37.1662 10.0161 37.2814 10.1364 37.4453 10.2217C37.6091 10.3072 37.835 10.3496 38.1221 10.3496C38.3679 10.3496 38.6065 10.3253 38.8369 10.2773C38.9595 10.2518 39.083 10.2189 39.207 10.1826L39.3848 9.40234H39.3828L40.6777 3.72949H42.9043L42.6113 5.01465C42.6131 5.01547 42.6153 5.01663 42.6172 5.01758L41.0762 11.7607C40.9265 12.4356 40.7295 13.0195 40.4854 13.5127C40.241 14.0052 39.937 14.4153 39.5732 14.7422C39.2092 15.0693 38.7723 15.3136 38.2637 15.4746C37.7552 15.6354 37.1613 15.7158 36.4834 15.7158C36.1207 15.7158 35.7924 15.6952 35.4961 15.6553L35.9346 13.7363C36.1587 13.7686 36.4065 13.7852 36.6787 13.7852C37.3166 13.7851 37.7978 13.6368 38.1221 13.3408C38.4459 13.0451 38.6474 12.6663 38.7471 12.1992L38.748 12.1953C38.7341 12.1989 38.7204 12.2027 38.7061 12.2061C38.3474 12.2914 37.9223 12.334 37.4307 12.334C36.7239 12.334 36.1753 12.2241 35.7861 12.0059C35.3966 11.7873 35.1199 11.4882 34.9561 11.1094C34.7921 10.731 34.7195 10.2963 34.7402 9.80566C34.7606 9.31515 34.8332 8.79783 34.9561 8.25391L35.9854 3.72461H38.2607ZM22.7822 3.73047C23.345 3.73047 23.8303 3.81932 24.2373 3.99707C24.6444 4.17507 24.9787 4.41813 25.2402 4.72656C25.5014 5.03542 25.6954 5.39733 25.8213 5.81055C25.9467 6.22411 26.0098 6.666 26.0098 7.13672C26.0098 7.90085 25.8887 8.59941 25.6475 9.23242C25.4063 9.86581 25.0717 10.4128 24.6445 10.873C24.2171 11.3337 23.7044 11.6919 23.1064 11.9482C22.5084 12.2044 21.8577 12.333 21.1543 12.333C20.8126 12.333 20.4704 12.3021 20.1289 12.2393L19.4502 15.0801H17.2178L19.8086 3.73047C20.1854 3.73023 22.1787 3.73047 22.7822 3.73047ZM10.4297 12.335H8.20312L10.1689 3.72461H12.3955L10.4297 12.335ZM15.9873 3.72754H18.5381L18.0771 5.67969H15.541L14.8652 8.62305C14.8037 8.86857 14.7654 9.09831 14.75 9.31152C14.7347 9.52481 14.7594 9.70888 14.8262 9.86328C14.8927 10.018 15.0087 10.1384 15.1729 10.2236C15.3365 10.309 15.562 10.3516 15.8486 10.3516C16.0945 10.3516 16.333 10.3273 16.5635 10.2793C16.7142 10.2479 16.8707 10.2105 17.0264 10.1553L16.5625 12.1748C16.5261 12.184 16.4697 12.1982 16.4326 12.207C16.0739 12.2923 15.6489 12.3349 15.1572 12.335C14.4504 12.335 13.9019 12.2262 13.5127 12.0078C13.1231 11.7893 12.8464 11.4901 12.6826 11.1113C12.5186 10.7328 12.4471 10.2983 12.4678 9.80762C12.4882 9.31716 12.5597 8.79888 12.6826 8.25488L14.1885 1.63086L16.5713 1.24707L15.9873 3.72754ZM4 4.02246C4.1998 3.92883 4.38873 3.86181 4.58887 3.80957C4.78861 3.75758 5.00343 3.73146 5.2334 3.73145C5.71334 3.73145 6.12838 3.82018 6.47852 3.99707C6.82813 4.17402 7.11767 4.41324 7.34766 4.71484C7.57747 5.01684 7.74829 5.37038 7.8584 5.77637C7.96827 6.18226 8.02343 6.61961 8.02344 7.08789C8.02344 7.80595 7.89552 8.48498 7.64062 9.125C7.38567 9.76505 7.03842 10.3223 6.59863 10.7959C6.15863 11.2695 5.63884 11.6443 5.03906 11.9199C4.43927 12.1956 3.78857 12.334 3.08887 12.334C2.99891 12.334 2.84168 12.3312 2.61719 12.3262C2.3923 12.3207 2.13448 12.2973 1.84473 12.2559C1.55474 12.2141 1.24663 12.1516 0.921875 12.0684C0.596908 11.9852 0.289764 11.8704 0 11.7246L2.59473 0.375L4.91895 0L4 4.02246ZM33.5645 8.5752C33.4244 9.1679 33.3844 9.76355 33.4443 10.3613C33.5044 10.9593 33.7233 11.8755 33.9375 12.334H31.7832C31.52 11.8704 31.5313 11.6526 31.4814 11.5068C31.2019 11.746 30.8929 11.9438 30.5537 12.0996C30.2142 12.2555 29.8344 12.334 29.415 12.334C28.9157 12.334 28.4881 12.2423 28.1338 12.0605C27.7794 11.8788 27.4901 11.6346 27.2656 11.3281C27.0409 11.0216 26.8779 10.6627 26.7783 10.252C26.6783 9.84145 26.6289 9.40223 26.6289 8.93457C26.6289 8.21724 26.7512 7.5413 26.9961 6.90723C27.2407 6.27313 27.5802 5.71922 28.0146 5.24609C28.449 4.77301 29.4977 3.73047 31.2178 3.73047C31.9611 3.73047 32.9603 3.72949 34.6719 3.72949L33.5645 8.5752ZM20.5352 10.3555C20.7061 10.3974 20.9175 10.418 21.1689 10.418C21.5608 10.418 21.9174 10.3421 22.2393 10.1904C22.5608 10.0388 22.8353 9.82691 23.0615 9.55469C23.2877 9.28265 23.463 8.9554 23.5889 8.57324C23.7144 8.19128 23.7773 7.77019 23.7773 7.30957C23.7773 6.85968 23.6821 6.47701 23.4912 6.16309C23.3001 5.84936 22.9652 5.68276 22.4932 5.68066C22.168 5.67939 21.6308 5.67969 21.6143 5.67969L20.5352 10.3555ZM4.6416 5.67969C4.50156 5.67969 4.35657 5.69319 4.13184 5.74512C3.90687 5.79736 3.71211 5.90587 3.53223 6.07227L2.55469 10.3545C2.84388 10.4072 2.94453 10.4131 3.01465 10.4131H3.28418C3.63379 10.4131 3.96366 10.3253 4.27344 10.1484C4.58324 9.97155 4.85121 9.73409 5.07617 9.4375C5.301 9.14082 5.47837 8.80529 5.6084 8.43066C5.7382 8.05604 5.8037 7.66575 5.80371 7.25977C5.80371 6.76022 5.72331 6.36977 5.56348 6.08887C5.40343 5.80781 5.07114 5.67972 4.6416 5.67969ZM31.9834 5.67969C30.9452 5.67969 30.7467 5.6795 30.3213 5.90918C30.0194 6.07209 29.7693 6.31683 29.5498 6.60254C29.3301 6.88844 29.1579 7.21871 29.0332 7.59277C28.9081 7.96719 28.8457 8.35726 28.8457 8.7627C28.8457 9.26161 28.925 9.65733 29.085 9.94824C29.2444 10.2392 29.5396 10.3847 29.9688 10.3848C30.1984 10.3848 30.406 10.3378 30.5908 10.2441C30.7754 10.1506 30.973 9.99462 31.1826 9.77637C31.2025 9.51685 31.2344 9.24391 31.2793 8.95801C31.3242 8.67227 31.3816 8.40639 31.4316 8.16699L31.9834 5.67969ZM12.626 2.72949H10.3994L10.7412 1.2334H12.9678L12.626 2.72949Z" fill="var(--fill-0, #002855)"/>
</svg>
