<svg preserveAspectRatio="none" width="100%" height="100%" overflow="visible" style="display: block;" viewBox="0 0 10.7144 11.0919" fill="none" xmlns="http://www.w3.org/2000/svg">
<g id="G">
<path id="Blue" d="M10.7143 5.66936C10.7143 5.29194 10.684 4.91452 10.6232 4.5448H5.46819V6.67839H8.42152C8.30005 7.36391 7.90526 7.98011 7.32826 8.36524V9.75169H9.08963C10.1222 8.78887 10.7143 7.36391 10.7143 5.66936Z" fill="var(--fill-0, #4285F4)"/>
<path id="Green" d="M5.46843 11.0919C6.9413 11.0919 8.1864 10.599 9.08987 9.75171L7.32849 8.36526C6.83501 8.70417 6.20486 8.89673 5.46843 8.89673C4.04111 8.89673 2.83396 7.91851 2.40121 6.60909H0.586698V8.04175C1.51294 9.91346 3.40337 11.0919 5.46843 11.0919Z" fill="var(--fill-0, #34A853)"/>
<path id="Yellow" d="M2.40141 6.6091C2.17361 5.92358 2.17361 5.17643 2.40141 4.48321V3.05825H0.586601C-0.195511 4.62185 -0.195511 6.47045 0.586601 8.03406L2.40141 6.6091Z" fill="var(--fill-0, #FBBC04)"/>
<path id="Red" d="M5.46843 2.19555C6.25041 2.18014 7.00203 2.48054 7.56385 3.02742L9.12783 1.4407C8.13326 0.500999 6.82742 -0.0150679 5.46843 0.000337128C3.40337 0.000337128 1.51294 1.18652 0.586698 3.05823L2.40121 4.49089C2.83396 3.17377 4.04111 2.19555 5.46843 2.19555Z" fill="var(--fill-0, #EA4335)"/>
</g>
</svg>
