<svg preserveAspectRatio="none" width="100%" height="100%" overflow="visible" style="display: block;" viewBox="0 0 33 13.8909" fill="none" xmlns="http://www.w3.org/2000/svg">
<path id="ApplePay" fill-rule="evenodd" clip-rule="evenodd" d="M6.02976 1.79088C5.643 2.26007 5.02418 2.63015 4.40536 2.57728C4.328 1.94287 4.63097 1.26881 4.9855 0.852484C5.37226 0.370071 6.0491 0.0264336 6.59701 0C6.66147 0.660841 6.41007 1.30846 6.02976 1.79088ZM6.59052 2.70283C6.04535 2.67067 5.5479 2.87092 5.1461 3.03266C4.88754 3.13675 4.66858 3.2249 4.502 3.2249C4.31506 3.2249 4.08706 3.13204 3.83107 3.02778C3.49564 2.89117 3.11215 2.73499 2.71 2.74248C1.78822 2.7557 0.930894 3.29098 0.460334 4.14346C-0.506572 5.84843 0.208938 8.37284 1.14361 9.7606C1.60128 10.4479 2.1492 11.2012 2.87115 11.1748C3.18877 11.1625 3.41724 11.0631 3.65369 10.9603C3.92591 10.8418 4.2087 10.7188 4.65026 10.7188C5.07651 10.7188 5.34693 10.8386 5.60652 10.9536C5.85334 11.063 6.09038 11.168 6.44226 11.1616C7.19 11.1484 7.66056 10.4743 8.11823 9.78704C8.61213 9.0494 8.82917 8.32951 8.86211 8.22027L8.86597 8.20763C8.86518 8.20682 8.85908 8.20396 8.84834 8.19891L8.84831 8.1989C8.6832 8.12141 7.42127 7.52914 7.40916 5.94095C7.39701 4.60788 8.4101 3.93247 8.56958 3.82615L8.56961 3.82613C8.5793 3.81967 8.58583 3.81532 8.58879 3.81304C7.94418 2.835 6.9386 2.72927 6.59052 2.70283ZM11.7667 11.0889V0.786392H15.5377C17.4844 0.786392 18.8445 2.16094 18.8445 4.16989C18.8445 6.17884 17.4586 7.56661 15.4861 7.56661H13.3267V11.0889H11.7667ZM13.3265 2.13451H15.125C16.4787 2.13451 17.2522 2.87465 17.2522 4.1765C17.2522 5.47836 16.4787 6.2251 15.1185 6.2251H13.3265V2.13451ZM23.9949 9.85312C23.5824 10.6593 22.6735 11.1682 21.6937 11.1682C20.2433 11.1682 19.2313 10.2827 19.2313 8.94777C19.2313 7.62609 20.2111 6.86613 22.0225 6.75378L23.9692 6.63483V6.06651C23.9692 5.22724 23.4341 4.77127 22.4801 4.77127C21.6937 4.77127 21.12 5.18759 21.004 5.822H19.5987C19.6439 4.4871 20.8686 3.51567 22.5252 3.51567C24.3108 3.51567 25.4711 4.47389 25.4711 5.96078V11.0889H24.0272V9.85312H23.9949ZM22.1126 9.94564C21.281 9.94564 20.7525 9.53592 20.7525 8.90813C20.7525 8.2605 21.2617 7.88382 22.2351 7.82435L23.969 7.71201V8.29354C23.969 9.25837 23.1697 9.94564 22.1126 9.94564ZM30.2604 11.492C29.6352 13.2961 28.9197 13.8909 27.3984 13.8909C27.2824 13.8909 26.8956 13.8776 26.8053 13.8512V12.6154C26.902 12.6287 27.1405 12.6419 27.263 12.6419C27.9527 12.6419 28.3395 12.3445 28.578 11.5713L28.7198 11.1153L26.0769 3.61481H27.7078L29.5449 9.70114H29.5771L31.4143 3.61481H33L30.2604 11.492Z" fill="var(--fill-0, black)"/>
</svg>
