<svg preserveAspectRatio="none" width="100%" height="100%" overflow="visible" style="display: block;" viewBox="0 0 36.3424 7.12381" fill="none" xmlns="http://www.w3.org/2000/svg">
<g id="Verifone">
<path id="Verifone_2" fill-rule="evenodd" clip-rule="evenodd" d="M14.8815 1.43553H16.357L16.5942 0.220868H15.1184L14.8815 1.43553V1.43553ZM14.7284 2.21678H16.2043L15.2668 7.01274C15.1984 7.037 14.9871 7.12229 14.6954 7.12229C14.3017 7.12229 13.9406 6.96636 13.9406 6.41356C13.9406 6.30957 13.9523 6.19117 13.9787 6.0566C14.2719 4.56005 14.7284 2.21678 14.7284 2.21678V2.21678ZM29.3821 2.10723C28.3999 2.10723 28.0094 2.69175 27.8261 3.04757H27.8087L27.8654 2.21779H26.407C26.3974 2.40025 26.3344 2.97542 26.2408 3.4715C26.2408 3.4715 25.904 5.2123 25.8403 5.54562C25.7918 5.80023 25.703 6.17664 25.703 6.39511C25.703 6.86023 25.9352 7.12242 26.4533 7.12242C26.7439 7.12242 26.9534 7.04168 27.0297 7.01274L27.5174 4.51507C27.6526 3.82542 28.1436 3.37408 28.7273 3.37408C29.1982 3.37408 29.4233 3.72307 29.4233 4.00838C29.4233 4.25667 29.362 4.53187 29.3146 4.77523L29.1048 5.84483C29.0798 5.97321 29.0264 6.21986 29.0264 6.41331C29.0264 6.88613 29.2888 7.12242 29.7872 7.12242C30.0593 7.12242 30.2318 7.0533 30.354 7.01274L30.7917 4.77372C30.8866 4.26766 30.9216 4.00118 30.9216 3.6791C30.9216 2.7519 30.3879 2.10723 29.3821 2.10723V2.10723ZM22.8269 3.26693C22.002 3.26693 21.5451 4.12375 21.5451 4.88757C21.5451 5.53173 21.8315 5.9631 22.4824 5.9631C23.2182 5.9631 23.7941 5.3269 23.7941 4.241C23.7941 3.74418 23.5338 3.26693 22.8269 3.26693V3.26693ZM22.3918 7.12254C20.8117 7.12254 20.0557 6.15971 20.0557 4.93242C20.0557 3.24848 21.1936 2.10723 22.9522 2.10723C24.478 2.10723 25.2882 3.04593 25.2882 4.25149C25.2882 6.058 24.0727 7.12254 22.3918 7.12254V7.12254ZM16.8657 5.96778C16.8321 6.14038 16.8109 6.2613 16.8109 6.4099C16.8109 6.95967 17.1725 7.12242 17.5558 7.12242C17.8623 7.12242 18.0519 7.03725 18.1213 7.01274L18.8308 3.37736L19.9782 3.37723L20.2047 2.21678L19.0575 2.21691L19.1132 1.93109C19.217 1.39509 19.4653 1.15944 19.8948 1.15944C20.1815 1.15944 20.4135 1.21125 20.4941 1.2326L20.7101 0.129135C20.618 0.105507 20.1941 0 19.5665 0C18.5665 0 17.9114 0.617121 17.7177 1.61103L17.5991 2.21678H16.8521L16.6254 3.37723H17.3729C17.3729 3.37723 17.0781 4.88036 16.8657 5.96778V5.96778ZM13.4685 2.10736C12.7278 2.10736 12.3205 2.62997 12.1611 3.04682H12.1441L12.2011 2.21678H10.7421C10.7292 2.5045 10.67 2.99097 10.5213 3.7558C10.3707 4.53086 10.2239 5.30403 10.0724 6.05648C10.0464 6.18511 10.0349 6.31096 10.0349 6.41748C10.0349 6.81158 10.2265 7.12204 10.7928 7.12204C11.0733 7.12204 11.2682 7.04799 11.3617 7.01274L11.7957 4.78939C11.9521 3.93876 12.2361 3.37635 13.0601 3.37635C13.4349 3.37635 13.791 3.4576 13.8656 3.47984L14.1154 2.20061C14.0615 2.18166 13.8451 2.10736 13.4685 2.10736V2.10736ZM34.8732 4.16064C34.9522 3.72093 34.7005 3.26693 34.1316 3.26693C33.4369 3.26693 33.1317 3.74923 32.9955 4.16064H34.8732V4.16064ZM35.5317 5.94529C35.5317 6.61232 34.8961 7.12381 33.7705 7.12381C32.2149 7.12381 31.4543 6.13912 31.4543 4.93369C31.4543 3.7371 32.2359 2.1085 34.1439 2.1085C35.4018 2.1085 36.3424 2.74356 36.3424 4.19741C36.3424 4.555 36.264 4.94367 36.2304 5.09934H32.8866C32.881 5.44821 33.1703 6.05282 34.3326 6.05282C34.8506 6.05282 35.4372 5.86682 35.5317 5.81944C35.5317 5.8557 35.5317 5.92128 35.5317 5.94529V5.94529ZM8.20905 4.16064C8.28791 3.72093 8.03618 3.26693 7.46726 3.26693C6.77254 3.26693 6.46752 3.74923 6.33116 4.16064H8.20905V4.16064ZM8.86756 5.94529C8.86756 6.61232 8.23195 7.12381 7.10654 7.12381C5.5508 7.12381 4.79026 6.13912 4.79026 4.93369C4.79026 3.7371 5.57179 2.1085 7.47986 2.1085C8.73778 2.1085 9.6784 2.74356 9.6784 4.19741C9.6784 4.555 9.60004 4.94367 9.56626 5.09934H6.22255C6.21696 5.44821 6.5062 6.05282 7.6685 6.05282C8.1865 6.05282 8.77305 5.86682 8.86756 5.81944C8.86756 5.8557 8.86756 5.92128 8.86756 5.94529V5.94529ZM0 0.584906H1.48457V5.35344C1.48457 6.07051 1.83578 6.43657 2.39961 6.43657C2.45711 6.43657 2.49101 6.42911 2.50219 6.42633C2.25505 6.80641 1.93464 7.11813 1.19893 7.11813C0.420509 7.11813 0 6.56899 0 5.74489V0.584906V0.584906Z" fill="var(--fill-0, #1A1919)"/>
<path id="V" fill-rule="evenodd" clip-rule="evenodd" d="M2.05205 4.61656C1.95144 4.7762 1.89805 4.96105 1.89805 5.14974V5.36141C1.89805 5.84484 2.155 6.01808 2.43555 6.01808C2.7223 6.01808 2.8758 5.82046 3.01664 5.5958C3.2526 5.21963 6.13605 0.584906 6.13605 0.584906H4.59298L2.05205 4.61656Z" fill="var(--fill-0, #00A3DA)"/>
</g>
</svg>
