<svg preserveAspectRatio="none" width="100%" height="100%" overflow="visible" style="display: block;" viewBox="0 0 9.96853 7.09556" fill="none" xmlns="http://www.w3.org/2000/svg">
<path id="icon" d="M3.35186 5.91106L9.11086 0.152063C9.20997 0.052841 9.32597 0.00217444 9.45886 6.33334e-05C9.59175 -0.00204778 9.70991 0.0486188 9.81336 0.152063C9.9168 0.255508 9.96853 0.374286 9.96853 0.508397C9.96853 0.642619 9.9168 0.761451 9.81336 0.864896L3.77369 6.9149C3.65314 7.03534 3.51253 7.09556 3.35186 7.09556C3.19119 7.09556 3.05058 7.03534 2.93003 6.9149L0.146693 4.13156C0.0475821 4.03234 -0.00130678 3.91456 2.65487e-05 3.77823C0.00124877 3.64201 0.0535821 3.52217 0.157027 3.41873C0.260471 3.31529 0.379249 3.26356 0.51336 3.26356C0.647582 3.26356 0.766415 3.31529 0.86986 3.41873L3.35186 5.91106Z" fill="var(--fill-0, #121621)"/>
</svg>
