<svg preserveAspectRatio="none" width="100%" height="100%" overflow="visible" style="display: block;" viewBox="0 0 25.7432 9.42969" fill="none" xmlns="http://www.w3.org/2000/svg">
<path id="Bitpay" d="M22.6885 3.40625L22.2832 5.17285C22.2463 5.32017 22.2231 5.45801 22.2139 5.58594C22.2047 5.71399 22.2198 5.82435 22.2598 5.91699C22.2997 6.00989 22.3694 6.08166 22.4678 6.13281C22.566 6.18401 22.701 6.20996 22.873 6.20996C23.0205 6.20996 23.1635 6.19576 23.3018 6.16699C23.3754 6.15164 23.4499 6.13117 23.5244 6.10938L23.6309 5.6416H23.6299L24.4072 2.23828H25.7432L25.5674 3.00879C25.5683 3.00921 25.5693 3.01024 25.5703 3.01074L24.6455 7.05664C24.5557 7.46148 24.4375 7.81155 24.291 8.10742C24.1444 8.40303 23.9624 8.64953 23.7441 8.8457C23.5257 9.04198 23.2632 9.18857 22.958 9.28516C22.653 9.38153 22.2971 9.42966 21.8906 9.42969C21.673 9.42969 21.4756 9.41751 21.2979 9.39355L21.5605 8.24121C21.6951 8.26059 21.8435 8.27148 22.0068 8.27148C22.3896 8.27148 22.6785 8.18236 22.873 8.00488C23.0674 7.82743 23.1882 7.59967 23.248 7.31934L23.249 7.31738C23.2406 7.31955 23.2322 7.32121 23.2236 7.32324C23.0084 7.37447 22.7531 7.40039 22.458 7.40039C22.0339 7.40038 21.7052 7.33414 21.4717 7.20312C21.238 7.07206 21.0719 6.89316 20.9736 6.66602C20.8753 6.43905 20.8323 6.17806 20.8447 5.88379C20.857 5.58944 20.8999 5.27855 20.9736 4.95215L21.5908 2.23535H22.9561L22.6885 3.40625ZM13.6699 2.23828C14.0075 2.23832 14.2988 2.29178 14.543 2.39844C14.7871 2.50526 14.9877 2.65089 15.1445 2.83594C15.3013 3.02125 15.4167 3.2384 15.4922 3.48633C15.5675 3.73452 15.6055 3.99972 15.6055 4.28223C15.6055 4.74048 15.5333 5.15941 15.3887 5.53906C15.244 5.91895 15.0433 6.24734 14.7871 6.52344C14.5307 6.79981 14.2229 7.01513 13.8643 7.16895C13.5054 7.32269 13.1146 7.39941 12.6924 7.39941C12.4873 7.39941 12.2821 7.38145 12.0771 7.34375L11.6699 9.04785H10.3311L11.8848 2.23828C12.1109 2.23814 13.308 2.23828 13.6699 2.23828ZM6.25781 7.40137H4.92188L6.10156 2.23535H7.4375L6.25781 7.40137ZM9.5918 2.23633H11.123L10.8467 3.40723H9.3252L8.91895 5.17383C8.88204 5.32114 8.85885 5.45899 8.84961 5.58691C8.84046 5.71484 8.85549 5.82535 8.89551 5.91797C8.9354 6.01079 9.00506 6.08263 9.10352 6.13379C9.20166 6.18505 9.33679 6.2109 9.50879 6.21094C9.65618 6.21094 9.79933 6.1967 9.9375 6.16797C10.028 6.14915 10.1224 6.12693 10.2158 6.09375L9.9375 7.30469C9.91562 7.31021 9.8816 7.31891 9.85938 7.32422C9.64415 7.37536 9.38874 7.40137 9.09375 7.40137C8.66973 7.40132 8.34087 7.33517 8.10742 7.2041C7.87382 7.07301 7.70763 6.89416 7.60938 6.66699C7.511 6.43995 7.46808 6.17911 7.48047 5.88477C7.4927 5.59049 7.53563 5.27953 7.60938 4.95312L8.51367 0.978516L9.94238 0.748047L9.5918 2.23633ZM2.40039 2.41406C2.52012 2.35796 2.63302 2.31746 2.75293 2.28613C2.87282 2.25493 3.00259 2.23926 3.14062 2.23926C3.42835 2.23931 3.67677 2.2924 3.88672 2.39844C4.09659 2.50464 4.27114 2.64804 4.40918 2.8291C4.54696 3.01023 4.64881 3.22236 4.71484 3.46582C4.78077 3.70936 4.81348 3.97196 4.81348 4.25293C4.81346 4.68377 4.73695 5.09157 4.58398 5.47559C4.43101 5.85946 4.22279 6.19349 3.95898 6.47754C3.69495 6.76176 3.38336 6.98699 3.02344 7.15234C2.66356 7.31777 2.27334 7.40039 1.85352 7.40039C1.79957 7.40039 1.70517 7.39855 1.57031 7.39551C1.43533 7.39225 1.28037 7.37842 1.10645 7.35352C0.932629 7.32848 0.748349 7.2911 0.553711 7.24121C0.358689 7.19134 0.173893 7.12266 0 7.03516L1.55664 0.224609L2.95117 0L2.40039 2.41406ZM20.1387 5.14551C20.0547 5.50108 20.0305 5.85818 20.0664 6.2168C20.1025 6.57559 20.2338 7.12525 20.3623 7.40039H19.0703C18.9124 7.12225 18.9186 6.99175 18.8887 6.9043C18.721 7.04774 18.5355 7.16628 18.332 7.25977C18.1283 7.35331 17.9001 7.40039 17.6484 7.40039C17.3491 7.40034 17.0933 7.34524 16.8809 7.23633C16.6681 7.12725 16.4941 6.98084 16.3594 6.79688C16.2246 6.61304 16.1271 6.39771 16.0674 6.15137C16.0074 5.90499 15.9775 5.64104 15.9775 5.36035C15.9776 4.93013 16.0504 4.52484 16.1973 4.14453C16.344 3.76407 16.5479 3.43134 16.8086 3.14746C17.0692 2.8636 17.6984 2.23828 18.7305 2.23828H20.8027L20.1387 5.14551ZM12.3213 6.21289C12.4238 6.23807 12.5504 6.25096 12.7012 6.25098C12.9364 6.25098 13.1506 6.20529 13.3438 6.11426C13.5367 6.02326 13.7012 5.8958 13.8369 5.73242C13.9726 5.56921 14.0778 5.37281 14.1533 5.14355C14.2286 4.91446 14.2666 4.66199 14.2666 4.38574C14.2666 4.11584 14.2092 3.88658 14.0947 3.69824C13.9801 3.50991 13.7793 3.40951 13.4961 3.4082C13.3021 3.40744 12.9821 3.40723 12.9688 3.40723L12.3213 6.21289ZM2.78516 3.40723C2.70108 3.40723 2.61349 3.41606 2.47852 3.44727C2.34369 3.47864 2.22697 3.54381 2.11914 3.64355L1.5332 6.21289C1.70647 6.24446 1.76655 6.24805 1.80859 6.24805H1.9707C2.18051 6.24801 2.37856 6.19504 2.56445 6.08887C2.75021 5.98279 2.91098 5.84089 3.0459 5.66309C3.18078 5.4851 3.28722 5.28333 3.36523 5.05859C3.44312 4.8338 3.48242 4.59908 3.48242 4.35547C3.48239 4.0559 3.43375 3.8218 3.33789 3.65332C3.24187 3.48478 3.04274 3.40728 2.78516 3.40723ZM19.1895 3.40723C18.5668 3.40723 18.4476 3.40712 18.1924 3.54492C18.0112 3.64271 17.8612 3.7904 17.7295 3.96191C17.5978 4.1334 17.4947 4.33133 17.4199 4.55566C17.3449 4.78032 17.3076 5.01455 17.3076 5.25781C17.3076 5.55707 17.3552 5.79424 17.4512 5.96875C17.5469 6.14342 17.7238 6.23047 17.9814 6.23047C18.1192 6.23046 18.2436 6.20266 18.3545 6.14648C18.4651 6.09044 18.5834 5.99693 18.709 5.86621C18.7209 5.71055 18.7406 5.54647 18.7676 5.375C18.7945 5.20356 18.8293 5.04403 18.8594 4.90039L19.1895 3.40723ZM7.57617 1.6377H6.24023L6.44434 0.740234H7.78027L7.57617 1.6377Z" fill="var(--fill-0, #002855)"/>
</svg>
