<svg preserveAspectRatio="none" width="100%" height="100%" overflow="visible" style="display: block;" viewBox="0 0 25.0949 26.4055" fill="none" xmlns="http://www.w3.org/2000/svg">
<path id="Qiwi" d="M11.4424 0C17.7722 1.25875e-05 22.8848 5.26332 22.8848 11.7793C22.8847 13.972 22.2765 16.0397 21.3027 17.7939C21.2419 17.8565 21.1808 17.8563 21.1807 17.7314C20.7546 14.8495 19.0505 13.2826 16.6162 12.7812C16.3728 12.7186 16.3724 12.5938 16.6768 12.5938C17.468 12.5311 18.5027 12.5309 19.1113 12.6562C19.1722 12.3431 19.1719 12.0298 19.1719 11.7793C19.1719 7.51886 15.7637 4.00979 11.625 4.00977C7.48627 4.00977 4.07812 7.51884 4.07812 11.7793C4.07833 16.0396 7.4864 19.5479 11.625 19.5479H11.9902C11.8685 18.8588 11.8073 18.1697 11.8682 17.418C11.8682 16.9168 11.9903 16.8538 12.1729 17.2295C13.2075 19.1091 14.729 20.7385 17.6504 21.4277C20.024 21.9916 22.3976 22.618 25.0146 25.9385C25.2581 26.2517 24.8929 26.5651 24.6494 26.3145C22.0324 23.9338 19.6588 23.1191 17.4678 23.1191C14.729 23.1818 13.0857 23.4951 11.4424 23.4951C5.1127 23.4951 0.000207797 18.2325 0 11.7793C0 5.32596 5.11257 0 11.4424 0ZM17.2246 18.5459C17.468 18.546 17.772 18.6714 18.0762 18.9219C18.563 19.3604 18.7463 19.8614 18.5029 20.2373C18.3812 20.4253 18.0765 20.5508 17.833 20.5508C17.5288 20.5508 17.2246 20.4252 17.042 20.2373C16.5551 19.7987 16.433 19.1718 16.7373 18.7959C16.7982 18.6706 16.9813 18.5459 17.2246 18.5459ZM19.1719 16.7285C19.3545 16.6032 19.5371 16.5409 19.7197 16.6035C20.1457 16.7915 20.3281 17.4182 20.3281 17.7314C20.3889 18.2324 20.2675 18.4824 20.085 18.4824C19.9024 18.4824 19.6585 18.295 19.415 17.8564C19.1716 17.4179 19.0502 16.9791 19.1719 16.7285Z" fill="var(--fill-0, #F28A1A)"/>
</svg>
