<svg preserveAspectRatio="none" width="100%" height="100%" overflow="visible" style="display: block;" viewBox="0 0 26 9.56239" fill="none" xmlns="http://www.w3.org/2000/svg">
<g id="Elo">
<path id="Elo_2" d="M3.82415 2.12793C4.11184 2.03361 4.41961 1.9824 4.73984 1.9824C6.1374 1.9824 7.30316 2.95626 7.5706 4.24995L9.55104 3.85382C9.09662 1.6551 7.11548 0 4.73984 0C4.19594 0 3.6724 0.08692 3.18369 0.247039L3.82415 2.12793Z" fill="var(--fill-0, #FECA2F)"/>
<path id="Elo_3" d="M1.46727 8.49992L2.65306 6.96882C2.12376 6.43344 1.78968 5.65182 1.78968 4.78059C1.78968 3.91 2.12344 3.12839 2.6526 2.59342L1.46618 1.0625C0.566777 1.97209 0 3.30075 0 4.78059C0 6.26119 0.567606 7.59033 1.46727 8.49992" fill="var(--fill-0, #1BA7DE)"/>
<path id="Elo_4" d="M7.57121 5.31243C7.30286 6.60592 6.13784 7.57856 4.74151 7.57856C4.42115 7.57856 4.11278 7.5272 3.82506 7.43258L3.18369 9.31445C3.67316 9.47536 4.19686 9.56239 4.74151 9.56239C7.11497 9.56239 9.0948 7.90842 9.55104 5.71054L7.57121 5.31243Z" fill="var(--fill-0, #EC412A)"/>
<path id="Elo_5" fill-rule="evenodd" clip-rule="evenodd" d="M19.0795 1.0625V6.50376L20.0559 6.89515L19.594 7.96837L18.6284 7.58023C18.4112 7.48918 18.2643 7.35045 18.1527 7.19379C18.0455 7.03349 17.966 6.8144 17.966 6.51874V1.0625H19.0795ZM11.6738 5.10661C11.6981 3.55057 13.0232 2.30847 14.6312 2.33231C15.996 2.35301 17.1267 3.27737 17.4237 4.50681L12.1453 6.68836C11.8387 6.23509 11.6644 5.68979 11.6738 5.10661ZM12.8816 5.32476C12.8743 5.25947 12.8692 5.19253 12.8712 5.12499C12.8863 4.20822 13.6665 3.47669 14.6138 3.49188C15.1295 3.49854 15.5874 3.72688 15.8969 4.08029L12.8816 5.32476ZM15.7858 6.33496C15.4676 6.6342 15.0362 6.81652 14.5599 6.80997C14.2334 6.80468 13.9309 6.71017 13.6737 6.55268L13.036 7.53517C13.4727 7.80209 13.9876 7.96003 14.5428 7.96834C15.3508 7.97995 16.0873 7.67301 16.6228 7.16618L15.7858 6.33496ZM23.1434 3.49183C22.9532 3.49183 22.7704 3.52156 22.5996 3.57699L22.2197 2.47603C22.5097 2.38239 22.8202 2.33153 23.1434 2.33153C24.5537 2.33153 25.7302 3.30026 26 4.58712L24.8238 4.81898C24.6654 4.06163 23.9732 3.49183 23.1434 3.49183ZM21.2123 7.2612L22.007 6.39216C21.6521 6.08829 21.4286 5.6445 21.4286 5.14984C21.4286 4.65567 21.6521 4.2121 22.0067 3.90845L21.2114 3.03941C20.6085 3.55576 20.2286 4.31025 20.2286 5.14984C20.2286 5.99047 20.6087 6.74469 21.2123 7.2612ZM23.1433 6.80846C23.9724 6.80846 24.6644 6.23915 24.8238 5.48291L25.9996 5.71576C25.7285 7.00124 24.5524 7.96865 23.1433 7.96865C22.8199 7.96865 22.509 7.91762 22.2182 7.82354L22.599 6.72297C22.7701 6.77824 22.953 6.80846 23.1433 6.80846Z" fill="var(--fill-0, black)"/>
</g>
</svg>
