<svg preserveAspectRatio="none" width="100%" height="100%" overflow="visible" style="display: block;" viewBox="0 0 17.0995 14.4999" fill="none" xmlns="http://www.w3.org/2000/svg">
<path id="DinersClub" d="M9.69132 0.000892914C13.7436 -0.0620958 17.036 3.21562 17.0995 7.24992V7.31339C16.9728 11.2848 13.7437 14.4999 9.69132 14.4999H7.09561C3.16985 14.4369 0.00386203 11.2218 0.00381759 7.31339C-0.122817 3.40494 2.91674 0.126972 6.77921 0.000892914H9.69132ZM7.28507 1.26164C3.99278 1.26184 1.27065 3.97217 1.27042 7.24992C1.27046 10.5278 3.99266 13.239 7.28507 13.2392C10.5776 13.2391 13.3006 10.5279 13.3007 7.24992C13.3005 3.97207 10.5775 1.26168 7.28507 1.26164ZM6.33585 11.2851C4.11983 10.7178 2.78972 8.44835 3.35929 6.2421C3.7392 4.79219 4.87951 3.65745 6.33585 3.27921V11.2851ZM8.23526 3.27921C10.4513 3.8466 11.8441 6.05243 11.2743 8.25871C10.8944 9.77166 9.75492 10.9068 8.23526 11.2851V3.27921Z" fill="var(--fill-0, #0079BE)"/>
</svg>
