<svg preserveAspectRatio="none" width="100%" height="100%" overflow="visible" style="display: block;" viewBox="0 0 46.978 12.0934" fill="none" xmlns="http://www.w3.org/2000/svg">
<path id="AMEX" fill-rule="evenodd" clip-rule="evenodd" d="M5.30185 0L0 12.0779H6.34706L7.13391 10.1522H8.93248L9.71933 12.0779H16.7057V10.6081L17.3282 12.0779H20.9421L21.5646 10.5771V12.0779H36.0943L37.861 10.2022L39.5153 12.0779L46.978 12.0934L41.6594 6.07267L46.978 0H39.631L37.9112 1.84105L36.309 0H20.5026L19.1453 3.11741L17.7562 0H11.4224V1.41976L10.7178 0H5.30185ZM6.52997 1.71508H9.62382L13.1405 9.90518V1.71508H16.5297L19.246 7.58734L21.7493 1.71508H25.1216V10.3818H23.0696L23.0529 3.59061L20.0614 10.3818H18.2258L15.2175 3.59061V10.3818H10.9962L10.1959 8.43882H5.8723L5.07367 10.3801H2.81194L6.52997 1.71508ZM35.3425 1.71508H26.9989V10.3767H35.2134L37.861 7.50608L40.4129 10.3767H43.0806L39.2032 6.07097L43.0806 1.71508H40.5286L37.8945 4.55271L35.3425 1.71508ZM8.03503 3.18144L6.61056 6.64266H9.45783L8.03503 3.18144ZM29.0593 5.09161V3.50951V3.508H34.2655L36.5372 6.03818L34.1649 8.58219H29.0593V6.85499H33.6111V5.09161H29.0593Z" fill="var(--fill-0, white)"/>
</svg>
