<svg preserveAspectRatio="none" width="100%" height="100%" overflow="visible" style="display: block;" viewBox="0 0 139.609 39.6522" fill="none" xmlns="http://www.w3.org/2000/svg">
<g id="Chart">
<g id="Background">
<mask id="mask0_1815_16220" style="mask-type:alpha" maskUnits="userSpaceOnUse" x="0" y="0" width="140" height="43">
<g id="Mask">
<rect width="138.783" height="42.9565" transform="translate(0.413069 0.00169837)" fill="url(#paint0_linear_1815_16220)"/>
</g>
</mask>
<g mask="url(#mask0_1815_16220)">
<path id="Color" opacity="0.1" d="M30.1015 29.4937L15.3135 34.0744C15.2867 34.0827 15.259 34.0882 15.231 34.0909L0.786368 35.4873C0.574632 35.5078 0.413069 35.6858 0.413069 35.8985V38.8278C0.413069 39.0559 0.597994 39.2408 0.826111 39.2408H138.783C139.011 39.2408 139.196 39.0559 139.196 38.8278V6.83569C139.196 6.60757 139.011 6.42265 138.783 6.42265H134.309C134.263 6.42265 134.217 6.41487 134.173 6.39964L119.538 1.29966C119.431 1.26212 119.312 1.27081 119.211 1.32365L104.557 8.98374C104.519 9.0035 104.479 9.01728 104.437 9.0246L89.6842 11.5951C89.6485 11.6013 89.6138 11.6122 89.581 11.6274L74.8783 18.459C74.8019 18.4945 74.7164 18.5058 74.6333 18.4913L59.9856 15.9391C59.9236 15.9283 59.8599 15.9318 59.7995 15.9493L45.0763 20.225C45.0401 20.2355 45.0055 20.2509 44.9735 20.2708L30.1973 29.45C30.1673 29.4686 30.1352 29.4833 30.1015 29.4937Z" fill="var(--fill-0, #236969)"/>
</g>
</g>
<path id="Line" d="M0.413073 35.5226L15.231 34.0901C15.259 34.0874 15.2867 34.0818 15.3135 34.0735L30.1015 29.4928C30.1352 29.4824 30.1673 29.4677 30.1973 29.4491L44.9735 20.2699C45.0055 20.2501 45.0401 20.2347 45.0763 20.2241L59.7995 15.9485C59.8599 15.9309 59.9236 15.9274 59.9856 15.9382L74.6334 18.4905C74.7164 18.505 74.8019 18.4937 74.8783 18.4582L89.581 11.6266C89.6138 11.6113 89.6485 11.6005 89.6842 11.5943L104.437 9.02375C104.479 9.01643 104.519 9.00265 104.557 8.98289L119.211 1.3228C119.312 1.26996 119.431 1.26127 119.538 1.29881L134.173 6.39879C134.217 6.41402 134.263 6.4218 134.309 6.4218H139.196" stroke="var(--stroke-0, #236969)" stroke-width="0.826087" stroke-linecap="round" stroke-linejoin="round"/>
</g>
<defs>
<linearGradient id="paint0_linear_1815_16220" x1="69.3913" y1="0" x2="69.3913" y2="42.9565" gradientUnits="userSpaceOnUse">
<stop/>
<stop offset="1" stop-opacity="0"/>
</linearGradient>
</defs>
</svg>
