<svg preserveAspectRatio="none" width="100%" height="100%" overflow="visible" style="display: block;" viewBox="0 0 34.6667 12.7499" fill="none" xmlns="http://www.w3.org/2000/svg">
<g id="Elo">
<path id="Elo_2" d="M5.09887 2.83724C5.48246 2.71148 5.89281 2.6432 6.31979 2.6432C8.1832 2.6432 9.73754 3.94168 10.0941 5.6666L12.7347 5.13842C12.1288 2.2068 9.4873 0 6.31979 0C5.59459 0 4.89654 0.115893 4.24492 0.329385L5.09887 2.83724Z" fill="var(--fill-0, #FECA2F)"/>
<path id="Elo_3" d="M1.95636 11.3332L3.53742 9.29177C2.83167 8.57792 2.38624 7.53576 2.38624 6.37412C2.38624 5.21334 2.83126 4.17118 3.53679 3.45789L1.9549 1.41667C0.755703 2.62945 0 4.401 0 6.37412C0 8.34826 0.756808 10.1204 1.95636 11.3332" fill="var(--fill-0, #1BA7DE)"/>
<path id="Elo_4" d="M10.0949 7.08324C9.73715 8.80789 8.18379 10.1047 6.32202 10.1047C5.89486 10.1047 5.4837 10.0363 5.10008 9.91011L4.24492 12.4193C4.89755 12.6338 5.59582 12.7499 6.32202 12.7499C9.48663 12.7499 12.1264 10.5446 12.7347 7.61406L10.0949 7.08324Z" fill="var(--fill-0, #EC412A)"/>
<path id="Elo_5" fill-rule="evenodd" clip-rule="evenodd" d="M25.4393 1.41667V8.67169L26.7412 9.19354L26.1253 10.6245L24.8378 10.107C24.5483 9.98557 24.3524 9.80061 24.2036 9.59172C24.0606 9.37799 23.9547 9.08587 23.9547 8.69165V1.41667H25.4393ZM15.5651 6.80883C15.5974 4.73411 17.3643 3.07797 19.5082 3.10975C21.3279 3.13735 22.8356 4.36984 23.2316 6.00909L16.1938 8.91782C15.7849 8.31347 15.5526 7.5864 15.5651 6.80883ZM17.1754 7.09968C17.1658 7.01264 17.159 6.92338 17.1615 6.83333C17.1817 5.61097 18.2219 4.63559 19.4851 4.65585C20.1726 4.66473 20.7831 4.96918 21.1958 5.44039L17.1754 7.09968ZM21.0477 8.44663C20.6235 8.84561 20.0483 9.0887 19.4132 9.07997C18.9779 9.07292 18.5745 8.9469 18.2316 8.73691L17.3813 10.0469C17.9636 10.4028 18.6502 10.6134 19.3903 10.6245C20.4677 10.6399 21.4497 10.2307 22.1638 9.55492L21.0477 8.44663ZM30.8579 4.65578C30.6043 4.65578 30.3605 4.69541 30.1328 4.76932L29.6262 3.30138C30.0129 3.17653 30.427 3.10871 30.8579 3.10871C32.7383 3.10871 34.3069 4.40036 34.6667 6.11616L33.0985 6.42531C32.8871 5.41551 31.9643 4.65578 30.8579 4.65578ZM28.2831 9.68161L29.3427 8.52289C28.8694 8.11773 28.5714 7.526 28.5714 6.86646C28.5714 6.20757 28.8694 5.61614 29.3423 5.21128L28.2819 4.05255C27.4779 4.74102 26.9714 5.747 26.9714 6.86646C26.9714 7.98731 27.4783 8.99292 28.2831 9.68161ZM30.8578 9.07795C31.9632 9.07795 32.8859 8.31887 33.0984 7.31054L34.6662 7.62101C34.3047 9.33498 32.7365 10.6249 30.8578 10.6249C30.4265 10.6249 30.0119 10.5568 29.6242 10.4314L30.132 8.96396C30.3601 9.03765 30.604 9.07795 30.8578 9.07795Z" fill="var(--fill-0, black)"/>
</g>
</svg>
