<svg preserveAspectRatio="none" width="100%" height="100%" overflow="visible" style="display: block;" viewBox="0 0 13.393 13.8649" fill="none" xmlns="http://www.w3.org/2000/svg">
<g id="G">
<path id="Blue" d="M13.3929 7.0867C13.3929 6.61493 13.355 6.14315 13.279 5.681H6.83524V8.34799H10.5269C10.3751 9.20489 9.88157 9.97514 9.16032 10.4565V12.1896H11.362C12.6527 10.9861 13.3929 9.20489 13.3929 7.0867Z" fill="var(--fill-0, #4285F4)"/>
<path id="Green" d="M6.83553 13.8649C8.67662 13.8649 10.233 13.2487 11.3623 12.1896L9.16062 10.4566C8.54376 10.8802 7.75608 11.1209 6.83553 11.1209C5.05139 11.1209 3.54245 9.89814 3.00152 8.26136H0.733372V10.0522C1.89117 12.3918 4.25421 13.8649 6.83553 13.8649Z" fill="var(--fill-0, #34A853)"/>
<path id="Yellow" d="M3.00176 8.26137C2.71701 7.40447 2.71701 6.47054 3.00176 5.60401V3.82281H0.73325C-0.244391 5.77732 -0.244391 8.08806 0.73325 10.0426L3.00176 8.26137Z" fill="var(--fill-0, #FBBC04)"/>
<path id="Red" d="M6.83553 2.74444C7.81302 2.72518 8.75254 3.10068 9.45481 3.78427L11.4098 1.80088C10.1666 0.626249 8.53427 -0.0188353 6.83553 0.000420933C4.25421 0.000420933 1.89117 1.48315 0.733372 3.82279L3.00152 5.61362C3.54245 3.96721 5.05139 2.74444 6.83553 2.74444Z" fill="var(--fill-0, #EA4335)"/>
</g>
</svg>
