<svg preserveAspectRatio="none" width="100%" height="100%" overflow="visible" style="display: block;" viewBox="0 0 26.1458 19.5812" fill="none" xmlns="http://www.w3.org/2000/svg">
<g id="JCB">
<path id="Vector" d="M19.6896 10.1869C20.398 10.2023 21.1104 10.1557 21.8159 10.2112C22.5304 10.3445 22.7026 11.4261 22.0678 11.7804C21.6347 12.0137 21.1202 11.8673 20.6506 11.9085H19.6896V10.1869V10.1869ZM22.2255 8.23841C22.3828 8.7939 21.8473 9.29266 21.3123 9.21616H19.6896C19.701 8.69231 19.6674 8.12373 19.7061 7.62746C20.3562 7.64576 21.0122 7.59012 21.6585 7.65655C21.9362 7.72632 22.1686 7.95461 22.2255 8.23841V8.23841ZM26.1307 0.000600868C26.1609 1.06145 26.135 2.17838 26.1437 3.26075C26.1417 7.66128 26.1479 12.0617 26.1402 16.4625C26.1118 18.1117 24.6502 19.5447 23.0124 19.5776C21.373 19.5843 19.7334 19.5787 18.0938 19.5805V12.9278C19.8802 12.9186 21.6675 12.9465 23.4532 12.9138C24.2816 12.8618 25.189 12.3153 25.2275 11.4036C25.3251 10.4881 24.4619 9.85482 23.6424 9.7548C23.3273 9.74662 23.3366 9.66297 23.6424 9.62648C24.424 9.45754 25.0378 8.64855 24.8078 7.83834C24.6119 6.98619 23.67 6.65638 22.8866 6.65801C21.2892 6.64716 19.6916 6.6565 18.0941 6.65335C18.1044 5.41137 18.0726 4.16806 18.1113 2.92699C18.2379 1.30756 19.7362 -0.0279498 21.351 0.00102495C22.9444 0.000782485 24.5376 0.000782652 26.1307 0.000722035V0.000600868Z" fill="url(#paint0_linear_1857_96993)"/>
<path id="Vector_2" d="M0.0424888 3.09465C0.0832839 1.44806 1.55112 0.0267824 3.1868 0.00271757C4.82012 -0.00231361 6.45367 0.00199045 8.08699 0.000535647C8.08251 5.50969 8.09584 11.0194 8.08026 16.5283C8.01734 18.1549 6.56551 19.5491 4.94765 19.5779C3.31124 19.5838 1.67465 19.5787 0.0381851 19.5803V12.7034C1.62774 13.0789 3.29464 13.2387 4.91625 12.9897C5.88558 12.8337 6.94613 12.3577 7.2743 11.352C7.5158 10.4918 7.37984 9.58652 7.41578 8.70364V6.65328H4.60941C4.5968 8.00934 4.63523 9.36776 4.58911 10.7222C4.51346 11.5547 3.68901 12.0836 2.90384 12.0554C1.93009 12.0657 0.000480929 11.3497 0.000480929 11.3497C-0.00436841 8.80899 0.0287288 5.62716 0.0424888 3.0949V3.09465Z" fill="url(#paint1_linear_1857_96993)"/>
<path id="Vector_3" d="M9.13357 7.48041C8.98585 7.51175 9.10387 6.97723 9.06611 6.77447C9.07617 5.49242 9.04507 4.20899 9.08326 2.92785C9.20946 1.30157 10.7194 -0.0372751 12.3407 0.000792235H17.1153C17.1108 5.50994 17.1241 11.0197 17.1086 16.5285C17.0456 18.1551 15.5936 19.5493 13.9757 19.5781C12.3393 19.5843 10.7026 19.5791 9.06604 19.5807V12.046C10.1837 12.9631 11.7029 13.1058 13.0953 13.1083C14.1451 13.1079 15.1887 12.9461 16.2082 12.704V11.3236C15.0593 11.8962 13.7088 12.2599 12.4352 11.931C11.5468 11.7098 10.9019 10.8512 10.9163 9.93442C10.8134 8.98098 11.3723 7.97438 12.3092 7.69093C13.4725 7.32675 14.7403 7.60528 15.8308 8.07876C16.0644 8.20108 16.3015 8.35281 16.2081 7.96231V6.87733C14.3844 6.44344 12.4436 6.28378 10.6114 6.7558C10.0811 6.9054 9.56437 7.13229 9.13357 7.48053V7.48041Z" fill="url(#paint2_linear_1857_96993)"/>
</g>
<defs>
<linearGradient id="paint0_linear_1857_96993" x1="18.0388" y1="9.3719" x2="26.0929" y2="9.3719" gradientUnits="userSpaceOnUse">
<stop stop-color="#58B03A"/>
<stop offset="1" stop-color="#55B330"/>
</linearGradient>
<linearGradient id="paint1_linear_1857_96993" x1="-0.133064" y1="9.97794" x2="7.95502" y2="9.97794" gradientUnits="userSpaceOnUse">
<stop stop-color="#0F6EB6"/>
<stop offset="1" stop-color="#006DBA"/>
</linearGradient>
<linearGradient id="paint2_linear_1857_96993" x1="9.05424" y1="9.56176" x2="17.1138" y2="9.56176" gradientUnits="userSpaceOnUse">
<stop stop-color="#DE0D3D"/>
<stop offset="1" stop-color="#E30138"/>
</linearGradient>
</defs>
</svg>
