<svg preserveAspectRatio="none" width="100%" height="100%" overflow="visible" style="display: block;" viewBox="0 0 32.1377 20.1394" fill="none" xmlns="http://www.w3.org/2000/svg">
<g id="Webmoney">
<path id="Webmoney-watermark" d="M30.583 17.8582H30.623L31.4043 15.4041H32.1377L30.8975 18.739C30.5548 19.6592 30.1369 20.1394 29.3496 20.1394V19.5925C29.8154 19.5925 30.1029 19.2322 30.2676 18.739L28.9521 15.4041H29.7061L30.583 17.8582ZM7.33789 15.2908C8.19404 15.2908 8.72168 15.8319 8.72168 16.9187V17.1648H6.48828C6.48828 17.9649 6.82461 18.3181 7.53027 18.3181C7.90009 18.3181 8.24241 18.1915 8.61914 17.9714V18.4783C8.3109 18.6519 7.89963 18.7859 7.40625 18.7859C6.25565 18.7858 5.7832 18.0915 5.7832 17.0378C5.78334 16.0247 6.31064 15.2909 7.33789 15.2908ZM10.0576 15.5378C10.2631 15.4311 10.6125 15.2908 10.9824 15.2908C11.8318 15.2908 12.291 15.8652 12.291 16.9324C12.2909 18.1788 11.674 18.7859 10.6807 18.7859C10.3174 18.7858 9.75569 18.6724 9.34473 18.4587V13.8044L10.0576 13.6375V15.5378ZM20.0732 15.2908C20.9775 15.2908 21.6356 15.8711 21.6357 17.0378C21.6357 18.1783 21.0119 18.7859 20.0732 18.7859C19.1347 18.7858 18.5117 18.1782 18.5117 17.0378C18.5119 15.8712 19.1692 15.2909 20.0732 15.2908ZM27.3555 15.2908C28.212 15.2908 28.7402 15.8319 28.7402 16.9187V17.1648H26.5068C26.5068 17.9649 26.8423 18.3181 27.5479 18.3181C27.9177 18.3181 28.2603 18.1915 28.6367 17.9714V18.4783C28.3286 18.6519 27.9173 18.7859 27.4238 18.7859C26.2733 18.7858 25.8008 18.0915 25.8008 17.0378C25.8009 16.0247 26.3283 15.2909 27.3555 15.2908ZM1.53418 17.5056H1.58301L2.47266 13.9773H3.08301L4.03516 17.5056H4.08301L4.78223 13.9773H5.58301L4.47363 18.7058H3.7334L2.80176 15.3777H2.75391L1.84961 18.7058H1.11035L0 13.9773H0.767578L1.53418 17.5056ZM15.4082 17.7048H15.4424L16.9082 13.9773H17.7578V18.7058H17.0186V15.2781H16.9561L15.5586 18.7058H15.1201L13.7227 15.3582H13.6611V18.7058H13.0449V13.9773H13.873L15.4082 17.7048ZM24.0332 15.2908C24.8554 15.2908 25.1631 15.6051 25.1631 16.2917V18.7058H24.4512V16.4451C24.4512 15.9184 24.1841 15.825 23.835 15.825C23.5608 15.825 23.2113 15.9454 22.999 16.0652V18.7058H22.2861V15.7849C22.5944 15.6048 23.2458 15.2908 24.0332 15.2908ZM10.7979 15.8113C10.5237 15.8113 10.3248 15.8844 10.0508 16.031V18.2117C10.2697 18.305 10.5094 18.3181 10.6807 18.3181C11.1876 18.3181 11.5712 18.012 11.5713 16.9324C11.5713 16.0854 11.2566 15.8114 10.7979 15.8113ZM20.0732 15.7585C19.6212 15.7587 19.2306 16.1382 19.2305 17.0378C19.2305 17.9516 19.5871 18.318 20.0732 18.3181C20.5596 18.3181 20.916 17.9518 20.916 17.0378C20.9159 16.138 20.5389 15.7585 20.0732 15.7585ZM7.31738 15.738C6.89938 15.7382 6.57803 16.052 6.50293 16.7185H8.07129C8.03736 16.0182 7.6873 15.738 7.31738 15.738ZM27.335 15.738C26.9171 15.7382 26.596 16.0519 26.5205 16.7185H28.0889C28.0548 16.0182 27.7049 15.738 27.335 15.738Z" fill="var(--fill-0, #0068A3)"/>
<path id="Webmoney-logo" d="M15.6092 0C16.5518 0 17.4449 0.213496 18.24 0.592773C18.3649 0.650445 18.4901 0.714124 18.615 0.78418L18.0623 1.26562L17.2312 0.429688L15.8299 1.64648L14.9978 0.762695L12.3865 3.05371L14.0603 4.84863L13.4021 5.41211L15.0515 7.20996L14.3973 7.77246L16.7537 10.3252L18.1521 9.07129L19.3611 10.415C19.1207 10.5969 18.8585 10.7676 18.5701 10.9258C17.6958 11.4111 16.6845 11.6895 15.6092 11.6895C12.3023 11.6892 9.60526 9.06326 9.60526 5.84473C9.60531 2.62552 12.3023 0.000210174 15.6092 0ZM20.993 8.93652L19.9226 9.875L18.9588 8.83301L20.0291 7.89355L20.993 8.93652ZM18.2439 8.01562L16.8162 9.2666L15.531 7.87695L16.9588 6.62598L18.2439 8.01562ZM20.0515 6.83105L18.9812 7.76953L18.0164 6.72754L19.0877 5.78809L20.0515 6.83105ZM17.2283 5.61426L15.8015 6.86523L14.5154 5.47559L15.9432 4.22363L17.2283 5.61426ZM21.659 6.14062L20.9451 6.7666L20.3025 6.07129L21.0164 5.44629L21.659 6.14062ZM19.1355 4.62793L18.0652 5.56641L17.1004 4.52441L18.1717 3.58594L19.1355 4.62793ZM20.7459 4.07617L20.033 4.70215L19.3894 4.00684L20.1033 3.38184L20.7459 4.07617ZM16.2068 3.24023L14.7791 4.49121L13.4939 3.10156L14.9217 1.85059L16.2068 3.24023ZM18.1492 2.53223L17.0779 3.4707L16.114 2.42871L17.1844 1.49023L18.1492 2.53223ZM19.8348 2.01172L19.1199 2.6377L18.4773 1.94238L19.1912 1.31641L19.8348 2.01172Z" fill="var(--fill-0, #0068A3)"/>
</g>
</svg>
