<svg preserveAspectRatio="none" width="100%" height="100%" overflow="visible" style="display: block;" viewBox="0 0 28.4995 24.1665" fill="none" xmlns="http://www.w3.org/2000/svg">
<path id="DinersClub" d="M16.1519 0.00148994C22.9058 -0.103554 28.3939 5.3594 28.4995 12.0835V12.189C28.2883 18.808 22.9058 24.1665 16.1519 24.1665H11.8257C5.2828 24.0615 0.00650516 18.703 0.006364 12.189C-0.204695 5.67507 4.86016 0.211886 11.2974 0.00148994H16.1519ZM12.1421 2.10208C6.6545 2.10208 2.1168 6.62016 2.11672 12.0835C2.11674 17.5469 6.65447 22.065 12.1421 22.065C17.6297 22.0649 22.1675 17.5469 22.1675 12.0835C22.1674 6.62017 17.6297 2.1021 12.1421 2.10208ZM10.5591 18.8081C6.86557 17.8626 4.64952 14.0801 5.59914 10.4029C6.23233 7.98634 8.13186 6.09478 10.5591 5.46438V18.8081ZM13.7251 5.46438C17.4187 6.40998 19.7403 10.0879 18.7905 13.7652C18.1572 16.2865 16.2577 18.1778 13.7251 18.8081V5.46438Z" fill="var(--fill-0, #0079BE)"/>
</svg>
