<svg preserveAspectRatio="none" width="100%" height="100%" overflow="visible" style="display: block;" viewBox="0 0 34.6667 13.8327" fill="none" xmlns="http://www.w3.org/2000/svg">
<g id="Affirm">
<path id="Affirm_2" d="M2.84082 7.79075C4.23154 7.79089 5.29781 8.41451 5.29785 9.94895V13.6648H3.77344V12.7781C3.42688 13.3781 2.69836 13.8326 1.88086 13.8327C0.734267 13.8327 0 13.209 0 12.1784C3.46357e-06 10.8782 1.32369 10.4129 3.00977 10.1931C3.46139 10.1347 3.7002 9.98574 3.7002 9.68919C3.70013 9.25047 3.33985 9.03198 2.6875 9.03196C2.00047 9.03196 1.23866 9.40064 0.767578 9.83176L0.231445 8.70286C0.818575 8.23485 1.90095 7.79075 2.84082 7.79075ZM13.2998 5.10618C14.2271 5.10629 14.7373 5.44016 14.7373 5.44016L14.2334 6.59055C14.2257 6.58622 13.9092 6.40798 13.5039 6.40794C13.132 6.40794 12.7002 6.62398 12.7002 7.37864V7.95872H14.1797V9.21751H12.7002V13.6648H11.0703V9.21751H8.59473V13.6648H6.96387V9.21751H6.0166V7.95872H6.96387V7.5388C6.96405 5.69398 8.15059 5.10618 9.19336 5.10618C9.84807 5.10619 10.3304 5.26342 10.6309 5.44016L10.1279 6.59055C9.89277 6.4576 9.60782 6.40794 9.39648 6.40794C9.0254 6.40811 8.59473 6.62428 8.59473 7.37864V7.95872H11.0703V7.5388C11.0705 5.69398 12.257 5.10618 13.2998 5.10618ZM16.7822 7.95872V13.6648H15.1533V7.95872H16.7822ZM21.3906 7.79173C21.6065 7.79175 21.8701 7.81504 22.1221 7.92258L21.8242 9.43137C21.6322 9.28779 21.3421 9.22536 21.127 9.22532C20.5752 9.22532 19.7843 9.60873 19.7842 10.9157V13.6648H18.1523V7.95872H19.6758V8.9177C20.0239 8.16314 20.5515 7.79173 21.3906 7.79173ZM29.6875 7.79173C30.7303 7.79173 31.5938 8.4388 31.5938 9.72141V13.6648H29.9629V10.237C29.9629 9.48172 29.5082 9.16779 29.0771 9.1677C28.5377 9.1677 27.998 9.66158 27.998 10.7282V13.6648H26.3672V10.2488C26.3672 9.47027 25.9382 9.1677 25.4717 9.1677C24.9561 9.16789 24.4043 9.6733 24.4043 10.7282V13.6648H22.7715V7.95872H24.3447V8.822C24.6206 8.271 25.2181 7.79173 26.0811 7.79173C26.8716 7.79186 27.5328 8.15825 27.8447 8.79368C28.1805 8.30195 28.8247 7.79189 29.6875 7.79173ZM3.66699 11.0788C2.3515 11.2179 1.63086 11.4388 1.63086 12.0827C1.631 12.4307 1.84476 12.6413 2.27344 12.6413C3.08481 12.6412 3.66695 11.9402 3.66699 11.0788Z" fill="var(--fill-0, #060809)"/>
<path id="Affirm-Arc" fill-rule="evenodd" clip-rule="evenodd" d="M24.6578 0C20.2528 0 16.3266 3.05784 15.2122 6.98945H16.8092C17.7398 4.06149 20.8991 1.49165 24.6578 1.49165C29.2265 1.49165 33.175 4.96985 33.175 10.3847C33.175 11.6004 33.0175 12.6963 32.7193 13.6646H34.2686L34.2839 13.6116C34.5376 12.6125 34.6667 11.5274 34.6667 10.3847C34.6667 4.34583 30.2663 0 24.6578 0Z" fill="var(--fill-0, #0FA0EA)"/>
</g>
</svg>
