<svg preserveAspectRatio="none" width="100%" height="100%" overflow="visible" style="display: block;" viewBox="0 0 32.3809 12.0166" fill="none" xmlns="http://www.w3.org/2000/svg">
<g id="SEPA">
<path id="S-PA" d="M4.4248 10.208C4.57618 10.2081 4.70136 10.2769 4.7998 10.4141V10.2393H5.10156V11.374C5.10156 11.523 5.08928 11.6343 5.06543 11.708C5.04162 11.7819 5.00794 11.8398 4.96484 11.8818C4.9217 11.9239 4.864 11.9577 4.79199 11.9814C4.72008 12.0051 4.62923 12.0166 4.51953 12.0166C4.31176 12.0166 4.1642 11.98 4.07715 11.9062C3.99011 11.8324 3.94629 11.7384 3.94629 11.625C3.94629 11.614 3.94653 11.6007 3.94727 11.585L4.31641 11.626C4.32261 11.6729 4.33717 11.7049 4.35938 11.7227C4.39023 11.7478 4.43875 11.7607 4.50488 11.7607C4.58977 11.7607 4.65379 11.7478 4.69629 11.7217C4.7246 11.7043 4.74605 11.6763 4.76074 11.6377C4.77072 11.6098 4.77637 11.558 4.77637 11.4834L4.77734 11.2998C4.68148 11.4343 4.55961 11.5019 4.41211 11.502C4.24738 11.502 4.11666 11.4299 4.02051 11.2861C3.94511 11.1727 3.90728 11.0313 3.90723 10.8623C3.90723 10.6503 3.95682 10.488 4.05566 10.376C4.1545 10.2641 4.27789 10.208 4.4248 10.208ZM18.2305 11.1357L18.5176 10.2393H18.8535L18.3428 11.6758C18.3143 11.7494 18.2874 11.8058 18.2617 11.8447C18.2361 11.8834 18.2061 11.9154 18.1729 11.9395C18.1393 11.9637 18.0978 11.9827 18.0488 11.9961C17.9999 12.0097 17.9444 12.0166 17.8828 12.0166C17.8206 12.0166 17.7591 12.0106 17.6992 11.9971L17.6689 11.7354C17.7197 11.7458 17.7659 11.75 17.8066 11.75C17.8825 11.75 17.9392 11.7276 17.9756 11.6816C18.012 11.6354 18.0393 11.5762 18.0586 11.5049L17.5918 10.2393H17.9375L18.2305 11.1357ZM0.688477 9.72754C0.900542 9.72754 1.06076 9.77601 1.16797 9.87207C1.27493 9.9682 1.33155 10.0966 1.33691 10.2568L0.994141 10.2705C0.979554 10.1809 0.948421 10.1166 0.900391 10.0771C0.852445 10.0379 0.780542 10.0176 0.68457 10.0176C0.585406 10.0176 0.5073 10.039 0.451172 10.0811C0.415221 10.1079 0.397461 10.1444 0.397461 10.1895C0.397553 10.2306 0.414545 10.2656 0.448242 10.2949C0.49117 10.3321 0.595802 10.371 0.761719 10.4111C0.927419 10.4514 1.05039 10.4928 1.12988 10.5361C1.20923 10.5794 1.27146 10.6389 1.31641 10.7139C1.36122 10.789 1.38374 10.8819 1.38379 10.9922C1.38379 11.0924 1.35661 11.187 1.30273 11.2744C1.24887 11.3617 1.17252 11.4263 1.07422 11.4688C0.975813 11.5112 0.852957 11.5322 0.706055 11.5322C0.492426 11.5322 0.328438 11.4813 0.213867 11.3789C0.0993564 11.2764 0.0311117 11.127 0.00878906 10.9307L0.34082 10.8965C0.360768 11.0117 0.401 11.0962 0.461914 11.1504C0.523002 11.2044 0.605409 11.2314 0.708984 11.2314C0.818806 11.2314 0.902203 11.2081 0.958008 11.1602C1.01364 11.1121 1.04095 11.0555 1.04102 10.9912C1.04102 10.9501 1.02994 10.9148 1.00684 10.8857C0.98344 10.8567 0.942064 10.8311 0.883789 10.8096C0.843763 10.7955 0.752863 10.7706 0.611328 10.7344C0.42895 10.6879 0.301178 10.6305 0.227539 10.5625C0.124188 10.467 0.0723716 10.3504 0.0722656 10.2129C0.0722656 10.1245 0.0966771 10.0409 0.145508 9.96387C0.194225 9.88687 0.264792 9.82832 0.356445 9.78809C0.448206 9.74788 0.558828 9.72757 0.688477 9.72754ZM6.68652 10.208C6.86929 10.208 7.01354 10.2708 7.11914 10.3955C7.2247 10.5204 7.27509 10.7113 7.27051 10.9688H6.45605C6.45831 11.0681 6.48472 11.1458 6.53516 11.2012C6.58556 11.2561 6.6484 11.2842 6.72363 11.2842C6.7747 11.2842 6.8177 11.2695 6.85254 11.2412C6.88742 11.2129 6.91383 11.1666 6.93164 11.1035L7.25391 11.1592C7.21227 11.2808 7.14647 11.3739 7.05664 11.4375C6.96688 11.5011 6.85445 11.5322 6.71973 11.5322C6.50605 11.5322 6.34761 11.4604 6.24512 11.3164C6.16423 11.2011 6.12402 11.0557 6.12402 10.8799C6.12403 10.6702 6.17687 10.5057 6.2832 10.3867C6.38949 10.2678 6.52408 10.2081 6.68652 10.208ZM10.293 10.8193C10.293 10.9971 10.2985 11.1065 10.3105 11.1465C10.3225 11.1867 10.3445 11.2187 10.376 11.2422C10.4075 11.2654 10.4478 11.2764 10.4961 11.2764C10.5513 11.2763 10.6008 11.2608 10.6445 11.2295C10.6883 11.1982 10.7182 11.1596 10.7344 11.1133C10.7505 11.0669 10.7588 10.9532 10.7588 10.7725V10.2393H11.084V11.502H10.7822V11.3125C10.7375 11.3798 10.6792 11.4339 10.6064 11.4736C10.5336 11.5133 10.4559 11.5322 10.375 11.5322C10.2926 11.5322 10.2188 11.5138 10.1533 11.4766C10.0879 11.4393 10.041 11.3867 10.0117 11.3193C9.98245 11.2519 9.9678 11.1589 9.96777 11.04V10.2393H10.293V10.8193ZM13.0312 10.208C13.2163 10.2081 13.368 10.2703 13.4863 10.3945C13.6047 10.519 13.6641 10.6771 13.6641 10.8672C13.664 11.0587 13.6039 11.2178 13.4844 11.3438C13.3649 11.4696 13.2145 11.5322 13.0332 11.5322C12.921 11.5322 12.8137 11.5064 12.7119 11.4541C12.61 11.4015 12.5325 11.3241 12.4795 11.2227C12.4265 11.1212 12.3994 10.9981 12.3994 10.8525C12.3994 10.7413 12.4264 10.6335 12.4795 10.5293C12.5325 10.4252 12.6077 10.3449 12.7051 10.29C12.8022 10.2353 12.9114 10.208 13.0312 10.208ZM16.8428 10.208C16.9873 10.208 17.0953 10.2256 17.166 10.2607C17.2367 10.2962 17.2867 10.3412 17.3154 10.3955C17.3443 10.4498 17.3584 10.55 17.3584 10.6953L17.3555 11.0859C17.3555 11.197 17.3608 11.2794 17.3711 11.332C17.3815 11.3847 17.4003 11.4417 17.4287 11.502H17.1064C17.0979 11.4802 17.0885 11.4472 17.0762 11.4043C17.0708 11.3847 17.0666 11.3715 17.0645 11.3652C17.0091 11.4209 16.9497 11.4633 16.8867 11.4912C16.8239 11.5189 16.7569 11.5322 16.6855 11.5322C16.5597 11.5322 16.4602 11.4972 16.3877 11.4268C16.3151 11.356 16.2783 11.2662 16.2783 11.1582C16.2784 11.087 16.2953 11.0236 16.3281 10.9678C16.3612 10.9119 16.4074 10.8686 16.4668 10.8389C16.5264 10.8092 16.6125 10.783 16.7246 10.7607C16.876 10.7314 16.9815 10.7042 17.04 10.6787V10.6445C17.04 10.5796 17.024 10.5336 16.9932 10.5059C16.9621 10.4782 16.9042 10.4639 16.8184 10.4639C16.7605 10.4639 16.7151 10.4756 16.6826 10.499C16.6501 10.5226 16.6235 10.5641 16.6035 10.623L16.3125 10.5674C16.3456 10.4454 16.4018 10.3546 16.4824 10.2959C16.5632 10.2371 16.6836 10.208 16.8428 10.208ZM21.7695 10.208C21.9523 10.208 22.0965 10.2708 22.2021 10.3955C22.3076 10.5204 22.3581 10.7114 22.3535 10.9688H21.5381C21.5404 11.0681 21.5668 11.1458 21.6172 11.2012C21.6675 11.2563 21.7312 11.2842 21.8066 11.2842C21.8577 11.2841 21.9007 11.2696 21.9355 11.2412C21.9706 11.2129 21.9968 11.1666 22.0146 11.1035L22.3369 11.1592C22.2952 11.2808 22.2295 11.3739 22.1396 11.4375C22.0497 11.5012 21.9368 11.5322 21.8018 11.5322C21.5884 11.5321 21.4307 11.4603 21.3281 11.3164C21.2471 11.2011 21.2061 11.0558 21.2061 10.8799C21.2061 10.6701 21.26 10.5057 21.3662 10.3867C21.4727 10.2678 21.6068 10.208 21.7695 10.208ZM24.5391 10.2393H24.7607V10.5059H24.5391V11.0166C24.5391 11.1197 24.5417 11.1802 24.5459 11.1973C24.55 11.2143 24.5596 11.2282 24.5742 11.2393C24.589 11.2503 24.6069 11.2559 24.6279 11.2559C24.6575 11.2558 24.7 11.2449 24.7559 11.2236L24.7842 11.4824C24.7092 11.5157 24.6241 11.5322 24.5293 11.5322C24.4712 11.5322 24.4187 11.5222 24.3721 11.502C24.3257 11.4819 24.2914 11.4559 24.2695 11.4238C24.2477 11.3917 24.233 11.3477 24.2246 11.293C24.2177 11.254 24.2139 11.1755 24.2139 11.0576V10.5059H24.0664V10.2393H24.2139V9.9873L24.5391 9.79004V10.2393ZM25.502 10.208C25.6704 10.208 25.7959 10.2361 25.8779 10.292C25.9597 10.348 26.0159 10.4307 26.0469 10.54L25.7422 10.5986C25.729 10.5498 25.7037 10.5124 25.667 10.4863C25.63 10.4601 25.5771 10.4463 25.5088 10.4463C25.4225 10.4463 25.3605 10.4595 25.3232 10.4844C25.2984 10.5018 25.2862 10.524 25.2861 10.5518C25.2861 10.5758 25.2967 10.5965 25.3184 10.6133C25.3478 10.6355 25.4491 10.6674 25.6221 10.708C25.7954 10.7487 25.9166 10.7984 25.9854 10.8574C26.0531 10.9172 26.0879 11.0007 26.0879 11.1074C26.0878 11.2236 26.0399 11.3236 25.9463 11.4072C25.8524 11.4908 25.7138 11.5322 25.5303 11.5322C25.3638 11.5322 25.2319 11.4979 25.1348 11.4287C25.0375 11.3591 24.9733 11.2648 24.9434 11.1455L25.2695 11.0938C25.2834 11.1581 25.3114 11.2068 25.3535 11.2402C25.3958 11.2737 25.4544 11.291 25.5303 11.291C25.6141 11.291 25.6775 11.275 25.7197 11.2432C25.7481 11.2208 25.7616 11.1907 25.7617 11.1533C25.7617 11.128 25.7545 11.1064 25.7393 11.0898C25.7229 11.0738 25.6863 11.0585 25.6299 11.0449C25.3671 10.9851 25.2001 10.9311 25.1299 10.8818C25.0325 10.8136 24.9844 10.7181 24.9844 10.5967C24.9844 10.487 25.0261 10.3949 25.1104 10.3203C25.1947 10.2457 25.3251 10.208 25.502 10.208ZM30.3994 10.208C30.5821 10.208 30.7263 10.2708 30.832 10.3955C30.9375 10.5204 30.988 10.7112 30.9834 10.9688H30.1689C30.1713 11.0681 30.1977 11.1458 30.248 11.2012C30.2986 11.2561 30.3614 11.2842 30.4365 11.2842C30.4877 11.2842 30.5305 11.2695 30.5654 11.2412C30.6003 11.2129 30.6276 11.1666 30.6455 11.1035L30.9668 11.1592C30.9252 11.2808 30.8594 11.3739 30.7695 11.4375C30.6798 11.5011 30.5673 11.5322 30.4326 11.5322C30.2189 11.5322 30.0605 11.4604 29.958 11.3164C29.8771 11.2011 29.8369 11.0557 29.8369 10.8799C29.8369 10.6702 29.8898 10.5057 29.9961 10.3867C30.1023 10.2678 30.237 10.2081 30.3994 10.208ZM31.7949 10.208C31.9395 10.208 32.0474 10.2256 32.1182 10.2607C32.1888 10.2962 32.2388 10.3412 32.2676 10.3955C32.2964 10.4498 32.3105 10.55 32.3105 10.6953L32.3076 11.0859C32.3076 11.197 32.3129 11.2794 32.3232 11.332C32.3337 11.3847 32.3526 11.4417 32.3809 11.502H32.0596C32.051 11.4802 32.0408 11.4472 32.0283 11.4043C32.0231 11.3847 32.0187 11.3715 32.0166 11.3652C31.9612 11.4209 31.9019 11.4633 31.8389 11.4912C31.776 11.5189 31.709 11.5322 31.6377 11.5322C31.5118 11.5322 31.4124 11.4972 31.3398 11.4268C31.2674 11.356 31.2305 11.2662 31.2305 11.1582C31.2305 11.0871 31.2474 11.0236 31.2803 10.9678C31.3133 10.9119 31.3595 10.8686 31.4189 10.8389C31.4785 10.8092 31.5647 10.783 31.6768 10.7607C31.8282 10.7314 31.9337 10.7042 31.9922 10.6787V10.6445C31.9922 10.5796 31.9762 10.5336 31.9453 10.5059C31.9144 10.4782 31.8563 10.4639 31.7705 10.4639C31.7126 10.4639 31.6673 10.4756 31.6348 10.499C31.6024 10.5226 31.5756 10.5641 31.5557 10.623L31.2646 10.5674C31.2977 10.4454 31.354 10.3546 31.4346 10.2959C31.5154 10.2371 31.6358 10.208 31.7949 10.208ZM2.06348 11.502H1.73828V10.2393H2.06348V11.502ZM3.16992 10.208C3.2414 10.208 3.30708 10.2215 3.36621 10.248C3.42511 10.2745 3.46966 10.3085 3.5 10.3496C3.53032 10.3908 3.55155 10.4379 3.56348 10.4902C3.57539 10.5426 3.58203 10.6182 3.58203 10.7158V11.502H3.25586V10.8555C3.25585 10.7191 3.24907 10.6308 3.23535 10.5908C3.2215 10.5509 3.19893 10.5193 3.16797 10.4971C3.13707 10.4752 3.09995 10.4639 3.05664 10.4639C3.00079 10.4639 2.95064 10.48 2.90625 10.5117C2.86187 10.5434 2.83089 10.5853 2.81445 10.6377C2.79793 10.69 2.79004 10.7873 2.79004 10.9287V11.502H2.46484V10.2393H2.7666V10.4248C2.87336 10.2804 3.00792 10.208 3.16992 10.208ZM5.81641 11.502H5.49121V9.75879H5.81641V11.502ZM9.58594 10.0527H8.67676V10.4395H9.52246V10.7334H8.67676V11.208H9.61914V11.502H8.33496V9.75879H9.58594V10.0527ZM12.0547 10.208C12.1285 10.208 12.2001 10.2293 12.2686 10.2715L12.1699 10.5635C12.1152 10.5271 12.0636 10.5088 12.0166 10.5088C11.9711 10.5088 11.933 10.5223 11.9014 10.5479C11.8697 10.5737 11.8443 10.6201 11.8262 10.6875C11.808 10.7549 11.7988 10.8964 11.7988 11.1113V11.502H11.4736V10.2393H11.7754V10.4189C11.827 10.3342 11.8738 10.2779 11.915 10.25C11.9561 10.2224 12.0025 10.2081 12.0547 10.208ZM15.2705 9.75879C15.478 9.75879 15.6138 9.76778 15.6768 9.78516C15.7734 9.81127 15.8546 9.86763 15.9199 9.95508C15.9853 10.0426 16.0176 10.1562 16.0176 10.2949C16.0176 10.4019 15.9986 10.4923 15.9609 10.5654C15.9235 10.6378 15.876 10.6948 15.8184 10.7363C15.7605 10.778 15.7014 10.8058 15.6416 10.8193C15.5602 10.836 15.4421 10.8447 15.2881 10.8447H15.0654V11.502H14.7236V9.75879H15.2705ZM20.5088 10.208C20.5988 10.208 20.675 10.227 20.7373 10.2646C20.7996 10.3021 20.8471 10.3576 20.8779 10.4307C20.9001 10.4846 20.9111 10.5726 20.9111 10.6934V11.502H20.5859V10.7783C20.5859 10.6529 20.5749 10.5717 20.5527 10.5352C20.5227 10.4874 20.4761 10.4639 20.4141 10.4639C20.3687 10.4639 20.326 10.4782 20.2861 10.5068C20.2462 10.5355 20.2178 10.5776 20.2002 10.6328C20.1825 10.6879 20.1729 10.7755 20.1729 10.8945V11.502H19.8477V10.8086C19.8477 10.6855 19.8416 10.6062 19.8301 10.5703C19.8186 10.5347 19.8015 10.5077 19.7773 10.4902C19.7531 10.4729 19.7201 10.4639 19.6787 10.4639C19.6289 10.4639 19.5838 10.4781 19.5439 10.5059C19.5041 10.5336 19.4754 10.5737 19.458 10.626C19.4407 10.6784 19.4316 10.7653 19.4316 10.8867V11.502H19.1064V10.2393H19.4053V10.4121C19.5125 10.2764 19.64 10.208 19.7881 10.208C19.8666 10.208 19.9353 10.2245 19.9932 10.2578C20.0508 10.2912 20.0979 10.342 20.1348 10.4092C20.1886 10.3418 20.2473 10.2912 20.3096 10.2578C20.3719 10.2247 20.4382 10.208 20.5088 10.208ZM23.3896 10.208C23.4611 10.208 23.5269 10.2215 23.5859 10.248C23.6448 10.2745 23.6894 10.3085 23.7197 10.3496C23.7501 10.3908 23.7713 10.4379 23.7832 10.4902C23.7952 10.5426 23.8008 10.6182 23.8008 10.7158V11.502H23.4756V10.8555C23.4756 10.7191 23.4687 10.6308 23.4551 10.5908C23.4412 10.5508 23.4187 10.5193 23.3877 10.4971C23.3568 10.4751 23.3196 10.4639 23.2764 10.4639C23.2207 10.4639 23.1702 10.4801 23.126 10.5117C23.0816 10.5434 23.0507 10.5853 23.0342 10.6377C23.0178 10.69 23.0098 10.7873 23.0098 10.9287V11.502H22.6846V10.2393H22.9863V10.4248C23.0932 10.2804 23.2276 10.208 23.3896 10.208ZM28.6943 11.502H28.3262L28.1797 11.1074H27.499L27.3594 11.502H26.9971L27.6523 9.75879H28.0117L28.6943 11.502ZM29.5088 10.208C29.5826 10.208 29.6541 10.2293 29.7227 10.2715L29.623 10.5635C29.5684 10.5273 29.5176 10.5088 29.4707 10.5088C29.425 10.5088 29.3862 10.5222 29.3545 10.5479C29.3229 10.5738 29.2983 10.6203 29.2803 10.6875C29.262 10.7549 29.2529 10.8964 29.2529 11.1113V11.502H28.9277V10.2393H29.2295V10.4189C29.281 10.3344 29.3269 10.278 29.3682 10.25C29.4093 10.2222 29.4563 10.208 29.5088 10.208ZM16.8428 10.9473C16.7532 10.967 16.6945 10.9869 16.667 11.0059C16.6248 11.0369 16.6036 11.0765 16.6035 11.124C16.6035 11.171 16.6206 11.2118 16.6543 11.2461C16.6881 11.2803 16.731 11.2978 16.7832 11.2979C16.8414 11.2979 16.8972 11.278 16.9502 11.2383C16.9892 11.208 17.0151 11.1707 17.0273 11.127C17.0357 11.0983 17.04 11.0433 17.04 10.9629V10.8965C16.9985 10.9109 16.9325 10.9273 16.8428 10.9473ZM31.7949 10.9473C31.7053 10.9671 31.6467 10.9868 31.6191 11.0059C31.577 11.0369 31.5558 11.0765 31.5557 11.124C31.5557 11.171 31.5728 11.2118 31.6064 11.2461C31.6401 11.2802 31.6832 11.2978 31.7354 11.2979C31.7936 11.2979 31.8494 11.2779 31.9023 11.2383C31.9414 11.208 31.9672 11.1707 31.9795 11.127C31.9879 11.0983 31.9922 11.0433 31.9922 10.9629V10.8965C31.9508 10.9109 31.8846 10.9273 31.7949 10.9473ZM13.0322 10.4814C12.9474 10.4815 12.8761 10.5153 12.8184 10.582C12.7607 10.6487 12.7315 10.7448 12.7314 10.8701C12.7314 10.9959 12.7606 11.0923 12.8184 11.1592C12.8761 11.226 12.9474 11.2597 13.0322 11.2598C13.117 11.2598 13.1887 11.226 13.2461 11.1592C13.3034 11.0924 13.332 10.9953 13.332 10.8682C13.332 10.7443 13.3033 10.6487 13.2461 10.582C13.1887 10.5152 13.117 10.4814 13.0322 10.4814ZM4.50488 10.4639C4.42785 10.4639 4.36435 10.4954 4.31445 10.5576C4.26449 10.6201 4.23931 10.715 4.23926 10.8428C4.23926 10.9771 4.26444 11.0764 4.31445 11.1387C4.36427 11.2009 4.42592 11.2314 4.49902 11.2314C4.57747 11.2314 4.64405 11.1997 4.69824 11.1357C4.75225 11.0718 4.77928 10.977 4.7793 10.8516C4.7793 10.7205 4.75301 10.6232 4.70117 10.5596C4.64925 10.4961 4.58414 10.4639 4.50488 10.4639ZM27.6025 10.8135H28.0674L27.8311 10.167L27.6025 10.8135ZM6.70605 10.4639C6.63512 10.4639 6.57654 10.4912 6.53027 10.5449C6.48385 10.5988 6.46121 10.6722 6.46191 10.7646H6.94922C6.94693 10.6667 6.92227 10.5922 6.87598 10.541C6.82961 10.4899 6.77259 10.4639 6.70605 10.4639ZM21.7891 10.4639C21.718 10.4639 21.6586 10.491 21.6123 10.5449C21.566 10.5987 21.5432 10.6722 21.5439 10.7646H22.0312C22.0288 10.6665 22.0045 10.5922 21.958 10.541C21.9118 10.4899 21.8555 10.4639 21.7891 10.4639ZM30.4189 10.4639C30.3479 10.464 30.2894 10.4912 30.2432 10.5449C30.1967 10.5988 30.174 10.6722 30.1748 10.7646H30.6621C30.6597 10.6666 30.6351 10.5922 30.5889 10.541C30.5424 10.4899 30.4854 10.4639 30.4189 10.4639ZM15.0654 10.5508H15.252C15.3856 10.5508 15.4751 10.5417 15.5205 10.5234C15.5657 10.5051 15.6013 10.4757 15.627 10.4365C15.6525 10.3976 15.6659 10.3525 15.666 10.3008C15.666 10.2369 15.6474 10.1841 15.6113 10.1426C15.5753 10.1011 15.5298 10.0749 15.4746 10.0645C15.4339 10.0565 15.3521 10.0527 15.2295 10.0527H15.0654V10.5508ZM2.06348 10.0664H1.73828V9.75879H2.06348V10.0664ZM3.78027 0.0478516C4.70984 0.0478516 5.37263 0.103674 5.76758 0.212891C6.73142 0.479925 7.21387 1.22788 7.21387 2.45703C7.21385 2.55785 7.20664 2.70882 7.19238 2.91016H4.97754C4.97754 2.53534 4.9346 2.28331 4.84961 2.15527C4.71785 1.96586 4.35395 1.87114 3.75879 1.87109C3.18055 1.87109 2.79643 1.92593 2.60938 2.03516C2.42266 2.14481 2.3291 2.38338 2.3291 2.75C2.32917 3.08187 2.41206 3.30052 2.57812 3.40527C2.69714 3.47963 2.85472 3.52308 3.05078 3.53613L3.49707 3.56836C4.45437 3.63387 5.05255 3.6808 5.29102 3.70703C6.04792 3.78573 6.59701 3.99272 6.9375 4.3291C7.20544 4.59156 7.36501 4.93486 7.41602 5.3584C7.44585 5.61182 7.46094 5.89917 7.46094 6.21777C7.46091 6.95166 7.39279 7.48927 7.25684 7.83008C7.01021 8.45544 6.45575 8.85072 5.59375 9.0166C5.23265 9.08673 4.68033 9.12206 3.9375 9.12207C2.6974 9.12207 1.83288 9.04555 1.34473 8.89258C0.745793 8.70515 0.350364 8.32562 0.15918 7.75391C0.0527365 7.43558 1.83698e-05 6.90511 0 6.16309H2.21484C2.21484 6.24567 2.21484 6.30901 2.21484 6.35254C2.21487 6.74844 2.32569 7.00276 2.5459 7.11621C2.69859 7.19444 2.88287 7.23633 3.09961 7.24121H3.91406C4.32944 7.24121 4.59454 7.21882 4.70898 7.1748C4.91257 7.09225 5.0465 6.95932 5.11035 6.77539C5.14421 6.66229 5.1611 6.51592 5.16113 6.33691C5.16113 5.93548 5.01898 5.69028 4.73535 5.60254C4.62921 5.5679 4.13446 5.52018 3.25293 5.45898C2.54524 5.40687 2.05366 5.35619 1.77832 5.30762C1.05318 5.16773 0.570246 4.88004 0.329102 4.44336C0.117232 4.07237 0.0107828 3.51141 0.0107422 2.76074C0.0107422 2.18883 0.0681064 1.72971 0.182617 1.38477C0.2972 1.03988 0.4816 0.777777 0.736328 0.598633C1.1097 0.323631 1.58835 0.162508 2.16992 0.114258C2.65361 0.0708011 3.19013 0.0478618 3.78027 0.0478516ZM21.3672 0C21.9753 0 22.4398 0.0510535 22.7588 0.15332C23.4884 0.389036 23.9778 0.872171 24.2285 1.60156C24.3579 1.98435 24.4229 2.56057 24.4229 3.33008C24.4228 4.25531 24.351 4.92039 24.209 5.3252C23.9245 6.12553 23.3392 6.58649 22.4551 6.70605C22.3511 6.72398 21.9079 6.74009 21.127 6.75293L20.7324 6.7666H19.3125V9.12207H16.9316V0H21.3672ZM32.3711 9.12207H29.959L29.5049 7.54492H26.3223L25.8945 9.12207H23.4307L26.0889 0H29.6807L32.3711 9.12207ZM26.834 5.76855H29.0322L27.917 1.81445L26.834 5.76855ZM19.3125 4.65039H20.7969C21.2675 4.63291 21.5542 4.59554 21.6572 4.53711C21.7977 4.45726 21.8925 4.29789 21.9395 4.05859C21.9695 3.89913 21.9844 3.66163 21.9844 3.34668C21.9844 2.96103 21.9545 2.67504 21.8945 2.48828C21.8089 2.22669 21.6032 2.06764 21.2783 2.00977C21.214 2.00106 21.0604 1.9961 20.8174 1.99609H19.3125V4.65039Z" fill="var(--fill-0, #10298E)"/>
<path id="Fill 26" fill-rule="evenodd" clip-rule="evenodd" d="M13.6459 1.28336C14.6279 1.28336 15.5042 1.74981 16.0803 2.48042L16.5935 1.34577C15.7909 0.563486 14.6985 0.0812092 13.4936 0.0812092C11.6176 0.0812092 10.0129 1.2495 9.35425 2.90327H8.35349L7.76259 4.20956H9.05C9.04034 4.33073 9.03412 4.45202 9.03412 4.57575C9.03412 4.72547 9.04163 4.87343 9.05601 5.01962H8.40898L7.81818 6.32635H9.38495C10.0624 7.93829 11.647 9.06995 13.4936 9.06995C14.4242 9.06995 15.2877 8.78244 16.0026 8.29131V6.68988C15.4269 7.36582 14.5847 7.79299 13.6459 7.79299C12.5484 7.79299 11.5831 7.20945 11.0209 6.32635H14.3018L14.8926 5.01962H10.5382C10.5158 4.86237 10.5038 4.70168 10.5038 4.53801C10.5038 4.42734 10.5093 4.31779 10.5196 4.20956H15.2588L15.8496 2.90327H10.9295C11.4736 1.93495 12.4862 1.28336 13.6459 1.28336" fill="var(--fill-0, #FFBE00)"/>
</g>
</svg>
