<svg preserveAspectRatio="none" width="100%" height="100%" overflow="visible" style="display: block;" viewBox="0 0 19.6094 14.6859" fill="none" xmlns="http://www.w3.org/2000/svg">
<g id="JCB">
<path id="Vector" d="M14.7672 7.6402C15.2985 7.65175 15.8328 7.61675 16.3619 7.65839C16.8978 7.75836 17.0269 8.56959 16.5508 8.83528C16.226 9.01031 15.8401 8.90047 15.488 8.93134H14.7672V7.6402V7.6402ZM16.6691 6.17881C16.7871 6.59543 16.3855 6.96949 15.9842 6.91212H14.7672C14.7758 6.51923 14.7505 6.0928 14.7796 5.72059C15.2671 5.73432 15.7592 5.69259 16.2439 5.74242C16.4521 5.79474 16.6264 5.96595 16.6691 6.17881V6.17881ZM19.598 0.000451396C19.6206 0.796091 19.6013 1.63378 19.6078 2.44556C19.6063 5.74596 19.611 9.04627 19.6052 12.3469C19.5838 13.5837 18.4876 14.6585 17.2593 14.6832C16.0298 14.6882 14.8 14.684 13.5703 14.6854V9.69584C14.9102 9.68893 16.2507 9.70989 17.5899 9.68538C18.2112 9.64637 18.8917 9.23644 18.9207 8.55273C18.9938 7.86606 18.3464 7.39111 17.7318 7.3161C17.4955 7.30996 17.5024 7.24723 17.7318 7.21986C18.318 7.09315 18.7784 6.48641 18.6059 5.87876C18.4589 5.23965 17.7525 4.99228 17.165 4.99351C15.9669 4.98537 14.7687 4.99237 13.5706 4.99001C13.5783 4.05853 13.5545 3.12605 13.5835 2.19525C13.6784 0.980669 14.8022 -0.0209616 16.0133 0.000769459C17.2083 0.000587609 18.4032 0.000587734 19.598 0.000542272V0.000451396Z" fill="url(#paint0_linear_1857_95763)"/>
<path id="Vector_2" d="M0.0318666 2.32104C0.0624629 1.0861 1.16334 0.0201355 2.3901 0.00208692C3.61509 -0.00168648 4.84026 0.00154157 6.06525 0.000450469C6.06188 4.13231 6.07188 8.26463 6.0602 12.3963C6.01301 13.6162 4.92414 14.6618 3.71074 14.6834C2.48343 14.6879 1.25599 14.6841 0.0286388 14.6853V9.52758C1.2208 9.80922 2.47098 9.92911 3.68719 9.7423C4.41418 9.62532 5.2096 9.26831 5.45573 8.51408C5.63685 7.86892 5.53488 7.18994 5.56184 6.52778V4.99001H3.45706C3.4476 6.00705 3.47643 7.02587 3.44183 8.04168C3.38509 8.66607 2.76676 9.06277 2.17788 9.04159C1.44757 9.04931 0.000360697 8.51231 0.000360697 8.51231C-0.00327631 6.60679 0.0215466 4.22042 0.0318666 2.32122V2.32104Z" fill="url(#paint1_linear_1857_95763)"/>
<path id="Vector_3" d="M6.85017 5.61031C6.73938 5.63381 6.8279 5.23292 6.79958 5.08085C6.80712 4.11932 6.7838 3.15674 6.81244 2.19589C6.90709 0.976174 8.03951 -0.0279563 9.25549 0.000594176H12.8365C12.8331 4.13246 12.8431 8.26477 12.8314 12.3964C12.7842 13.6164 11.6952 14.6619 10.4818 14.6836C9.25444 14.6882 8.02696 14.6843 6.79953 14.6855V9.0345C7.63781 9.7223 8.77714 9.82937 9.8215 9.83123C10.6088 9.83096 11.3915 9.70957 12.1561 9.528V8.49272C11.2945 8.92216 10.2816 9.19494 9.32641 8.94821C8.66012 8.78237 8.17644 8.13843 8.18722 7.45081C8.11002 6.73573 8.52919 5.98078 9.2319 5.7682C10.1044 5.49506 11.0552 5.70396 11.8731 6.05907C12.0483 6.15081 12.2261 6.2646 12.1561 5.97173V5.158C10.7883 4.83258 9.33269 4.71283 7.95854 5.06685C7.5608 5.17905 7.17327 5.34922 6.85017 5.6104V5.61031Z" fill="url(#paint2_linear_1857_95763)"/>
</g>
<defs>
<linearGradient id="paint0_linear_1857_95763" x1="13.5291" y1="7.02892" x2="19.5697" y2="7.02892" gradientUnits="userSpaceOnUse">
<stop stop-color="#58B03A"/>
<stop offset="1" stop-color="#55B330"/>
</linearGradient>
<linearGradient id="paint1_linear_1857_95763" x1="-0.0997978" y1="7.4835" x2="5.96627" y2="7.4835" gradientUnits="userSpaceOnUse">
<stop stop-color="#0F6EB6"/>
<stop offset="1" stop-color="#006DBA"/>
</linearGradient>
<linearGradient id="paint2_linear_1857_95763" x1="6.79067" y1="7.17132" x2="12.8353" y2="7.17132" gradientUnits="userSpaceOnUse">
<stop stop-color="#DE0D3D"/>
<stop offset="1" stop-color="#E30138"/>
</linearGradient>
</defs>
</svg>
