<svg preserveAspectRatio="none" width="100%" height="100%" overflow="visible" style="display: block;" viewBox="0 0 14.002 9.4225" fill="none" xmlns="http://www.w3.org/2000/svg">
<g id="Pay">
<path id="Union" d="M11.5703 5.8471H11.5879L13.0049 2.2885H14.002L10.9385 9.42229H9.99316L11.1318 6.92718L9.12207 2.2885H10.1182L11.5703 5.8471ZM6.77637 2.12639C7.45378 2.12646 7.98902 2.31135 8.38184 2.67522C8.77469 3.03916 8.96777 3.54769 8.96777 4.18889V7.24456H8.0918V6.55706H8.05176C7.67031 7.12311 7.16902 7.40659 6.53711 7.40667C6.00193 7.40667 5.54621 7.24474 5.1875 6.92132C4.83455 6.62099 4.6352 6.17623 4.64648 5.70843C4.64648 5.19433 4.84024 4.78998 5.22168 4.48382C5.60313 4.17769 6.11532 4.02683 6.75293 4.02678C7.29946 4.02678 7.74368 4.13122 8.09668 4.32757V4.1137C8.09668 3.79608 7.96068 3.49549 7.72168 3.28753C7.4769 3.06806 7.16334 2.94677 6.83887 2.94671C6.32654 2.94671 5.92205 3.16611 5.62598 3.60491L4.81738 3.09124C5.25013 2.45002 5.90518 2.12639 6.77637 2.12639ZM2.43164 0.000417761C3.01804 -0.0110621 3.58732 0.214429 4.00293 0.630301C4.83424 1.41596 4.88555 2.73912 4.10547 3.58831L4.00293 3.69182C3.57593 4.10192 3.05218 4.30993 2.43164 4.30999H0.916992V7.24456H0V0.000417761H2.43164ZM6.89551 4.77776C6.52557 4.77782 6.21239 4.87029 5.96191 5.04925C5.71715 5.22824 5.59192 5.4537 5.5918 5.72503C5.5918 5.96766 5.70562 6.1938 5.89355 6.33245C6.09853 6.49409 6.34928 6.58041 6.60547 6.57464C6.99268 6.57463 7.3624 6.41828 7.63574 6.14104C7.93758 5.8522 8.0918 5.51141 8.0918 5.11858C7.80706 4.88759 7.40797 4.77199 6.89551 4.77776ZM0.916992 3.42034H2.4541C2.79578 3.43189 3.12686 3.29371 3.36035 3.04534C3.83873 2.54275 3.82652 1.73372 3.33105 1.24846C3.09758 1.01749 2.78434 0.890066 2.4541 0.890066H0.916992V3.42034Z" fill="var(--fill-0, #3C4043)"/>
</g>
</svg>
