<svg preserveAspectRatio="none" width="100%" height="100%" overflow="visible" style="display: block;" viewBox="0 0 749 97.8092" fill="none" xmlns="http://www.w3.org/2000/svg">
<path id="Line" d="M14.0887 92.2614L0 81.3526V0H749V5.27922L748.162 6.01316C742.521 10.9563 734.297 11.5914 727.963 7.57302L726.907 6.90302C723.496 4.73872 719.321 4.13863 715.438 5.25444C714.169 5.61896 712.856 5.80391 711.536 5.80391H710.396C705.494 5.80391 700.772 7.48692 696.748 10.2859C695.035 11.4778 693.604 12.3813 693.216 12.3813C692.789 12.3813 691.19 13.037 689.363 13.8573C685.862 15.4295 682.209 16.6576 678.426 17.3072L664.604 19.6806C662.306 20.0753 660.054 20.7049 657.883 21.5595L656.636 22.0508C650.878 24.3183 644.558 24.7418 638.549 23.2629C630.78 21.3508 622.57 22.6344 615.755 26.8263L615.182 27.1787C605.346 32.8279 593.169 32.4716 583.68 26.2568L582.579 25.5362L572.698 18.9885C570.041 17.2279 566.992 15.8622 563.944 16.7932C562.342 17.2824 560.645 18.0185 559.038 18.8203C554.157 21.2561 548.986 22.3923 543.845 20.567C541.837 19.8537 539.262 19.2858 537.13 19.2858H534.705C532.775 19.2858 530.85 19.4711 528.956 19.8392L511.494 23.2323L499.535 25.908C495.846 26.7335 492.517 28.7166 490.035 31.5679C487.323 34.6827 483.609 36.753 479.534 37.4217L464.714 39.8534C462.766 40.1731 460.844 40.6366 458.964 41.2401L451.839 43.5275C450.281 44.0275 448.671 44.3483 447.041 44.4834L446.829 44.501C439.81 45.0828 432.964 42.1266 428.575 36.6191L424.698 31.7539C423.142 29.802 420.782 28.665 418.286 28.665C417.018 28.665 415.766 28.9596 414.63 29.5255L411.962 30.8551C404.837 34.405 396.314 33.5927 389.989 28.7611L385.797 25.5588C385.149 25.0643 384.455 24.634 383.724 24.2742C377.13 21.0283 369.171 24.1267 366.507 30.9765L366.316 31.4676C364.552 36.0047 360.403 39.1782 355.563 39.6934L349.548 40.3336L333.648 43.5066C331.07 44.021 328.448 44.28 325.82 44.28H317.893C313.374 44.28 308.887 45.0457 304.624 46.5447L292.359 50.8575L287.629 52.853C279.665 56.2132 270.448 53.0644 266.204 45.5342L265.585 44.4346C262.151 38.3416 255.037 35.3347 248.274 37.1181C245.983 37.7224 243.862 38.8486 242.077 40.4086L231.803 49.3908C226.991 53.5972 221.242 56.5894 215.036 58.1169L208.446 59.7388L199.804 61.8657C195.211 62.9961 190.361 61.658 186.998 58.3325C181.704 53.0983 173.185 53.0959 167.889 58.327L164.792 61.3861C160.077 66.0425 153.185 67.7317 146.852 65.7832L145.844 65.4731C142.057 64.3081 138.008 64.3081 134.222 65.4731L125.222 68.2419C123.701 68.7097 122.254 69.3896 120.923 70.2613C112.946 75.4857 102.23 73.098 97.2251 64.981L93.2448 58.5254C90.4344 53.9674 85.4623 51.1918 80.1075 51.1918C74.2523 51.1918 68.9012 54.5052 66.2916 59.7467L55.2107 82.0029C53.3462 85.7477 50.6694 89.0293 47.3755 91.6081L46.6528 92.1739C39.2706 97.9537 29.384 99.403 20.6535 95.9853C18.2988 95.0635 16.0881 93.8095 14.0887 92.2614Z" fill="url(#paint0_linear_1560_43023)"/>
<defs>
<linearGradient id="paint0_linear_1560_43023" x1="374.5" y1="101.5" x2="374.5" y2="0" gradientUnits="userSpaceOnUse">
<stop stop-color="#EB9110" stop-opacity="0.04"/>
<stop offset="1" stop-color="#EB9110" stop-opacity="0"/>
</linearGradient>
</defs>
</svg>
