<svg preserveAspectRatio="none" width="100%" height="100%" overflow="visible" style="display: block;" viewBox="0 0 8.03578 8.31895" fill="none" xmlns="http://www.w3.org/2000/svg">
<g id="G">
<path id="Blue" d="M8.03575 4.25202C8.03575 3.96896 8.01298 3.68589 7.96743 3.4086H4.10114V5.00879H6.31614C6.22504 5.52293 5.92894 5.98508 5.49619 6.27393V7.31376H6.81722C7.59162 6.59166 8.03575 5.52293 8.03575 4.25202Z" fill="var(--fill-0, #4285F4)"/>
<path id="Green" d="M4.10132 8.31895C5.20597 8.31895 6.1398 7.94923 6.8174 7.31378L5.49637 6.27394C5.12625 6.52812 4.65365 6.67255 4.10132 6.67255C3.03083 6.67255 2.12547 5.93888 1.80091 4.95681H0.440022V6.03131C1.1347 7.43509 2.55253 8.31895 4.10132 8.31895Z" fill="var(--fill-0, #34A853)"/>
<path id="Yellow" d="M1.80105 4.95682C1.6302 4.44268 1.6302 3.88232 1.80105 3.36241V2.29368H0.43995C-0.146635 3.46639 -0.146635 4.85284 0.43995 6.02554L1.80105 4.95682Z" fill="var(--fill-0, #FBBC04)"/>
<path id="Red" d="M4.10132 1.64666C4.68781 1.63511 5.25152 1.86041 5.67289 2.27056L6.84587 1.08053C6.09994 0.37575 5.12056 -0.0113004 4.10132 0.000253322C2.55253 0.000253322 1.1347 0.889892 0.440022 2.29367L1.80091 3.36817C2.12547 2.38032 3.03083 1.64666 4.10132 1.64666Z" fill="var(--fill-0, #EA4335)"/>
</g>
</svg>
