<svg preserveAspectRatio="none" width="100%" height="100%" overflow="visible" style="display: block;" viewBox="0 0 26.4502 26.4502" fill="none" xmlns="http://www.w3.org/2000/svg">
<path id="Bitcoin" d="M13.2246 0C20.5284 0 26.45 5.92082 26.4502 13.2246C26.4502 20.5286 20.5286 26.4502 13.2246 26.4502C5.92082 26.45 0 20.5284 0 13.2246C0.000209612 5.92095 5.92095 0.000210116 13.2246 0ZM12.3242 7.29785L9.38574 6.57227L8.99805 8.12305C9.01621 8.12719 10.063 8.36602 10.0566 8.38477C10.6467 8.532 10.7536 8.92112 10.7354 9.22949L9.09961 15.7627C9.02726 15.9405 8.84389 16.2081 8.43164 16.1064C8.44658 16.1271 7.37207 15.8438 7.37207 15.8438L6.64844 17.5059L9.58301 18.2432L8.98047 20.6553L10.4355 21.0176L11.0332 18.6309C11.4306 18.7375 11.8168 18.8373 12.1943 18.9307L11.5996 21.3057L13.0566 21.668L13.6602 19.2607C16.1455 19.7287 18.0145 19.5405 18.8008 17.3018C19.2148 15.7458 18.7684 14.4583 17.4609 13.7803C18.4139 13.562 19.1314 12.9384 19.3232 11.6494C19.5871 9.8892 18.2418 8.94323 16.4023 8.31152L16.999 5.92578L15.542 5.56348L14.9609 7.88672C14.5784 7.79166 14.1847 7.70173 13.793 7.61328L14.3779 5.27539L12.9219 4.91309L12.3242 7.29785ZM12.3076 13.6895C13.2955 13.935 16.4634 14.4207 15.9932 16.3008C15.5419 18.1026 12.4956 17.1285 11.5078 16.8838L12.3076 13.6895ZM13.3994 9.32812C14.2221 9.53318 16.8706 9.91428 16.4434 11.624C16.0319 13.2619 13.4965 12.431 12.6738 12.2275L13.3994 9.32812Z" fill="var(--fill-0, #F7931A)"/>
</svg>
