<svg preserveAspectRatio="none" width="100%" height="100%" overflow="visible" style="display: block;" viewBox="0 0 28 7.06001" fill="none" xmlns="http://www.w3.org/2000/svg">
<g id="Alipay">
<path id="Vector" d="M5.8796 0H1.12156C0.501925 0 0 0.506554 0 1.13082V5.92919C0 6.55346 0.501925 7.06001 1.12156 7.06001H5.8796C6.49923 7.06001 7.00049 6.55346 7.00049 5.92919V1.13082C7.00115 0.505893 6.49923 0 5.8796 0Z" fill="var(--fill-0, #1677FF)"/>
<path id="Vector_2" d="M5.76386 4.43333C5.48413 4.33877 5.10785 4.19394 4.68925 4.04118C4.94054 3.6001 5.14158 3.09817 5.27384 2.5526H3.89371V2.05134H5.58398V1.77161H3.89371V0.935731H3.20397C3.08296 0.935731 3.08296 1.05609 3.08296 1.05609V1.77095H1.3735V2.05068H3.08296V2.55194H1.67109V2.83167H4.40886C4.309 3.17951 4.1741 3.50686 4.01472 3.80378C3.1266 3.50818 2.1783 3.26879 1.58313 3.41626C1.20223 3.51082 0.956886 3.67945 0.812723 3.85668C0.151426 4.66809 0.625575 5.90075 2.02224 5.90075C2.8482 5.90075 3.64374 5.43652 4.26007 4.6714C5.17993 5.11711 7.00048 5.8829 7.00048 5.8829V4.79175C7.00114 4.79175 6.77234 4.77324 5.76386 4.43333ZM1.89196 5.42925C0.802803 5.42925 0.480751 4.56427 1.01905 4.09078C1.19892 3.93075 1.52692 3.85271 1.70151 3.83552C2.34826 3.77137 2.94739 4.02002 3.65432 4.36787C3.15768 5.02123 2.52482 5.42925 1.89196 5.42925Z" fill="var(--fill-0, white)"/>
<path id="Vector_3" d="M15.2012 1.03361C15.2012 1.39865 15.4684 1.64465 15.8407 1.64465C16.213 1.64465 16.4802 1.39865 16.4802 1.03361C16.4802 0.675187 16.213 0.422571 15.8407 0.422571C15.4684 0.422571 15.2012 0.675187 15.2012 1.03361Z" fill="var(--fill-0, #1677FF)"/>
<path id="Vector_4" d="M14.5267 0.576658H13.4171V5.70436H14.5267V0.576658Z" fill="var(--fill-0, black)"/>
<path id="Vector_5" d="M11.4715 0.752541H9.98227L8.31778 5.705H9.34345L9.62451 4.73554H11.3875L11.6547 5.705H12.968L11.4715 0.752541ZM9.85596 3.92743L10.5159 1.64463H10.5437L11.1686 3.92743H9.85596Z" fill="var(--fill-0, black)"/>
<path id="Vector_6" d="M16.3955 1.9396H15.2859V5.70503H16.3955V1.9396Z" fill="var(--fill-0, black)"/>
<path id="Vector_7" d="M27.9934 1.94688L28 1.9396H26.9538L26.2932 4.22968H26.2581L25.4996 1.9396H24.2564L25.7523 5.71892L25.1273 6.8709V6.89867H26.1034L27.9934 1.94688Z" fill="var(--fill-0, black)"/>
<path id="Vector_8" d="M19.1565 1.86224C18.7491 1.86224 18.433 2.01698 18.0746 2.31192V1.93961H16.9649V6.89868H18.0746V5.66933C18.2855 5.72554 18.4819 5.75397 18.7207 5.75397C19.7113 5.75397 20.6034 5.02324 20.6034 3.72379C20.6034 2.55792 19.9573 1.86224 19.1565 1.86224ZM18.4535 5.05829C18.3272 5.05829 18.2075 5.0444 18.0739 5.00208V2.96528C18.306 2.80392 18.4952 2.72655 18.7339 2.72655C19.1485 2.72655 19.4785 3.05654 19.4785 3.7595C19.4792 4.6582 18.9944 5.05829 18.4535 5.05829Z" fill="var(--fill-0, black)"/>
<path id="Vector_9" d="M24.0382 4.76335V3.19012C24.0382 2.33308 23.5323 1.86224 22.6402 1.86224C22.0708 1.86224 21.678 1.96077 20.9612 2.17834L21.1576 3.04265C21.8109 2.74771 22.0986 2.62141 22.4008 2.62141C22.7658 2.62141 22.9278 2.88129 22.9278 3.28204V3.30982C21.6562 3.54854 21.2627 3.68213 21.0174 3.92813C20.8348 4.11065 20.7575 4.37054 20.7575 4.67275C20.7575 5.39621 21.3196 5.78241 21.846 5.78241C22.2394 5.78241 22.5555 5.63494 22.9841 5.31156L23.0614 5.70504H24.1711L24.0382 4.76335ZM22.9285 4.79178C22.6336 4.95314 22.4649 5.01662 22.2685 5.01662C22.0014 5.01662 21.8327 4.84072 21.8327 4.56033C21.8327 4.45518 21.8539 4.34937 21.9379 4.26539C22.0715 4.13181 22.3314 4.03327 22.9285 3.89308V4.79178Z" fill="var(--fill-0, black)"/>
</g>
</svg>
