<svg preserveAspectRatio="none" width="100%" height="100%" overflow="visible" style="display: block;" viewBox="0 0 26.585 26.5815" fill="none" xmlns="http://www.w3.org/2000/svg">
<g id="Interac">
<path id="Vector" fill-rule="evenodd" clip-rule="evenodd" d="M26.585 24.3681C26.585 24.9551 26.3518 25.5181 25.9367 25.9332C25.5216 26.3483 24.9587 26.5815 24.3717 26.5815H2.21583C1.92496 26.5818 1.63688 26.5248 1.36806 26.4137C1.09924 26.3026 0.854947 26.1396 0.649155 25.9341C0.443362 25.7285 0.280106 25.4844 0.168719 25.2157C0.0573324 24.947 -1.87802e-07 24.659 0 24.3681V2.21332C-1.87802e-07 1.92245 0.0573324 1.63443 0.168719 1.36574C0.280106 1.09704 0.443362 0.852936 0.649155 0.647377C0.854947 0.441819 1.09924 0.278839 1.36806 0.167758C1.63688 0.0566761 1.92496 -0.000329104 2.21583 1.42919e-06H24.3701C24.9571 1.42919e-06 25.5201 0.23319 25.9352 0.648267C26.3503 1.06335 26.5835 1.62631 26.5835 2.21332L26.585 24.3681Z" fill="var(--fill-0, #EDAA00)"/>
<path id="Vector_2" d="M14.8438 13.5777V8.81757L16.0868 8.5233V9.14655C16.0868 9.14655 16.4082 8.32612 17.1547 8.13547C17.3846 8.07762 17.5003 8.11233 17.5003 8.11233V9.32664C17.2766 9.32969 17.0556 9.37581 16.8494 9.46245C16.3886 9.64405 16.1572 10.0414 16.1572 10.6451V13.2734L14.8438 13.5777ZM8.29392 15.1255C8.29392 15.1255 8.0927 14.8237 8.0927 13.7513V11.3815L7.45285 11.5324V10.557L8.09321 10.4061V9.34173L9.41466 9.02985V10.0917L10.3483 9.87041V10.8463L9.41466 11.0681V13.4826C9.41466 14.5797 9.70591 14.7905 9.70591 14.7905L8.29392 15.1255ZM10.4861 12.294C10.4861 11.4474 10.6068 10.8302 10.8654 10.3563C11.1727 9.79395 11.6783 9.42774 12.4137 9.26024C13.8629 8.93075 14.3856 9.78892 14.3649 10.9388C14.3584 11.3498 14.3599 11.5505 14.3599 11.5505L11.8066 12.1506V12.1919C11.8066 12.9967 11.9756 13.3775 12.4846 13.2689C12.9243 13.1763 13.0465 12.9006 13.0812 12.5606C13.0873 12.5048 13.0893 12.3654 13.0893 12.3654L14.286 12.0787C14.286 12.0787 14.289 12.1768 14.286 12.2859C14.2749 12.7432 14.1421 13.877 12.4796 14.2694C10.9051 14.6431 10.4846 13.6813 10.4846 12.294H10.4861ZM12.465 10.1466C12.042 10.2426 11.8201 10.6576 11.8111 11.3453L13.0958 11.0394C13.0983 11.0083 13.0983 10.9388 13.0983 10.8322C13.0958 10.3136 12.9353 10.0399 12.4655 10.1466H12.465ZM21.9702 9.51024C21.9199 8.06052 22.2962 6.90959 23.9134 6.54238C24.9456 6.30797 25.3365 6.57558 25.5347 6.83464C25.7253 7.08213 25.7988 7.41564 25.7988 7.88295V7.96947L24.5321 8.27129V8.09472C24.5321 7.54139 24.3812 7.33012 23.9788 7.43073C23.5004 7.55095 23.3073 8.00468 23.3073 8.90812V9.32915C23.3073 10.2472 23.433 10.6677 23.9838 10.552C24.4627 10.4514 24.5281 10.0329 24.5372 9.66467C24.5372 9.60682 24.5407 9.42171 24.5407 9.42171L25.8053 9.12392V9.3206C25.8018 10.5238 25.1675 11.2824 23.9783 11.5591C22.3419 11.9434 22.021 10.9962 21.9707 9.51024H21.9702ZM17.5954 11.5395C17.5954 10.4368 18.2423 10.0882 19.2146 9.6863C20.0884 9.32462 20.107 9.14504 20.111 8.83115C20.1156 8.56707 19.9933 8.3402 19.5577 8.45137C19.1578 8.55197 19.0517 8.84272 19.0305 9.07412C19.0232 9.15539 19.0205 9.23701 19.0225 9.31859L17.7966 9.60783C17.7883 9.36351 17.8168 9.11933 17.8811 8.88347C18.0773 8.224 18.6593 7.78033 19.6623 7.54844C20.9662 7.24662 21.4013 7.82007 21.4033 8.71043V10.8186C21.4033 11.8382 21.5924 11.9871 21.5924 11.9871L20.3887 12.2724C20.3222 12.1332 20.268 11.9884 20.2267 11.8398C20.2267 11.8398 19.9636 12.5033 19.0552 12.7175C18.0994 12.9419 17.5964 12.3513 17.5964 11.54L17.5954 11.5395ZM20.104 10.0344C19.901 10.1767 19.6867 10.302 19.4631 10.4091C19.0607 10.6058 18.8801 10.8473 18.8801 11.2195C18.8801 11.542 19.0813 11.7542 19.4435 11.6637C19.8334 11.5661 20.104 11.2024 20.104 10.6979V10.0344ZM1.38635 18.4621C1.24898 18.4618 1.11422 18.4245 0.996271 18.3541C0.878318 18.2837 0.78153 18.1828 0.716093 18.062C0.650655 17.9412 0.618989 17.805 0.624428 17.6678C0.629868 17.5305 0.672212 17.3972 0.747002 17.282L0.75505 17.2714L0.769638 17.2679L2.56544 16.8439V18.2086L2.53728 18.2151C2.12982 18.3132 1.64289 18.4244 1.54229 18.445C1.49077 18.4565 1.43813 18.4623 1.38534 18.4621H1.38635ZM1.38635 20.2081C1.18453 20.2081 0.990945 20.1281 0.848004 19.9856C0.705063 19.8432 0.624426 19.6499 0.62376 19.448C0.622956 19.3007 0.665844 19.1565 0.747002 19.0335L0.75505 19.02L0.769638 19.0169L2.56544 18.5929V19.9576L2.53728 19.9652C2.12982 20.0627 1.64289 20.1759 1.54229 20.1955C1.49059 20.2057 1.43802 20.2107 1.38534 20.2106L1.38635 20.2081ZM1.38635 21.9571C1.18405 21.957 0.990086 21.8766 0.847087 21.7335C0.704088 21.5904 0.62376 21.3963 0.62376 21.194C0.622956 21.0467 0.665844 20.9025 0.747002 20.7796L0.75505 20.7655L2.56595 20.3389V21.7036L2.53778 21.7107C2.10769 21.8143 1.62931 21.9224 1.54279 21.942C1.49106 21.9519 1.43852 21.957 1.38585 21.9571" fill="var(--fill-0, #231F20)"/>
<path id="Vector_3" d="M1.17507 16.7895L1.17456 9.1541L2.56644 8.82512V16.4601L1.17507 16.7895V16.7895Z" fill="var(--fill-0, #231F20)"/>
<path id="Vector_4" d="M4.64244 16.1401C4.63701 15.9159 4.54414 15.7027 4.38365 15.5461C4.22316 15.3894 4.00779 15.3017 3.78352 15.3017C3.55925 15.3017 3.34388 15.3894 3.18339 15.5461C3.0229 15.7027 2.93003 15.9159 2.9246 16.1401V23.2771C2.92567 23.8934 3.17095 24.4842 3.60672 24.9201C4.0425 25.356 4.63325 25.6014 5.24959 25.6026C5.8995 25.6026 7.68022 25.5995 7.68022 25.5995V19.3021C7.68054 19.117 7.63512 18.9347 7.54797 18.7714C7.46082 18.6081 7.33466 18.4688 7.18071 18.366L5.01367 16.8942V20.2363C5.01498 20.2613 5.01118 20.2863 5.00251 20.3098C4.99383 20.3333 4.98046 20.3548 4.96322 20.373C4.94597 20.3912 4.9252 20.4056 4.90218 20.4155C4.87916 20.4254 4.85437 20.4305 4.82931 20.4305C4.80426 20.4305 4.77947 20.4254 4.75645 20.4155C4.73343 20.4056 4.71266 20.3912 4.69541 20.373C4.67816 20.3548 4.6648 20.3333 4.65612 20.3098C4.64745 20.2863 4.64365 20.2613 4.64495 20.2363C4.64495 20.2006 4.64043 16.5813 4.64043 16.1401H4.64244ZM5.80242 10.8156C5.53925 10.8764 5.2923 10.9933 5.0784 11.1582C4.8645 11.3231 4.68869 11.5323 4.56296 11.7713V11.2366L3.30992 11.5334V14.9605C3.52971 14.8738 3.76917 14.8495 4.00191 14.8902C4.23464 14.931 4.4516 15.0352 4.62886 15.1914V12.9781C4.62886 12.4484 4.89345 12.0249 5.26971 11.9419C5.55392 11.8795 5.79035 11.9811 5.79035 12.4856V15.7146L7.10979 15.4047V11.9896C7.10979 11.1612 6.79187 10.5812 5.80192 10.8156H5.80242ZM24.9853 5.92868C24.8239 5.92877 24.666 5.88099 24.5317 5.79136C24.3974 5.70174 24.2927 5.5743 24.2308 5.42515C24.1689 5.27601 24.1526 5.11187 24.184 4.95348C24.2154 4.79509 24.2931 4.64958 24.4072 4.53533C24.5213 4.42108 24.6667 4.34323 24.8251 4.31164C24.9834 4.28004 25.1476 4.2961 25.2968 4.3578C25.446 4.4195 25.5736 4.52407 25.6634 4.65827C25.7532 4.79247 25.8012 4.95029 25.8013 5.11176C25.8009 5.32798 25.7148 5.53523 25.5618 5.68808C25.4089 5.84092 25.2016 5.9269 24.9853 5.92717V5.92868ZM24.9853 4.39746C24.8442 4.39746 24.7062 4.43931 24.5888 4.51772C24.4715 4.59613 24.38 4.70758 24.3259 4.83798C24.2719 4.96838 24.2577 5.11188 24.2852 5.25033C24.3127 5.38877 24.3807 5.51596 24.4804 5.61581C24.5802 5.71565 24.7074 5.78368 24.8458 5.81128C24.9842 5.83887 25.1277 5.82481 25.2582 5.77086C25.3886 5.71691 25.5001 5.6255 25.5786 5.50819C25.6571 5.39087 25.699 5.25291 25.6991 5.11176C25.6989 4.92248 25.6236 4.74103 25.4898 4.60715C25.356 4.47326 25.1746 4.39786 24.9853 4.39746" fill="var(--fill-0, #231F20)"/>
<path id="Vector_5" d="M24.6881 4.62635H25.0402C25.1805 4.62635 25.2917 4.69627 25.2917 4.88189C25.2917 5.01116 25.2344 5.11076 25.1257 5.12787C25.2263 5.13793 25.2766 5.19225 25.2812 5.3326C25.2812 5.39548 25.2842 5.47395 25.2872 5.53381C25.2872 5.55091 25.2915 5.56773 25.2998 5.58269C25.308 5.59765 25.32 5.61026 25.3345 5.61932H25.1554C25.1374 5.59353 25.1279 5.56275 25.1282 5.53129C25.1222 5.47143 25.1232 5.4156 25.1212 5.34316C25.1212 5.23451 25.0855 5.18672 24.9758 5.18672H24.8496V5.61932H24.6901L24.6881 4.62635ZM24.9743 5.07002C24.9959 5.07202 25.0178 5.06918 25.0382 5.0617C25.0586 5.05422 25.077 5.0423 25.0923 5.02679C25.1075 5.01128 25.1191 4.99258 25.1261 4.97204C25.1332 4.9515 25.1357 4.92964 25.1333 4.90804C25.1333 4.8019 25.088 4.74657 24.9824 4.74657H24.8496V5.07002H24.9743Z" fill="var(--fill-0, #231F20)"/>
</g>
</svg>
