<svg preserveAspectRatio="none" width="100%" height="100%" overflow="visible" style="display: block;" viewBox="0 0 29.166 18.6324" fill="none" xmlns="http://www.w3.org/2000/svg">
<g id="Bancontact">
<path id="Path" d="M25.9881 3.25071H16.9591L16.0408 4.31628L13.061 7.77383V7.77395L12.1427 8.83941H3.23302L4.13709 7.76039L4.56501 7.24967L5.46908 6.17066H1.36372C0.613715 6.17066 0 6.81923 0 7.61184V10.6527C0 11.4455 0.613715 12.094 1.36372 12.094H17.0808C17.8308 12.094 18.8554 11.6123 19.3576 11.0236L21.7351 8.23662L25.9881 3.25071Z" fill="var(--fill-0, #005697)"/>
<path id="Path_2" d="M27.8023 0C28.5523 0 29.166 0.648574 29.166 1.4413V4.48209C29.166 5.2747 28.5523 5.9234 27.8023 5.9234H23.7103L24.6229 4.85247H24.6231L25.0756 4.32153L25.9882 3.25072H16.9592L12.1429 8.84346H3.1779L9.60713 1.35115L9.8504 1.0676C10.3544 0.480394 11.3803 0 12.1303 0H27.8023V0Z" fill="var(--fill-0, #FBD500)"/>
<path id="Shape" fill-rule="evenodd" clip-rule="evenodd" d="M3.0733 17.2634C3.0733 17.0649 3.02784 16.893 2.93713 16.7479C2.84631 16.6028 2.72686 16.492 2.57869 16.4157C2.72686 16.3393 2.84169 16.2266 2.92328 16.0777C3.00475 15.9288 3.04549 15.7608 3.04549 15.5737V15.4706C3.04549 15.2414 3.00291 15.0506 2.91774 14.8978C2.83246 14.7451 2.7129 14.6228 2.55918 14.5312C2.40547 14.4395 2.22105 14.3737 2.00629 14.3335C1.79129 14.2935 1.5524 14.2735 1.28929 14.2735C1.20042 14.2735 1.10776 14.2754 1.01151 14.2792C0.915032 14.283 0.821556 14.2878 0.730849 14.2935C0.640026 14.2992 0.55659 14.306 0.48077 14.3136C0.404719 14.3213 0.342632 14.3289 0.294509 14.3364C0.187069 14.3557 0.111133 14.3899 0.0667031 14.4395C0.0222728 14.4892 0 14.579 0 14.7088V18.1913C0 18.3212 0.0230807 18.4109 0.0694728 18.4605C0.115749 18.5102 0.194454 18.5445 0.305703 18.5636C0.361212 18.575 0.427915 18.5845 0.505697 18.5923C0.583479 18.5999 0.667723 18.6065 0.758546 18.6123C0.849368 18.618 0.942845 18.6227 1.03921 18.6266C1.13557 18.6303 1.22997 18.6324 1.32264 18.6324C1.56348 18.6324 1.79037 18.6132 2.00352 18.575C2.21643 18.537 2.40166 18.469 2.55918 18.3716C2.71671 18.2743 2.84169 18.1426 2.93436 17.9765C3.02691 17.8104 3.0733 17.6013 3.0733 17.3492V17.2634ZM2.12857 15.6195C2.12857 15.6806 2.11934 15.7389 2.10076 15.7942C2.08218 15.8495 2.05171 15.8972 2.00913 15.9375C1.96643 15.9775 1.90907 16.0099 1.83683 16.0347C1.76459 16.0595 1.67284 16.0719 1.56171 16.0719H0.939341V15.081C0.957805 15.081 0.98654 15.0802 1.02543 15.0782C1.06432 15.0763 1.10506 15.0753 1.14764 15.0753H1.3616C1.64688 15.0753 1.84606 15.1126 1.95904 15.187C2.07202 15.2615 2.12857 15.377 2.12857 15.5335V15.6195ZM1.98686 17.6987C2.09614 17.6109 2.15085 17.4867 2.15085 17.3264V17.2633C2.15085 17.1259 2.10815 17.0066 2.02298 16.9053C1.9377 16.8042 1.78398 16.7536 1.56171 16.7536H0.939341V17.8246H1.03651C1.07909 17.8246 1.12352 17.8258 1.16992 17.8276C1.21619 17.8295 1.26062 17.8306 1.30332 17.8306H1.39495C1.68023 17.8306 1.87757 17.7866 1.98686 17.6987ZM6.11884 16.4214C6.11884 16.2114 6.08826 16.0328 6.0271 15.8858C5.96605 15.7389 5.87984 15.6185 5.76871 15.5249C5.65758 15.4314 5.5214 15.3628 5.36018 15.3188C5.19908 15.2749 5.01847 15.2529 4.81836 15.2529C4.63303 15.2529 4.45242 15.2663 4.27655 15.2931C4.10044 15.3197 3.96057 15.3465 3.85694 15.3731C3.78654 15.3924 3.75135 15.4343 3.75135 15.4991V15.9631C3.75135 16.0014 3.76058 16.0281 3.77916 16.0433C3.79762 16.0586 3.82163 16.0663 3.8514 16.0663H3.8791L4.04585 16.0519C4.11256 16.0462 4.18757 16.0416 4.27101 16.0375C4.35433 16.0339 4.44134 16.031 4.53216 16.029C4.62287 16.0271 4.71277 16.0261 4.80175 16.0261C4.93134 16.0261 5.03324 16.051 5.10733 16.1006C5.18142 16.1503 5.21847 16.2572 5.21847 16.4214V16.6276H4.91842C4.44042 16.6276 4.09305 16.7049 3.87633 16.8595C3.6596 17.0141 3.55124 17.2595 3.55124 17.5955V17.6473C3.55124 17.8342 3.57812 17.9908 3.63179 18.1167C3.68545 18.2428 3.75688 18.344 3.84575 18.4205C3.93472 18.4967 4.03558 18.5512 4.14868 18.5835C4.26166 18.616 4.37937 18.6323 4.50158 18.6323C4.66834 18.6323 4.8119 18.6094 4.93227 18.5636C5.05263 18.5178 5.16654 18.4547 5.27409 18.3746V18.4662C5.27409 18.4967 5.28517 18.5235 5.30744 18.5463C5.32972 18.5693 5.35557 18.5807 5.38522 18.5807H6.00771C6.03725 18.5807 6.06322 18.5693 6.08549 18.5463C6.10776 18.5235 6.11884 18.4967 6.11884 18.4662V16.4214ZM5.02126 17.8962C5.09708 17.8715 5.16851 17.8418 5.23521 17.8075V17.1774H4.91843C4.82207 17.1774 4.74244 17.186 4.67943 17.2031C4.61642 17.2204 4.56634 17.2462 4.52941 17.2806C4.49236 17.3148 4.4664 17.3588 4.45163 17.4122C4.43674 17.4658 4.42935 17.5268 4.42935 17.5955V17.6473C4.42935 17.7693 4.45797 17.8475 4.51545 17.8819C4.57292 17.9163 4.66085 17.9334 4.77949 17.9334C4.86466 17.9334 4.94521 17.9212 5.02126 17.8962ZM9.52006 18.4604V16.553C9.52006 16.3738 9.50621 16.2047 9.4784 16.0462C9.45059 15.8879 9.40062 15.7503 9.32837 15.6337C9.25613 15.5173 9.15608 15.4246 9.02821 15.356C8.90046 15.2873 8.73647 15.2529 8.53636 15.2529C8.35852 15.2529 8.201 15.275 8.06401 15.3193C7.92692 15.3635 7.78243 15.4414 7.63056 15.553V15.4142C7.63056 15.3835 7.61937 15.3565 7.59721 15.3334C7.57494 15.3103 7.54897 15.2987 7.51931 15.2987H6.89694C6.86717 15.2987 6.84132 15.3101 6.81916 15.3331C6.79689 15.356 6.78581 15.3828 6.78581 15.4132V18.4604C6.78581 18.491 6.79769 18.5187 6.82193 18.5435C6.84593 18.5683 6.87282 18.5807 6.90248 18.5807H7.57494C7.60459 18.5807 7.63056 18.5683 7.65272 18.5436C7.67499 18.5188 7.68607 18.4913 7.68607 18.4607V16.2089C7.78243 16.1556 7.87314 16.1119 7.95842 16.0776C8.04359 16.0432 8.12691 16.0261 8.2085 16.0261C8.29367 16.0261 8.36314 16.0347 8.41692 16.0519C8.47058 16.0691 8.51224 16.0986 8.5419 16.1407C8.57156 16.1824 8.59198 16.2376 8.60306 16.3061C8.61414 16.3747 8.6198 16.4586 8.6198 16.5577V18.4607C8.6198 18.4913 8.63088 18.5188 8.65315 18.5436C8.67531 18.5683 8.70116 18.5807 8.73093 18.5807H9.40339C9.43293 18.5807 9.45982 18.5683 9.48394 18.5435C9.50806 18.5187 9.52006 18.491 9.52006 18.4604ZM12.2543 17.905V18.4147C12.2543 18.4566 12.245 18.4863 12.2265 18.5034C12.2079 18.5206 12.1783 18.5349 12.1375 18.5463C12.0598 18.5655 11.9588 18.5845 11.8347 18.6038C11.7105 18.6227 11.5651 18.6323 11.3984 18.6323C11.0057 18.6323 10.6916 18.5083 10.4565 18.2599C10.2211 18.0118 10.1036 17.6529 10.1036 17.1832V16.7021C10.1036 16.2324 10.2211 15.8734 10.4565 15.6253C10.6916 15.377 11.0057 15.2529 11.3984 15.2529C11.5651 15.2529 11.7105 15.2624 11.8347 15.2814C11.9588 15.3007 12.0598 15.3197 12.1375 15.3388C12.1783 15.3502 12.2079 15.3646 12.2265 15.3817C12.245 15.399 12.2543 15.4286 12.2543 15.4706V15.9803C12.2543 16.0109 12.2441 16.0347 12.2237 16.0519C12.2033 16.0691 12.1783 16.0776 12.1487 16.0776H12.1375C12.0338 16.0663 11.9348 16.0567 11.8403 16.0491C11.7457 16.0416 11.6188 16.0375 11.4595 16.0375C11.3965 16.0375 11.3373 16.0481 11.2817 16.0691C11.2261 16.0901 11.178 16.1264 11.1372 16.1779C11.0964 16.2295 11.0641 16.2981 11.0399 16.3841C11.0158 16.47 11.0038 16.576 11.0038 16.7021V17.1832C11.0038 17.3091 11.0158 17.4151 11.0399 17.5011C11.0641 17.587 11.0964 17.6557 11.1372 17.7072C11.178 17.7588 11.2261 17.7951 11.2817 17.816C11.3373 17.8371 11.3965 17.8476 11.4595 17.8476C11.6188 17.8476 11.7457 17.8437 11.8403 17.8361C11.9348 17.8285 12.0338 17.8189 12.1375 17.8075H12.1487C12.1783 17.8075 12.2033 17.816 12.2237 17.8333C12.2441 17.8505 12.2543 17.8743 12.2543 17.905ZM15.3389 16.7421C15.3389 16.5129 15.3082 16.3068 15.247 16.1235C15.1857 15.9402 15.0966 15.7847 14.9797 15.6567C14.8628 15.5288 14.718 15.4295 14.5454 15.3589C14.3728 15.2883 14.1731 15.2529 13.9467 15.2529C13.7203 15.2529 13.5208 15.2883 13.3481 15.3589C13.1755 15.4295 13.0297 15.5288 12.911 15.6567C12.7921 15.7847 12.7021 15.9402 12.6409 16.1235C12.5795 16.3068 12.549 16.5129 12.549 16.7421V17.1431C12.549 17.3722 12.5795 17.5784 12.6409 17.7617C12.7021 17.945 12.7921 18.1005 12.911 18.2285C13.0297 18.3565 13.1755 18.4557 13.3481 18.5263C13.5208 18.5969 13.7203 18.6323 13.9467 18.6323C14.1731 18.6323 14.3728 18.5969 14.5454 18.5263C14.718 18.4557 14.8628 18.3565 14.9797 18.2285C15.0966 18.1005 15.1857 17.945 15.247 17.7617C15.3082 17.5784 15.3389 17.3722 15.3389 17.1431V16.7421ZM13.9467 17.8476C14.2746 17.8476 14.4386 17.6128 14.4386 17.1431V16.7421C14.4386 16.2763 14.2746 16.0433 13.9467 16.0433C13.7846 16.0433 13.6612 16.1015 13.5765 16.218C13.4917 16.3345 13.4493 16.5093 13.4493 16.7421V17.1431C13.4493 17.376 13.4917 17.5516 13.5765 17.67C13.6612 17.7884 13.7846 17.8476 13.9467 17.8476ZM18.6454 18.4604V16.553C18.6454 16.3738 18.6314 16.2047 18.6038 16.0462C18.576 15.8879 18.5259 15.7503 18.4535 15.6337C18.3813 15.5173 18.2814 15.4246 18.1536 15.356C18.0257 15.2873 17.8617 15.2529 17.6618 15.2529C17.4839 15.2529 17.3264 15.275 17.1893 15.3193C17.0522 15.3635 16.9077 15.4414 16.7558 15.553V15.4142C16.7558 15.3835 16.7448 15.3565 16.7224 15.3334C16.7003 15.3103 16.6742 15.2987 16.6447 15.2987H16.0222C15.9926 15.2987 15.9667 15.3101 15.9444 15.3331C15.9223 15.356 15.9111 15.3828 15.9111 15.4132V18.4604C15.9111 18.491 15.9231 18.5187 15.9472 18.5435C15.9713 18.5683 15.9981 18.5807 16.0279 18.5807H16.7003C16.7299 18.5807 16.7558 18.5683 16.7781 18.5436C16.8003 18.5188 16.8115 18.4913 16.8115 18.4607V16.2089C16.9077 16.1556 16.9985 16.1119 17.0837 16.0776C17.169 16.0432 17.2523 16.0261 17.3339 16.0261C17.4191 16.0261 17.4885 16.0347 17.5422 16.0519C17.5959 16.0691 17.6376 16.0986 17.6673 16.1407C17.6969 16.1824 17.7173 16.2376 17.7285 16.3061C17.7395 16.3747 17.7451 16.4586 17.7451 16.5577V18.4607C17.7451 18.4913 17.7562 18.5188 17.7784 18.5436C17.8007 18.5683 17.8265 18.5807 17.8562 18.5807H18.5287C18.5583 18.5807 18.5852 18.5683 18.6093 18.5435C18.6333 18.5187 18.6454 18.491 18.6454 18.4604ZM21.0687 18.03V18.4733C21.0687 18.5376 21.0335 18.5756 20.9631 18.5867C20.8778 18.602 20.8037 18.6133 20.7408 18.6209C20.6778 18.6285 20.6055 18.6323 20.5241 18.6323C20.3729 18.6323 20.2394 18.6198 20.1234 18.5951C20.0075 18.5702 19.9106 18.5216 19.8333 18.449C19.7561 18.3765 19.6971 18.2762 19.6566 18.1482C19.6162 18.0204 19.5959 17.8554 19.5959 17.6528V15.9919L19.1514 15.9173C19.1216 15.9097 19.0948 15.8954 19.0707 15.8743C19.0466 15.8534 19.0346 15.8276 19.0346 15.797V15.4189C19.0346 15.3885 19.0466 15.3608 19.0707 15.3359C19.0948 15.3112 19.1216 15.2987 19.1514 15.2987H19.5959V14.829C19.5959 14.7984 19.607 14.7737 19.629 14.7545C19.651 14.7355 19.6769 14.7222 19.7065 14.7144L20.3803 14.5943H20.3968C20.4262 14.5943 20.4503 14.6028 20.4687 14.6199C20.4871 14.6371 20.4963 14.661 20.4963 14.6915V15.2987H20.952C20.9816 15.2987 21.0075 15.3102 21.0298 15.3333C21.0521 15.3564 21.0632 15.3835 21.0632 15.4142V15.882C21.0632 15.9129 21.0521 15.9398 21.0298 15.9628C21.0075 15.9859 20.9816 15.9974 20.952 15.9974H20.4963V17.6643C20.4963 17.7788 20.5055 17.8524 20.5241 17.8848C20.5426 17.9172 20.5944 17.9334 20.6796 17.9334H20.952C21.0298 17.9334 21.0687 17.9656 21.0687 18.03ZM24.0363 16.4214C24.0363 16.2114 24.0058 16.0328 23.9445 15.8858C23.8835 15.7389 23.7974 15.6185 23.6863 15.5249C23.5751 15.4314 23.439 15.3628 23.2777 15.3188C23.1166 15.2749 22.936 15.2529 22.7359 15.2529C22.5505 15.2529 22.37 15.2663 22.1941 15.2931C22.018 15.3197 21.8781 15.3465 21.7745 15.3731C21.7039 15.3924 21.6689 15.4343 21.6689 15.4991V15.9631C21.6689 16.0014 21.678 16.0281 21.6966 16.0433C21.7152 16.0586 21.7392 16.0663 21.7688 16.0663H21.7967L21.9634 16.0519C22.0301 16.0462 22.1051 16.0416 22.1884 16.0375C22.2719 16.0339 22.3589 16.031 22.4497 16.029C22.5404 16.0271 22.6303 16.0261 22.7192 16.0261C22.8489 16.0261 22.9508 16.051 23.0249 16.1006C23.099 16.1503 23.136 16.2572 23.136 16.4214V16.6276H22.836C22.3579 16.6276 22.0106 16.7049 21.7939 16.8595C21.5772 17.0141 21.4688 17.2595 21.4688 17.5955V17.6473C21.4688 17.8342 21.4956 17.9908 21.5493 18.1167C21.6029 18.2428 21.6744 18.344 21.7633 18.4205C21.8523 18.4967 21.9531 18.5512 22.0662 18.5835C22.1792 18.616 22.2968 18.6323 22.4191 18.6323C22.5859 18.6323 22.7293 18.6094 22.8498 18.5636C22.9702 18.5178 23.084 18.4547 23.1916 18.3746V18.4662C23.1916 18.4967 23.2027 18.5235 23.225 18.5463C23.2472 18.5693 23.2731 18.5807 23.3028 18.5807H23.9253C23.9548 18.5807 23.9808 18.5693 24.003 18.5463C24.0252 18.5235 24.0363 18.4967 24.0363 18.4662V16.4214ZM22.9388 17.8962C23.0146 17.8715 23.086 17.8418 23.1528 17.8075V17.1774H22.836C22.7396 17.1774 22.66 17.186 22.597 17.2031C22.534 17.2204 22.4839 17.2462 22.4469 17.2806C22.4098 17.3148 22.3838 17.3588 22.3692 17.4122C22.3543 17.4658 22.3469 17.5268 22.3469 17.5955V17.6473C22.3469 17.7693 22.3755 17.8475 22.433 17.8819C22.4905 17.9163 22.5784 17.9334 22.697 17.9334C22.7822 17.9334 22.8626 17.9212 22.9388 17.8962ZM26.7706 18.4147V17.905C26.7706 17.8743 26.7604 17.8505 26.7401 17.8333C26.7196 17.816 26.6947 17.8075 26.665 17.8075H26.654C26.5502 17.8189 26.4511 17.8285 26.3566 17.8361C26.2622 17.8437 26.1352 17.8476 25.976 17.8476C25.9128 17.8476 25.8535 17.8371 25.7981 17.816C25.7425 17.7951 25.6943 17.7588 25.6535 17.7072C25.6128 17.6557 25.5804 17.587 25.5564 17.5011C25.5321 17.4151 25.5202 17.3091 25.5202 17.1832V16.7021C25.5202 16.576 25.5321 16.47 25.5564 16.3841C25.5804 16.2981 25.6128 16.2295 25.6535 16.1779C25.6943 16.1264 25.7425 16.0901 25.7981 16.0691C25.8535 16.0481 25.9128 16.0375 25.976 16.0375C26.1352 16.0375 26.2622 16.0416 26.3566 16.0491C26.4511 16.0567 26.5502 16.0663 26.654 16.0776H26.665C26.6947 16.0776 26.7196 16.0691 26.7401 16.0519C26.7604 16.0347 26.7706 16.0109 26.7706 15.9803V15.4706C26.7706 15.4286 26.7614 15.399 26.7428 15.3817C26.7241 15.3646 26.6947 15.3502 26.654 15.3388C26.5762 15.3197 26.4751 15.3007 26.351 15.2814C26.2269 15.2624 26.0816 15.2529 25.9148 15.2529C25.5219 15.2529 25.2081 15.377 24.9728 15.6253C24.7375 15.8734 24.6199 16.2324 24.6199 16.7021V17.1832C24.6199 17.6529 24.7375 18.0118 24.9728 18.2599C25.2081 18.5083 25.5219 18.6323 25.9148 18.6323C26.0816 18.6323 26.2269 18.6227 26.351 18.6038C26.4751 18.5845 26.5762 18.5655 26.654 18.5463C26.6947 18.5349 26.7241 18.5206 26.7428 18.5034C26.7614 18.4863 26.7706 18.4566 26.7706 18.4147ZM29.1659 18.03V18.4733C29.1659 18.5376 29.1306 18.5756 29.0603 18.5867C28.975 18.602 28.9009 18.6133 28.838 18.6209C28.7749 18.6285 28.7026 18.6323 28.6213 18.6323C28.4701 18.6323 28.3366 18.6198 28.2206 18.5951C28.1045 18.5702 28.0078 18.5216 27.9306 18.449C27.8533 18.3765 27.7943 18.2762 27.7538 18.1482C27.7134 18.0204 27.6931 17.8554 27.6931 17.6528V15.9919L27.2486 15.9173C27.2188 15.9097 27.192 15.8954 27.1679 15.8743C27.1438 15.8534 27.1318 15.8276 27.1318 15.797V15.4189C27.1318 15.3885 27.1438 15.3608 27.1679 15.3359C27.192 15.3112 27.2188 15.2987 27.2486 15.2987H27.6931V14.829C27.6931 14.7984 27.7042 14.7737 27.7262 14.7545C27.7481 14.7355 27.774 14.7222 27.8035 14.7144L28.4774 14.5943H28.494C28.5234 14.5943 28.5474 14.6028 28.5657 14.6199C28.5842 14.6371 28.5935 14.661 28.5935 14.6915V15.2987H29.0492C29.0787 15.2987 29.1047 15.3102 29.127 15.3333C29.1491 15.3564 29.1603 15.3835 29.1603 15.4142V15.882C29.1603 15.9129 29.1491 15.9398 29.127 15.9628C29.1047 15.9859 29.0787 15.9974 29.0492 15.9974H28.5935V17.6643C28.5935 17.7788 28.6027 17.8524 28.6213 17.8848C28.6397 17.9172 28.6916 17.9334 28.7768 17.9334H29.0492C29.127 17.9334 29.1659 17.9656 29.1659 18.03Z" fill="var(--fill-0, #005697)"/>
</g>
</svg>
