<svg preserveAspectRatio="none" width="100%" height="100%" overflow="visible" style="display: block;" viewBox="0 0 24.7715 10.585" fill="none" xmlns="http://www.w3.org/2000/svg">
<path id="Stripe" d="M17.0029 2.23242C18.207 2.23255 19.3427 3.34941 19.3496 5.39844C19.3496 7.63822 18.2277 8.65611 16.9961 8.65625C16.3909 8.65625 16.026 8.39464 15.7783 8.21094L15.7715 10.21L14.0508 10.585V2.3457H15.5645L15.6543 2.78418C15.8951 2.55807 16.3286 2.23242 17.0029 2.23242ZM2.32617 2.23242C2.89711 2.23247 3.46128 2.32453 4.03223 2.55762V4.21875C3.50941 3.92912 2.84906 3.76669 2.32617 3.7666C1.96162 3.7666 1.74138 3.87212 1.74121 4.14746C1.74121 4.9388 4.36191 4.56472 4.36914 6.66992C4.36914 7.93474 3.38535 8.66309 1.9541 8.66309C1.36236 8.66308 0.715102 8.5424 0.0751953 8.25977V6.57812C0.653175 6.90315 1.38299 7.14354 1.9541 7.14355C2.33938 7.14355 2.61418 7.03782 2.61426 6.71289C2.61426 5.87203 0 6.18265 0 4.23242C7.11321e-05 2.98182 0.929385 2.23242 2.32617 2.23242ZM6.38574 2.35254H7.69238V3.8584H6.38574V6.36621C6.38574 7.41153 7.47153 7.08714 7.69238 6.99512V8.42969C7.46525 8.5568 7.05227 8.66309 6.48828 8.66309C5.47008 8.6629 4.70605 7.89233 4.70605 6.84668L4.71289 1.1875L6.39258 0.819336L6.38574 2.35254ZM22.2871 2.23242C23.9178 2.23242 24.7714 3.66001 24.7715 5.46875C24.7715 5.63814 24.7578 6.00526 24.7578 6.09766H21.3926C21.4683 6.93136 22.0602 7.17182 22.7275 7.17188C23.4088 7.17188 23.9462 7.02345 24.4141 6.7832V8.19629C23.9462 8.46477 23.3265 8.65621 22.5078 8.65625C20.8289 8.65625 19.6592 7.58188 19.6592 5.45508C19.6592 3.6604 20.6496 2.23258 22.2871 2.23242ZM9.83301 2.87598C10.2386 2.1135 11.0427 2.2677 11.2637 2.35254V3.97852C11.05 3.90081 10.3628 3.80196 9.95703 4.3457V8.53613H8.23633V2.35254H9.72266L9.83301 2.87598ZM13.4111 8.53613H11.6836V2.35254H13.4111V8.53613ZM16.5898 3.80176C16.1979 3.80176 15.9504 3.94276 15.7715 4.14746L15.7783 6.76953C15.9435 6.95308 16.1841 7.10156 16.5898 7.10156C17.2228 7.10156 17.6493 6.39492 17.6494 5.44824C17.6494 4.52259 17.216 3.80176 16.5898 3.80176ZM22.2803 3.66699C21.8468 3.66708 21.3721 3.9995 21.3721 4.79785H23.1475C23.1475 3.99939 22.7 3.66699 22.2803 3.66699ZM13.4111 1.43457L11.6836 1.81641V0.374023L13.4111 0V1.43457Z" fill="var(--fill-0, #6461FC)"/>
</svg>
