<svg preserveAspectRatio="none" width="100%" height="100%" overflow="visible" style="display: block;" viewBox="0 0 27.2568 5.34286" fill="none" xmlns="http://www.w3.org/2000/svg">
<g id="Verifone">
<path id="Verifone_2" fill-rule="evenodd" clip-rule="evenodd" d="M11.1611 1.07665H12.2677L12.4456 0.165651H11.3388L11.1611 1.07665V1.07665ZM11.0463 1.66259H12.1532L11.4501 5.25955C11.3988 5.27775 11.2403 5.34172 11.0215 5.34172C10.7263 5.34172 10.4554 5.22477 10.4554 4.81017C10.4554 4.73218 10.4643 4.64338 10.484 4.54245C10.7039 3.42004 11.0463 1.66259 11.0463 1.66259V1.66259ZM22.0366 1.58042C21.2999 1.58042 21.0071 2.01881 20.8696 2.28568H20.8566L20.899 1.66334H19.8053C19.7981 1.80019 19.7508 2.23157 19.6806 2.60362C19.6806 2.60362 19.428 3.90922 19.3802 4.15922C19.3438 4.35017 19.2772 4.63248 19.2772 4.79633C19.2772 5.14517 19.4514 5.34181 19.84 5.34181C20.058 5.34181 20.2151 5.28126 20.2723 5.25955L20.638 3.3863C20.7395 2.86906 21.1077 2.53056 21.5454 2.53056C21.8986 2.53056 22.0675 2.7923 22.0675 3.00628C22.0675 3.1925 22.0215 3.3989 21.9859 3.58142L21.8286 4.38362C21.8099 4.47991 21.7698 4.66489 21.7698 4.80998C21.7698 5.1646 21.9666 5.34181 22.3404 5.34181C22.5445 5.34181 22.6739 5.28997 22.7655 5.25955L23.0938 3.58029C23.1649 3.20075 23.1912 3.00088 23.1912 2.75932C23.1912 2.06392 22.791 1.58042 22.0366 1.58042V1.58042ZM17.1202 2.4502C16.5015 2.4502 16.1588 3.09281 16.1588 3.66568C16.1588 4.1488 16.3736 4.47233 16.8618 4.47233C17.4137 4.47233 17.8456 3.99518 17.8456 3.18075C17.8456 2.80813 17.6503 2.4502 17.1202 2.4502V2.4502ZM16.7939 5.34191C15.6088 5.34191 15.0418 4.61978 15.0418 3.69931C15.0418 2.43636 15.8952 1.58042 17.2141 1.58042C18.3585 1.58042 18.9661 2.28445 18.9661 3.18862C18.9661 4.5435 18.0546 5.34191 16.7939 5.34191V5.34191ZM12.6493 4.47583C12.6241 4.60528 12.6081 4.69598 12.6081 4.80742C12.6081 5.21975 12.8794 5.34181 13.1668 5.34181C13.3967 5.34181 13.5389 5.27794 13.591 5.25955L14.1231 2.53302L14.9837 2.53293L15.1536 1.66259L14.2931 1.66268L14.3349 1.44832C14.4128 1.04632 14.599 0.86958 14.9211 0.86958C15.1361 0.86958 15.3101 0.908434 15.3706 0.92445L15.5325 0.0968516C15.4635 0.0791302 15.1455 0 14.6749 0C13.9249 0 13.4336 0.462841 13.2883 1.20828L13.1993 1.66259H12.6391L12.4691 2.53293H13.0297C13.0297 2.53293 12.8086 3.66027 12.6493 4.47583V4.47583ZM10.1014 1.58052C9.54585 1.58052 9.24034 1.97248 9.12084 2.28511H9.10808L9.15083 1.66259H8.05659C8.0469 1.87837 8.00247 2.24322 7.89098 2.81685C7.778 3.39815 7.6679 3.97802 7.55427 4.54236C7.5348 4.63883 7.52614 4.73322 7.52614 4.81311C7.52614 5.10869 7.66986 5.34153 8.09459 5.34153C8.305 5.34153 8.45114 5.286 8.52128 5.25956L8.84681 3.59204C8.96408 2.95407 9.1771 2.53226 9.7951 2.53226C10.0762 2.53226 10.3432 2.5932 10.3992 2.60988L10.5865 1.65046C10.5461 1.63624 10.3839 1.58052 10.1014 1.58052V1.58052ZM26.1549 3.12048C26.2142 2.79069 26.0254 2.4502 25.5987 2.4502C25.0776 2.4502 24.8488 2.81192 24.7466 3.12048H26.1549V3.12048ZM26.6488 4.45897C26.6488 4.95924 26.1721 5.34286 25.3279 5.34286C24.1612 5.34286 23.5907 4.60434 23.5907 3.70026C23.5907 2.80282 24.1769 1.58137 25.6079 1.58137C26.5513 1.58137 27.2568 2.05767 27.2568 3.14806C27.2568 3.41625 27.198 3.70775 27.1728 3.8245H24.6649C24.6607 4.08615 24.8777 4.53961 25.7495 4.53961C26.138 4.53961 26.5779 4.40012 26.6488 4.36458C26.6488 4.39178 26.6488 4.44096 26.6488 4.45897V4.45897ZM6.15679 3.12048C6.21593 2.79069 6.02713 2.4502 5.60044 2.4502C5.0794 2.4502 4.85064 2.81192 4.74837 3.12048H6.15679V3.12048ZM6.65067 4.45897C6.65067 4.95924 6.17396 5.34286 5.3299 5.34286C4.1631 5.34286 3.5927 4.60434 3.5927 3.70026C3.5927 2.80282 4.17884 1.58137 5.60989 1.58137C6.55334 1.58137 7.2588 2.05767 7.2588 3.14806C7.2588 3.41625 7.20003 3.70775 7.17469 3.8245H4.66691C4.66272 4.08615 4.87965 4.53961 5.75138 4.53961C6.13987 4.53961 6.57979 4.40012 6.65067 4.36458C6.65067 4.39178 6.65067 4.44096 6.65067 4.45897V4.45897ZM0 0.438681H1.11343V4.01508C1.11343 4.55289 1.37684 4.82743 1.79971 4.82743C1.84283 4.82743 1.86826 4.82183 1.87664 4.81975C1.69129 5.10481 1.45098 5.3386 0.899201 5.3386C0.315382 5.3386 0 4.92674 0 4.30867V0.438681V0.438681Z" fill="var(--fill-0, #1A1919)"/>
<path id="V" fill-rule="evenodd" clip-rule="evenodd" d="M1.57754 3.40133C1.47693 3.56097 1.42354 3.74582 1.42354 3.93452V4.02106C1.42354 4.38363 1.61625 4.51356 1.82666 4.51356C2.04173 4.51356 2.15685 4.36534 2.26248 4.19685C2.43945 3.91473 4.60204 0.438681 4.60204 0.438681H3.44474L1.57754 3.40133Z" fill="var(--fill-0, #00A3DA)"/>
</g>
</svg>
