<svg preserveAspectRatio="none" width="100%" height="100%" overflow="visible" style="display: block;" viewBox="0 0 26 10.8486" fill="none" xmlns="http://www.w3.org/2000/svg">
<g id="Paysafe">
<path id="Vector" d="M25.2555 2.9843C25.6667 2.9843 26 2.65096 26 2.23977C26 1.82857 25.6667 1.49524 25.2555 1.49524C24.8443 1.49524 24.5109 1.82857 24.5109 2.23977C24.5109 2.65096 24.8443 2.9843 25.2555 2.9843Z" fill="var(--fill-0, #7887E6)"/>
<path id="Vector_2" d="M25.2555 5.31516C25.6667 5.31516 26 4.98182 26 4.57062C26 4.15943 25.6667 3.82609 25.2555 3.82609C24.8443 3.82609 24.5109 4.15943 24.5109 4.57062C24.5109 4.98182 24.8443 5.31516 25.2555 5.31516Z" fill="var(--fill-0, #FF5073)"/>
<path id="Union" d="M4.99121 9.45898L5.4209 7.95508H6.05371C5.7193 8.9218 5.3928 9.88963 5.0625 10.8486H4.46582L4.80078 9.98438H4.60938C4.39435 9.30791 4.18347 8.63154 3.96484 7.95508H4.60938L4.99121 9.45898ZM3.08887 7.90723C3.5585 7.90723 3.84846 8.11462 3.84863 8.57227V9.98438H3.26855L3.23242 9.78125C3.12077 9.90474 2.96954 10.0322 2.71484 10.0322C2.40068 10.0321 2.08223 9.82938 2.08203 9.42383C2.08215 8.98617 2.36492 8.69508 3.21191 8.71094V8.57617C3.21176 8.421 3.08066 8.36914 2.93359 8.36914C2.72706 8.36923 2.48451 8.46072 2.36914 8.5127L2.19336 8.15039C2.38419 8.03106 2.69493 7.90731 3.08887 7.90723ZM10.0889 7.90723C10.5584 7.90726 10.8485 8.11466 10.8486 8.57227V9.98438H10.2676L10.2314 9.78125C10.1198 9.90471 9.96944 10.0322 9.71484 10.0322C9.40065 10.0321 9.08223 9.82943 9.08203 9.42383C9.08215 8.98616 9.36486 8.69506 10.2119 8.71094V8.57617C10.2118 8.42108 10.0806 8.36919 9.93359 8.36914C9.72681 8.36922 9.48337 8.46075 9.36816 8.5127L9.19336 8.15039C9.38421 8.03105 9.69486 7.90728 10.0889 7.90723ZM13.5625 7.90723C13.9962 7.90727 14.4257 8.14245 14.4258 8.8584V9.09668H13.2246C13.2565 9.43097 13.459 9.56628 13.7295 9.56641C13.9327 9.56641 14.1636 9.48341 14.2393 9.43555L14.418 9.83301C14.2908 9.92869 13.9599 10.0322 13.6338 10.0322C12.9733 10.0321 12.5596 9.62192 12.5596 8.98145C12.5597 8.35705 12.9978 7.90737 13.5625 7.90723ZM12.0068 7.95508H12.3965V8.38965H12.0068V9.28906C12.0069 9.49527 12.0827 9.55939 12.2217 9.55957H12.3965V9.98535H11.9434V9.98438C11.7524 9.98435 11.3743 9.96039 11.374 9.43164V8.38867H11.0635V7.95508H11.374V7.56934L12.0068 7.35059V7.95508ZM1.05957 7.23828C1.68775 7.23844 1.98603 7.60459 1.98633 8.08984C1.98633 8.65054 1.58883 8.98128 1.05957 8.98145H0.657227V9.98438H0.00488281V7.23828H1.05957ZM7.85645 9.51074H8.90234V9.98438H7.2041V7.23828H7.85645V9.51074ZM15.9385 8.5C15.9024 8.49237 15.8189 8.49219 15.7793 8.49219C15.6123 8.49226 15.4329 8.55947 15.3213 8.6709V9.98438H14.6846V7.95508H15.29V8.3252C15.4212 8.07476 15.6644 7.90733 15.9385 7.90723V8.5ZM3.06934 9.10059C2.8152 9.1007 2.69558 9.21259 2.69531 9.37891C2.69531 9.52598 2.80307 9.61806 2.96191 9.61816C3.0612 9.61816 3.1532 9.58181 3.21289 9.53809V9.1123C3.16106 9.10818 3.1207 9.10059 3.06934 9.10059ZM10.0693 9.10059C9.81511 9.10066 9.69558 9.21257 9.69531 9.37891C9.69531 9.52598 9.80307 9.61806 9.96191 9.61816C10.061 9.6181 10.1523 9.58172 10.2119 9.53809V9.1123C10.1603 9.10818 10.1205 9.1006 10.0693 9.10059ZM13.5547 8.35254C13.38 8.35268 13.2489 8.49243 13.2246 8.7627H13.8408C13.8407 8.4882 13.7218 8.35255 13.5547 8.35254ZM0.658203 8.50391H0.988281C1.2068 8.50386 1.3534 8.3646 1.35352 8.11426C1.35341 7.87982 1.22274 7.71588 0.988281 7.71582H0.658203V8.50391ZM16.5742 7.19238H16.3799V7.67285H16.1895V7.19238H15.9824V7.05762H16.5537L16.5742 7.19238ZM17.0059 7.49414C17.0408 7.34833 17.0753 7.2044 17.1123 7.05859H17.3516L17.4004 7.67285H17.2314L17.208 7.22754C17.1684 7.37607 17.1295 7.52433 17.0879 7.67285H16.9199L16.7998 7.22754L16.7764 7.67285H16.6064C16.6249 7.46887 16.6413 7.26258 16.6572 7.05859H16.8965L17.0059 7.49414ZM8.04102 1.58105L8.94434 3.76172L9.73145 1.58105H10.8691L9.02051 6.25293H7.93066L8.41309 5.05762L6.86914 1.58105H8.04102ZM15.8838 1.49512C16.7281 1.49512 17.2505 1.86724 17.25 2.68945V5.22949H16.1055V5.06738C15.877 5.21094 15.578 5.31543 15.3027 5.31543C14.6051 5.31539 14.0742 4.78925 14.0742 4.16309C14.0742 3.52198 14.5289 2.82826 16.1064 2.94043V2.69629C16.1062 2.41776 15.8698 2.32425 15.6055 2.32422C15.2336 2.32422 14.7973 2.48888 14.5898 2.58203L14.2744 1.93164C14.6175 1.71712 15.176 1.49521 15.8838 1.49512ZM22.0029 1.49512C23.0185 1.49512 23.7664 2.27916 23.7666 3.34863V3.63477H21.3945C21.4125 3.82206 21.4612 3.97525 21.5332 4.09668L21.5342 4.09863C21.5459 4.11753 21.5585 4.13595 21.5713 4.15332C21.579 4.16405 21.5865 4.17434 21.5947 4.18457C21.5997 4.19061 21.6048 4.19709 21.6104 4.20312C21.6242 4.21958 21.6389 4.23606 21.6543 4.25098L21.6562 4.25195C21.6943 4.28846 21.7369 4.32178 21.7842 4.35059C21.7851 4.35106 21.7857 4.35116 21.7861 4.35156C21.8072 4.36443 21.8304 4.37638 21.8535 4.3877C21.858 4.38971 21.8622 4.39154 21.8662 4.39355C21.8801 4.40024 21.8952 4.40645 21.9102 4.41211C21.9235 4.41723 21.9369 4.42215 21.9502 4.42676C21.9599 4.42982 21.9703 4.43248 21.9805 4.43555C21.9995 4.44069 22.0185 4.44654 22.0381 4.45117C22.0447 4.4527 22.0519 4.45354 22.0586 4.45508C22.0775 4.45914 22.0968 4.46178 22.1162 4.46484C22.1216 4.46583 22.1265 4.46726 22.1318 4.46777C22.156 4.47086 22.1814 4.47307 22.2061 4.47461C22.2121 4.4751 22.2176 4.4751 22.2236 4.47559C22.2499 4.47713 22.2764 4.47852 22.3037 4.47852C22.6145 4.47849 22.9616 4.39122 23.3037 4.19727L23.6221 4.90625C23.1174 5.25594 22.4627 5.31542 22.1318 5.31543C20.9443 5.31543 20.2002 4.57829 20.2002 3.42676C20.2002 2.30361 20.9873 1.4952 22.0029 1.49512ZM5.43262 1.49512C6.27687 1.49516 6.79882 1.86678 6.79883 2.68945V5.22949H5.65332V5.06738C5.42492 5.21081 5.12571 5.31445 4.85059 5.31445C4.1531 5.31422 3.62305 4.78816 3.62305 4.16211C3.62327 3.52113 4.07713 2.82731 5.6543 2.93945V2.69629C5.6543 2.41741 5.41779 2.32422 5.15332 2.32422C4.78137 2.3243 4.345 2.48892 4.1377 2.58203L3.82324 1.93066C4.16647 1.71617 4.72486 1.49512 5.43262 1.49512ZM12.4473 1.49414C12.9122 1.49414 13.3704 1.63694 13.6709 1.78711L13.3486 2.53906C13.1197 2.43929 12.8052 2.33108 12.5049 2.33105C12.2188 2.33105 12.0469 2.4385 12.0469 2.61035C12.0471 3.09644 13.7354 2.89677 13.7354 4.09863C13.7351 4.88564 13.0193 5.31445 12.1895 5.31445C11.7244 5.31439 11.2239 5.20742 10.7949 4.97852L11.1602 4.24219C11.4174 4.37124 11.7469 4.48535 12.0898 4.48535C12.4262 4.48529 12.626 4.38466 12.626 4.18457C12.6257 3.64867 10.91 3.87018 10.9102 2.65332C10.9102 1.88112 11.5959 1.49426 12.4473 1.49414ZM1.89551 0.292969C3.02594 0.292969 3.5625 0.951567 3.5625 1.82422C3.56241 2.83259 2.84682 3.42676 1.89551 3.42676H1.17285V5.22949H0V0.292969H1.89551ZM19.5957 0C19.8034 0 19.9823 0.0286339 20.1396 0.0712891V0.886719C20.047 0.858454 19.9112 0.836914 19.8037 0.836914C19.453 0.837024 19.3242 1.06568 19.3242 1.3877V1.58105H20.1113V2.36035H19.3242V5.22949H18.1865V2.36035H17.5781V1.58105H18.1865V1.43066C18.1865 0.565336 18.6729 0.000157954 19.5957 0ZM5.69629 3.66211C5.00367 3.5475 4.76682 3.84128 4.7666 4.1416C4.7666 4.40604 4.96007 4.57125 5.24609 4.57129C5.42515 4.57129 5.58978 4.50646 5.69629 4.42773V3.66211ZM16.1055 3.66211C15.4128 3.54745 15.176 3.84127 15.1758 4.1416C15.1758 4.40607 15.3692 4.57129 15.6553 4.57129C15.8342 4.57129 15.9979 4.5064 16.1055 4.42773V3.66211ZM22.0029 2.2959C21.6881 2.29598 21.4377 2.54653 21.3945 3.0332H22.6113C22.5681 2.54697 22.3178 2.2959 22.0029 2.2959ZM1.17285 1.15137V2.56738H1.7666C2.1772 2.56738 2.44801 2.29545 2.42383 1.80664C2.40511 1.43693 2.09 1.15144 1.71973 1.15137H1.17285Z" fill="var(--fill-0, #2D2341)"/>
</g>
</svg>
