<svg preserveAspectRatio="none" width="100%" height="100%" overflow="visible" style="display: block;" viewBox="0 0 26 9.17532" fill="none" xmlns="http://www.w3.org/2000/svg">
<g id="Payoneer">
<path id="Payoneer_2" d="M21.0107 4.3348C21.4954 3.82028 22.0903 3.6377 22.7764 3.82699C23.195 3.94379 23.4191 4.24655 23.4443 4.67269C23.4695 5.08945 23.2802 5.40265 22.8867 5.58577C22.4903 5.76872 22.0685 5.79701 21.6406 5.80648C21.5557 5.80332 21.4674 5.80355 21.373 5.80355C21.3449 6.11267 21.5649 6.34908 21.9014 6.39339C22.2161 6.43127 22.5186 6.38447 22.8145 6.27718C22.8648 6.25824 22.9124 6.23896 22.9785 6.2137C22.9974 6.41872 23.0228 6.61114 23.0322 6.80355C23.0354 6.84144 22.9907 6.90202 22.9561 6.91781C22.421 7.13876 21.87 7.2141 21.3066 7.05941C20.8002 6.92048 20.5357 6.55157 20.4727 6.04671C20.394 5.39948 20.5606 4.8147 21.0107 4.3348ZM5.93359 3.75374C6.2011 3.76954 6.46589 3.83305 6.7334 3.87093C6.83989 3.8868 6.85567 3.94668 6.83691 4.03792C6.7173 4.66306 6.59096 5.28584 6.49023 5.91097C6.43679 6.24232 6.42144 6.58331 6.39941 6.91781C6.3931 7.01873 6.3675 7.05963 6.26367 7.05648C6.06869 7.05017 5.8737 7.05017 5.67871 7.05648C5.57798 7.05964 5.54329 7.02154 5.55273 6.92367C5.56531 6.77221 5.57162 6.61432 5.58105 6.4471C5.42367 6.61128 5.29725 6.77905 5.13672 6.90218C4.80631 7.15767 4.42857 7.21465 4.04785 7.03792C3.67025 6.86433 3.51582 6.52639 3.5 6.12874C3.46538 5.29209 3.75806 4.59985 4.45996 4.11995C4.90064 3.81686 5.40793 3.72533 5.93359 3.75374ZM18.0361 4.17367C18.5051 3.77273 19.0563 3.64703 19.6543 3.82699C20.0539 3.94696 20.2773 4.24656 20.3057 4.65999C20.334 5.0672 20.1578 5.37973 19.7803 5.56917C19.4844 5.71756 19.166 5.77191 18.8418 5.79085C18.6405 5.80029 18.4361 5.79086 18.2285 5.79085C18.2067 6.11904 18.4301 6.35236 18.7637 6.39339C19.0877 6.43122 19.3992 6.38117 19.7012 6.26449C19.7325 6.25191 19.7673 6.23898 19.8018 6.2264C19.808 6.22326 19.8178 6.22637 19.8428 6.2264C19.8616 6.4188 19.8841 6.61115 19.8936 6.80355C19.8967 6.84144 19.8522 6.90202 19.8145 6.91781C19.2889 7.1324 18.7443 7.20829 18.1904 7.06624C17.6743 6.93362 17.3906 6.5608 17.334 6.03988C17.2522 5.30428 17.4664 4.65986 18.0361 4.17367ZM11.873 3.76644C12.276 3.72224 12.6539 3.7731 12.9844 4.01937C13.2991 4.25299 13.4535 4.58128 13.4756 4.96956C13.5008 5.37369 13.431 5.75905 13.2422 6.11898C12.8865 6.78817 12.3169 7.11293 11.7441 7.12874C10.9102 7.12874 10.4349 6.8199 10.2617 6.26449C9.97528 5.3489 10.5259 3.91802 11.873 3.76644ZM16.3213 3.77035C16.661 3.82734 16.8968 4.07631 16.9346 4.4266C16.9786 4.81809 16.8966 5.19714 16.8242 5.57601C16.7361 6.03372 16.6518 6.49157 16.5605 6.94613C16.5511 6.98717 16.5032 7.04746 16.4717 7.05062C16.2012 7.05692 15.9307 7.05377 15.6602 7.05062C15.6476 7.05062 15.6346 7.04079 15.6094 7.02816C15.6597 6.76624 15.7106 6.50124 15.7578 6.23617C15.8302 5.82902 15.899 5.42456 15.9619 5.01742C15.9745 4.94798 15.9684 4.87494 15.959 4.8055C15.9338 4.56246 15.7543 4.45176 15.5215 4.52425C15.2948 4.59687 15.159 4.77381 15.0488 4.96956C14.8853 5.25673 14.8291 5.57565 14.7725 5.89437C14.7095 6.24482 14.6493 6.59274 14.5801 6.9432C14.5705 6.9842 14.5236 7.04733 14.4922 7.05062C14.2152 7.06009 13.9345 7.05648 13.626 7.05648C13.8337 5.97039 14.0295 4.90631 14.2246 3.83285H15.0244C15.0118 4.00325 14.9991 4.16755 14.9834 4.3348C15.0745 4.24972 15.1564 4.16804 15.2412 4.09554C15.5528 3.82402 15.9089 3.70404 16.3213 3.77035ZM0.918945 2.65511C1.50757 2.56671 2.09986 2.50379 2.68848 2.65218C3.20139 2.77854 3.56032 3.14205 3.62012 3.5682C3.74266 4.4173 3.24795 5.09564 2.51465 5.3387C2.12766 5.4649 1.73453 5.49665 1.33496 5.45882C1.24058 5.44935 1.21203 5.47479 1.19629 5.56624C1.11132 6.03024 1.0229 6.49115 0.931641 6.95199C0.92538 6.98966 0.89119 7.04997 0.869141 7.05062C0.5827 7.05693 0.302179 7.05355 0 7.05355C0.0440678 6.81675 0.078979 6.59855 0.123047 6.3807C0.349635 5.18435 0.579076 3.9911 0.805664 2.79476C0.821393 2.71903 0.84351 2.66778 0.918945 2.65511ZM26 3.75765C25.9402 4.05744 25.8899 4.33563 25.8301 4.61019C25.8234 4.63216 25.7829 4.65964 25.7578 4.66292C25.1377 4.74501 24.8759 4.96657 24.7217 5.60433C24.6147 6.04625 24.5424 6.50083 24.4512 6.94906C24.4449 6.98677 24.4107 7.04616 24.3887 7.04671C24.0992 7.05618 23.8095 7.05355 23.498 7.05355C23.539 6.81991 23.5763 6.60808 23.6172 6.39339C23.7808 5.57582 23.9473 4.75822 24.0166 3.92171C24.0197 3.88698 24.0676 3.83014 24.0928 3.82699C24.3319 3.82068 24.5711 3.82308 24.8291 3.82308C24.8102 4.04724 24.7941 4.25923 24.7783 4.46761C25.0679 4.04138 25.4019 3.6945 26 3.75765ZM11.8574 4.48031C11.6938 4.51818 11.5712 4.61924 11.4736 4.75179C11.2564 5.05173 11.1676 5.38968 11.1582 5.75277C11.1582 5.80008 11.1551 5.85097 11.1582 5.89827C11.1835 6.22953 11.42 6.44128 11.7314 6.41292C11.9046 6.39714 12.0404 6.30529 12.1475 6.17269C12.4275 5.81595 12.5339 5.40492 12.4961 4.9598C12.4645 4.59696 12.191 4.40456 11.8574 4.48031ZM5.80078 4.49593C5.49566 4.41087 5.24128 4.47135 5.02734 4.6512C4.6245 4.99214 4.44103 5.43362 4.47559 5.96077C4.48503 6.12179 4.54877 6.27706 4.71875 6.34652C4.88848 6.41569 5.04275 6.36525 5.1748 6.25179C5.2535 6.18233 5.32908 6.10289 5.38574 6.01449C5.68469 5.55671 5.69062 5.01998 5.80078 4.49593ZM22.3389 4.44906C21.9675 4.34827 21.5048 4.68879 21.4639 5.1307C21.6653 5.11807 21.8544 5.11492 22.04 5.08968C22.1659 5.0739 22.292 5.03592 22.4053 4.98226C22.528 4.92859 22.5882 4.81454 22.5693 4.67562C22.5503 4.54327 22.4615 4.4806 22.3389 4.44906ZM19.1885 4.44906C18.8139 4.3575 18.3697 4.68541 18.3193 5.10531C18.5616 5.1558 19.0588 5.09589 19.251 4.99495C19.3831 4.92552 19.4497 4.81498 19.4277 4.68245C19.4057 4.54677 19.3143 4.48065 19.1885 4.44906ZM2.35449 3.36898C2.13113 3.29009 1.90153 3.30619 1.67188 3.33773C1.64358 3.34088 1.60499 3.3845 1.59863 3.41292C1.51994 3.82652 1.44165 4.24373 1.35352 4.70785C1.54552 4.70785 1.71891 4.72288 1.88574 4.70394C2.21293 4.66915 2.47417 4.52125 2.62207 4.20882C2.78889 3.85522 2.66924 3.4795 2.35449 3.36898Z" fill="var(--fill-0, black)"/>
<path id="Payoneer_3" d="M15.4419 0.0595737C15.7945 0.116404 16.0785 0.306245 16.3208 0.555667C16.3806 0.615688 16.4397 0.735722 16.4146 0.798832C16.3861 0.868217 16.2729 0.934652 16.188 0.947269C15.3949 1.0641 14.6239 1.2729 13.8843 1.5791C13.4564 1.75586 13.0375 1.96973 12.6284 2.1875C11.7376 2.66741 11.0281 3.30329 10.3198 4.01368C9.57078 4.76504 8.8572 5.6172 8.24661 6.48535C7.86585 7.0251 7.59724 7.46501 7.25735 8.03321C7.08741 8.31737 6.88995 8.75558 6.75149 9.0586C6.72937 9.10287 6.68222 9.1811 6.66653 9.17481C6.60678 9.15587 6.5183 9.12149 6.50247 9.07422C6.46469 8.9574 6.4277 8.82092 6.44973 8.7041C6.56939 8.06968 6.83383 7.48539 7.12649 6.91407C7.69618 5.80919 8.41062 4.80221 9.24465 3.88672C9.71989 3.36585 10.2106 2.85725 10.7173 2.3711C11.4791 1.63546 12.3294 1.01311 13.2769 0.533207C13.7143 0.312291 14.1675 0.145269 14.649 0.0537144C14.7307 0.0379382 14.8096 0.0187133 14.8882 0.00293312C14.9919 -0.000219763 15.0896 3.43735e-06 15.187 3.43132e-06C15.2718 0.0189071 15.3571 0.0469052 15.4419 0.0595737ZM7.1509 0.603519C7.23274 0.631934 7.31473 0.679274 7.37454 0.739261C7.87497 1.27282 8.18994 1.89452 8.27493 2.62696C8.29379 2.7689 8.30044 2.9108 8.31301 3.05274C8.30357 3.49475 8.22778 3.92159 8.07669 4.33203C8.06091 4.37611 8.02997 4.41435 7.99856 4.45215C7.92936 4.54362 7.85284 4.55301 7.79934 4.45215C7.73012 4.3196 7.67381 4.17718 7.63919 4.03516C7.53849 3.59012 7.44388 3.14178 7.35891 2.69043C7.24874 2.11581 7.15105 1.53751 7.05032 0.962894C7.03462 0.880946 7.02828 0.795823 7.022 0.713871C7.01571 0.619246 7.0692 0.572133 7.1509 0.603519Z" fill="var(--fill-0, #FC461E)"/>
</g>
</svg>
