<svg preserveAspectRatio="none" width="100%" height="100%" overflow="visible" style="display: block;" viewBox="0 0 10.7952 13.1645" fill="none" xmlns="http://www.w3.org/2000/svg">
<g id="PayPal">
<path id="Fill 7" fill-rule="evenodd" clip-rule="evenodd" d="M3.06652 12.7183L3.28724 11.2691L2.79554 11.2573H0.447609L2.07934 0.56367C2.08443 0.531288 2.10086 0.501228 2.12486 0.479844C2.14898 0.45846 2.17971 0.44673 2.21187 0.44673H6.17085C7.48527 0.44673 8.39229 0.729366 8.86578 1.28731C9.0878 1.54905 9.2292 1.82264 9.29765 2.12361C9.36941 2.43948 9.37059 2.81682 9.3006 3.27713L9.29552 3.31061V3.60558L9.51755 3.7356C9.70446 3.83812 9.85307 3.95543 9.96704 4.08972C10.1569 4.31358 10.2797 4.59805 10.3316 4.93519C10.3853 5.28197 10.3676 5.69475 10.2797 6.16202C10.1784 6.69943 10.0147 7.16756 9.79348 7.55052C9.59014 7.90342 9.33099 8.1962 9.02325 8.42299C8.72946 8.63854 8.38046 8.80216 7.98583 8.90688C7.60338 9.00977 7.16736 9.0617 6.68915 9.0617H6.38105C6.1608 9.0617 5.94682 9.14369 5.77882 9.29069C5.61035 9.44075 5.49898 9.64579 5.46481 9.87002L5.44152 10.0005L5.0515 12.5548L5.03389 12.6485C5.02916 12.6782 5.02112 12.693 5.0093 12.703C4.99877 12.7121 4.98364 12.7183 4.96886 12.7183H3.06652" fill="var(--fill-0, #28356A)"/>
<path id="Fill 8" fill-rule="evenodd" clip-rule="evenodd" d="M9.72797 3.34466C9.71626 3.42275 9.70267 3.50254 9.68753 3.58453C9.16546 6.35517 7.3792 7.31232 5.09794 7.31232H3.93639C3.65738 7.31232 3.42223 7.52164 3.37884 7.80611L2.6157 12.8094C2.58745 12.9962 2.72672 13.1645 2.90902 13.1645H4.9692C5.21309 13.1645 5.42034 12.9813 5.45876 12.7326L5.47898 12.6245L5.86688 10.0803L5.89182 9.94073C5.92977 9.69121 6.13749 9.50792 6.38139 9.50792H6.68948C8.68546 9.50792 10.248 8.6704 10.7047 6.24654C10.8954 5.23404 10.7967 4.38857 10.2919 3.79397C10.1392 3.61471 9.94964 3.46588 9.72797 3.34466" fill="var(--fill-0, #298FC2)"/>
<path id="Fill 9" fill-rule="evenodd" clip-rule="evenodd" d="M9.18157 3.11962C9.10177 3.09555 9.01948 3.0738 8.93507 3.05412C8.85019 3.03494 8.76329 3.01795 8.67379 3.00304C8.36062 2.95075 8.01741 2.92594 7.64985 2.92594H4.54682C4.47033 2.92594 4.39774 2.94378 4.33283 2.97604C4.18966 3.04716 4.08338 3.18719 4.0576 3.35863L3.39744 7.68017L3.37852 7.80615C3.42191 7.52168 3.65706 7.31236 3.93607 7.31236H5.09762C7.37888 7.31236 9.16513 6.35472 9.68721 3.58457C9.70282 3.50258 9.71594 3.42278 9.72765 3.3447C9.59559 3.27224 9.45254 3.21029 9.29849 3.1575C9.26042 3.14442 9.22117 3.13184 9.18157 3.11962" fill="var(--fill-0, #22284F)"/>
<path id="Fill 11" fill-rule="evenodd" clip-rule="evenodd" d="M4.05778 3.35864C4.08355 3.1872 4.18984 3.04717 4.33301 2.97654C4.39838 2.94416 4.4705 2.92632 4.54699 2.92632H7.65003C8.01759 2.92632 8.36079 2.95125 8.67397 3.00354C8.76347 3.01833 8.85036 3.03544 8.93525 3.05462C9.01966 3.07417 9.10194 3.09605 9.18174 3.12C9.22135 3.13222 9.2606 3.14492 9.29902 3.15751C9.45307 3.2103 9.59624 3.27274 9.72829 3.34471C9.88364 2.32084 9.72699 1.62372 9.19144 0.992465C8.60091 0.297422 7.53523 0 6.17151 0H2.21242C1.93388 0 1.69625 0.209319 1.65321 0.494277L0.00422016 11.2979C-0.0282915 11.5116 0.131193 11.7044 0.339741 11.7044H2.78391L4.05778 3.35864" fill="var(--fill-0, #28356A)"/>
</g>
</svg>
