<svg preserveAspectRatio="none" width="100%" height="100%" overflow="visible" style="display: block;" viewBox="0 0 11.4943 11.5" fill="none" xmlns="http://www.w3.org/2000/svg">
<path id="icon" d="M4.2905 5.75L0.21725 1.677C0.0789171 1.5385 0.00808339 1.36442 0.00475006 1.15475C0.00158339 0.94525 0.0724171 0.768 0.21725 0.623C0.36225 0.478166 0.537917 0.40575 0.74425 0.40575C0.950583 0.40575 1.12625 0.478166 1.27125 0.623L5.7655 5.11725C5.859 5.21092 5.925 5.30967 5.9635 5.4135C6.002 5.51733 6.02125 5.6295 6.02125 5.75C6.02125 5.8705 6.002 5.98267 5.9635 6.0865C5.925 6.19033 5.859 6.28908 5.7655 6.38275L1.27125 10.877C1.13275 11.0153 0.958667 11.0862 0.749 11.0895C0.5395 11.0927 0.36225 11.0218 0.21725 10.877C0.0724171 10.732 0 10.5563 0 10.35C0 10.1437 0.0724171 9.968 0.21725 9.823L4.2905 5.75ZM11.2788 0.2155C11.4224 0.359 11.4943 0.537167 11.4943 0.75V10.75C11.4943 10.9628 11.4224 11.141 11.2788 11.2845C11.1353 11.4282 10.9571 11.5 10.7443 11.5C10.5314 11.5 10.3533 11.4282 10.2098 11.2845C10.0661 11.141 9.99425 10.9628 9.99425 10.75V0.75C9.99425 0.537167 10.0661 0.359 10.2098 0.2155C10.3533 0.0718332 10.5314 0 10.7443 0C10.9571 0 11.1353 0.0718332 11.2788 0.2155Z" fill="var(--fill-0, #121621)"/>
</svg>
