<svg preserveAspectRatio="none" width="100%" height="100%" overflow="visible" style="display: block;" viewBox="0 0 20.9346 18.7061" fill="none" xmlns="http://www.w3.org/2000/svg">
<g id="Ideal">
<path id="Union" d="M10.7881 0C18.1182 0.000177762 20.9346 4.12438 20.9346 9.33691C20.9344 15.5719 16.9978 18.7059 10.7881 18.7061H0V0H10.7881ZM1.02441 17.6504H10.7871C16.6771 17.6504 19.8789 14.8127 19.8789 9.36914C19.8787 3.76089 16.4209 1.12207 10.7871 1.12207H1.02441V17.6504ZM5.47363 16.2646H2.33594V10.5244H5.47363V16.2646ZM3.90527 5.6416C4.98348 5.64186 5.85742 6.543 5.85742 7.6543C5.85726 8.76545 4.98338 9.66673 3.90527 9.66699C2.82717 9.66672 1.95231 8.76545 1.95215 7.6543C1.95215 6.543 2.82707 5.64187 3.90527 5.6416Z" fill="var(--fill-0, black)"/>
<path id="Shape" fill-rule="evenodd" clip-rule="evenodd" d="M16.3255 5.80648H17.2218V8.57776H18.5342C18.1821 3.53007 14.3088 2.40837 10.7876 2.40837H7.04236V5.80648H7.58654C8.61088 5.80648 9.21909 6.4993 9.21909 7.654C9.21909 8.8087 8.61088 9.50152 7.61855 9.50152H7.04236V16.2648H10.7876C16.5175 16.2648 18.4702 13.5265 18.5662 9.50152H16.3255V5.80648ZM12.004 8.57776V9.50152H9.76327V5.80649H11.94V6.73024H10.6596V7.15913H11.876V8.08289H10.6916V8.57776H12.004ZM12.3881 9.50152L13.4764 5.80649H14.7568L15.8452 9.50152H14.9169L14.7248 8.8087H13.5404L13.3484 9.50152H12.3881ZM13.8066 7.85194H13.7966V7.88494L13.8066 7.85194ZM13.8066 7.85194H14.4368L14.1487 6.82921H14.1167L13.8066 7.85194ZM7.04236 8.57777V6.73025H7.58654C7.93866 6.73025 8.32278 6.82922 8.32278 7.65401C8.32278 8.47879 7.97067 8.57777 7.58654 8.57777H7.04236Z" fill="var(--fill-0, #D50072)"/>
</g>
</svg>
