<svg preserveAspectRatio="none" width="100%" height="100%" overflow="visible" style="display: block;" viewBox="0 0 15.0571 14" fill="none" xmlns="http://www.w3.org/2000/svg">
<path id="WeChat" d="M5.47592 8.85586C5.40795 8.89203 5.33146 8.91294 5.25012 8.91294C5.06186 8.91294 4.89824 8.80382 4.81233 8.64226L4.77942 8.56642L3.40881 5.3968C3.39402 5.36235 3.38486 5.32334 3.38486 5.2854C3.38486 5.13932 3.49726 5.02098 3.63587 5.02098C3.6921 5.02098 3.74416 5.04062 3.78601 5.07341L5.40343 6.28703C5.52156 6.36842 5.66275 6.41619 5.81453 6.41619C5.90513 6.41619 5.99147 6.39843 6.07202 6.36753L13.6781 2.80001C12.3147 1.10671 10.0693 0 7.52844 0C3.37043 0 0 2.96007 0 6.61175C0 8.60381 1.01405 10.3971 2.60129 11.6093C2.72859 11.7051 2.81198 11.8625 2.81198 12.0401C2.81198 12.0989 2.80003 12.1525 2.78544 12.2085C2.65868 12.7068 2.45578 13.5049 2.44636 13.5423C2.43051 13.6048 2.40582 13.6702 2.40582 13.7356C2.40582 13.8817 2.51811 14 2.65694 14C2.71132 14 2.75586 13.9786 2.80182 13.9508L4.44997 12.9479C4.57395 12.8726 4.7052 12.8258 4.84986 12.8258C4.92678 12.8258 5.00111 12.8384 5.07102 12.8609C5.8399 13.094 6.66948 13.2235 7.52849 13.2235C11.6862 13.2235 15.0571 10.2633 15.0571 6.61175C15.0571 5.50571 14.7461 4.46407 14.1995 3.54777L5.53109 8.82235L5.47592 8.85586Z" fill="var(--fill-0, #1AAD19)"/>
</svg>
