<svg preserveAspectRatio="none" width="100%" height="100%" overflow="visible" style="display: block;" viewBox="0 0 21.1602 21.1602" fill="none" xmlns="http://www.w3.org/2000/svg">
<path id="Bitcoin" d="M10.5801 0C16.4232 4.31098e-05 21.1602 4.73693 21.1602 10.5801C21.1601 16.4232 16.4232 21.1601 10.5801 21.1602C4.73693 21.1602 4.27289e-05 16.4232 0 10.5801C0 4.73691 4.73691 0 10.5801 0ZM9.86035 5.83887L7.50879 5.25781L7.19922 6.49902C7.23031 6.50611 8.05092 6.69317 8.0459 6.70801C8.51751 6.82588 8.60347 7.13717 8.58887 7.38379L7.28027 12.6104C7.22245 12.7525 7.07541 12.9666 6.74609 12.8857C6.7408 12.8972 5.92034 12.6806 5.89844 12.6748L5.31934 14.0049L7.66699 14.5947L7.18457 16.5244L8.34863 16.8145L8.82715 14.9053C9.14511 14.9906 9.4548 15.0708 9.75684 15.1455L9.28027 17.0449L10.4453 17.335L10.9287 15.4092C12.9168 15.7834 14.4121 15.6319 15.041 13.8408C15.372 12.5964 15.0153 11.5668 13.9697 11.0244C14.7318 10.8497 15.3055 10.3509 15.459 9.32031C15.6702 7.91212 14.5936 7.1548 13.1221 6.64941L13.5996 4.74121L12.4346 4.45117L11.9697 6.30957C11.6638 6.23356 11.3484 6.16154 11.0352 6.09082L11.5029 4.2207L10.3379 3.93066L9.86035 5.83887ZM9.84766 10.9512C10.6388 11.1477 13.1711 11.5374 12.7949 13.041C12.4338 14.4819 9.99779 13.7038 9.20703 13.5078L9.84766 10.9512ZM10.7197 7.46289C11.3784 7.62697 13.4972 7.93215 13.1553 9.2998C12.826 10.6096 10.7982 9.94513 10.1396 9.78223L10.7197 7.46289Z" fill="var(--fill-0, #F7931A)"/>
</svg>
