<svg preserveAspectRatio="none" width="100%" height="100%" overflow="visible" style="display: block;" viewBox="0 0 18.6689 12.5631" fill="none" xmlns="http://www.w3.org/2000/svg">
<g id="Pay">
<path id="Union" d="M15.4268 7.79548H15.4502L17.3408 3.05036H18.6689L14.585 12.5631H13.3242L14.8428 9.23591L12.1631 3.05036H13.4912L15.4268 7.79548ZM9.03418 2.83454C9.93764 2.83454 10.6519 3.08171 11.1758 3.56696C11.6994 4.05218 11.958 4.72977 11.958 5.58454V9.65974H10.7881V8.74274H10.7354C10.2267 9.49758 9.55853 9.87457 8.71582 9.87458C8.00216 9.87458 7.39432 9.65944 6.91602 9.2281C6.44554 8.82767 6.18027 8.23456 6.19531 7.61091C6.19531 6.92539 6.45324 6.38535 6.96191 5.97712C7.4705 5.56902 8.15384 5.36878 9.00391 5.36872C9.7326 5.36872 10.3252 5.50733 10.7959 5.76911V5.48493C10.7959 5.06135 10.6137 4.66066 10.2949 4.38337C9.96846 4.09067 9.55091 3.92829 9.11816 3.92829C8.43487 3.92829 7.89577 4.22181 7.50098 4.8072L6.42285 4.12165C6.99977 3.26679 7.87282 2.83466 9.03418 2.83454ZM3.24219 0.000557143C4.02405 -0.0147511 4.78277 0.285904 5.33691 0.840401C6.44534 1.88794 6.51375 3.6515 5.47363 4.78376L5.33691 4.92243C4.76763 5.46908 4.06946 5.74657 3.24219 5.74665H1.22266V9.65974H0V0.000557143H3.24219ZM9.19434 6.37067C8.70094 6.3707 8.28325 6.49335 7.94922 6.732C7.62277 6.97073 7.45612 7.27145 7.45605 7.63337C7.45605 7.95687 7.60782 8.2571 7.8584 8.44196C8.13176 8.65763 8.46592 8.77388 8.80762 8.76618C9.32383 8.76608 9.81725 8.55769 10.1816 8.18806C10.584 7.80294 10.7891 7.34852 10.7891 6.82478C10.4094 6.5167 9.87771 6.36297 9.19434 6.37067ZM1.22266 4.56013H3.27246C3.72806 4.57553 4.16914 4.39036 4.48047 4.05915C5.11788 3.389 5.10286 2.31051 4.44238 1.66364C4.13106 1.35557 3.71285 1.1861 3.27246 1.1861H1.22266V4.56013Z" fill="var(--fill-0, #3C4043)"/>
</g>
</svg>
