<svg preserveAspectRatio="none" width="100%" height="100%" overflow="visible" style="display: block;" viewBox="0 0 18.9507 16.596" fill="none" xmlns="http://www.w3.org/2000/svg">
<path id="icon" d="M0.901167 16.596C0.731667 16.596 0.579417 16.5546 0.444417 16.4718C0.309417 16.3889 0.204501 16.2797 0.129667 16.144C0.0516674 16.0093 0.00875069 15.8635 0.000917361 15.7065C-0.00691597 15.5495 0.0354172 15.394 0.127917 15.24L8.68867 0.452C8.78133 0.298 8.89717 0.184168 9.03617 0.110501C9.17533 0.0368344 9.32183 0 9.47567 0C9.6295 0 9.776 0.0368344 9.91517 0.110501C10.0542 0.184168 10.17 0.298 10.2627 0.452L18.8234 15.24C18.9159 15.394 18.958 15.5488 18.9497 15.7045C18.9413 15.8603 18.8987 16.0068 18.8217 16.144C18.7448 16.2812 18.6394 16.3908 18.5054 16.473C18.3714 16.555 18.2197 16.596 18.0502 16.596H0.901167ZM1.92567 15.096H17.0257L9.47567 2.096L1.92567 15.096ZM10.0487 13.669C10.2052 13.5127 10.2834 13.3217 10.2834 13.096C10.2834 12.8703 10.2052 12.6793 10.0487 12.523C9.89233 12.3665 9.70133 12.2883 9.47567 12.2883C9.25 12.2883 9.059 12.3665 8.90267 12.523C8.74617 12.6793 8.66792 12.8703 8.66792 13.096C8.66792 13.3217 8.74617 13.5127 8.90267 13.669C9.059 13.8255 9.25 13.9038 9.47567 13.9038C9.70133 13.9038 9.89233 13.8255 10.0487 13.669ZM10.0102 11.0728C10.1538 10.9289 10.2257 10.7508 10.2257 10.5383V7.03825C10.2257 6.82575 10.1538 6.64767 10.0099 6.504C9.86608 6.36017 9.68792 6.28825 9.47542 6.28825C9.26275 6.28825 9.08467 6.36017 8.94117 6.504C8.7975 6.64767 8.72567 6.82575 8.72567 7.03825V10.5383C8.72567 10.7508 8.79758 10.9289 8.94142 11.0728C9.08525 11.2164 9.26342 11.2883 9.47592 11.2883C9.68858 11.2883 9.86667 11.2164 10.0102 11.0728Z" fill="var(--fill-0, #B54708)"/>
</svg>
