<svg preserveAspectRatio="none" width="100%" height="100%" overflow="visible" style="display: block;" viewBox="0 0 36.4575 23.2904" fill="none" xmlns="http://www.w3.org/2000/svg">
<g id="Bancontact">
<path id="Path" d="M32.4852 4.06338H21.1989L20.051 5.39535L16.3262 9.71729V9.71744L15.1784 11.0493H4.04128L5.17136 9.70049L5.70626 9.06209L6.83635 7.71332H1.70465C0.767143 7.71332 0 8.52404 0 9.5148V13.3159C0 14.3068 0.767143 15.1176 1.70465 15.1176H21.351C22.2886 15.1176 23.5692 14.5154 24.197 13.7795L27.1688 10.2958L32.4852 4.06338Z" fill="var(--fill-0, #005697)"/>
<path id="Path_2" d="M34.7529 0C35.6904 0 36.4575 0.810717 36.4575 1.80163V5.60262C36.4575 6.59338 35.6904 7.40424 34.7529 7.40424H29.6379L30.7787 6.06559H30.7788L31.3445 5.40191L32.4852 4.0634H21.1991L15.1786 11.0543H3.97238L12.0089 1.68893L12.313 1.33449C12.943 0.600493 14.2254 0 15.1629 0H34.7529V0Z" fill="var(--fill-0, #FBD500)"/>
<path id="Shape" fill-rule="evenodd" clip-rule="evenodd" d="M3.84163 21.5792C3.84163 21.3311 3.78479 21.1162 3.67141 20.9349C3.55788 20.7535 3.40858 20.6151 3.22336 20.5196C3.40858 20.4242 3.55211 20.2832 3.6541 20.0971C3.75594 19.9109 3.80686 19.701 3.80686 19.4671V19.3382C3.80686 19.0518 3.75363 18.8133 3.64718 18.6222C3.54057 18.4313 3.39112 18.2785 3.19898 18.164C3.00683 18.0494 2.77631 17.9672 2.50786 17.9169C2.23911 17.8668 1.94051 17.8419 1.61161 17.8419C1.50053 17.8419 1.38469 17.8442 1.26439 17.849C1.14379 17.8537 1.02694 17.8597 0.913561 17.8668C0.800033 17.874 0.695737 17.8824 0.600962 17.892C0.505899 17.9016 0.42829 17.9111 0.368136 17.9205C0.233836 17.9446 0.138917 17.9874 0.0833788 18.0494C0.027841 18.1115 0 18.2238 0 18.386V22.7392C0 22.9015 0.0288508 23.0136 0.0868409 23.0756C0.144687 23.1378 0.243068 23.1806 0.382129 23.2045C0.451515 23.2188 0.534894 23.2307 0.632121 23.2403C0.729349 23.2499 0.834654 23.2582 0.948182 23.2653C1.06171 23.2724 1.17856 23.2784 1.29901 23.2833C1.41946 23.2879 1.53746 23.2904 1.6533 23.2904C1.95435 23.2904 2.23796 23.2665 2.50439 23.2188C2.77054 23.1712 3.00207 23.0863 3.19898 22.9645C3.39588 22.8429 3.55211 22.6782 3.66795 22.4707C3.78364 22.263 3.84163 22.0016 3.84163 21.6865V21.5792ZM2.66071 19.5243C2.66071 19.6008 2.64917 19.6736 2.62594 19.7427C2.60272 19.8119 2.56464 19.8715 2.51141 19.9219C2.45803 19.9718 2.38634 20.0124 2.29604 20.0434C2.20573 20.0744 2.09105 20.0899 1.95213 20.0899H1.17417V18.8513C1.19725 18.8513 1.23317 18.8503 1.28179 18.8477C1.3304 18.8454 1.38132 18.8442 1.43455 18.8442H1.702C2.05859 18.8442 2.30758 18.8907 2.4488 18.9838C2.59002 19.0768 2.66071 19.2212 2.66071 19.4169V19.5243ZM2.48357 22.1233C2.62018 22.0136 2.68855 21.8584 2.68855 21.658V21.5792C2.68855 21.4073 2.63518 21.2582 2.52872 21.1317C2.42212 21.0053 2.22997 20.942 1.95214 20.942H1.17417V22.2808H1.29564C1.34887 22.2808 1.4044 22.2823 1.46239 22.2845C1.52024 22.2869 1.57578 22.2882 1.62915 22.2882H1.74369C2.10029 22.2882 2.34696 22.2332 2.48357 22.1233ZM7.64855 20.5267C7.64855 20.2643 7.61032 20.041 7.53386 19.8572C7.45755 19.6736 7.3498 19.5231 7.21088 19.4061C7.07196 19.2893 6.90174 19.2035 6.70022 19.1485C6.49884 19.0936 6.27308 19.0661 6.02295 19.0661C5.79128 19.0661 5.56552 19.0829 5.34567 19.1164C5.12554 19.1497 4.95071 19.1831 4.82117 19.2164C4.73317 19.2405 4.68917 19.2929 4.68917 19.3739V19.9539C4.68917 20.0017 4.70072 20.0352 4.72394 20.0541C4.74702 20.0732 4.77703 20.0829 4.81424 20.0829H4.84886C4.90455 20.078 4.97393 20.0721 5.05731 20.0649C5.14069 20.0578 5.23446 20.052 5.33875 20.0469C5.4429 20.0423 5.55167 20.0387 5.6652 20.0362C5.77858 20.0338 5.89095 20.0327 6.00217 20.0327C6.16417 20.0327 6.29155 20.0637 6.38416 20.1257C6.47677 20.1879 6.52308 20.3215 6.52308 20.5267V20.7845H6.14802C5.55052 20.7845 5.11631 20.8811 4.8454 21.0744C4.57449 21.2677 4.43904 21.5744 4.43904 21.9944V22.0591C4.43904 22.2928 4.47265 22.4884 4.53973 22.6459C4.60681 22.8035 4.6961 22.93 4.80717 23.0256C4.91839 23.1209 5.04447 23.189 5.18584 23.2294C5.32707 23.27 5.47421 23.2904 5.62697 23.2904C5.83542 23.2904 6.01487 23.2617 6.16533 23.2045C6.31578 23.1472 6.45816 23.0684 6.59261 22.9682V23.0827C6.59261 23.1209 6.60645 23.1544 6.6343 23.1829C6.66214 23.2116 6.69445 23.2259 6.73152 23.2259H7.50963C7.54656 23.2259 7.57902 23.2116 7.60686 23.1829C7.6347 23.1544 7.64855 23.1209 7.64855 23.0827V20.5267ZM6.27658 22.3702C6.37135 22.3393 6.46065 22.3023 6.54403 22.2593V21.4718H6.14805C6.0276 21.4718 5.92806 21.4825 5.8493 21.5039C5.77054 21.5255 5.70793 21.5577 5.66177 21.6007C5.61546 21.6435 5.58301 21.6985 5.56454 21.7653C5.54593 21.8322 5.5367 21.9085 5.5367 21.9944V22.0591C5.5367 22.2116 5.57248 22.3094 5.64431 22.3524C5.71615 22.3954 5.82607 22.4168 5.97437 22.4168C6.08083 22.4168 6.18152 22.4015 6.27658 22.3702ZM11.9001 23.0756V20.6913C11.9001 20.4672 11.8828 20.2558 11.848 20.0578C11.8132 19.8599 11.7508 19.6879 11.6605 19.5422C11.5702 19.3966 11.4451 19.2808 11.2853 19.195C11.1256 19.1091 10.9206 19.0661 10.6705 19.0661C10.4482 19.0661 10.2513 19.0938 10.08 19.1491C9.90865 19.2044 9.72804 19.3018 9.53821 19.4412V19.2677C9.53821 19.2294 9.52421 19.1956 9.49652 19.1668C9.46867 19.1379 9.43622 19.1234 9.39914 19.1234H8.62118C8.58396 19.1234 8.55165 19.1376 8.52396 19.1663C8.49611 19.195 8.48227 19.2285 8.48227 19.2665V23.0756C8.48227 23.1138 8.49712 23.1484 8.52742 23.1793C8.55742 23.2104 8.59103 23.2259 8.62811 23.2259H9.46867C9.50575 23.2259 9.53821 23.2104 9.5659 23.1795C9.59374 23.1486 9.60759 23.1141 9.60759 23.0759V20.2612C9.72804 20.1946 9.84143 20.1398 9.94803 20.097C10.0545 20.0541 10.1586 20.0327 10.2606 20.0327C10.3671 20.0327 10.4539 20.0434 10.5212 20.0649C10.5882 20.0863 10.6403 20.1232 10.6774 20.1758C10.7145 20.228 10.74 20.297 10.7538 20.3826C10.7677 20.4684 10.7748 20.5732 10.7748 20.6971V23.0759C10.7748 23.1141 10.7886 23.1486 10.8164 23.1795C10.8441 23.2104 10.8764 23.2259 10.9137 23.2259H11.7542C11.7912 23.2259 11.8248 23.2104 11.8549 23.1793C11.8851 23.1484 11.9001 23.1138 11.9001 23.0756ZM15.3179 22.3813V23.0183C15.3179 23.0708 15.3062 23.1078 15.2831 23.1292C15.2599 23.1508 15.2228 23.1686 15.1719 23.1829C15.0747 23.2068 14.9485 23.2306 14.7934 23.2547C14.6382 23.2783 14.4564 23.2904 14.248 23.2904C13.7571 23.2904 13.3646 23.1353 13.0706 22.8249C12.7764 22.5148 12.6294 22.0661 12.6294 21.479V20.8776C12.6294 20.2905 12.7764 19.8418 13.0706 19.5316C13.3646 19.2212 13.7571 19.0661 14.248 19.0661C14.4564 19.0661 14.6382 19.078 14.7934 19.1018C14.9485 19.1259 15.0747 19.1497 15.1719 19.1735C15.2228 19.1877 15.2599 19.2057 15.2831 19.2271C15.3062 19.2487 15.3179 19.2857 15.3179 19.3382V19.9754C15.3179 20.0136 15.3051 20.0434 15.2797 20.0649C15.2541 20.0863 15.2228 20.097 15.1859 20.097H15.1719C15.0422 20.0829 14.9185 20.0709 14.8003 20.0613C14.6822 20.052 14.5235 20.0469 14.3244 20.0469C14.2457 20.0469 14.1717 20.0602 14.1021 20.0863C14.0326 20.1126 13.9725 20.158 13.9215 20.2224C13.8705 20.2869 13.8301 20.3727 13.7999 20.4802C13.7698 20.5875 13.7548 20.72 13.7548 20.8776V21.479C13.7548 21.6364 13.7698 21.7689 13.7999 21.8764C13.8301 21.9837 13.8705 22.0696 13.9215 22.134C13.9725 22.1985 14.0326 22.2439 14.1021 22.27C14.1717 22.2964 14.2457 22.3094 14.3244 22.3094C14.5235 22.3094 14.6822 22.3047 14.8003 22.2952C14.9185 22.2857 15.0422 22.2736 15.1719 22.2593H15.1859C15.2228 22.2593 15.2541 22.27 15.2797 22.2916C15.3051 22.3132 15.3179 22.3429 15.3179 22.3813ZM19.1737 20.9277C19.1737 20.6412 19.1353 20.3835 19.0587 20.1544C18.9821 19.9253 18.8707 19.7308 18.7246 19.5709C18.5785 19.411 18.3974 19.2869 18.1818 19.1986C17.966 19.1104 17.7164 19.0661 17.4334 19.0661C17.1504 19.0661 16.901 19.1104 16.6851 19.1986C16.4693 19.2869 16.2872 19.411 16.1387 19.5709C15.9901 19.7308 15.8776 19.9253 15.8012 20.1544C15.7244 20.3835 15.6862 20.6412 15.6862 20.9277V21.4288C15.6862 21.7152 15.7244 21.973 15.8012 22.2021C15.8776 22.4312 15.9901 22.6257 16.1387 22.7856C16.2872 22.9456 16.4693 23.0696 16.6851 23.1579C16.901 23.2461 17.1504 23.2904 17.4334 23.2904C17.7164 23.2904 17.966 23.2461 18.1818 23.1579C18.3974 23.0696 18.5785 22.9456 18.7246 22.7856C18.8707 22.6257 18.9821 22.4312 19.0587 22.2021C19.1353 21.973 19.1737 21.7152 19.1737 21.4288V20.9277ZM17.4334 22.3094C17.8432 22.3094 18.0482 22.016 18.0482 21.4289V20.9277C18.0482 20.3453 17.8432 20.0541 17.4334 20.0541C17.2307 20.0541 17.0765 20.1269 16.9706 20.2725C16.8646 20.4182 16.8117 20.6366 16.8117 20.9277V21.4289C16.8117 21.72 16.8646 21.9395 16.9706 22.0875C17.0765 22.2356 17.2307 22.3094 17.4334 22.3094ZM23.3068 23.0756V20.6913C23.3068 20.4672 23.2892 20.2558 23.2547 20.0578C23.22 19.8599 23.1574 19.6879 23.0669 19.5422C22.9766 19.3966 22.8517 19.2808 22.692 19.195C22.5322 19.1091 22.3272 19.0661 22.0772 19.0661C21.8549 19.0661 21.658 19.0938 21.4866 19.1491C21.3152 19.2044 21.1346 19.3018 20.9448 19.4412V19.2677C20.9448 19.2294 20.9309 19.1956 20.903 19.1668C20.8754 19.1379 20.8428 19.1234 20.8059 19.1234H20.0278C19.9907 19.1234 19.9584 19.1376 19.9305 19.1663C19.9028 19.195 19.8889 19.2285 19.8889 19.2665V23.0756C19.8889 23.1138 19.9039 23.1484 19.934 23.1793C19.9642 23.2104 19.9976 23.2259 20.0348 23.2259H20.8754C20.9123 23.2259 20.9448 23.2104 20.9726 23.1795C21.0003 23.1486 21.0143 23.1141 21.0143 23.0759V20.2612C21.1346 20.1946 21.2482 20.1398 21.3546 20.097C21.4612 20.0541 21.5654 20.0327 21.6674 20.0327C21.7738 20.0327 21.8607 20.0434 21.9277 20.0649C21.9948 20.0863 22.047 20.1232 22.0841 20.1758C22.1212 20.228 22.1466 20.297 22.1606 20.3826C22.1744 20.4684 22.1813 20.5732 22.1813 20.6971V23.0759C22.1813 23.1141 22.1952 23.1486 22.223 23.1795C22.2509 23.2104 22.2832 23.2259 22.3203 23.2259H23.1608C23.1979 23.2259 23.2315 23.2104 23.2617 23.1793C23.2917 23.1484 23.3068 23.1138 23.3068 23.0756ZM26.3359 22.5375V23.0916C26.3359 23.172 26.2919 23.2195 26.2039 23.2334C26.0973 23.2525 26.0047 23.2666 25.9261 23.2761C25.8473 23.2856 25.7568 23.2904 25.6551 23.2904C25.4662 23.2904 25.2993 23.2748 25.1543 23.2438C25.0093 23.2128 24.8883 23.152 24.7916 23.0613C24.6951 22.9706 24.6214 22.8452 24.5708 22.6853C24.5203 22.5254 24.4949 22.3192 24.4949 22.066V19.9898L23.9392 19.8966C23.902 19.8871 23.8686 19.8692 23.8384 19.8429C23.8083 19.8168 23.7933 19.7845 23.7933 19.7463V19.2737C23.7933 19.2356 23.8083 19.201 23.8384 19.1699C23.8686 19.139 23.902 19.1233 23.9392 19.1233H24.4949V18.5362C24.4949 18.498 24.5088 18.4671 24.5363 18.4432C24.5637 18.4194 24.5962 18.4027 24.6331 18.3931L25.4754 18.2429H25.496C25.5328 18.2429 25.5628 18.2535 25.5859 18.2749C25.6088 18.2964 25.6204 18.3263 25.6204 18.3644V19.1233H26.19C26.227 19.1233 26.2594 19.1378 26.2873 19.1666C26.3151 19.1955 26.329 19.2293 26.329 19.2677V19.8524C26.329 19.8911 26.3151 19.9247 26.2873 19.9535C26.2594 19.9824 26.227 19.9968 26.19 19.9968H25.6204V22.0803C25.6204 22.2235 25.6319 22.3155 25.6551 22.356C25.6782 22.3965 25.743 22.4168 25.8495 22.4168H26.19C26.2873 22.4168 26.3359 22.4571 26.3359 22.5375ZM30.0454 20.5267C30.0454 20.2643 30.0073 20.041 29.9307 19.8572C29.8544 19.6736 29.7468 19.5231 29.6078 19.4061C29.4689 19.2893 29.2987 19.2035 29.0972 19.1485C28.8958 19.0936 28.67 19.0661 28.4199 19.0661C28.1881 19.0661 27.9625 19.0829 27.7426 19.1164C27.5225 19.1497 27.3477 19.1831 27.2181 19.2164C27.1298 19.2405 27.0861 19.2929 27.0861 19.3739V19.9539C27.0861 20.0017 27.0975 20.0352 27.1207 20.0541C27.144 20.0732 27.174 20.0829 27.2111 20.0829H27.2458C27.3015 20.078 27.3709 20.0721 27.4543 20.0649C27.5376 20.0578 27.6314 20.052 27.7356 20.0469C27.8399 20.0423 27.9486 20.0387 28.0622 20.0362C28.1755 20.0338 28.2879 20.0327 28.399 20.0327C28.5611 20.0327 28.6885 20.0637 28.7811 20.1257C28.8737 20.1879 28.92 20.3215 28.92 20.5267V20.7845H28.545C27.9473 20.7845 27.5133 20.8811 27.2424 21.0744C26.9714 21.2677 26.836 21.5744 26.836 21.9944V22.0591C26.836 22.2928 26.8695 22.4884 26.9367 22.6459C27.0036 22.8035 27.0931 22.93 27.2041 23.0256C27.3153 23.1209 27.4414 23.189 27.5828 23.2294C27.724 23.27 27.871 23.2904 28.0239 23.2904C28.2324 23.2904 28.4117 23.2617 28.5623 23.2045C28.7127 23.1472 28.855 23.0684 28.9896 22.9682V23.0827C28.9896 23.1209 29.0034 23.1544 29.0313 23.1829C29.059 23.2116 29.0914 23.2259 29.1285 23.2259H29.9066C29.9435 23.2259 29.976 23.2116 30.0038 23.1829C30.0315 23.1544 30.0454 23.1209 30.0454 23.0827V20.5267ZM28.6735 22.3702C28.7683 22.3393 28.8576 22.3023 28.9409 22.2593V21.4718H28.545C28.4245 21.4718 28.325 21.4825 28.2462 21.5039C28.1674 21.5255 28.1048 21.5577 28.0587 21.6007C28.0122 21.6435 27.9798 21.6985 27.9615 21.7653C27.9428 21.8322 27.9336 21.9085 27.9336 21.9944V22.0591C27.9336 22.2116 27.9694 22.3094 28.0412 22.3524C28.1131 22.3954 28.223 22.4168 28.3713 22.4168C28.4777 22.4168 28.5783 22.4015 28.6735 22.3702ZM33.4633 23.0183V22.3813C33.4633 22.3429 33.4505 22.3132 33.4251 22.2916C33.3995 22.27 33.3684 22.2593 33.3313 22.2593H33.3175C33.1878 22.2736 33.0639 22.2857 32.9457 22.2952C32.8277 22.3047 32.669 22.3094 32.47 22.3094C32.3911 22.3094 32.3169 22.2964 32.2477 22.27C32.1781 22.2439 32.1178 22.1985 32.0669 22.134C32.016 22.0696 31.9755 21.9837 31.9455 21.8764C31.9152 21.7689 31.9003 21.6364 31.9003 21.479V20.8776C31.9003 20.72 31.9152 20.5875 31.9455 20.4802C31.9755 20.3727 32.016 20.2869 32.0669 20.2224C32.1178 20.158 32.1781 20.1126 32.2477 20.0863C32.3169 20.0602 32.3911 20.0469 32.47 20.0469C32.669 20.0469 32.8277 20.052 32.9457 20.0613C33.0639 20.0709 33.1878 20.0829 33.3175 20.097H33.3313C33.3684 20.097 33.3995 20.0863 33.4251 20.0649C33.4505 20.0434 33.4633 20.0136 33.4633 19.9754V19.3382C33.4633 19.2857 33.4518 19.2487 33.4285 19.2271C33.4052 19.2057 33.3684 19.1877 33.3175 19.1735C33.2202 19.1497 33.0939 19.1259 32.9388 19.1018C32.7836 19.078 32.602 19.0661 32.3935 19.0661C31.9023 19.0661 31.5101 19.2212 31.216 19.5316C30.9218 19.8418 30.7748 20.2905 30.7748 20.8776V21.479C30.7748 22.0661 30.9218 22.5148 31.216 22.8249C31.5101 23.1353 31.9023 23.2904 32.3935 23.2904C32.602 23.2904 32.7836 23.2783 32.9388 23.2547C33.0939 23.2306 33.2202 23.2068 33.3175 23.1829C33.3684 23.1686 33.4052 23.1508 33.4285 23.1292C33.4518 23.1078 33.4633 23.0708 33.4633 23.0183ZM36.4573 22.5375V23.0916C36.4573 23.172 36.4132 23.2195 36.3253 23.2334C36.2187 23.2525 36.1261 23.2666 36.0475 23.2761C35.9686 23.2856 35.8783 23.2904 35.7766 23.2904C35.5876 23.2904 35.4207 23.2748 35.2757 23.2438C35.1306 23.2128 35.0097 23.152 34.9132 23.0613C34.8166 22.9706 34.7429 22.8452 34.6922 22.6853C34.6418 22.5254 34.6164 22.3192 34.6164 22.066V19.9898L34.0607 19.8966C34.0235 19.8871 33.99 19.8692 33.9599 19.8429C33.9297 19.8168 33.9147 19.7845 33.9147 19.7463V19.2737C33.9147 19.2356 33.9297 19.201 33.9599 19.1699C33.99 19.139 34.0235 19.1233 34.0607 19.1233H34.6164V18.5362C34.6164 18.498 34.6302 18.4671 34.6578 18.4432C34.6852 18.4194 34.7175 18.4027 34.7544 18.3931L35.5967 18.2429H35.6175C35.6543 18.2429 35.6843 18.2535 35.7071 18.2749C35.7303 18.2964 35.7418 18.3263 35.7418 18.3644V19.1233H36.3115C36.3484 19.1233 36.3809 19.1378 36.4087 19.1666C36.4364 19.1955 36.4504 19.2293 36.4504 19.2677V19.8524C36.4504 19.8911 36.4364 19.9247 36.4087 19.9535C36.3809 19.9824 36.3484 19.9968 36.3115 19.9968H35.7418V22.0803C35.7418 22.2235 35.7534 22.3155 35.7766 22.356C35.7997 22.3965 35.8644 22.4168 35.9711 22.4168H36.3115C36.4087 22.4168 36.4573 22.4571 36.4573 22.5375Z" fill="var(--fill-0, #005697)"/>
</g>
</svg>
