<svg preserveAspectRatio="none" width="100%" height="100%" overflow="visible" style="display: block;" viewBox="0 0 19 19" fill="none" xmlns="http://www.w3.org/2000/svg">
<g id="bell">
<path id="Vector" d="M14.25 6.33333C14.25 5.07356 13.7496 3.86537 12.8588 2.97458C11.968 2.08378 10.7598 1.58333 9.5 1.58333C8.24022 1.58333 7.03204 2.08378 6.14124 2.97458C5.25045 3.86537 4.75 5.07356 4.75 6.33333C4.75 11.875 2.375 13.4583 2.375 13.4583H16.625C16.625 13.4583 14.25 11.875 14.25 6.33333Z" stroke="var(--stroke-0, #9B8AFB)" stroke-width="1.5" stroke-linecap="round" stroke-linejoin="round"/>
<path id="Vector_2" d="M10.8696 16.625C10.7304 16.8649 10.5306 17.0641 10.2903 17.2025C10.0499 17.341 9.77738 17.4139 9.5 17.4139C9.22262 17.4139 8.9501 17.341 8.70974 17.2025C8.46937 17.0641 8.2696 16.8649 8.13042 16.625" stroke="var(--stroke-0, #9B8AFB)" stroke-width="1.5" stroke-linecap="round" stroke-linejoin="round"/>
</g>
</svg>
