<svg preserveAspectRatio="none" width="100%" height="100%" overflow="visible" style="display: block;" viewBox="0 0 24.2861 9.0127" fill="none" xmlns="http://www.w3.org/2000/svg">
<g id="SEPA">
<path id="S-PA" d="M3.31836 7.65625C3.43198 7.65626 3.52573 7.70766 3.59961 7.81055V7.67969H3.82617V8.53027C3.82617 8.64224 3.81678 8.72597 3.79883 8.78125C3.78096 8.83668 3.75598 8.88058 3.72363 8.91211C3.69135 8.94347 3.64847 8.96854 3.59473 8.98633C3.54074 9.00417 3.47211 9.01269 3.38965 9.0127C3.23374 9.0127 3.12289 8.98505 3.05762 8.92969C2.99236 8.87433 2.95996 8.80381 2.95996 8.71875C2.95997 8.71042 2.96038 8.70039 2.96094 8.68848L3.2373 8.71973C3.24197 8.75478 3.25291 8.77871 3.26953 8.79199C3.29271 8.81091 3.32918 8.82031 3.37891 8.82031C3.44257 8.82031 3.49059 8.8106 3.52246 8.79102C3.54364 8.77789 3.56031 8.75653 3.57129 8.72754C3.57863 8.70657 3.58201 8.66852 3.58203 8.61328L3.58301 8.47461C3.51105 8.57562 3.41935 8.62598 3.30859 8.62598C3.18527 8.62591 3.08768 8.57239 3.01562 8.46484C2.95904 8.37969 2.93067 8.2733 2.93066 8.14648C2.93066 7.98746 2.96786 7.86622 3.04199 7.78223C3.11612 7.69832 3.20817 7.65625 3.31836 7.65625ZM13.6729 8.35156L13.8887 7.67969H14.1396L13.7568 8.75684C13.7355 8.81216 13.7156 8.85458 13.6963 8.88379C13.677 8.91292 13.654 8.93698 13.6289 8.95508C13.6039 8.97305 13.5734 8.98708 13.5371 8.99707C13.5004 9.00728 13.4583 9.0127 13.4121 9.0127C13.3654 9.01268 13.3193 9.00718 13.2744 8.99707L13.252 8.80078C13.2902 8.80866 13.3248 8.8125 13.3555 8.8125C13.4123 8.81247 13.4542 8.79524 13.4814 8.76074C13.5086 8.72611 13.5295 8.68221 13.5439 8.62891L13.1943 7.67969H13.4531L13.6729 8.35156ZM0.516602 7.2959C0.675601 7.2959 0.795567 7.33132 0.875977 7.40332C0.956382 7.47544 0.997925 7.57204 1.00195 7.69238L0.746094 7.70312C0.735171 7.63604 0.711708 7.58718 0.675781 7.55762C0.639863 7.5282 0.585528 7.51372 0.513672 7.51367C0.43941 7.51367 0.380948 7.5291 0.338867 7.56055C0.311806 7.58067 0.297915 7.60785 0.297852 7.6416C0.297852 7.67256 0.310583 7.6996 0.335938 7.72168C0.368184 7.74955 0.446956 7.77849 0.571289 7.80859C0.695277 7.83873 0.787061 7.8699 0.84668 7.90234C0.906167 7.93476 0.953589 7.97898 0.987305 8.03516C1.02091 8.09153 1.03805 8.16143 1.03809 8.24414C1.03809 8.3193 1.01693 8.38953 0.976562 8.45508C0.936156 8.52065 0.879474 8.56969 0.805664 8.60156C0.731859 8.63343 0.639474 8.64941 0.529297 8.64941C0.36917 8.64935 0.246043 8.61097 0.160156 8.53418C0.0743344 8.45733 0.0225964 8.34542 0.00585938 8.19824L0.254883 8.17188C0.269854 8.25844 0.300881 8.32261 0.34668 8.36328C0.392537 8.40374 0.454514 8.42383 0.532227 8.42383C0.614567 8.4238 0.676923 8.40611 0.71875 8.37012C0.760487 8.33402 0.78125 8.29145 0.78125 8.24316C0.781234 8.21224 0.772333 8.18587 0.754883 8.16406C0.737355 8.14234 0.706714 8.12359 0.663086 8.10742C0.633182 8.09689 0.565079 8.07795 0.458984 8.05078C0.322281 8.01598 0.226155 7.97282 0.170898 7.92188C0.0933058 7.85016 0.0537109 7.76243 0.0537109 7.65918C0.0537428 7.59293 0.0727839 7.53037 0.109375 7.47266C0.145906 7.41505 0.198952 7.37095 0.267578 7.34082C0.336398 7.31073 0.419399 7.2959 0.516602 7.2959ZM5.01465 7.65625C5.15172 7.65625 5.26064 7.70334 5.33984 7.79688C5.41879 7.89056 5.45656 8.0337 5.45312 8.22656H4.8418C4.84349 8.30103 4.8636 8.3589 4.90137 8.40039C4.9392 8.44172 4.98646 8.46289 5.04297 8.46289C5.08126 8.46285 5.11354 8.45195 5.13965 8.43066C5.16574 8.40944 5.18587 8.37531 5.19922 8.32812L5.44043 8.36914C5.40922 8.46029 5.36026 8.5304 5.29297 8.57812C5.22568 8.62588 5.14106 8.64936 5.04004 8.64941C4.87978 8.64941 4.76046 8.59529 4.68359 8.4873C4.62302 8.40092 4.59281 8.29185 4.59277 8.16016C4.59277 8.00279 4.63304 7.87926 4.71289 7.79004C4.79254 7.70099 4.89296 7.65637 5.01465 7.65625ZM7.71973 8.11523C7.71974 8.24795 7.72444 8.32925 7.7334 8.35938C7.74233 8.38959 7.75856 8.41404 7.78223 8.43164C7.80582 8.44894 7.83591 8.45801 7.87207 8.45801C7.91349 8.45795 7.95063 8.44539 7.9834 8.42188C8.01616 8.39844 8.03864 8.36969 8.05078 8.33496C8.06285 8.30018 8.06934 8.21472 8.06934 8.0791V7.67969H8.31348V8.62598H8.08691V8.48438C8.05335 8.53492 8.00875 8.5747 7.9541 8.60449C7.8995 8.63414 7.84188 8.64941 7.78125 8.64941C7.7195 8.64937 7.66432 8.63532 7.61523 8.60742C7.56614 8.57945 7.53076 8.5398 7.50879 8.48926C7.48688 8.43865 7.47559 8.36848 7.47559 8.2793V7.67969H7.71973V8.11523ZM9.77344 7.65625C9.91228 7.65633 10.0264 7.7026 10.1152 7.7959C10.204 7.88926 10.248 8.00783 10.248 8.15039C10.248 8.29403 10.2029 8.41334 10.1133 8.50781C10.0236 8.60224 9.91044 8.64941 9.77441 8.64941C9.69049 8.64936 9.61034 8.6299 9.53418 8.59082C9.45771 8.5514 9.39914 8.4931 9.35938 8.41699C9.31968 8.34101 9.29984 8.24868 9.2998 8.13965C9.2998 8.05615 9.31953 7.97467 9.35938 7.89648C9.3991 7.81855 9.45547 7.7589 9.52832 7.71777C9.60124 7.67661 9.68345 7.65625 9.77344 7.65625ZM12.6318 7.65625C12.74 7.65625 12.821 7.66906 12.874 7.69531C12.9271 7.72195 12.9648 7.75612 12.9863 7.79688C13.008 7.83764 13.0186 7.91255 13.0186 8.02148L13.0166 8.31445C13.0166 8.39778 13.0206 8.45952 13.0283 8.49902C13.0361 8.53848 13.0501 8.58092 13.0713 8.62598H12.8301C12.8237 8.60969 12.8158 8.58561 12.8066 8.55371C12.8026 8.53909 12.7995 8.52917 12.7979 8.52441C12.7564 8.56601 12.7122 8.5973 12.665 8.61816C12.6178 8.63899 12.5673 8.64941 12.5137 8.64941C12.4193 8.64936 12.3444 8.62321 12.29 8.57031C12.2357 8.51734 12.209 8.45 12.209 8.36914C12.209 8.31561 12.2214 8.26758 12.2461 8.22559C12.271 8.18361 12.3059 8.15123 12.3506 8.12891C12.3953 8.10672 12.4599 8.08696 12.5439 8.07031C12.6574 8.04834 12.7364 8.02787 12.7803 8.00879V7.9834C12.7802 7.93467 12.7683 7.89972 12.7451 7.87891C12.7218 7.85822 12.6776 7.84766 12.6133 7.84766C12.5701 7.84772 12.536 7.8565 12.5117 7.87402C12.4873 7.8917 12.4681 7.92354 12.4531 7.96777L12.2344 7.92578C12.2592 7.83416 12.3018 7.7667 12.3623 7.72266C12.4229 7.67861 12.5126 7.65627 12.6318 7.65625ZM16.3271 7.65625C16.4642 7.65625 16.5722 7.70334 16.6514 7.79688C16.7304 7.89056 16.7681 8.03356 16.7646 8.22656H16.1543C16.1561 8.30089 16.1753 8.35892 16.2129 8.40039C16.2506 8.44166 16.298 8.46283 16.3545 8.46289C16.3928 8.46289 16.425 8.45191 16.4512 8.43066C16.4774 8.40946 16.4974 8.37529 16.5107 8.32812L16.7529 8.36914C16.7216 8.46036 16.6719 8.5304 16.6045 8.57812C16.5371 8.62585 16.4527 8.64941 16.3516 8.64941C16.1914 8.6494 16.073 8.59528 15.9961 8.4873C15.9354 8.40088 15.9053 8.29199 15.9053 8.16016C15.9053 8.00286 15.9448 7.87925 16.0244 7.79004C16.1043 7.70082 16.2051 7.65625 16.3271 7.65625ZM18.4043 7.67969H18.5703V7.87891H18.4043V8.26172C18.4043 8.33872 18.4061 8.38433 18.4092 8.39746C18.4122 8.41033 18.4196 8.4213 18.4307 8.42969C18.4417 8.43787 18.455 8.44237 18.4707 8.44238C18.4929 8.44238 18.5254 8.43399 18.5674 8.41797L18.5879 8.6123C18.5318 8.63714 18.4683 8.64939 18.3975 8.64941C18.3538 8.64941 18.3143 8.64212 18.2793 8.62695C18.2444 8.61185 18.2186 8.59154 18.2021 8.56738C18.1859 8.54334 18.1742 8.51066 18.168 8.46973C18.1628 8.44042 18.1611 8.38143 18.1611 8.29297V7.87891H18.0498V7.67969H18.1611V7.49023L18.4043 7.34277V7.67969ZM19.127 7.65625C19.253 7.65628 19.3468 7.67698 19.4082 7.71875C19.4696 7.76075 19.5119 7.82319 19.5352 7.90527L19.3066 7.94922C19.2967 7.91245 19.2777 7.88385 19.25 7.86426C19.2223 7.84471 19.1828 7.83501 19.1318 7.83496C19.0671 7.83496 19.0201 7.84461 18.9922 7.86328C18.9736 7.87637 18.9648 7.89326 18.9648 7.91406C18.9649 7.93196 18.9722 7.94739 18.9883 7.95996C19.0103 7.97664 19.0868 8.00071 19.2168 8.03125C19.3466 8.06177 19.4377 8.09839 19.4893 8.14258C19.5401 8.18735 19.5654 8.2501 19.5654 8.33008C19.5654 8.41731 19.5302 8.49292 19.46 8.55566C19.3895 8.61837 19.2851 8.64941 19.1475 8.64941C19.0226 8.64936 18.9234 8.62328 18.8506 8.57129C18.7779 8.51917 18.7305 8.44859 18.708 8.35938L18.9521 8.32031C18.9626 8.36857 18.9831 8.40556 19.0146 8.43066C19.0463 8.45574 19.0907 8.46772 19.1475 8.46777C19.2103 8.46777 19.2584 8.45554 19.29 8.43164C19.311 8.41484 19.3213 8.39225 19.3213 8.36426C19.3212 8.34536 19.3152 8.32974 19.3037 8.31738C19.2915 8.30543 19.2647 8.29433 19.2227 8.28418C19.0256 8.23929 18.9003 8.19806 18.8477 8.16113C18.7746 8.10992 18.7383 8.03831 18.7383 7.94727C18.7384 7.86508 18.7699 7.7961 18.833 7.74023C18.8963 7.6843 18.9943 7.65625 19.127 7.65625ZM22.7998 7.65625C22.9368 7.65625 23.0447 7.70334 23.124 7.79688C23.203 7.89055 23.2417 8.03353 23.2383 8.22656H22.627C22.6287 8.3009 22.648 8.35891 22.6855 8.40039C22.7234 8.44167 22.7708 8.46283 22.8271 8.46289C22.8656 8.46289 22.8986 8.45199 22.9248 8.43066C22.9507 8.40944 22.97 8.37507 22.9834 8.32812L23.2256 8.36914C23.1944 8.46036 23.1445 8.5304 23.0771 8.57812C23.0098 8.62583 22.9253 8.64941 22.8242 8.64941C22.6641 8.64937 22.5456 8.59525 22.4688 8.4873C22.4081 8.40089 22.378 8.29197 22.3779 8.16016C22.3779 8.0029 22.4173 7.87925 22.4971 7.79004C22.5767 7.70083 22.6779 7.65626 22.7998 7.65625ZM23.8457 7.65625C23.9541 7.65625 24.0358 7.66892 24.0889 7.69531C24.1418 7.72193 24.1786 7.75619 24.2002 7.79688C24.2218 7.83763 24.2334 7.91251 24.2334 8.02148L24.2305 8.31445C24.2305 8.39778 24.2345 8.45952 24.2422 8.49902C24.25 8.53857 24.2649 8.5808 24.2861 8.62598H24.0439C24.0375 8.60968 24.0298 8.58559 24.0205 8.55371C24.0166 8.53931 24.0143 8.52924 24.0127 8.52441C23.9712 8.56616 23.9262 8.59725 23.8789 8.61816C23.8319 8.63885 23.7818 8.64936 23.7285 8.64941C23.6342 8.64941 23.5593 8.62309 23.5049 8.57031C23.4506 8.51733 23.4229 8.45004 23.4229 8.36914C23.4229 8.31566 23.4352 8.26755 23.46 8.22559C23.4848 8.18359 23.5198 8.15123 23.5645 8.12891C23.6092 8.10668 23.6737 8.08699 23.7578 8.07031C23.8714 8.04832 23.9503 8.02788 23.9941 8.00879V7.9834C23.9941 7.93467 23.9821 7.89972 23.959 7.87891C23.9358 7.85834 23.8921 7.84768 23.8281 7.84766C23.7849 7.84766 23.7509 7.85666 23.7266 7.87402C23.7023 7.8917 23.682 7.92354 23.667 7.96777L23.4482 7.92578C23.473 7.83421 23.5158 7.76672 23.5762 7.72266C23.6367 7.67864 23.7266 7.65631 23.8457 7.65625ZM1.54785 8.62598H1.30371V7.67969H1.54785V8.62598ZM2.37793 7.65625C2.43138 7.6563 2.48018 7.66665 2.52441 7.68652C2.56872 7.70644 2.60224 7.73176 2.625 7.7627C2.64775 7.79364 2.66392 7.82885 2.67285 7.86816C2.68172 7.90733 2.6865 7.96335 2.68652 8.03613V8.62598H2.44238V8.1416C2.44237 8.03953 2.43702 7.97344 2.42676 7.94336C2.41637 7.91331 2.39924 7.88973 2.37598 7.87305C2.35275 7.85654 2.32458 7.84766 2.29199 7.84766C2.25025 7.84773 2.21288 7.86009 2.17969 7.88379C2.14638 7.9076 2.12365 7.93919 2.11133 7.97852C2.09894 8.01776 2.09278 8.0903 2.09277 8.19629V8.62598H1.84863V7.67969H2.0752V7.81836C2.15526 7.7102 2.25648 7.65625 2.37793 7.65625ZM4.3623 8.62598H4.11816V7.31934H4.3623V8.62598ZM7.18945 7.53906H6.50781V7.83008H7.1416V8.05078H6.50781V8.40527H7.21484V8.62598H6.25098V7.31934H7.18945V7.53906ZM9.04102 7.65625C9.09626 7.65625 9.14993 7.67166 9.20117 7.70312L9.12695 7.92285C9.086 7.89564 9.04788 7.88187 9.0127 7.88184C8.97849 7.88184 8.94953 7.89188 8.92578 7.91113C8.90213 7.93056 8.88369 7.96526 8.87012 8.01562C8.85653 8.06613 8.84962 8.17204 8.84961 8.33301V8.62598H8.60547V7.67969H8.83203V7.81445C8.87059 7.75113 8.90473 7.7085 8.93555 7.6875C8.9664 7.6667 9.00182 7.65629 9.04102 7.65625ZM11.4531 7.31934C11.6087 7.31934 11.7106 7.32584 11.7578 7.33887C11.8302 7.35849 11.8905 7.40123 11.9395 7.4668C11.9885 7.53245 12.0137 7.6176 12.0137 7.72168C12.0136 7.80176 11.9989 7.86906 11.9707 7.92383C11.9425 7.97837 11.9067 8.02156 11.8633 8.05273C11.8199 8.08394 11.7753 8.10415 11.7305 8.11426C11.6694 8.12674 11.5812 8.13379 11.4658 8.13379H11.2988V8.62598H11.043V7.31934H11.4531ZM15.3818 7.65625C15.4494 7.65626 15.507 7.66987 15.5537 7.69824C15.6004 7.72638 15.6351 7.76844 15.6582 7.82324C15.6748 7.86365 15.6836 7.92908 15.6836 8.01953V8.62598H15.4395V8.08398C15.4395 7.98986 15.4307 7.92876 15.4141 7.90137C15.3915 7.86572 15.357 7.84766 15.3105 7.84766C15.2766 7.84766 15.2447 7.85857 15.2148 7.87988C15.1849 7.90138 15.1626 7.93319 15.1494 7.97461C15.1362 8.01595 15.1299 8.08174 15.1299 8.1709V8.62598H14.8857V8.10645C14.8857 8.01425 14.8817 7.95474 14.873 7.92773C14.8645 7.90113 14.851 7.88128 14.833 7.86816C14.8148 7.85513 14.7899 7.84766 14.7588 7.84766C14.7216 7.84767 14.688 7.85831 14.6582 7.87891C14.6283 7.89974 14.6068 7.93047 14.5938 7.96973C14.5808 8.00906 14.5742 8.07402 14.5742 8.16504V8.62598H14.3301V7.67969H14.5537V7.80859C14.6341 7.70693 14.7298 7.65631 14.8408 7.65625C14.8996 7.65625 14.9508 7.66852 14.9941 7.69336C15.0375 7.71841 15.0739 7.75615 15.1016 7.80664C15.1419 7.7563 15.1859 7.71836 15.2324 7.69336C15.2791 7.66853 15.3289 7.65625 15.3818 7.65625ZM17.542 7.65625C17.5956 7.65625 17.6452 7.6666 17.6895 7.68652C17.7336 7.70641 17.7673 7.73184 17.79 7.7627C17.8127 7.7936 17.828 7.82892 17.8369 7.86816C17.8459 7.90733 17.8506 7.96327 17.8506 8.03613V8.62598H17.6064V8.1416C17.6064 8.03964 17.602 7.97349 17.5918 7.94336C17.5814 7.91335 17.5642 7.88973 17.541 7.87305C17.5178 7.85646 17.4897 7.84767 17.457 7.84766C17.4152 7.84766 17.377 7.85997 17.3438 7.88379C17.3106 7.90758 17.2877 7.9393 17.2754 7.97852C17.2631 8.01778 17.2568 8.09041 17.2568 8.19629V8.62598H17.0137V7.67969H17.2393V7.81836C17.3194 7.71009 17.4205 7.65629 17.542 7.65625ZM21.5205 8.62598H21.2451L21.1348 8.33008H20.624L20.5195 8.62598H20.248L20.7393 7.31934H21.0088L21.5205 8.62598ZM22.1318 7.65625C22.1871 7.65629 22.2406 7.67157 22.292 7.70312L22.2178 7.92285C22.1766 7.89555 22.1378 7.88184 22.1025 7.88184C22.0684 7.88191 22.0393 7.89195 22.0156 7.91113C21.9921 7.93062 21.9734 7.96538 21.96 8.01562C21.9463 8.06613 21.9395 8.17204 21.9395 8.33301V8.62598H21.6953V7.67969H21.9219V7.81445C21.9606 7.75092 21.9954 7.70843 22.0264 7.6875C22.0572 7.66667 22.0925 7.65625 22.1318 7.65625ZM12.6318 8.21094C12.5648 8.22576 12.5206 8.24064 12.5 8.25488C12.4685 8.27817 12.4531 8.3081 12.4531 8.34375C12.4532 8.37882 12.4661 8.40896 12.4912 8.43457C12.5165 8.46009 12.5488 8.47363 12.5879 8.47363C12.6315 8.47354 12.6733 8.45842 12.7129 8.42871C12.7422 8.40598 12.7613 8.37757 12.7705 8.34473C12.7767 8.32317 12.7803 8.28247 12.7803 8.22266V8.17188C12.7491 8.18266 12.6991 8.196 12.6318 8.21094ZM23.8467 8.21094C23.7795 8.22577 23.7356 8.24063 23.7148 8.25488C23.6831 8.27821 23.667 8.30798 23.667 8.34375C23.6671 8.37881 23.6798 8.40896 23.7051 8.43457C23.7304 8.46022 23.7626 8.47363 23.8018 8.47363C23.8454 8.47362 23.8871 8.45842 23.9268 8.42871C23.9561 8.40597 23.9752 8.37759 23.9844 8.34473C23.9906 8.32319 23.9941 8.28255 23.9941 8.22266V8.17188C23.9631 8.18265 23.9139 8.19602 23.8467 8.21094ZM9.77441 7.86133C9.71076 7.86133 9.65764 7.88642 9.61426 7.93652C9.57094 7.98649 9.5489 8.05836 9.54883 8.15234C9.54883 8.24671 9.57087 8.31901 9.61426 8.36914C9.65764 8.41925 9.71076 8.44434 9.77441 8.44434C9.83798 8.44432 9.89152 8.41926 9.93457 8.36914C9.97744 8.31907 9.99898 8.2465 9.99902 8.15137C9.99902 8.05848 9.97749 7.98656 9.93457 7.93652C9.89152 7.88641 9.83798 7.86134 9.77441 7.86133ZM3.37891 7.84766C3.32111 7.84766 3.27278 7.87124 3.23535 7.91797C3.19787 7.96486 3.17969 8.0369 3.17969 8.13281C3.17974 8.23314 3.19805 8.30684 3.23535 8.35352C3.2727 8.40031 3.31921 8.42373 3.37402 8.42383C3.43286 8.42383 3.48279 8.39954 3.52344 8.35156C3.56393 8.3036 3.58495 8.23277 3.58496 8.13867C3.58496 8.04061 3.56508 7.96765 3.52637 7.91992C3.48747 7.87235 3.43828 7.84772 3.37891 7.84766ZM20.7021 8.11035H21.0508L20.873 7.625L20.7021 8.11035ZM5.0293 7.84766C4.97615 7.84778 4.93213 7.86888 4.89746 7.90918C4.86284 7.94949 4.84522 8.00414 4.8457 8.07324H5.21191C5.21016 7.99977 5.19199 7.94362 5.15723 7.90527C5.12245 7.86693 5.0792 7.84766 5.0293 7.84766ZM16.3418 7.84766C16.2885 7.84766 16.2447 7.86876 16.21 7.90918C16.1752 7.94951 16.1577 8.004 16.1582 8.07324H16.5234C16.5216 7.99976 16.5036 7.94362 16.4688 7.90527C16.4341 7.86707 16.3916 7.84768 16.3418 7.84766ZM22.8145 7.84766C22.761 7.84767 22.7174 7.86878 22.6826 7.90918C22.6479 7.94951 22.6303 8.00402 22.6309 8.07324H22.9961C22.9943 7.99976 22.9761 7.94362 22.9414 7.90527C22.9066 7.8671 22.8642 7.84766 22.8145 7.84766ZM11.2988 7.91309H11.4385C11.539 7.91309 11.6066 7.90634 11.6406 7.89258C11.6745 7.8788 11.7015 7.85653 11.7207 7.82715C11.7397 7.79804 11.749 7.76417 11.749 7.72559C11.749 7.6777 11.736 7.63757 11.709 7.60645C11.682 7.57545 11.6476 7.55668 11.6064 7.54883C11.5759 7.54285 11.514 7.53906 11.4219 7.53906H11.2988V7.91309ZM1.54785 7.5498H1.30371V7.31934H1.54785V7.5498ZM2.83594 0.0361328C3.53292 0.0361497 4.03003 0.0772769 4.32617 0.15918C5.04886 0.359525 5.41016 0.921032 5.41016 1.84277C5.41015 1.91838 5.40425 2.03161 5.39355 2.18262H3.73242C3.73242 1.9015 3.70047 1.71224 3.63672 1.61621C3.53765 1.47437 3.26452 1.40332 2.81836 1.40332C2.38491 1.40335 2.09728 1.44447 1.95703 1.52637C1.817 1.60861 1.74707 1.78754 1.74707 2.0625C1.74712 2.31134 1.80911 2.47512 1.93359 2.55371C2.02286 2.60949 2.14103 2.64255 2.28809 2.65234L2.62305 2.67676C3.34052 2.72586 3.78875 2.7606 3.96777 2.78027C4.53555 2.83929 4.94773 2.99475 5.20312 3.24707C5.40394 3.44384 5.52324 3.70111 5.56152 4.01855C5.5839 4.20862 5.5957 4.42413 5.5957 4.66309C5.5957 5.21383 5.54444 5.61742 5.44238 5.87305C5.25737 6.34194 4.84171 6.6383 4.19531 6.7627C3.92449 6.81529 3.51021 6.84179 2.95312 6.8418C2.02282 6.8418 1.37388 6.78471 1.00781 6.66992C0.558731 6.52932 0.262492 6.24417 0.119141 5.81543C0.0392966 5.57665 2.29159e-06 5.17872 0 4.62207H1.66113C1.66113 4.68413 1.66113 4.73196 1.66113 4.76465C1.6612 5.06149 1.744 5.25285 1.90918 5.33789C2.02372 5.39657 2.16261 5.42701 2.3252 5.43066H2.93555C3.24717 5.43066 3.44643 5.41389 3.53223 5.38086C3.68457 5.31897 3.78512 5.2197 3.83301 5.08203C3.85844 4.99712 3.87109 4.88641 3.87109 4.75195C3.871 4.45098 3.76359 4.26786 3.55078 4.20215C3.47051 4.17618 3.10041 4.13957 2.44043 4.09375C1.90966 4.05467 1.54056 4.0169 1.33398 3.98047C0.790112 3.87556 0.426955 3.66052 0.246094 3.33301C0.0871485 3.05473 0.00782011 2.63347 0.0078125 2.07031C0.0078125 1.64162 0.0509322 1.29772 0.136719 1.03906C0.222682 0.780273 0.36157 0.583593 0.552734 0.449219C0.832716 0.243005 1.19087 0.122144 1.62695 0.0859375C1.98988 0.0533191 2.39308 0.0361328 2.83594 0.0361328ZM16.0254 0C16.4817 0 16.8301 0.0384719 17.0693 0.115234C17.6165 0.292021 17.9838 0.654128 18.1719 1.20117C18.2689 1.48819 18.3174 1.92026 18.3174 2.49707C18.3174 3.19102 18.2637 3.69053 18.1572 3.99414C17.9438 4.59442 17.504 4.93967 16.8408 5.0293C16.7624 5.04273 16.4307 5.05484 15.8457 5.06445L15.5488 5.0752H14.4844V6.8418H12.6992V0H16.0254ZM24.2783 6.8418H22.4697L22.1289 5.65918H19.7412L19.4209 6.8418H17.5732L19.5664 0H22.2598L24.2783 6.8418ZM20.126 4.32617H21.7744L20.9375 1.36035L20.126 4.32617ZM14.4844 3.48828H15.5977C15.9506 3.47517 16.1659 3.44714 16.2432 3.40332C16.3485 3.34345 16.4189 3.22338 16.4541 3.04395C16.4766 2.92434 16.4883 2.74598 16.4883 2.50977C16.4883 2.22065 16.4659 2.00624 16.4209 1.86621C16.3567 1.67001 16.2026 1.55024 15.959 1.50684C15.9108 1.50029 15.7956 1.49708 15.6133 1.49707H14.4844V3.48828Z" fill="var(--fill-0, #10298E)"/>
<path id="Fill 26" fill-rule="evenodd" clip-rule="evenodd" d="M10.2344 0.962518C10.9709 0.962518 11.6282 1.31236 12.0603 1.86031L12.4452 1.00933C11.8432 0.422613 11.0239 0.0609055 10.1202 0.0609055C8.71323 0.0609055 7.50966 0.937121 7.01569 2.17745H6.26512L5.82194 3.15717H6.7875C6.78025 3.24805 6.77559 3.33901 6.77559 3.43181C6.77559 3.5441 6.78122 3.65507 6.79201 3.76471H6.30673L5.86363 4.74476H7.03871C7.54676 5.95372 8.73528 6.80246 10.1202 6.80246C10.8181 6.80246 11.4658 6.58683 12.002 6.21848V5.01741C11.5701 5.52437 10.9385 5.84474 10.2344 5.84474C9.41132 5.84474 8.68731 5.40709 8.2657 4.74476H10.7264L11.1695 3.76471H7.90366C7.88683 3.64677 7.87782 3.52626 7.87782 3.4035C7.87782 3.32051 7.882 3.23834 7.88973 3.15717H11.4441L11.8872 2.17745H8.19712C8.60521 1.45121 9.36463 0.962518 10.2344 0.962518" fill="var(--fill-0, #FFBE00)"/>
</g>
</svg>
