<svg preserveAspectRatio="none" width="100%" height="100%" overflow="visible" style="display: block;" viewBox="0 0 40.1719 25.1738" fill="none" xmlns="http://www.w3.org/2000/svg">
<g id="Webmoney">
<path id="Webmoney-watermark" d="M38.2285 22.3232H38.2793L39.2559 19.2558H40.1719L38.6221 23.4238C38.1938 24.5741 37.6708 25.1738 36.6865 25.1738V24.4912C37.2688 24.4912 37.6281 24.0402 37.834 23.4238L36.1904 19.2558H37.1318L38.2285 22.3232ZM9.17285 19.1142C10.2429 19.1142 10.9022 19.7892 10.9023 21.1474V21.456H8.11133C8.11133 22.456 8.53031 22.8982 9.41211 22.8984C9.8745 22.8984 10.3034 22.7399 10.7744 22.4648V23.0986C10.3891 23.3156 9.87454 23.4824 9.25781 23.4824C7.81956 23.4822 7.22852 22.6149 7.22852 21.2978C7.22852 20.031 7.88836 19.1142 9.17285 19.1142ZM12.5723 19.4228C12.8291 19.2894 13.2653 19.1143 13.7275 19.1142C14.7892 19.1142 15.3633 19.8309 15.3633 21.165C15.3633 22.7233 14.5932 23.4823 13.3516 23.4824C12.8976 23.4824 12.1955 23.3402 11.6816 23.0732V17.2548L12.5723 17.0468V19.4228ZM25.0918 19.1142C26.2223 19.1142 27.0449 19.839 27.0449 21.2978C27.0449 22.7234 26.2651 23.4824 25.0918 23.4824C23.9185 23.4823 23.1396 22.7233 23.1396 21.2978C23.1396 19.8391 23.9615 19.1142 25.0918 19.1142ZM34.1943 19.1142C35.2649 19.1142 35.9247 19.7892 35.9248 21.1474V21.456H33.1328C33.1328 22.4561 33.5527 22.8984 34.4346 22.8984C34.897 22.8984 35.3253 22.7399 35.7959 22.4648V23.0986C35.4108 23.3156 34.8971 23.4823 34.2803 23.4824C32.8419 23.4824 32.251 22.615 32.251 21.2978C32.251 20.0311 32.9102 19.1144 34.1943 19.1142ZM1.91797 21.8818H1.97852L3.0918 17.4716H3.85352L5.04395 21.8818H5.10352L5.97754 17.4716H6.97949L5.5918 23.3818H4.66699L3.50293 19.2226H3.44238L2.31152 23.3818H1.3877L0 17.4716H0.958984L1.91797 21.8818ZM19.2598 22.1318H19.3027L21.1357 17.4716H22.1973V23.3818H21.2725V19.0976H21.1953L19.4482 23.3818H18.9004L17.1533 19.1972H17.0762V23.3818H16.3057V17.4716H17.3418L19.2598 22.1318ZM30.041 19.1142C31.0691 19.1142 31.4541 19.5058 31.4541 20.3642V23.3818H30.5635V20.5566C30.5635 19.898 30.2296 19.7812 29.793 19.7812C29.4503 19.7813 29.0133 19.9313 28.748 20.081V23.3818H27.8574V19.7304C28.2427 19.5053 29.0568 19.1142 30.041 19.1142ZM13.4971 19.7646C13.1544 19.7646 12.906 19.8557 12.5635 20.039V22.7646C12.8373 22.8813 13.1374 22.8984 13.3516 22.8984C13.9851 22.8983 14.4648 22.5148 14.4648 21.165C14.4648 20.1061 14.0707 19.7647 13.4971 19.7646ZM25.0918 19.6972C24.5266 19.6972 24.0381 20.1727 24.0381 21.2978C24.0381 22.4401 24.484 22.8984 25.0918 22.8984C25.6997 22.8984 26.1455 22.4402 26.1455 21.2978C26.1455 20.1727 25.674 19.6972 25.0918 19.6972ZM9.14746 19.6728C8.62486 19.6728 8.22191 20.0643 8.12793 20.8974H10.0889C10.0464 20.0225 9.60965 19.673 9.14746 19.6728ZM34.1689 19.6728C33.6466 19.6728 33.2448 20.0643 33.1504 20.8974H35.1113C35.0687 20.0223 34.6313 19.6728 34.1689 19.6728Z" fill="var(--fill-0, #0068A3)"/>
<path id="Webmoney-logo" d="M19.5124 0C20.6907 7.25673e-05 21.8067 0.267032 22.8005 0.741211C22.9566 0.813283 23.1122 0.892925 23.2683 0.980469L22.5779 1.58203L21.5398 0.537109L19.7878 2.05859L18.7468 0.953125L15.4831 3.81641L17.5759 6.06152L16.7536 6.76465L18.8142 9.0127L17.9968 9.71582L20.9411 12.9062L22.6892 11.3398L24.2009 13.0186C23.9005 13.2459 23.5731 13.4595 23.2126 13.6572C22.1199 14.2638 20.8564 14.6112 19.5124 14.6113C15.3786 14.6113 12.0066 11.329 12.0066 7.30566C12.0068 3.2816 15.3787 0 19.5124 0ZM26.2419 11.1699L24.9031 12.3428L23.698 11.041L25.0359 9.86719L26.2419 11.1699ZM22.8054 10.0195L21.0202 11.584L19.4128 9.8457L21.198 8.28223L22.8054 10.0195ZM25.0642 8.53906L23.7263 9.71191L22.5202 8.40918L23.8591 7.23535L25.0642 8.53906ZM21.5359 7.01758L19.7517 8.58105L18.1443 6.84375L19.9284 5.2793L21.5359 7.01758ZM27.074 7.67578L26.1814 8.45801L25.3777 7.58984L26.2702 6.80762L27.074 7.67578ZM23.9197 5.78516L22.5818 6.95801L21.3757 5.65625L22.7146 4.48242L23.9197 5.78516ZM25.9333 5.0957L25.0408 5.87695L24.237 5.00879L25.1296 4.22656L25.9333 5.0957ZM20.2585 4.05078L18.4734 5.61426L16.8669 3.87695L18.6521 2.31348L20.2585 4.05078ZM22.6863 3.16504L21.3474 4.33887L20.1423 3.03516L21.4812 1.8623L22.6863 3.16504ZM24.7927 2.51465L23.9001 3.29688L23.0974 2.42773L23.989 1.64551L24.7927 2.51465Z" fill="var(--fill-0, #0068A3)"/>
</g>
</svg>
