<svg preserveAspectRatio="none" width="100%" height="100%" overflow="visible" style="display: block;" viewBox="0 0 17.992 21.9408" fill="none" xmlns="http://www.w3.org/2000/svg">
<g id="PayPal">
<path id="Fill 7" fill-rule="evenodd" clip-rule="evenodd" d="M5.11085 21.1971L5.47873 18.7819L4.65923 18.7622H0.746008L3.46556 0.939449C3.47403 0.88548 3.50142 0.83538 3.54142 0.79974C3.58162 0.7641 3.63285 0.744549 3.68644 0.744549H10.2847C12.4754 0.744549 13.9871 1.21561 14.7763 2.14551C15.1463 2.58175 15.382 3.03774 15.4961 3.53935C15.6157 4.0658 15.6176 4.6947 15.501 5.46187L15.4925 5.51768V6.00931L15.8626 6.226C16.1741 6.39687 16.4218 6.59238 16.6117 6.8162C16.9282 7.1893 17.1329 7.66342 17.2194 8.22531C17.3088 8.80329 17.2793 9.49124 17.1329 10.27C16.964 11.1657 16.6911 11.9459 16.3225 12.5842C15.9835 13.1724 15.5516 13.6603 15.0387 14.0383C14.5491 14.3976 13.9674 14.6703 13.3097 14.8448C12.6723 15.0163 11.9456 15.1028 11.1486 15.1028H10.6351C10.268 15.1028 9.91135 15.2395 9.63135 15.4845C9.35057 15.7346 9.16496 16.0763 9.10801 16.45L9.0692 16.6675L8.41916 20.9246L8.3898 21.0808C8.38192 21.1303 8.36852 21.1549 8.34882 21.1716C8.33128 21.1869 8.30606 21.1971 8.28143 21.1971H5.11085" fill="var(--fill-0, #28356A)"/>
<path id="Fill 8" fill-rule="evenodd" clip-rule="evenodd" d="M16.2133 5.57444C16.1938 5.70458 16.1711 5.83757 16.1459 5.97422C15.2758 10.592 12.2987 12.1872 8.49657 12.1872H6.56065C6.09563 12.1872 5.70372 12.5361 5.6314 13.0102L4.35951 21.349C4.31241 21.6603 4.54453 21.9408 4.84836 21.9408H8.282C8.68849 21.9408 9.0339 21.6355 9.09794 21.2211L9.13164 21.0408L9.77813 16.8005L9.8197 16.5679C9.88295 16.152 10.2292 15.8465 10.6356 15.8465H11.1491C14.4758 15.8465 17.0801 14.4507 17.8412 10.4109C18.1591 8.7234 17.9945 7.31429 17.1532 6.32329C16.8986 6.02452 16.5827 5.77647 16.2133 5.57444" fill="var(--fill-0, #298FC2)"/>
<path id="Fill 9" fill-rule="evenodd" clip-rule="evenodd" d="M15.3026 5.19936C15.1696 5.15924 15.0325 5.12299 14.8918 5.0902C14.7503 5.05823 14.6055 5.02992 14.4563 5.00507C13.9344 4.91791 13.3623 4.87657 12.7497 4.87657H7.57802C7.45054 4.87657 7.32955 4.9063 7.22138 4.96007C6.98276 5.07859 6.80562 5.31199 6.76267 5.59772L5.66239 12.8003L5.63087 13.0102C5.70318 12.5361 6.09509 12.1873 6.56011 12.1873H8.49603C12.2981 12.1873 15.2752 10.5912 16.1453 5.97428C16.1714 5.83763 16.1932 5.70464 16.2127 5.5745C15.9926 5.45373 15.7542 5.35048 15.4975 5.2625C15.434 5.24071 15.3686 5.21973 15.3026 5.19936" fill="var(--fill-0, #22284F)"/>
<path id="Fill 11" fill-rule="evenodd" clip-rule="evenodd" d="M6.76296 5.59774C6.80592 5.31201 6.98306 5.07861 7.22167 4.9609C7.33064 4.90693 7.45083 4.8772 7.57832 4.8772H12.75C13.3626 4.8772 13.9346 4.91874 14.4566 5.00591C14.6058 5.03055 14.7506 5.05906 14.8921 5.09104C15.0328 5.12362 15.1699 5.16008 15.3029 5.19999C15.3689 5.22036 15.4343 5.24154 15.4984 5.26252C15.7551 5.3505 15.9937 5.45457 16.2138 5.57452C16.4727 3.86807 16.2116 2.7062 15.3191 1.65411C14.3348 0.495703 12.5587 0 10.2859 0H3.68736C3.22313 0 2.82708 0.348866 2.75536 0.823796L0.0070336 18.8298C-0.0471526 19.186 0.218655 19.5074 0.566235 19.5074H4.63985L6.76296 5.59774" fill="var(--fill-0, #28356A)"/>
</g>
</svg>
