<svg preserveAspectRatio="none" width="100%" height="100%" overflow="visible" style="display: block;" viewBox="0 0 17 19" fill="none" xmlns="http://www.w3.org/2000/svg">
<path id="density_small" d="M0.75 19C0.5375 19 0.359417 18.9281 0.21575 18.7843C0.0719168 18.6404 0 18.4623 0 18.2498C0 18.0371 0.0719168 17.859 0.21575 17.7155C0.359417 17.5718 0.5375 17.5 0.75 17.5H16.25C16.4625 17.5 16.6406 17.5719 16.7843 17.7157C16.9281 17.8596 17 18.0377 17 18.2502C17 18.4629 16.9281 18.641 16.7843 18.7845C16.6406 18.9282 16.4625 19 16.25 19H0.75ZM0.75 13.1635C0.5375 13.1635 0.359417 13.0916 0.21575 12.9478C0.0719168 12.8039 0 12.6257 0 12.413C0 12.2005 0.0719168 12.0224 0.21575 11.8787C0.359417 11.7352 0.5375 11.6635 0.75 11.6635H16.25C16.4625 11.6635 16.6406 11.7354 16.7843 11.8793C16.9281 12.0231 17 12.2012 17 12.4137C17 12.6264 16.9281 12.8045 16.7843 12.948C16.6406 13.0917 16.4625 13.1635 16.25 13.1635H0.75ZM0.75 7.3365C0.5375 7.3365 0.359417 7.26458 0.21575 7.12075C0.0719168 6.97692 0 6.79875 0 6.58625C0 6.37358 0.0719168 6.1955 0.21575 6.052C0.359417 5.90833 0.5375 5.8365 0.75 5.8365H16.25C16.4625 5.8365 16.6406 5.90842 16.7843 6.05225C16.9281 6.19608 17 6.37433 17 6.587C17 6.7995 16.9281 6.97758 16.7843 7.12125C16.6406 7.26475 16.4625 7.3365 16.25 7.3365H0.75ZM0.75 1.5C0.5375 1.5 0.359417 1.42808 0.21575 1.28425C0.0719168 1.14042 0 0.96225 0 0.74975C0 0.537083 0.0719168 0.359 0.21575 0.2155C0.359417 0.0718332 0.5375 0 0.75 0H16.25C16.4625 0 16.6406 0.0719168 16.7843 0.21575C16.9281 0.359583 17 0.53775 17 0.75025C17 0.962917 16.9281 1.141 16.7843 1.2845C16.6406 1.42817 16.4625 1.5 16.25 1.5H0.75Z" fill="var(--fill-0, #525D5D)"/>
</svg>
