<svg preserveAspectRatio="none" width="100%" height="100%" overflow="visible" style="display: block;" viewBox="0 0 26.1689 23.3828" fill="none" xmlns="http://www.w3.org/2000/svg">
<g id="Ideal">
<path id="Union" d="M13.4844 0C22.6474 0 26.1689 5.15509 26.1689 11.6709C26.1689 19.465 21.2469 23.3828 13.4844 23.3828H0V0H13.4844ZM1.28027 22.0635H13.4844C20.8468 22.0635 24.8486 18.5164 24.8486 11.7119C24.8486 4.70127 20.5267 1.40234 13.4844 1.40234H1.28027V22.0635ZM6.8418 20.3311H2.9209V13.1553H6.8418V20.3311ZM4.88086 7.05176C6.22884 7.05176 7.3222 8.17812 7.32227 9.56738C7.32225 10.9567 6.22888 12.083 4.88086 12.083C3.53319 12.0826 2.44044 10.9564 2.44043 9.56738C2.4405 8.17837 3.53322 7.05217 4.88086 7.05176Z" fill="var(--fill-0, black)"/>
<path id="Shape" fill-rule="evenodd" clip-rule="evenodd" d="M20.4068 7.2581H21.5272V10.7222H23.1678C22.7276 4.41259 17.886 3.01046 13.4845 3.01046H8.80295V7.2581H9.48318C10.7636 7.2581 11.5239 8.12413 11.5239 9.5675C11.5239 11.0109 10.7636 11.8769 9.52319 11.8769H8.80295V20.331H13.4845C20.6469 20.331 23.0877 16.9081 23.2078 11.8769H20.4068V7.2581ZM15.005 10.7222V11.8769H12.2041V7.25811H14.925V8.4128H13.3245V8.94892H14.845V10.1036H13.3645V10.7222H15.005ZM15.4851 11.8769L16.8455 7.25811H18.4461L19.8065 11.8769H18.6461L18.406 11.0109H16.9256L16.6855 11.8769H15.4851ZM17.2582 9.81493H17.2457V9.85617L17.2582 9.81493ZM17.2582 9.81493H18.046L17.6859 8.53651H17.6459L17.2582 9.81493ZM8.80294 10.7222V8.41281H9.48317C9.92332 8.41281 10.4035 8.53653 10.4035 9.56751C10.4035 10.5985 9.96333 10.7222 9.48317 10.7222H8.80294Z" fill="var(--fill-0, #D50072)"/>
</g>
</svg>
