<svg preserveAspectRatio="none" width="100%" height="100%" overflow="visible" style="display: block;" viewBox="0 0 45.428 8.90476" fill="none" xmlns="http://www.w3.org/2000/svg">
<g id="Verifone">
<path id="Verifone_2" fill-rule="evenodd" clip-rule="evenodd" d="M18.6019 1.79441H20.4462L20.7427 0.276086H18.898L18.6019 1.79441V1.79441ZM18.4105 2.77098H20.2554L19.0835 8.76592C18.9979 8.79625 18.7339 8.90286 18.3692 8.90286C17.8771 8.90286 17.4257 8.70795 17.4257 8.01695C17.4257 7.88696 17.4404 7.73896 17.4733 7.57075C17.8399 5.70006 18.4105 2.77098 18.4105 2.77098V2.77098ZM36.7276 2.63404C35.4999 2.63404 35.0118 3.3647 34.7827 3.80947H34.7609L34.8317 2.77225H33.0088C32.9968 3.00032 32.9179 3.71928 32.8011 4.33937C32.8011 4.33937 32.38 6.51537 32.3004 6.93203C32.2397 7.25029 32.1287 7.72081 32.1287 7.99389C32.1287 8.57529 32.419 8.90302 33.0667 8.90302C33.4299 8.90302 33.6918 8.8021 33.7871 8.76593L34.3967 5.64384C34.5658 4.78177 35.1795 4.2176 35.9091 4.2176C36.4977 4.2176 36.7792 4.65384 36.7792 5.01048C36.7792 5.32084 36.7025 5.66484 36.6432 5.96904L36.381 7.30604C36.3498 7.46652 36.283 7.77482 36.283 8.01664C36.283 8.60767 36.6111 8.90302 37.234 8.90302C37.5742 8.90302 37.7898 8.81663 37.9425 8.76593L38.4896 5.96715C38.6082 5.33458 38.652 5.00148 38.652 4.59887C38.652 3.43988 37.9849 2.63404 36.7276 2.63404V2.63404ZM28.5336 4.08366C27.5025 4.08366 26.9314 5.15469 26.9314 6.10946C26.9314 6.91466 27.2894 7.45388 28.103 7.45388C29.0228 7.45388 29.7426 6.65863 29.7426 5.30126C29.7426 4.68022 29.4172 4.08366 28.5336 4.08366V4.08366ZM27.9898 8.90318C26.0147 8.90318 25.0696 7.69964 25.0696 6.16553C25.0696 4.0606 26.492 2.63404 28.6902 2.63404C30.5975 2.63404 31.6102 3.80741 31.6102 5.31436C31.6102 7.5725 30.0909 8.90318 27.9898 8.90318V8.90318ZM21.0822 7.45972C21.0401 7.67548 21.0136 7.82663 21.0136 8.01237C21.0136 8.69959 21.4656 8.90302 21.9447 8.90302C22.3278 8.90302 22.5649 8.79657 22.6516 8.76593L23.5385 4.2217L24.9728 4.22154L25.2559 2.77098L23.8218 2.77114L23.8915 2.41387C24.0213 1.74387 24.3316 1.4493 24.8684 1.4493C25.2269 1.4493 25.5169 1.51406 25.6176 1.54075L25.8876 0.161419C25.7726 0.131884 25.2426 0 24.4581 0C23.2082 0 22.3893 0.771402 22.1471 2.01379L21.9989 2.77098H21.0651L20.7818 4.22154H21.7162C21.7162 4.22154 21.3476 6.10045 21.0822 7.45972V7.45972ZM16.8356 2.6342C15.9097 2.6342 15.4006 3.28746 15.2014 3.80852H15.1801L15.2514 2.77098H13.4276C13.4115 3.13062 13.3375 3.73871 13.1516 4.69475C12.9633 5.66358 12.7798 6.63004 12.5904 7.5706C12.558 7.73139 12.5436 7.8887 12.5436 8.02185C12.5436 8.51448 12.7831 8.90255 13.491 8.90255C13.8417 8.90255 14.0852 8.80999 14.2021 8.76593L14.7447 5.98673C14.9401 4.92345 15.2952 4.22044 16.3252 4.22044C16.7937 4.22044 17.2387 4.322 17.332 4.34979L17.6442 2.75076C17.5768 2.72707 17.3064 2.6342 16.8356 2.6342V2.6342ZM43.5916 5.2008C43.6903 4.65116 43.3756 4.08366 42.6645 4.08366C41.7961 4.08366 41.4147 4.68654 41.2444 5.2008H43.5916V5.2008ZM44.4146 7.43161C44.4146 8.2654 43.6201 8.90476 42.2132 8.90476C40.2687 8.90476 39.3178 7.6739 39.3178 6.16711C39.3178 4.67137 40.2949 2.63562 42.6798 2.63562C44.2522 2.63562 45.428 3.42945 45.428 5.24676C45.428 5.69375 45.33 6.17959 45.288 6.37417H41.1082C41.1012 6.81026 41.4629 7.56602 42.9158 7.56602C43.5633 7.56602 44.2965 7.33353 44.4146 7.2743C44.4146 7.31963 44.4146 7.4016 44.4146 7.43161V7.43161ZM10.2613 5.2008C10.3599 4.65116 10.0452 4.08366 9.33407 4.08366C8.46567 4.08366 8.08441 4.68654 7.91395 5.2008H10.2613V5.2008ZM11.0845 7.43161C11.0845 8.2654 10.2899 8.90476 8.88318 8.90476C6.93851 8.90476 5.98783 7.6739 5.98783 6.16711C5.98783 4.67137 6.96474 2.63562 9.34982 2.63562C10.9222 2.63562 12.098 3.42945 12.098 5.24676C12.098 5.69375 12 6.17959 11.9578 6.37417H7.77819C7.7712 6.81026 8.13275 7.56602 9.58563 7.56602C10.2331 7.56602 10.9663 7.33353 11.0845 7.2743C11.0845 7.31963 11.0845 7.4016 11.0845 7.43161V7.43161ZM0 0.731132H1.85571V6.6918C1.85571 7.58814 2.29473 8.04571 2.99951 8.04571C3.07138 8.04571 3.11376 8.03639 3.12774 8.03291C2.81881 8.50801 2.4183 8.89766 1.49867 8.89766C0.525636 8.89766 0 8.21123 0 7.18112V0.731132V0.731132Z" fill="var(--fill-0, #1A1919)"/>
<path id="V" fill-rule="evenodd" clip-rule="evenodd" d="M2.52657 5.83178C2.42596 5.99142 2.37257 6.17627 2.37257 6.36497V6.70176C2.37257 7.30605 2.69375 7.52259 3.04444 7.52259C3.40288 7.52259 3.59476 7.27557 3.7708 6.99474C4.06575 6.52454 7.67007 0.731132 7.67007 0.731132H5.74123L2.52657 5.83178Z" fill="var(--fill-0, #00A3DA)"/>
</g>
</svg>
