<svg preserveAspectRatio="none" width="100%" height="100%" overflow="visible" style="display: block;" viewBox="0 0 19 17" fill="none" xmlns="http://www.w3.org/2000/svg">
<path id="icon" d="M11.2212 15.5H17.1923C17.2821 15.5 17.3558 15.4712 17.4135 15.4135C17.4712 15.3558 17.5 15.2821 17.5 15.1923V1.80775C17.5 1.71792 17.4712 1.64417 17.4135 1.5865C17.3558 1.52883 17.2821 1.5 17.1923 1.5H11.2212V15.5ZM3.80775 17C3.31058 17 2.885 16.823 2.531 16.469C2.177 16.115 2 15.6894 2 15.1923V14.1923C2 13.9798 2.07192 13.8017 2.21575 13.658C2.35958 13.5142 2.53775 13.4423 2.75025 13.4423C2.96292 13.4423 3.141 13.5142 3.2845 13.658C3.42817 13.8017 3.5 13.9798 3.5 14.1923V15.1923C3.5 15.2821 3.52883 15.3558 3.5865 15.4135C3.64417 15.4712 3.71792 15.5 3.80775 15.5H9.72125V1.5H3.80775C3.71792 1.5 3.64417 1.52883 3.5865 1.5865C3.52883 1.64417 3.5 1.71792 3.5 1.80775V2.80775C3.5 3.02025 3.42808 3.19833 3.28425 3.342C3.14042 3.48583 2.96225 3.55775 2.74975 3.55775C2.53708 3.55775 2.359 3.48583 2.2155 3.342C2.07183 3.19833 2 3.02025 2 2.80775V1.80775C2 1.31058 2.177 0.885 2.531 0.531C2.885 0.177 3.31058 0 3.80775 0H17.1923C17.6894 0 18.115 0.177 18.469 0.531C18.823 0.885 19 1.31058 19 1.80775V15.1923C19 15.6894 18.823 16.115 18.469 16.469C18.115 16.823 17.6894 17 17.1923 17H3.80775ZM2.2155 11.0343C2.07183 10.8906 2 10.7125 2 10.5V9.25H0.75C0.5375 9.25 0.359417 9.17808 0.21575 9.03425C0.0719166 8.89042 0 8.71225 0 8.49975C0 8.28708 0.0719166 8.109 0.21575 7.9655C0.359417 7.82183 0.5375 7.75 0.75 7.75H2V6.5C2 6.2875 2.07192 6.10942 2.21575 5.96575C2.35958 5.82192 2.53775 5.75 2.75025 5.75C2.96292 5.75 3.141 5.82192 3.2845 5.96575C3.42817 6.10942 3.5 6.2875 3.5 6.5V7.75H4.75C4.9625 7.75 5.14067 7.82192 5.2845 7.96575C5.42817 8.10958 5.5 8.28775 5.5 8.50025C5.5 8.71292 5.42817 8.891 5.2845 9.0345C5.14067 9.17817 4.9625 9.25 4.75 9.25H3.5V10.5C3.5 10.7125 3.42808 10.8906 3.28425 11.0343C3.14042 11.1781 2.96225 11.25 2.74975 11.25C2.53708 11.25 2.359 11.1781 2.2155 11.0343Z" fill="var(--fill-0, #121621)"/>
</svg>
