<svg preserveAspectRatio="none" width="100%" height="100%" overflow="visible" style="display: block;" viewBox="0 0 16.2988 16.2998" fill="none" xmlns="http://www.w3.org/2000/svg">
<path id="BitcoinCash" d="M8.14941 0C12.65 7.36924e-05 16.2987 3.64864 16.2988 8.14941C16.2988 12.6503 12.6501 16.2997 8.14941 16.2998C3.64869 16.2998 0 12.6504 0 8.14941C0.000143443 3.64859 3.64878 0 8.14941 0ZM7.59375 4.49707L5.7832 4.0498L5.54395 5.00586C5.54395 5.00586 6.2101 5.15731 6.19629 5.16699C6.55988 5.25766 6.62643 5.49747 6.61523 5.6875L5.60742 9.71289C5.56292 9.82244 5.44955 9.98748 5.19531 9.9248C5.20445 9.93744 4.5531 9.76537 4.54297 9.7627L4.09668 10.7871L5.90527 11.2422L5.5332 12.7285L6.43066 12.9512L6.79883 11.4805C7.04375 11.5462 7.282 11.6085 7.51465 11.666L7.14746 13.1289L8.04492 13.3525L8.41699 11.8691C9.94857 12.1575 11.1005 12.041 11.585 10.6611C11.8399 9.7026 11.5651 8.91 10.7598 8.49219C11.347 8.35766 11.789 7.97303 11.9072 7.17871C12.0698 6.094 11.24 5.51037 10.1064 5.12109L10.4746 3.65137L9.57715 3.42871L9.21875 4.85938C8.98306 4.80082 8.74033 4.74589 8.49902 4.69141L8.85938 3.25098L7.96289 3.02734L7.59375 4.49707ZM7.58398 8.43555C8.1928 8.58688 10.1443 8.88644 9.85449 10.0449C9.57645 11.1553 7.69954 10.5551 7.09082 10.4043L7.58398 8.43555ZM8.25684 5.74805C8.76398 5.87442 10.396 6.10964 10.1328 7.16309C9.87935 8.17255 8.3165 7.65953 7.80957 7.53418L8.25684 5.74805Z" fill="var(--fill-0, #8FC258)"/>
</svg>
