<svg preserveAspectRatio="none" width="100%" height="100%" overflow="visible" style="display: block;" viewBox="0 0 7.47639 5.32167" fill="none" xmlns="http://www.w3.org/2000/svg">
<path id="icon" d="M2.51389 4.4333L6.83314 0.114047C6.90748 0.0396308 6.99448 0.00163083 7.09414 4.75001e-05C7.19381 -0.00153583 7.28244 0.0364641 7.36002 0.114047C7.4376 0.191631 7.47639 0.280714 7.47639 0.381297C7.47639 0.481964 7.4376 0.571089 7.36002 0.648672L2.83027 5.18617C2.73985 5.27651 2.63439 5.32167 2.51389 5.32167C2.39339 5.32167 2.28794 5.27651 2.19752 5.18617L0.11002 3.09867C0.0356866 3.02426 -0.000980089 2.93592 1.99115e-05 2.83367C0.000936578 2.73151 0.0401866 2.64163 0.11777 2.56405C0.195353 2.48646 0.284437 2.44767 0.38502 2.44767C0.485687 2.44767 0.574812 2.48646 0.652395 2.56405L2.51389 4.4333Z" fill="var(--fill-0, white)"/>
</svg>
