<svg preserveAspectRatio="none" width="100%" height="100%" overflow="visible" style="display: block;" viewBox="0 0 21.4672 13.8242" fill="none" xmlns="http://www.w3.org/2000/svg">
<g id="UnionPay">
<path id="Vector" d="M4.20409 0.000770569H9.56228C10.3102 0.000770569 10.7754 0.628349 10.6009 1.40086L8.10633 12.4262C7.93028 13.196 7.18141 13.8242 6.43294 13.8242H1.07527C0.328365 13.8242 -0.137882 13.196 0.0366019 12.4262L2.53226 1.40086C2.70675 0.628349 3.45522 0.000770569 4.20409 0.000770569Z" fill="var(--fill-0, #E21836)"/>
<path id="Vector_2" d="M9.11611 0H15.2779C16.0257 0 15.6885 0.627578 15.5126 1.40009L13.0184 12.4255C12.8433 13.1953 12.8979 13.8234 12.1485 13.8234H5.98677C5.23738 13.8234 4.77362 13.1953 4.94967 12.4255L7.44376 1.40009C7.62086 0.627578 8.36777 0 9.11611 0Z" fill="var(--fill-0, #00447C)"/>
<path id="Vector_3" d="M15.0336 0H20.3918C21.1408 0 21.606 0.627578 21.4301 1.40009L18.9358 12.4255C18.7598 13.1953 18.0104 13.8234 17.2615 13.8234H11.9058C11.1564 13.8234 10.6916 13.1953 10.8671 12.4255L13.3618 1.40009C13.5362 0.627578 14.2842 0 15.0336 0Z" fill="var(--fill-0, #007B84)"/>
<path id="Vector_4" d="M5.6032 3.53329C5.05219 3.53907 4.88946 3.53329 4.83748 3.52065C4.8175 3.61839 4.44568 5.38403 4.44463 5.38551C4.36458 5.74272 4.30633 5.99736 4.10847 6.16178C3.99615 6.25737 3.86503 6.30348 3.71301 6.30348C3.46865 6.30348 3.3263 6.17858 3.3024 5.9417L3.29782 5.86036C3.29782 5.86036 3.37227 5.38188 3.37227 5.37919C3.37227 5.37919 3.7625 3.77018 3.83238 3.55749C3.83603 3.54539 3.83708 3.53907 3.83799 3.53329C3.07841 3.54015 2.94376 3.53329 2.93449 3.52065C2.9294 3.538 2.91059 3.63775 2.91059 3.63775L2.51213 5.45125L2.47791 5.60505L2.41169 6.10814C2.41169 6.25737 2.44017 6.37917 2.49685 6.48216C2.67838 6.80872 3.19622 6.85765 3.48916 6.85765C3.86659 6.85765 4.22065 6.77511 4.45992 6.6244C4.87523 6.37178 4.98389 5.97692 5.08079 5.62602L5.12572 5.44601C5.12572 5.44601 5.52771 3.77488 5.59602 3.55749C5.59863 3.54539 5.59967 3.53907 5.6032 3.53329ZM6.97095 4.8814C6.87404 4.8814 6.69695 4.9056 6.53787 4.98586C6.48015 5.01638 6.42556 5.05161 6.36796 5.08669L6.41994 4.8935L6.39147 4.86097C6.05413 4.93128 5.97864 4.94069 5.66702 4.98586L5.6409 5.00374C5.60473 5.31256 5.5726 5.54474 5.43847 6.15175C5.38741 6.37546 5.33438 6.60133 5.28123 6.8245L5.29559 6.85287C5.61491 6.83552 5.71182 6.83552 5.98935 6.84023L6.01181 6.81509C6.04707 6.62915 6.05165 6.5856 6.12974 6.20902C6.16644 6.03048 6.24298 5.63818 6.28072 5.49849C6.35007 5.46542 6.4185 5.43288 6.48381 5.43288C6.63935 5.43288 6.62041 5.57257 6.61441 5.62823C6.60775 5.72167 6.55107 6.02685 6.49295 6.28888L6.45416 6.45801C6.42712 6.58291 6.39748 6.70431 6.37044 6.82813L6.3822 6.85287C6.69695 6.83552 6.79294 6.83552 7.06172 6.84023L7.09332 6.81509C7.14191 6.52469 7.15614 6.44698 7.24234 6.02416L7.2857 5.82989C7.36994 5.44969 7.41225 5.2569 7.34852 5.09987C7.28113 4.92388 7.11944 4.8814 6.97095 4.8814ZM8.49888 5.27947C8.33158 5.31255 8.22488 5.33459 8.11883 5.34884C8.0137 5.36619 7.91117 5.38192 7.74949 5.40504L7.73669 5.41701L7.72494 5.42655C7.70809 5.55051 7.69633 5.65766 7.674 5.78363C7.65506 5.91391 7.62594 6.06193 7.57853 6.27462C7.54183 6.43743 7.5229 6.49416 7.502 6.55143C7.48163 6.60871 7.45916 6.66437 7.41789 6.82449L7.42756 6.83928L7.43565 6.85285C7.58676 6.84546 7.68563 6.84022 7.78723 6.83928C7.88871 6.83551 7.99384 6.83928 8.15657 6.84022L8.17081 6.82825L8.18609 6.81508C8.2096 6.67068 8.21312 6.63183 8.22749 6.56138C8.24173 6.48583 8.26628 6.38123 8.32649 6.10186C8.35496 5.97064 8.38669 5.83983 8.41621 5.70592C8.4469 5.57256 8.47903 5.44121 8.50959 5.30999L8.50502 5.29413L8.49888 5.27947ZM8.50245 4.74275C8.35043 4.65039 8.08361 4.6797 7.90403 4.80728C7.72498 4.93231 7.7046 5.10978 7.8561 5.20335C8.00551 5.29316 8.27337 5.2664 8.45138 5.13774C8.63004 5.01002 8.65238 4.83417 8.50245 4.74275ZM9.42181 6.8818C9.72938 6.8818 10.0447 6.79455 10.282 6.53561C10.4645 6.32561 10.5483 6.01317 10.5772 5.8845C10.6717 5.45805 10.5981 5.25894 10.5058 5.13768C10.3655 4.95282 10.1177 4.89353 9.8605 4.89353C9.70587 4.89353 9.33758 4.90926 9.04986 5.18231C8.84325 5.37927 8.74778 5.64654 8.69018 5.90279C8.63207 6.16388 8.5652 6.63389 8.98508 6.8088C9.11464 6.86607 9.3014 6.8818 9.42181 6.8818ZM9.39778 5.92228C9.4687 5.59935 9.55242 5.32832 9.76608 5.32832C9.93351 5.32832 9.94566 5.52998 9.87121 5.85399C9.85789 5.92591 9.79677 6.19332 9.7141 6.30719C9.65637 6.39122 9.58807 6.44217 9.51258 6.44217C9.49012 6.44217 9.35651 6.44217 9.35442 6.23795C9.35338 6.13712 9.37336 6.03414 9.39778 5.92228ZM11.3461 6.84027L11.3701 6.81513C11.4042 6.6292 11.4098 6.5855 11.4853 6.20906C11.5231 6.03052 11.6012 5.63822 11.6379 5.49853C11.7073 5.46533 11.7746 5.43279 11.842 5.43279C11.9965 5.43279 11.9777 5.57248 11.9715 5.62814C11.9659 5.72171 11.9092 6.02676 11.8501 6.28879L11.8134 6.45792C11.7853 6.58295 11.7547 6.70421 11.7277 6.82817L11.7395 6.85291C12.0553 6.83556 12.1476 6.83556 12.4179 6.84027L12.4506 6.81513C12.498 6.5246 12.5108 6.44689 12.5996 6.0242L12.6419 5.8298C12.7266 5.4496 12.7694 5.25694 12.7067 5.09991C12.6374 4.92393 12.4746 4.88144 12.3282 4.88144C12.2312 4.88144 12.0532 4.90551 11.895 4.9859C11.8385 5.01642 11.7818 5.05151 11.7261 5.08674L11.7746 4.89354L11.7486 4.86087C11.4114 4.93132 11.3343 4.94073 11.0231 4.9859L10.9992 5.00378C10.9615 5.3126 10.9308 5.54465 10.7967 6.15179C10.7456 6.3755 10.6926 6.60137 10.6395 6.82454L10.6538 6.85291C10.9736 6.83556 11.0691 6.83556 11.3461 6.84027ZM13.6663 6.85284C13.6861 6.75308 13.8041 6.16181 13.8051 6.16181C13.8051 6.16181 13.9056 5.72796 13.9117 5.71223C13.9117 5.71223 13.9433 5.66706 13.9749 5.64918H14.0214C14.4601 5.64918 14.9555 5.64918 15.3437 5.35515C15.6079 5.15349 15.7886 4.8557 15.8691 4.49378C15.89 4.40504 15.9055 4.29951 15.9055 4.19397C15.9055 4.05536 15.8784 3.91823 15.8003 3.81108C15.6023 3.52592 15.208 3.52068 14.7529 3.51853C14.7515 3.51853 14.5285 3.52068 14.5285 3.52068C13.9459 3.52808 13.7123 3.52592 13.6163 3.51382C13.6082 3.55752 13.5929 3.63523 13.5929 3.63523C13.5929 3.63523 13.3842 4.63091 13.3842 4.63252C13.3842 4.63252 12.8848 6.74945 12.8613 6.84921C13.37 6.84289 13.5785 6.84289 13.6663 6.85284ZM14.053 5.08411C14.053 5.08411 14.2749 4.09045 14.2739 4.09421L14.281 4.04326L14.2842 4.00441L14.3728 4.01382C14.3728 4.01382 14.8305 4.05428 14.8412 4.05536C15.0218 4.12729 15.0962 4.31268 15.0443 4.55468C14.9969 4.77584 14.8575 4.96177 14.6785 5.05158C14.531 5.12767 14.3504 5.13399 14.1643 5.13399H14.0439L14.053 5.08411ZM15.4346 5.94069C15.3759 6.19801 15.3085 6.66802 15.7263 6.83554C15.8595 6.89389 15.9789 6.91123 16.1002 6.90491C16.2284 6.89778 16.3471 6.83164 16.457 6.73645C16.4471 6.77558 16.4372 6.8147 16.4273 6.85396L16.4462 6.8791C16.7467 6.86606 16.84 6.86606 17.1655 6.86861L17.1951 6.84549C17.2426 6.55778 17.2874 6.27841 17.4109 5.728C17.4712 5.46436 17.5312 5.20327 17.593 4.9407L17.5833 4.9118C17.2472 4.97593 17.1573 4.98964 16.834 5.03683L16.8094 5.0574C16.8061 5.08415 16.8027 5.10983 16.7996 5.13551C16.7493 5.05189 16.6764 4.9805 16.564 4.936C16.4202 4.87778 16.0825 4.9528 15.7921 5.22492C15.5881 5.41918 15.4902 5.68538 15.4346 5.94069ZM16.1406 5.95642C16.2125 5.63927 16.2952 5.37092 16.5094 5.37092C16.6448 5.37092 16.7161 5.49958 16.7017 5.71899C16.6902 5.77371 16.6778 5.83139 16.663 5.89659C16.6416 5.99083 16.6183 6.08427 16.5957 6.17784C16.5727 6.24184 16.546 6.3022 16.5166 6.3424C16.4615 6.4228 16.3304 6.47268 16.2549 6.47268C16.2334 6.47268 16.1013 6.47268 16.0967 6.27209C16.0957 6.1722 16.1156 6.06935 16.1406 5.95642ZM19.8275 4.90923L19.8015 4.87871C19.4689 4.94808 19.4087 4.95911 19.1031 5.00159L19.0806 5.02472C19.0796 5.02848 19.0787 5.03426 19.0771 5.03951L19.076 5.03426C18.8485 5.57459 18.8552 5.45803 18.67 5.8834C18.669 5.86404 18.669 5.85194 18.6679 5.83137L18.6216 4.90923L18.5924 4.87871C18.244 4.94808 18.2358 4.95911 17.914 5.00159L17.8889 5.02472C17.8854 5.03574 17.8854 5.04784 17.8833 5.06102L17.8854 5.06572C17.9256 5.27733 17.9159 5.23015 17.9563 5.5641C17.9751 5.72799 18.0002 5.89281 18.019 6.05468C18.0507 6.32558 18.0685 6.45895 18.1072 6.87236C17.8899 7.24154 17.8385 7.38123 17.6292 7.70523L17.6307 7.70846L17.4834 7.94831C17.4665 7.97358 17.4512 7.99092 17.4298 7.99832C17.4063 8.01028 17.3758 8.01243 17.3333 8.01243H17.2517L17.1304 8.42786L17.5466 8.43526C17.7909 8.43418 17.9445 8.31654 18.0272 8.15844L18.2889 7.69676H18.2847L18.3123 7.66423C18.4883 7.27408 19.8275 4.90923 19.8275 4.90923ZM15.4345 10.3652H15.258L15.9115 8.14009H16.1283L16.1971 7.91086L16.2038 8.16577C16.1957 8.32333 16.3161 8.46302 16.6324 8.43989H16.9982L17.1241 8.01143H16.9865C16.9073 8.01143 16.8706 7.99086 16.8752 7.94676L16.8685 7.68742H16.1911V7.68876C15.9721 7.69347 15.318 7.71041 15.1856 7.74671C15.0254 7.78919 14.8565 7.91422 14.8565 7.91422L14.9228 7.68473H14.2892L14.1571 8.14009L13.4949 10.3993H13.3663L13.2403 10.8246H14.5024L14.4601 10.9665H15.0821L15.1233 10.8246H15.2978L15.4345 10.3652ZM14.9167 8.59222C14.8152 8.62112 14.6264 8.70878 14.6264 8.70878L14.7943 8.14009H15.2978L15.1763 8.55444C15.1763 8.55444 15.0208 8.56385 14.9167 8.59222ZM14.9264 9.40465C14.9264 9.40465 14.7682 9.42509 14.6641 9.44929C14.5616 9.48129 14.3694 9.58212 14.3694 9.58212L14.5428 8.9903H15.0489L14.9264 9.40465ZM14.6443 10.3705H14.1392L14.2856 9.87104H14.7891L14.6443 10.3705ZM15.8605 8.9903H16.5885L16.4839 9.33905H15.7462L15.6355 9.72033H16.2809L15.7922 10.4287C15.758 10.4807 15.7273 10.4992 15.6932 10.5138C15.659 10.5317 15.6141 10.5527 15.5621 10.5527H15.383L15.26 10.9702H15.7283C15.9718 10.9702 16.1156 10.8562 16.2218 10.7066L16.5569 10.2344L16.6288 10.7139C16.6441 10.8037 16.7068 10.8562 16.7493 10.8767C16.7961 10.9009 16.8446 10.9424 16.913 10.9486C16.9864 10.9518 17.0395 10.9544 17.0747 10.9544H17.3048L17.443 10.4871H17.3522C17.3001 10.4871 17.2104 10.478 17.1951 10.4612C17.1798 10.4408 17.1798 10.4093 17.1716 10.3615L17.0986 9.88098H16.7997L16.9308 9.72033H17.667L17.7802 9.33905H17.0986L17.2048 8.9903H17.8843L18.0103 8.56022H15.9845L15.8605 8.9903ZM9.71204 10.4676L9.88195 9.88573H10.5803L10.7079 9.45296H10.0089L10.1156 9.0948H10.7986L10.9252 8.67575H9.21614L9.0922 9.0948H9.48048L9.37691 9.45296H8.98759L8.85856 9.89312H9.2467L9.02024 10.6629C8.98968 10.7649 9.03461 10.8037 9.06308 10.851C9.0922 10.8971 9.12172 10.9277 9.18806 10.945C9.2565 10.9607 9.30338 10.9701 9.36712 10.9701H10.1544L10.2946 10.4907L9.94568 10.5401C9.87829 10.5401 9.69166 10.5317 9.71204 10.4676ZM9.79213 7.68211L9.61517 8.01136C9.57729 8.08329 9.54321 8.12792 9.51252 8.14849C9.48548 8.16583 9.43194 8.17309 9.35436 8.17309H9.26202L9.1386 8.5943H9.44526C9.59271 8.5943 9.70594 8.53864 9.76001 8.51081C9.81812 8.47882 9.8334 8.4971 9.87833 8.45246L9.9819 8.3601H10.9395L11.0665 7.92155H10.3656L10.488 7.68211H9.79213ZM11.2058 10.4761C11.1895 10.4519 11.2012 10.4092 11.2262 10.3205L11.4879 9.42875H12.419C12.5547 9.42673 12.6526 9.42512 12.7164 9.42041C12.7848 9.41302 12.8592 9.38788 12.9403 9.3427C13.024 9.29538 13.0669 9.2455 13.1031 9.18823C13.1434 9.13109 13.2082 9.00606 13.2638 8.81327L13.5928 7.68476L12.6266 7.69054C12.6266 7.69054 12.3291 7.73571 12.1981 7.78559C12.066 7.84125 11.8771 7.99666 11.8771 7.99666L11.9643 7.68731H11.3675L10.5319 10.54C10.5023 10.6508 10.4824 10.7312 10.4778 10.7795C10.4763 10.8315 10.5416 10.883 10.5839 10.9219C10.6339 10.9607 10.7078 10.9544 10.7787 10.9607C10.8533 10.9665 10.9594 10.9701 11.1058 10.9701H11.5644L11.7052 10.4808L11.2946 10.5207C11.2507 10.5207 11.219 10.4965 11.2058 10.4761ZM11.6568 8.82644H12.6347L12.5726 9.02703C12.5638 9.03174 12.5429 9.01708 12.4434 9.02918H11.5966L11.6568 8.82644ZM11.8527 8.15369H12.8389L12.7679 8.39529C12.7679 8.39529 12.3031 8.39058 12.2287 8.4047C11.9011 8.46305 11.7098 8.6432 11.7098 8.6432L11.8527 8.15369ZM12.5944 9.69875C12.5864 9.72873 12.5736 9.74701 12.5557 9.76073C12.5358 9.7739 12.5037 9.77861 12.4557 9.77861H12.3164L12.3246 9.53432H11.745L11.7215 10.7286C11.7206 10.8148 11.7287 10.8646 11.7899 10.9046C11.8512 10.9544 12.0399 10.9608 12.2939 10.9608H12.6571L12.7883 10.5137L12.4721 10.5316L12.3669 10.5379C12.3526 10.5316 12.3389 10.5258 12.3236 10.5101C12.3103 10.4965 12.2878 10.5049 12.2915 10.4187L12.2939 10.1126L12.6255 10.0984C12.8046 10.0984 12.8811 10.0385 12.9464 9.98135C13.0087 9.92663 13.0291 9.86371 13.0526 9.77861L13.1082 9.50757H12.6526L12.5944 9.69875Z" fill="var(--fill-0, #FEFEFE)"/>
</g>
</svg>
