<svg preserveAspectRatio="none" width="100%" height="100%" overflow="visible" style="display: block;" viewBox="0 0 43.3333 15.9373" fill="none" xmlns="http://www.w3.org/2000/svg">
<g id="Elo">
<path id="Elo_2" d="M6.37358 3.54656C6.85307 3.38935 7.36602 3.30399 7.89974 3.30399C10.229 3.30399 12.1719 4.9271 12.6177 7.08326L15.9184 6.42303C15.161 2.7585 11.8591 0 7.89974 0C6.99323 0 6.12067 0.144867 5.30615 0.411732L6.37358 3.54656Z" fill="var(--fill-0, #FECA2F)"/>
<path id="Elo_3" d="M2.44544 14.1665L4.42177 11.6147C3.53959 10.7224 2.9828 9.4197 2.9828 7.96765C2.9828 6.51667 3.53907 5.21398 4.42099 4.32236L2.44363 1.77083C0.944628 3.28681 0 5.50125 0 7.96765C0 10.4353 0.94601 12.6505 2.44544 14.1665" fill="var(--fill-0, #1BA7DE)"/>
<path id="Elo_4" d="M12.6187 8.85406C12.1714 11.0099 10.2297 12.6309 7.90252 12.6309C7.36858 12.6309 6.85463 12.5453 6.3751 12.3876L5.30615 15.5241C6.12193 15.7923 6.99477 15.9373 7.90252 15.9373C11.8583 15.9373 15.158 13.1807 15.9184 9.51757L12.6187 8.85406Z" fill="var(--fill-0, #EC412A)"/>
<path id="Elo_5" fill-rule="evenodd" clip-rule="evenodd" d="M31.7991 1.77083V10.8396L33.4265 11.4919L32.6567 13.2806L31.0473 12.6337C30.6854 12.482 30.4405 12.2508 30.2544 11.9896C30.0758 11.7225 29.9433 11.3573 29.9433 10.8646V1.77083H31.7991ZM19.4564 8.51103C19.4968 5.91764 21.7054 3.84747 24.3853 3.88719C26.6599 3.92169 28.5445 5.4623 29.0395 7.51136L20.2422 11.1473C19.7312 10.3918 19.4407 9.483 19.4564 8.51103ZM21.4693 8.87461C21.4572 8.76579 21.4487 8.65423 21.4519 8.54166C21.4772 7.01371 22.7774 5.79449 24.3563 5.81982C25.2158 5.83092 25.9789 6.21148 26.4948 6.80049L21.4693 8.87461ZM26.3096 10.5583C25.7794 11.057 25.0604 11.3609 24.2665 11.35C23.7223 11.3412 23.2181 11.1836 22.7895 10.9211L21.7267 12.5586C22.4545 13.0035 23.3127 13.2667 24.2379 13.2806C25.5847 13.2999 26.8122 12.7884 27.7047 11.9437L26.3096 10.5583ZM38.5723 5.81972C38.2553 5.81972 37.9507 5.86926 37.666 5.96165L37.0328 4.12672C37.5161 3.97066 38.0337 3.88589 38.5723 3.88589C40.9229 3.88589 42.8837 5.50044 43.3333 7.6452L41.3731 8.03164C41.1089 6.76939 39.9553 5.81972 38.5723 5.81972ZM35.3538 12.102L36.6784 10.6536C36.0868 10.1472 35.7143 9.4075 35.7143 8.58307C35.7143 7.75946 36.0868 7.02017 36.6778 6.51409L35.3523 5.06569C34.3474 5.92627 33.7143 7.18375 33.7143 8.58307C33.7143 9.98413 34.3479 11.2412 35.3538 12.102ZM38.5722 11.3474C39.954 11.3474 41.1073 10.3986 41.373 9.13818L43.3327 9.52627C42.8809 11.6687 40.9206 13.2811 38.5722 13.2811C38.0332 13.2811 37.5149 13.196 37.0303 13.0392L37.665 11.205C37.9501 11.2971 38.255 11.3474 38.5722 11.3474Z" fill="var(--fill-0, black)"/>
</g>
</svg>
