<svg preserveAspectRatio="none" width="100%" height="100%" overflow="visible" style="display: block;" viewBox="0 0 14.3936 17.5526" fill="none" xmlns="http://www.w3.org/2000/svg">
<g id="PayPal">
<path id="Fill 7" fill-rule="evenodd" clip-rule="evenodd" d="M4.08868 16.9577L4.38298 15.0255L3.72739 15.0097H0.596809L2.77245 0.75156C2.77923 0.708384 2.80114 0.668304 2.83314 0.639792C2.8653 0.61128 2.90628 0.595639 2.94916 0.595639H8.2278C9.98035 0.595639 11.1897 0.972488 11.821 1.71641C12.1171 2.0654 12.3056 2.43019 12.3969 2.83148C12.4925 3.25264 12.4941 3.75576 12.4008 4.3695L12.394 4.41414V4.80745L12.6901 4.9808C12.9393 5.1175 13.1374 5.2739 13.2894 5.45296C13.5425 5.75144 13.7063 6.13073 13.7755 6.58025C13.8471 7.04263 13.8234 7.593 13.7063 8.21603C13.5712 8.93258 13.3529 9.55675 13.058 10.0674C12.7868 10.5379 12.4413 10.9283 12.031 11.2307C11.6393 11.5181 11.1739 11.7362 10.6478 11.8758C10.1378 12.013 9.55648 12.0823 8.91886 12.0823H8.50807C8.2144 12.0823 7.92908 12.1916 7.70509 12.3876C7.48046 12.5877 7.33197 12.8611 7.28642 13.16L7.25536 13.334L6.73533 16.7397L6.71185 16.8646C6.70554 16.9042 6.69482 16.9239 6.67906 16.9373C6.66503 16.9495 6.64485 16.9577 6.62515 16.9577H4.08868" fill="var(--fill-0, #28356A)"/>
<path id="Fill 8" fill-rule="evenodd" clip-rule="evenodd" d="M12.9706 4.45955C12.955 4.56366 12.9369 4.67005 12.9167 4.77938C12.2206 8.47357 9.83894 9.74977 6.79726 9.74977H5.24852C4.87651 9.74977 4.56298 10.0289 4.50513 10.4082L3.48761 17.0792C3.44993 17.3283 3.63563 17.5526 3.8787 17.5526H6.6256C6.9508 17.5526 7.22713 17.3084 7.27836 16.9768L7.30531 16.8327L7.8225 13.4404L7.85576 13.2543C7.90636 12.9216 8.18333 12.6772 8.50852 12.6772H8.91931C11.5806 12.6772 13.6641 11.5605 14.273 8.32872C14.5272 6.97872 14.3956 5.85143 13.7225 5.05863C13.5189 4.81962 13.2662 4.62118 12.9706 4.45955" fill="var(--fill-0, #298FC2)"/>
<path id="Fill 9" fill-rule="evenodd" clip-rule="evenodd" d="M12.2421 4.15949C12.1357 4.12739 12.026 4.09839 11.9134 4.07216C11.8002 4.04658 11.6844 4.02394 11.5651 4.00406C11.1475 3.93433 10.6899 3.90125 10.1998 3.90125H6.06242C5.96043 3.90125 5.86364 3.92504 5.7771 3.96805C5.58621 4.06288 5.4445 4.24959 5.41014 4.47817L4.52992 10.2402L4.50469 10.4082C4.56255 10.0289 4.87608 9.74981 5.24809 9.74981H6.79683C9.8385 9.74981 12.2202 8.47296 12.9163 4.77942C12.9371 4.6701 12.9546 4.56371 12.9702 4.4596C12.7941 4.36299 12.6034 4.28038 12.398 4.21C12.3472 4.19256 12.2949 4.17578 12.2421 4.15949" fill="var(--fill-0, #22284F)"/>
<path id="Fill 11" fill-rule="evenodd" clip-rule="evenodd" d="M5.41037 4.47819C5.44474 4.2496 5.58645 4.06289 5.77734 3.96872C5.86451 3.92554 5.96067 3.90176 6.06266 3.90176H10.2C10.6901 3.90176 11.1477 3.93499 11.5653 4.00473C11.6846 4.02444 11.8005 4.04725 11.9137 4.07283C12.0262 4.0989 12.1359 4.12806 12.2423 4.15999C12.2951 4.17629 12.3475 4.19323 12.3987 4.21001C12.6041 4.2804 12.795 4.36365 12.9711 4.45962C13.1782 3.09446 12.9693 2.16496 12.2552 1.32329C11.4679 0.396562 10.047 0 8.22868 0H2.94989C2.5785 0 2.26166 0.279093 2.20428 0.659037L0.00562688 15.0638C-0.0377221 15.3488 0.174924 15.6059 0.452988 15.6059H3.71188L5.41037 4.47819" fill="var(--fill-0, #28356A)"/>
</g>
</svg>
