<svg preserveAspectRatio="none" width="100%" height="100%" overflow="visible" style="display: block;" viewBox="0 0 34.667 12.2339" fill="none" xmlns="http://www.w3.org/2000/svg">
<g id="Payoneer">
<path id="Payoneer_2" d="M28.0146 5.77995C28.661 5.0938 29.4542 4.84964 30.3691 5.10221C30.9272 5.25796 31.2251 5.662 31.2588 6.23014C31.2924 6.78582 31.0402 7.20278 30.5156 7.44694C29.9869 7.691 29.4242 7.72923 28.8535 7.74186C28.7403 7.73767 28.6228 7.73698 28.4971 7.73698C28.4593 8.14949 28.7531 8.46609 29.2021 8.52506C29.6217 8.57556 30.0246 8.51184 30.4189 8.36881C30.4861 8.34356 30.5496 8.3185 30.6377 8.28483C30.6629 8.55841 30.6964 8.81519 30.709 9.07194C30.7132 9.1224 30.6545 9.20215 30.6084 9.22331C29.8949 9.51797 29.1604 9.61901 28.4092 9.41276C27.7335 9.22753 27.3808 8.73474 27.2969 8.0612C27.1921 7.19837 27.4146 6.41972 28.0146 5.77995ZM7.91113 5.00553C8.26787 5.02658 8.6208 5.11029 8.97754 5.16081C9.12003 5.18191 9.14138 5.26242 9.11621 5.38444C8.95674 6.21789 8.78859 7.04708 8.6543 7.88053C8.58296 8.32251 8.5616 8.77712 8.53223 9.22331C8.52383 9.35801 8.49006 9.41306 8.35156 9.40885C8.09147 9.40044 7.83138 9.40044 7.57129 9.40885C7.43707 9.41306 7.39081 9.36241 7.40332 9.23209C7.4201 9.03007 7.42882 8.81941 7.44141 8.59635C7.23156 8.81525 7.06365 9.03862 6.84961 9.2028C6.409 9.54369 5.9052 9.61909 5.39746 9.38346C4.89383 9.15193 4.68798 8.70099 4.66699 8.17057C4.62095 7.05521 5.01147 6.1336 5.94727 5.49381C6.5348 5.08974 7.2103 4.96766 7.91113 5.00553ZM24.0488 5.5651C24.6741 5.03067 25.4088 4.8623 26.2061 5.10221C26.7388 5.26225 27.0365 5.6622 27.0742 6.21354C27.112 6.75658 26.8767 7.17288 26.373 7.42545C25.9787 7.6232 25.5552 7.69511 25.123 7.72038C24.8545 7.733 24.5816 7.72038 24.3047 7.72038C24.2753 8.15809 24.5729 8.47024 25.0176 8.52506C25.4498 8.57557 25.8657 8.50794 26.2686 8.35221C26.3105 8.33537 26.3572 8.31827 26.4033 8.30143C26.4117 8.29753 26.4243 8.30139 26.457 8.30143C26.4822 8.55822 26.5118 8.81515 26.5244 9.07194C26.5286 9.12238 26.4702 9.20211 26.4199 9.22331C25.719 9.50956 24.9926 9.61098 24.2539 9.42155C23.5657 9.24474 23.1879 8.74783 23.1123 8.05338C23.0032 7.07253 23.2892 6.21339 24.0488 5.5651ZM15.8311 5.02213C16.3682 4.96324 16.8719 5.03074 17.3125 5.35905C17.732 5.67047 17.9373 6.1081 17.9668 6.62565C18.0004 7.16449 17.9081 7.67895 17.6562 8.15885C17.1821 9.05082 16.4227 9.48434 15.6592 9.50553C14.547 9.50553 13.9125 9.09307 13.6816 8.35221C13.2997 7.13141 14.0348 5.2242 15.8311 5.02213ZM21.7607 5.02604C22.214 5.10181 22.5287 5.43476 22.5791 5.90202C22.6379 6.42399 22.5291 6.92911 22.4326 7.43424C22.3151 8.04464 22.2018 8.6552 22.0801 9.26139C22.0675 9.31598 22.0048 9.3955 21.9629 9.40006C21.602 9.40848 21.2408 9.40427 20.8799 9.40006C20.8631 9.40006 20.8461 9.3876 20.8125 9.37077C20.8797 9.02137 20.9468 8.66773 21.0098 8.31413C21.1063 7.77108 21.1983 7.23217 21.2822 6.68913C21.299 6.59651 21.2909 6.49951 21.2783 6.4069C21.2446 6.08297 21.0058 5.93612 20.6953 6.03288C20.3932 6.12967 20.2123 6.36475 20.0654 6.62565C19.8473 7.00859 19.7718 7.43402 19.6963 7.85905C19.6124 8.32632 19.5328 8.79021 19.4404 9.25748C19.4277 9.31222 19.3642 9.39586 19.3223 9.40006C18.9532 9.41267 18.5799 9.40885 18.1689 9.40885C18.4459 7.96087 18.7056 6.54214 18.9658 5.111H20.0322C20.0154 5.33818 19.9985 5.55696 19.9775 5.77995C20.0992 5.6663 20.208 5.55644 20.3213 5.45963C20.7367 5.0977 21.2111 4.9378 21.7607 5.02604ZM34.667 5.00944C34.5873 5.40932 34.5202 5.77995 34.4404 6.14616C34.4321 6.17554 34.3773 6.21306 34.3438 6.21745C33.517 6.3269 33.1685 6.62198 32.9629 7.47233C32.8202 8.0616 32.7233 8.66761 32.6016 9.2653C32.5932 9.31581 32.547 9.39616 32.5176 9.39616C32.1315 9.40878 31.7455 9.40397 31.3301 9.40397C31.3846 9.09281 31.4348 8.81101 31.4893 8.52506C31.7075 7.43476 31.9301 6.34375 32.0225 5.22819C32.0269 5.18199 32.0895 5.1068 32.123 5.10221C32.442 5.09379 32.7613 5.09831 33.1055 5.09831C33.0803 5.39706 33.0591 5.67898 33.0381 5.9567C33.4242 5.3884 33.8696 4.92524 34.667 5.00944ZM1.22559 3.54069C2.01031 3.42283 2.79926 3.33804 3.58398 3.53581C4.26788 3.70414 4.74622 4.18842 4.82617 4.75651C4.98985 5.88888 4.33136 6.79465 3.35352 7.11881C2.83729 7.2872 2.31231 7.32949 1.7793 7.27897C1.65356 7.26639 1.61571 7.29962 1.59473 7.42155C1.48141 8.04037 1.3639 8.65557 1.24219 9.27018C1.2336 9.32072 1.18749 9.40006 1.1582 9.40006C0.776333 9.40848 0.402854 9.40397 0 9.40397C0.0587164 9.08842 0.105334 8.79781 0.164062 8.50748C0.46622 6.91214 0.772062 5.3206 1.07422 3.72526C1.0952 3.62439 1.12496 3.55751 1.22559 3.54069ZM16.6621 6.61295C16.62 6.12913 16.2543 5.8723 15.8096 5.97331C15.5914 6.02386 15.4279 6.15886 15.2979 6.33561C15.0084 6.7354 14.8906 7.18566 14.8779 7.66959C14.8779 7.73274 14.8737 7.80079 14.8779 7.86393C14.9116 8.3057 15.2263 8.58717 15.6416 8.54948C15.8724 8.52843 16.0536 8.40695 16.1963 8.23014C16.5698 7.75445 16.7125 7.20651 16.6621 6.61295ZM7.73535 5.99479C7.32825 5.88113 6.98754 5.96089 6.70215 6.20084C6.16509 6.65546 5.92161 7.24499 5.96777 7.94791C5.98037 8.16255 6.06449 8.36895 6.29102 8.46159C6.51746 8.55412 6.72324 8.48689 6.89941 8.33561C7.00434 8.243 7.10512 8.13707 7.18066 8.0192C7.57934 7.40884 7.58848 6.69355 7.73535 5.99479ZM29.7861 5.93131C29.291 5.79663 28.6739 6.2513 28.6191 6.84049C28.8876 6.82367 29.1392 6.81945 29.3867 6.78581C29.5546 6.76476 29.7229 6.71479 29.874 6.64323C30.0376 6.5717 30.1168 6.42006 30.0918 6.23502C30.0666 6.05835 29.9496 5.97344 29.7861 5.93131ZM25.585 5.93131C25.0855 5.80923 24.4929 6.24741 24.4258 6.80729C24.7488 6.87461 25.4117 6.79441 25.668 6.65983C25.8442 6.56722 25.9327 6.41964 25.9033 6.24284C25.8739 6.06207 25.7526 5.97344 25.585 5.93131ZM3.13965 4.49186C2.84167 4.38662 2.53489 4.40777 2.22852 4.44987C2.19082 4.45415 2.14035 4.51259 2.13184 4.55045C2.02691 5.10192 1.9222 5.6582 1.80469 6.27702C2.0606 6.27702 2.29131 6.29735 2.51367 6.27213C2.95003 6.22584 3.29881 6.0285 3.49609 5.61198C3.71847 5.14062 3.55909 4.63935 3.13965 4.49186Z" fill="var(--fill-0, black)"/>
<path id="Payoneer_3" d="M20.2499 4.63782e-06C20.3631 0.0252403 20.4765 0.0632218 20.5897 0.0800828C21.0598 0.155855 21.4374 0.408664 21.7606 0.741216C21.8403 0.821199 21.9202 0.981241 21.8866 1.06543C21.8485 1.15785 21.6979 1.24583 21.5848 1.2627C20.5272 1.41845 19.4988 1.69619 18.5126 2.1045C17.9418 2.34024 17.3834 2.62653 16.8378 2.917C15.65 3.55686 14.7049 4.40441 13.7606 5.35157C12.7618 6.35342 11.8101 7.48889 10.996 8.64649C10.4881 9.36634 10.1299 9.9532 9.67662 10.7109C9.45005 11.0898 9.18643 11.6731 9.00181 12.0772C8.97244 12.1361 8.90952 12.2418 8.88853 12.2334C8.80883 12.2081 8.69177 12.1617 8.67076 12.0986C8.62044 11.943 8.57024 11.7621 8.59947 11.6064C8.75895 10.7603 9.1115 9.9807 9.50181 9.21875C10.2614 7.74551 11.2139 6.40235 12.326 5.18165C12.9597 4.4871 13.6152 3.80938 14.2909 3.16114C15.3064 2.18045 16.4399 1.3517 17.703 0.711919C18.2862 0.417322 18.8901 0.193373 19.5321 0.0712937C19.6412 0.0502454 19.7465 0.0249592 19.8514 0.00391089C19.9898 -0.000294452 20.1198 4.63907e-06 20.2499 4.63782e-06ZM9.36314 0.951177C9.35485 0.825171 9.42617 0.761925 9.53502 0.803716C9.64411 0.841592 9.75313 0.905403 9.83287 0.985356C10.5001 1.69669 10.9207 2.5255 11.034 3.50196C11.0592 3.69125 11.0671 3.88103 11.0838 4.07032C11.0713 4.65956 10.9708 5.22823 10.7694 5.7754C10.7484 5.83433 10.7059 5.88504 10.6639 5.93555C10.5716 6.05749 10.4716 6.07011 10.4003 5.93555C10.3079 5.75875 10.2316 5.56932 10.1854 5.37989C10.0511 4.78647 9.92566 4.18875 9.81236 3.58692C9.66549 2.82085 9.53551 2.05026 9.40123 1.28418C9.38024 1.17473 9.37154 1.06063 9.36314 0.951177Z" fill="var(--fill-0, #FC461E)"/>
</g>
</svg>
