<svg preserveAspectRatio="none" width="100%" height="100%" overflow="visible" style="display: block;" viewBox="0 0 17 17" fill="none" xmlns="http://www.w3.org/2000/svg">
<path id="grid_view" d="M1.5 7.5C1.091 7.5 0.73875 7.35225 0.44325 7.05675C0.14775 6.76125 0 6.409 0 6V1.5C0 1.091 0.14775 0.73875 0.44325 0.44325C0.73875 0.14775 1.091 0 1.5 0H6C6.409 0 6.76125 0.14775 7.05675 0.44325C7.35225 0.73875 7.5 1.091 7.5 1.5V6C7.5 6.409 7.35225 6.76125 7.05675 7.05675C6.76125 7.35225 6.409 7.5 6 7.5H1.5ZM1.5 17C1.091 17 0.73875 16.8523 0.44325 16.5568C0.14775 16.2613 0 15.909 0 15.5V11C0 10.591 0.14775 10.2388 0.44325 9.94325C0.73875 9.64775 1.091 9.5 1.5 9.5H6C6.409 9.5 6.76125 9.64775 7.05675 9.94325C7.35225 10.2388 7.5 10.591 7.5 11V15.5C7.5 15.909 7.35225 16.2613 7.05675 16.5568C6.76125 16.8523 6.409 17 6 17H1.5ZM11 7.5C10.591 7.5 10.2387 7.35225 9.94325 7.05675C9.64775 6.76125 9.5 6.409 9.5 6V1.5C9.5 1.091 9.64775 0.73875 9.94325 0.44325C10.2387 0.14775 10.591 0 11 0H15.5C15.909 0 16.2613 0.14775 16.5568 0.44325C16.8523 0.73875 17 1.091 17 1.5V6C17 6.409 16.8523 6.76125 16.5568 7.05675C16.2613 7.35225 15.909 7.5 15.5 7.5H11ZM11 17C10.591 17 10.2387 16.8523 9.94325 16.5568C9.64775 16.2613 9.5 15.909 9.5 15.5V11C9.5 10.591 9.64775 10.2388 9.94325 9.94325C10.2387 9.64775 10.591 9.5 11 9.5H15.5C15.909 9.5 16.2613 9.64775 16.5568 9.94325C16.8523 10.2388 17 10.591 17 11V15.5C17 15.909 16.8523 16.2613 16.5568 16.5568C16.2613 16.8523 15.909 17 15.5 17H11ZM1.5 6H6V1.5H1.5V6ZM11 6H15.5V1.5H11V6ZM11 15.5H15.5V11H11V15.5ZM1.5 15.5H6V11H1.5V15.5Z" fill="var(--fill-0, #121621)"/>
</svg>
