<svg preserveAspectRatio="none" width="100%" height="100%" overflow="visible" style="display: block;" viewBox="0 0 19.335 15.998" fill="none" xmlns="http://www.w3.org/2000/svg">
<path id="Icon" d="M13.0044 11.3313L9.67111 7.99795M9.67111 7.99795L6.33778 11.3313M9.67111 7.99795V15.498M16.6628 13.323C17.4756 12.8798 18.1176 12.1787 18.4877 11.3301C18.8577 10.4816 18.9346 9.53398 18.7063 8.63686C18.4779 7.73974 17.9573 6.94421 17.2267 6.37582C16.496 5.80744 15.5968 5.49856 14.6711 5.49795H13.6211C13.3689 4.52232 12.8987 3.61656 12.2461 2.84878C11.5934 2.08099 10.7751 1.47116 9.85286 1.06512C8.93057 0.659089 7.92823 0.467418 6.92121 0.504521C5.91418 0.541624 4.92867 0.806536 4.03876 1.27934C3.14885 1.75214 2.3777 2.42054 1.78329 3.23427C1.18889 4.048 0.786684 4.9859 0.606926 5.97745C0.427168 6.969 0.47453 7.98839 0.745454 8.959C1.01638 9.92961 1.50381 10.8262 2.17111 11.5813" stroke="var(--stroke-0, #202323)" stroke-linecap="round" stroke-linejoin="round"/>
</svg>
