<svg preserveAspectRatio="none" width="100%" height="100%" overflow="visible" style="display: block;" viewBox="0 0 30 14.0004" fill="none" xmlns="http://www.w3.org/2000/svg">
<g id="Discover">
<path id="Stripe" d="M11 14.0004L30 8.25036V11.0004C30 12.6572 28.6569 14.0004 27 14.0004H11Z" fill="var(--fill-0, #FD6020)"/>
<path id="DISC-VER" d="M11.1846 0.110813C11.5503 0.110813 11.9687 0.164581 12.2822 0.379367V1.45456C12.0209 1.1322 11.6027 0.917453 11.1846 0.917453C10.3484 0.971234 9.66949 1.72295 9.72168 2.58249V2.68991C9.72168 3.54955 10.4011 4.1948 11.2373 4.1948C11.6553 4.19466 12.021 3.97897 12.2822 3.65671V4.73191C11.9165 4.89302 11.5507 5.00039 11.1328 5.00046C9.82619 5.00046 8.78027 3.87195 8.78027 2.52878C8.78034 1.13198 9.82579 0.00343448 11.1846 0.110813ZM19.3906 3.33445L20.6445 0.110813H21.585L19.6514 5.00046H19.1807L17.2471 0.110813H18.1885L19.3906 3.33445ZM7.00391 0.00339067C7.47414 0.00352345 7.94481 0.219214 8.31055 0.541477L7.83984 1.18601C7.63089 0.971209 7.36959 0.810195 7.1084 0.810031C6.79481 0.756304 6.53273 1.02478 6.48047 1.34714C6.48055 1.6156 6.63771 1.72313 7.16016 1.93796C8.20526 2.3677 8.4672 2.68995 8.51953 3.33445V3.49558C8.46727 4.35521 7.78741 5.00048 6.95117 4.94675C6.32405 4.94674 5.69642 4.62458 5.38281 4.03366L5.95801 3.44187C6.1148 3.81796 6.4813 4.08738 6.89941 4.08738H6.95117C7.26476 4.08738 7.57812 3.76425 7.57812 3.38816C7.578 3.17349 7.47402 3.01215 7.31738 2.90476C7.10832 2.7973 6.89851 2.68993 6.68945 2.6362C5.85366 2.36761 5.59283 1.99162 5.59277 1.34714V1.29343C5.64504 0.541252 6.2722 -0.0503363 7.00391 0.00339067ZM1.56836 0.110813C2.82239 0.164754 3.81473 1.23965 3.7627 2.52878C3.76262 3.227 3.44916 3.8715 2.92676 4.35495C2.45638 4.73104 1.88155 4.94579 1.30664 4.89206H0V0.110813H1.56836ZM5.01758 4.89304H4.12891V0.110813H5.01758V4.89304ZM24.5117 0.917453H22.8916V1.99167H24.46V2.79734H22.8916V4.08738H24.5117V4.89304H22.0039V0.110813H24.5117V0.917453ZM26.3936 0.110813C27.4385 0.11082 28.0133 0.594464 28.0137 1.5073C28.0659 2.20565 27.5958 2.79718 26.9688 2.90476L28.3799 4.89206H27.2822L26.0801 2.95847H25.9756V4.89206H25.0869V0.110813H26.3936ZM1.14941 0.916477H0.888672V4.0864H1.14941C1.56746 4.14012 2.03797 3.97897 2.35156 3.71042C2.66496 3.38815 2.8222 2.95839 2.82227 2.47507C2.82217 2.04539 2.66505 1.61471 2.35156 1.29245C2.03799 1.02412 1.56727 0.862802 1.14941 0.916477ZM25.9756 2.31394H26.2363C26.8112 2.31394 27.0732 2.04455 27.0732 1.56101C27.0729 1.13168 26.8109 0.862766 26.2363 0.862766H25.9756V2.31394Z" fill="var(--fill-0, black)"/>
<path id="O" fill-rule="evenodd" clip-rule="evenodd" d="M14.9477 0.000358461C13.6411 0.000358461 12.5435 1.0749 12.5435 2.4718C12.5435 3.81497 13.5888 4.94324 14.9477 4.99697C16.3066 5.05069 17.3519 3.92243 17.4042 2.52553C17.3519 1.12862 16.3066 0.000358461 14.9477 0.000358461V0.000358461Z" fill="var(--fill-0, #FD6020)"/>
</g>
</svg>
