<svg preserveAspectRatio="none" width="100%" height="100%" overflow="visible" style="display: block;" viewBox="0 0 32.6823 24.4765" fill="none" xmlns="http://www.w3.org/2000/svg">
<g id="JCB">
<path id="Vector" d="M24.612 12.7337C25.4975 12.7529 26.3879 12.6946 27.2698 12.764C28.1629 12.9306 28.3782 14.2827 27.5847 14.7255C27.0434 15.0172 26.4002 14.8341 25.8133 14.8856H24.612V12.7337V12.7337ZM27.7818 10.298C27.9785 10.9924 27.3092 11.6158 26.6404 11.5202H24.612C24.6263 10.8654 24.5842 10.1547 24.6326 9.53432C25.4452 9.5572 26.2653 9.48765 27.0731 9.57069C27.4202 9.6579 27.7107 9.94326 27.7818 10.298V10.298ZM32.6633 0.000751682C32.7011 1.32682 32.6688 2.72297 32.6796 4.07594C32.6771 9.5766 32.6849 15.0771 32.6753 20.5781C32.6397 22.6396 30.8127 24.4309 28.7655 24.472C26.7163 24.4804 24.6667 24.4733 22.6172 24.4756V16.1597C24.8502 16.1482 27.0844 16.1831 29.3165 16.1423C30.352 16.0773 31.4862 15.3941 31.5344 14.2545C31.6563 13.1101 30.5774 12.3185 29.5529 12.1935C29.1592 12.1833 29.1707 12.0787 29.5529 12.0331C30.53 11.8219 31.2973 10.8107 31.0098 9.79793C30.7648 8.73274 29.5875 8.32047 28.6082 8.32252C26.6115 8.30895 24.6145 8.32062 22.6177 8.31668C22.6305 6.76421 22.5908 5.21008 22.6391 3.65874C22.7973 1.63445 24.6703 -0.0349367 26.6887 0.00128179C28.6805 0.000978703 30.672 0.000978911 32.6633 0.00090314V0.000751682Z" fill="url(#paint0_linear_1857_95758)"/>
<path id="Vector_2" d="M0.053111 3.86827C0.104105 1.81003 1.9389 0.0334293 3.9835 0.00334823C6.02515 -0.00294075 8.06709 0.00243933 10.1087 0.000620824C10.1031 6.88706 10.1198 13.7743 10.1003 20.6603C10.0217 22.6935 8.20689 24.4363 6.18457 24.4723C4.13906 24.4797 2.09332 24.4733 0.0477314 24.4754V15.8792C2.03467 16.3486 4.1183 16.5484 6.14532 16.237C7.35697 16.0421 8.68266 15.447 9.09288 14.19C9.39475 13.1147 9.2248 11.9831 9.26973 10.8795V8.31655H5.76176C5.746 10.0116 5.79404 11.7096 5.73638 13.4027C5.64182 14.4433 4.61126 15.1045 3.6298 15.0692C2.41262 15.0821 0.000601162 14.1871 0.000601162 14.1871C-0.00546051 11.0112 0.035911 7.0339 0.053111 3.86857V3.86827Z" fill="url(#paint1_linear_1857_95758)"/>
<path id="Vector_3" d="M11.417 9.35051C11.2323 9.38969 11.3798 8.72154 11.3326 8.46808C11.3452 6.86553 11.3063 5.26123 11.3541 3.65981C11.5118 1.62696 13.3992 -0.0465938 15.4258 0.000990294H21.3941C21.3885 6.88743 21.4051 13.7746 21.3857 20.6607C21.307 22.6939 19.492 24.4366 17.4696 24.4726C15.4241 24.4804 13.3783 24.4739 11.3326 24.4758V15.0575C12.7297 16.2038 14.6286 16.3823 16.3692 16.3854C17.6814 16.3849 18.9859 16.1826 20.2602 15.88V14.1545C18.8241 14.8703 17.136 15.3249 15.544 14.9137C14.4335 14.6373 13.6274 13.5641 13.6454 12.418C13.5167 11.2262 14.2153 9.96797 15.3865 9.61366C16.8406 9.15843 18.4254 9.5066 19.7884 10.0984C20.0805 10.2514 20.3769 10.441 20.2601 9.95289V8.59667C17.9805 8.0543 15.5545 7.85472 13.2642 8.44475C12.6013 8.63175 11.9555 8.91536 11.417 9.35066V9.35051Z" fill="url(#paint2_linear_1857_95758)"/>
</g>
<defs>
<linearGradient id="paint0_linear_1857_95758" x1="22.5485" y1="11.7149" x2="32.6162" y2="11.7149" gradientUnits="userSpaceOnUse">
<stop stop-color="#58B03A"/>
<stop offset="1" stop-color="#55B330"/>
</linearGradient>
<linearGradient id="paint1_linear_1857_95758" x1="-0.16633" y1="12.4724" x2="9.94378" y2="12.4724" gradientUnits="userSpaceOnUse">
<stop stop-color="#0F6EB6"/>
<stop offset="1" stop-color="#006DBA"/>
</linearGradient>
<linearGradient id="paint2_linear_1857_95758" x1="11.3178" y1="11.9522" x2="21.3922" y2="11.9522" gradientUnits="userSpaceOnUse">
<stop stop-color="#DE0D3D"/>
<stop offset="1" stop-color="#E30138"/>
</linearGradient>
</defs>
</svg>
