<svg preserveAspectRatio="none" width="100%" height="100%" overflow="visible" style="display: block;" viewBox="0 0 36.2667 11.4894" fill="none" xmlns="http://www.w3.org/2000/svg">
<g id="Amazon">
<path id="Amazon_2" d="M2.69727 0.015625C3.24335 0.0156715 3.95584 0.168408 4.38477 0.602539C4.88835 1.09819 4.88524 1.74697 4.88184 2.45605V4.46875C4.88184 4.96328 5.05638 5.20963 5.24023 5.46875C5.26196 5.49938 5.28395 5.5301 5.30566 5.56152C5.37715 5.66589 5.39299 5.7967 5.30566 5.875C5.07628 6.07647 4.66874 6.44838 4.44531 6.6582L4.43652 6.65625C4.3628 6.72324 4.25687 6.73467 4.17188 6.68457C3.85424 6.40675 3.75836 6.25597 3.61133 6.02539C3.58608 5.9858 3.55894 5.94382 3.5293 5.89844C2.9127 6.55808 2.47604 6.75488 1.67871 6.75488C0.734635 6.75468 7.96565e-05 6.1422 0 4.91699C0 3.9599 0.496484 3.30973 1.19141 2.99023C1.70457 2.7535 2.38946 2.67974 2.98145 2.61621C3.09153 2.6044 3.19881 2.59219 3.30078 2.58008V2.14062C3.29564 1.93946 3.27041 1.73578 3.16504 1.57227C3.028 1.35513 2.76752 1.2666 2.53516 1.2666C2.1073 1.2666 1.72631 1.49687 1.63281 1.97363C1.62098 2.08492 1.53891 2.17462 1.43359 2.19141L0.355469 2.06738C0.301656 2.05928 0.253206 2.028 0.22168 1.98145C0.190162 1.93489 0.178144 1.87641 0.188477 1.82031C0.437811 0.434191 1.62984 0.015625 2.69727 0.015625ZM17.3994 0.0117188C17.9446 0.0117188 18.6579 0.16437 19.0879 0.598633C19.5921 1.09165 19.5888 1.73517 19.585 2.44043C19.5846 2.50264 19.584 2.5658 19.584 2.62891V4.46582C19.584 4.95913 19.7587 5.20492 19.9424 5.46387C19.9642 5.49461 19.986 5.52607 20.0078 5.55762C20.0833 5.66617 20.0992 5.7932 20.0029 5.86523C19.7736 6.06663 19.367 6.43961 19.1436 6.64844C19.0693 6.71483 18.963 6.72586 18.8779 6.67578C18.5589 6.39675 18.4646 6.24831 18.3154 6.01465C18.2905 5.97567 18.2636 5.9344 18.2344 5.88965C17.6188 6.54928 17.1801 6.74706 16.3857 6.74707C15.4414 6.74707 14.7061 6.13368 14.7061 4.90918C14.7062 3.95104 15.2003 3.30085 15.9033 2.98145C16.4177 2.74383 17.1064 2.67049 17.7002 2.60742C17.8079 2.59599 17.9129 2.58494 18.0127 2.57324V2.33594C18.0146 2.07602 18.0165 1.78653 17.875 1.56934C17.742 1.35235 17.4774 1.26184 17.2461 1.26172C16.8181 1.26172 16.4381 1.49271 16.3438 1.96973C16.3316 2.08078 16.2506 2.16931 16.1455 2.18652L15.0576 2.06348C15.0036 2.05555 14.9545 2.02521 14.9229 1.97852C14.8911 1.93169 14.88 1.87283 14.8906 1.81641C15.1409 0.429166 16.332 0.0117528 17.3994 0.0117188ZM28.2393 0.00878906C29.9045 0.00882178 30.8047 1.51157 30.8047 3.42188C30.8047 5.26852 29.8122 6.73336 28.2393 6.7334C26.6058 6.7334 25.7159 5.23004 25.7158 3.3584C25.7158 1.48668 26.6167 0.00878906 28.2393 0.00878906ZM11.8984 0.0302734C12.4897 -0.0659951 13.0843 0.180369 13.4541 0.674805C13.8104 1.18422 13.7373 1.92722 13.7373 2.57227V6.3916C13.7363 6.45076 13.7125 6.5069 13.6719 6.54785C13.6312 6.5888 13.5768 6.61169 13.5205 6.61035H12.3994C12.2893 6.60409 12.2026 6.50856 12.2012 6.39258V3.18359C12.2012 2.92869 12.2216 2.2919 12.1689 2.0498C12.0854 1.64306 11.8344 1.52832 11.5098 1.52832C11.2122 1.53797 10.9489 1.7332 10.8398 2.02441C10.7535 2.25457 10.737 2.59781 10.7344 2.90039V6.3916C10.7333 6.45053 10.7103 6.50694 10.6699 6.54785C10.6295 6.58877 10.5747 6.61141 10.5186 6.61035H9.39453C9.28461 6.60358 9.19819 6.50834 9.19629 6.39258V3.18359C9.19632 2.50819 9.29527 1.51367 8.50098 1.51367C7.70688 1.51383 7.72656 2.48113 7.72656 3.18359V6.3916C7.72552 6.45076 7.70176 6.5069 7.66113 6.54785C7.62051 6.58878 7.56602 6.61169 7.50977 6.61035H6.3877C6.28385 6.60446 6.19962 6.51899 6.18945 6.41016V0.356445C6.19322 0.235116 6.28883 0.138449 6.4043 0.139648H7.44922C7.55636 0.145862 7.64252 0.236003 7.64844 0.348633V1.13867H7.66895C7.94103 0.37365 8.45448 0.0176209 9.14551 0.0175781C9.83661 0.0175781 10.2868 0.373574 10.6016 1.13867C10.8117 0.550032 11.3074 0.126619 11.8984 0.0302734ZM34.6641 0C35.1664 3.00099e-05 35.6569 0.191064 35.9736 0.712891C36.2666 1.19726 36.2666 2.013 36.2666 2.59863V6.40723C36.2502 6.51837 36.1577 6.59998 36.0508 6.59766H34.9229C34.8218 6.59293 34.7384 6.5126 34.7246 6.40723V3.12012C34.7246 2.45829 34.798 1.48926 34.0225 1.48926C33.7346 1.50325 33.4808 1.69271 33.373 1.97363C33.2162 2.3431 33.1953 2.71296 33.1953 3.12207V6.37988C33.191 6.50278 33.0935 6.59997 32.9766 6.59766H31.8574C31.7473 6.59142 31.6606 6.49588 31.6592 6.37988V0.326172C31.671 0.211215 31.765 0.124109 31.875 0.126953H32.915C33.0098 0.13015 33.0916 0.200077 33.1143 0.296875V1.22266H33.1357C33.4495 0.394842 33.8895 0 34.6641 0ZM24.8545 0.117188C24.9104 0.115328 24.9649 0.137626 25.0049 0.178711C25.0448 0.219851 25.0669 0.276216 25.0664 0.334961V1.07715C25.0664 1.20137 24.9668 1.36429 24.7891 1.62109L22.8789 4.4873C23.5879 4.46956 24.338 4.58187 24.9824 4.96289C25.1012 5.02965 25.1769 5.15822 25.1807 5.2998V6.22656C25.1807 6.35392 25.0482 6.50101 24.9082 6.4248C23.6853 5.76423 22.2333 5.76728 21.0127 6.43262C20.8848 6.50416 20.7512 6.35959 20.751 6.23242V5.34961C20.7393 5.1418 20.7867 4.93494 20.8877 4.75586L23.1016 1.41504H21.1709C21.1147 1.41732 21.0599 1.39572 21.0195 1.35449C20.9793 1.31327 20.9564 1.25636 20.957 1.19727V0.334961C20.9545 0.276016 20.9758 0.218308 21.0156 0.176758C21.0556 0.135169 21.1109 0.113873 21.167 0.117188H24.8545ZM3.30566 3.52734C2.4945 3.52735 1.63792 3.71 1.6377 4.71387C1.6377 5.22526 1.88857 5.57015 2.31836 5.57031C2.63395 5.57031 2.91694 5.3658 3.0957 5.03418C3.30599 4.64106 3.30606 4.2721 3.30566 3.83789V3.52734ZM18.0146 3.52246C17.2034 3.52246 16.3457 3.70374 16.3457 4.70898C16.3457 5.21945 16.5974 5.56445 17.0273 5.56445C17.3421 5.56437 17.626 5.35917 17.8037 5.02832C18.0147 4.6331 18.0149 4.26283 18.0146 3.82324V3.52246ZM28.25 1.24414C27.423 1.24424 27.3701 2.42793 27.3701 3.16699C27.3701 3.17497 27.3701 3.18324 27.3701 3.19141C27.37 3.94026 27.37 5.48438 28.2393 5.48438C29.1179 5.4843 29.1504 4.21122 29.1504 3.43457C29.1504 2.92523 29.1303 2.31337 28.9834 1.83008C28.8573 1.41252 28.6055 1.24414 28.25 1.24414Z" fill="var(--fill-0, black)"/>
<path id="Smile" fill-rule="evenodd" clip-rule="evenodd" d="M22.8015 10.4599C23.0567 9.79282 23.6247 8.29795 23.3546 7.93572H23.3566C23.0877 7.5727 21.5783 7.7632 20.8993 7.84889L20.8979 7.84907C20.6913 7.87517 20.6596 7.68622 20.8453 7.54947C22.0508 6.65902 24.0259 6.91374 24.2553 7.21438C24.4846 7.51502 24.1927 9.59657 23.0636 10.5904C22.8899 10.7428 22.724 10.6613 22.8015 10.4599ZM14.6896 11.4892C17.3151 11.4892 20.3726 10.6175 22.4787 8.98381V8.98695C22.8273 8.71136 22.5284 8.30632 22.1729 8.465C19.8739 9.4844 17.4061 10.0165 14.911 10.0308C11.4494 10.0308 8.10095 9.03288 5.39202 7.37621C5.15469 7.2311 4.97793 7.48686 5.17653 7.67372C7.78448 10.1473 11.1771 11.508 14.6896 11.4892Z" fill="var(--fill-0, #FF9900)"/>
</g>
</svg>
