<svg preserveAspectRatio="none" width="100%" height="100%" overflow="visible" style="display: block;" viewBox="0 0 33.0283 14.1133" fill="none" xmlns="http://www.w3.org/2000/svg">
<path id="Stripe" d="M22.6699 2.97754C24.2755 2.97754 25.7897 4.46604 25.7988 7.19824C25.7987 10.1846 24.3033 11.541 22.6611 11.541C21.8538 11.541 21.3674 11.1922 21.0371 10.9473L21.0283 13.6143L18.7344 14.1133V3.12793H20.7529L20.8721 3.71191C21.1931 3.41047 21.7711 2.97766 22.6699 2.97754ZM3.10059 2.97754C3.86194 2.97754 4.61462 3.09938 5.37598 3.41016V5.625C4.67871 5.23875 3.79784 5.02148 3.10059 5.02148C2.61461 5.02156 2.32134 5.16301 2.32129 5.53027C2.32129 6.58544 5.8168 6.08625 5.82617 8.89355C5.82617 10.58 4.5138 11.5508 2.60547 11.5508C1.81647 11.5508 0.953795 11.3905 0.100586 11.0137V8.77148C0.871225 9.20485 1.84399 9.52536 2.60547 9.52539C3.11925 9.52539 3.48633 9.38358 3.48633 8.9502C3.48605 7.82923 0.000119749 8.24361 0 5.64355C0 3.97609 1.23836 2.97768 3.10059 2.97754ZM8.51367 3.1377H10.2568V5.14453H8.51367V8.48828C8.51367 9.88229 9.96273 9.44975 10.2568 9.32715V11.2393C9.95407 11.4088 9.40368 11.5508 8.65137 11.5508C7.2936 11.5507 6.27539 10.5232 6.27539 9.12891L6.28418 1.58301L8.52344 1.09277L8.51367 3.1377ZM29.7168 2.97754C31.8909 2.97771 33.0283 4.8803 33.0283 7.29199C33.0283 7.51811 33.0098 8.00838 33.0098 8.13086H28.5234C28.6244 9.24243 29.4138 9.5625 30.3037 9.5625C31.212 9.56249 31.9279 9.36524 32.5518 9.04492V10.9287C31.9279 11.2867 31.1015 11.541 30.0098 11.541C27.7714 11.5409 26.212 10.109 26.2119 7.27344C26.2119 4.88041 27.5332 2.97754 29.7168 2.97754ZM13.1104 3.83496C13.6516 2.81762 14.7248 3.02463 15.0186 3.1377V5.30469C14.734 5.20106 13.8166 5.06861 13.2754 5.79395V11.3809H10.9824V3.1377H12.9639L13.1104 3.83496ZM17.8809 11.3809H15.5781V3.1377H17.8809V11.3809ZM22.1201 5.06836C21.5973 5.06836 21.2668 5.25715 21.0283 5.53027L21.0371 9.02539C21.2573 9.27035 21.5788 9.46875 22.1201 9.46875C22.964 9.46851 23.5322 8.52598 23.5322 7.26367C23.5322 6.02973 22.9548 5.0686 22.1201 5.06836ZM29.707 4.88965C29.1291 4.88977 28.4961 5.33299 28.4961 6.39746H30.8633C30.8633 5.33285 30.2667 4.88965 29.707 4.88965ZM17.8809 1.91211L15.5781 2.4209V0.499023L17.8809 0V1.91211Z" fill="var(--fill-0, #6461FC)"/>
</svg>
