<svg preserveAspectRatio="none" width="100%" height="100%" overflow="visible" style="display: block;" viewBox="0 0 25.2571 10.0734" fill="none" xmlns="http://www.w3.org/2000/svg">
<path id="Shop Pay" d="M14.77 2.97378C14.77 4.46987 13.7211 5.53787 12.2554 5.53787H10.8744C10.8592 5.53787 10.8441 5.54088 10.83 5.54674C10.8159 5.55259 10.8032 5.56116 10.7924 5.57197C10.7816 5.58277 10.7731 5.5956 10.7673 5.60971C10.7616 5.62381 10.7586 5.63892 10.7587 5.65417V7.6205C10.7587 7.65124 10.7465 7.68074 10.7248 7.70253C10.7032 7.72433 10.6737 7.73665 10.643 7.73679H9.67666C9.65368 7.73668 9.63125 7.7298 9.61216 7.71701C9.59308 7.70422 9.57819 7.68609 9.56935 7.66488C9.56352 7.651 9.56047 7.63611 9.56036 7.62106V0.525412C9.56029 0.510167 9.56323 0.495057 9.56901 0.480951C9.57479 0.466845 9.58331 0.45402 9.59406 0.443213C9.60481 0.432407 9.6176 0.423832 9.63168 0.417981C9.64575 0.41213 9.66085 0.409118 9.6761 0.409118H12.2615C13.7211 0.407432 14.77 1.47543 14.77 2.97378V2.97378ZM13.5649 2.97378C13.5649 2.11365 12.9784 1.48498 12.1829 1.48498H10.8744C10.8592 1.48498 10.8441 1.48799 10.83 1.49385C10.8159 1.4997 10.8032 1.50827 10.7924 1.51908C10.7816 1.52988 10.7731 1.54271 10.7673 1.55682C10.7616 1.57092 10.7586 1.58603 10.7587 1.60128V4.33953C10.7587 4.37023 10.7709 4.39967 10.7926 4.42137C10.8143 4.44307 10.8437 4.45527 10.8744 4.45527H12.1829C12.9784 4.46089 13.5649 3.83166 13.5649 2.97378ZM15.0565 6.37553C15.0465 6.14608 15.094 5.91775 15.1947 5.71132C15.2953 5.50488 15.446 5.32687 15.633 5.19348C16.0099 4.90977 16.5993 4.76314 17.4645 4.7328L18.3858 4.70022V4.4283C18.3858 3.88335 18.0206 3.653 17.4341 3.653C16.8476 3.653 16.4757 3.86087 16.3903 4.20077C16.3833 4.22467 16.3686 4.24558 16.3485 4.26023C16.3283 4.27487 16.3039 4.28241 16.279 4.28167H15.3689C15.3521 4.28213 15.3355 4.27888 15.3201 4.27217C15.3048 4.26546 15.2911 4.25545 15.28 4.24284C15.269 4.23023 15.2608 4.21535 15.2562 4.19924C15.2516 4.18313 15.2505 4.1662 15.2532 4.14964C15.388 3.34401 16.0582 2.73164 17.4757 2.73164C18.9836 2.73164 19.528 3.4339 19.528 4.77437V7.6205C19.5277 7.65154 19.5151 7.6812 19.493 7.703C19.4709 7.72479 19.441 7.73694 19.41 7.73679H18.4926C18.4619 7.73671 18.4324 7.72461 18.4105 7.70309C18.3998 7.6923 18.3913 7.6795 18.3855 7.66543C18.3797 7.65135 18.3768 7.63628 18.3768 7.62106V7.40813C18.3772 7.39054 18.3722 7.37326 18.3625 7.35856C18.3528 7.34387 18.3389 7.33245 18.3226 7.32582C18.3063 7.31919 18.2883 7.31766 18.2712 7.32142C18.254 7.32518 18.2383 7.33406 18.2263 7.3469C17.951 7.64634 17.5066 7.86264 16.7948 7.86264C15.7476 7.86264 15.0565 7.31768 15.0565 6.37553V6.37553ZM18.3858 5.75866V5.53787L17.1925 5.6008C16.5639 5.63282 16.1981 5.89406 16.1981 6.33396C16.1981 6.73172 16.5335 6.95195 17.1195 6.95195C17.9156 6.95195 18.3858 6.52216 18.3858 5.75866V5.75866ZM20.4493 9.8874V9.06266C20.4495 9.04537 20.4535 9.02832 20.461 9.01273C20.4685 8.99715 20.4793 8.9834 20.4927 8.97246C20.5061 8.96153 20.5218 8.95367 20.5385 8.94945C20.5553 8.94524 20.5728 8.94476 20.5898 8.94805C20.7302 8.97446 20.8735 8.98794 21.0168 8.9885C21.2631 9.00048 21.5062 8.92949 21.7074 8.78689C21.9086 8.6443 22.0561 8.43833 22.1263 8.20197L22.1859 8.01208C22.1945 7.98658 22.1945 7.95893 22.1859 7.93343L20.2741 3.02322C20.2671 3.00541 20.2647 2.9862 20.2668 2.96723C20.269 2.94826 20.2757 2.93009 20.2864 2.91428C20.2971 2.89848 20.3115 2.88552 20.3284 2.8765C20.3452 2.86749 20.364 2.8627 20.383 2.86254H21.31C21.3337 2.86278 21.3568 2.87014 21.3762 2.88367C21.3957 2.8972 21.4106 2.91626 21.419 2.93838L22.7174 6.40137C22.7255 6.42438 22.7406 6.4443 22.7605 6.45839C22.7804 6.47248 22.8042 6.48004 22.8286 6.48004C22.853 6.48004 22.8768 6.47248 22.8967 6.45839C22.9166 6.4443 22.9317 6.42438 22.9398 6.40137L24.0674 2.94793C24.0752 2.92433 24.0903 2.9038 24.1105 2.88927C24.1306 2.87474 24.1549 2.86696 24.1798 2.86703H25.1388C25.158 2.86715 25.1769 2.87191 25.1938 2.88091C25.2108 2.88992 25.2254 2.90289 25.2362 2.91873C25.2471 2.93457 25.254 2.95281 25.2563 2.97188C25.2586 2.99095 25.2562 3.0103 25.2494 3.02827L23.2045 8.48119C22.7337 9.74863 21.9263 10.0728 21.0376 10.0728C20.869 10.0773 20.7005 10.0571 20.5375 10.0127C20.5105 10.0055 20.4868 9.98902 20.4706 9.96611C20.4545 9.94319 20.447 9.91532 20.4493 9.8874V9.8874ZM3.35069 0.000120983C2.13273 -0.00855649 0.957762 0.449851 0.0674766 1.28105C0.0294043 1.31591 0.00566925 1.3637 0.000892226 1.41511C-0.0038848 1.46651 0.010638 1.51785 0.0416334 1.55914L0.592768 2.31197C0.610635 2.33703 0.633777 2.35788 0.660566 2.37303C0.687356 2.38819 0.717141 2.3973 0.747828 2.39971C0.778515 2.40212 0.809357 2.39778 0.838184 2.38698C0.867011 2.37619 0.893124 2.35922 0.914684 2.33725C1.23481 2.0172 1.61551 1.76418 2.03454 1.59296C2.45358 1.42174 2.90254 1.33575 3.35518 1.34004C5.24511 1.34004 6.23221 2.76254 6.23221 4.16706C6.23221 5.69406 5.19511 6.76823 3.70463 6.78958C2.55292 6.78958 1.68492 6.02608 1.68492 5.01764C1.68612 4.76287 1.74384 4.51155 1.85391 4.28178C1.96399 4.05202 2.12367 3.84955 2.32145 3.68896C2.36327 3.65403 2.3897 3.60409 2.39505 3.54987C2.40041 3.49565 2.38427 3.4415 2.35011 3.39907L1.77088 2.66759C1.75336 2.64547 1.73159 2.62708 1.70685 2.61351C1.68211 2.59995 1.65491 2.59147 1.62684 2.58859C1.59877 2.58571 1.57041 2.58848 1.54343 2.59674C1.51645 2.60501 1.4914 2.61859 1.46975 2.63669C1.11402 2.92329 0.826959 3.28589 0.629614 3.69788C0.432269 4.10988 0.329649 4.56082 0.32928 5.01764C0.32928 6.75363 1.80459 8.11545 3.69452 8.12669H3.7198C5.96366 8.09748 7.58617 6.43564 7.58617 4.16425C7.58617 2.14735 6.10074 0.000120983 3.35125 0.000120983H3.35069Z" fill="var(--fill-0, white)"/>
</svg>
