<svg preserveAspectRatio="none" width="100%" height="100%" overflow="visible" style="display: block;" viewBox="0 0 20.0762 18.6667" fill="none" xmlns="http://www.w3.org/2000/svg">
<path id="WeChat" d="M7.30122 11.8078C7.2106 11.856 7.10861 11.8839 7.00016 11.8839C6.74915 11.8839 6.53099 11.7384 6.41644 11.523L6.37257 11.4219L4.54508 7.19573C4.52536 7.1498 4.51315 7.09779 4.51315 7.0472C4.51315 6.85242 4.66301 6.69464 4.84783 6.69464C4.92279 6.69464 4.99222 6.72083 5.04802 6.76454L7.20457 8.38271C7.36208 8.49122 7.55034 8.55492 7.75271 8.55492C7.87351 8.55492 7.98863 8.53124 8.09602 8.49004L18.2375 3.73335C16.4196 1.47562 13.4258 0 10.0379 0C4.49391 0 0 3.94676 0 8.81567C0 11.4717 1.35206 13.8629 3.46839 15.479C3.63812 15.6068 3.7493 15.8166 3.7493 16.0535C3.7493 16.1318 3.73337 16.2033 3.71393 16.278C3.5449 16.9424 3.27438 18.0065 3.26181 18.0564C3.24068 18.1398 3.20776 18.2269 3.20776 18.3141C3.20776 18.5089 3.35748 18.6667 3.54258 18.6667C3.61509 18.6667 3.67448 18.6382 3.73576 18.6011L5.9333 17.2639C6.0986 17.1635 6.27359 17.1011 6.46648 17.1011C6.56904 17.1011 6.66815 17.1179 6.76137 17.1479C7.78654 17.4587 8.89265 17.6313 10.038 17.6313C15.5816 17.6313 20.0762 13.6844 20.0762 8.81567C20.0762 7.34094 19.6615 5.9521 18.9327 4.73036L7.37479 11.7631L7.30122 11.8078Z" fill="var(--fill-0, #1AAD19)"/>
</svg>
