<svg preserveAspectRatio="none" width="100%" height="100%" overflow="visible" style="display: block;" viewBox="0 0 33.6762 13.4312" fill="none" xmlns="http://www.w3.org/2000/svg">
<path id="Shop Pay" d="M19.6934 3.96503C19.6934 5.95983 18.2948 7.38383 16.3405 7.38383H14.4992C14.4789 7.38383 14.4588 7.38785 14.44 7.39565C14.4212 7.40345 14.4042 7.41488 14.3899 7.42929C14.3755 7.4437 14.3642 7.4608 14.3565 7.47961C14.3488 7.49842 14.3448 7.51856 14.3449 7.53889V10.1607C14.3449 10.2017 14.3287 10.241 14.2998 10.27C14.2709 10.2991 14.2316 10.3155 14.1906 10.3157H12.9022C12.8716 10.3156 12.8417 10.3064 12.8162 10.2894C12.7908 10.2723 12.7709 10.2481 12.7591 10.2198C12.7514 10.2013 12.7473 10.1815 12.7472 10.1614V0.70055C12.7471 0.680222 12.751 0.660076 12.7587 0.641268C12.7664 0.622459 12.7777 0.60536 12.7921 0.590951C12.8064 0.576543 12.8235 0.565109 12.8422 0.557308C12.861 0.549506 12.8811 0.54549 12.9015 0.54549H16.3487C18.2948 0.543243 19.6934 1.96724 19.6934 3.96503V3.96503ZM18.0866 3.96503C18.0866 2.8182 17.3045 1.97998 16.2438 1.97998H14.4992C14.4789 1.97998 14.4588 1.98399 14.44 1.99179C14.4212 1.99959 14.4042 2.01103 14.3899 2.02544C14.3755 2.03985 14.3642 2.05695 14.3565 2.07575C14.3488 2.09456 14.3448 2.11471 14.3449 2.13504V5.78604C14.3449 5.82697 14.3612 5.86622 14.3901 5.89516C14.4191 5.9241 14.4583 5.94036 14.4992 5.94036H16.2438C17.3045 5.94785 18.0866 5.10888 18.0866 3.96503ZM20.0754 8.50071C20.062 8.19477 20.1253 7.89034 20.2595 7.61509C20.3938 7.33984 20.5946 7.1025 20.8439 6.92465C21.3466 6.54636 22.1324 6.35085 23.2859 6.3104L24.5144 6.26695V5.9044C24.5144 5.17779 24.0275 4.87067 23.2455 4.87067C22.4634 4.87067 21.9676 5.14783 21.8537 5.60102C21.8444 5.63289 21.8248 5.66078 21.798 5.6803C21.7711 5.69983 21.7386 5.70988 21.7054 5.70889H20.4919C20.4695 5.7095 20.4473 5.70518 20.4268 5.69623C20.4064 5.68728 20.3881 5.67393 20.3734 5.65712C20.3586 5.64031 20.3478 5.62046 20.3416 5.59899C20.3354 5.57751 20.334 5.55493 20.3376 5.53286C20.5173 4.45868 21.411 3.64218 23.3009 3.64218C25.3114 3.64218 26.0373 4.57853 26.0373 6.36583V10.1607C26.0369 10.2021 26.0201 10.2416 25.9907 10.2707C25.9612 10.2997 25.9214 10.3159 25.88 10.3157H24.6568C24.6158 10.3156 24.5766 10.2995 24.5474 10.2708C24.5331 10.2564 24.5217 10.2393 24.514 10.2206C24.5063 10.2018 24.5024 10.1817 24.5024 10.1614V9.87751C24.5029 9.85405 24.4962 9.83101 24.4833 9.81141C24.4704 9.79182 24.4518 9.7766 24.4301 9.76776C24.4084 9.75892 24.3845 9.75687 24.3615 9.76189C24.3386 9.76691 24.3177 9.77875 24.3017 9.79586C23.9346 10.1951 23.3421 10.4835 22.393 10.4835C20.9968 10.4835 20.0754 9.75691 20.0754 8.50071V8.50071ZM24.5144 7.67822V7.38383L22.9234 7.46773C22.0852 7.51042 21.5975 7.85875 21.5975 8.44528C21.5975 8.97562 22.0447 9.26926 22.826 9.26926C23.8874 9.26926 24.5144 8.69622 24.5144 7.67822V7.67822ZM27.2658 13.1832V12.0835C27.266 12.0605 27.2713 12.0378 27.2813 12.017C27.2913 11.9962 27.3058 11.9779 27.3236 11.9633C27.3415 11.9487 27.3624 11.9382 27.3847 11.9326C27.4071 11.927 27.4304 11.9263 27.4531 11.9307C27.6403 11.9659 27.8313 11.9839 28.0224 11.9847C28.3507 12.0006 28.675 11.906 28.9432 11.7159C29.2114 11.5257 29.4081 11.2511 29.5018 10.936L29.5812 10.6828C29.5927 10.6488 29.5927 10.6119 29.5812 10.5779L27.0321 4.03095C27.0229 4.00722 27.0195 3.9816 27.0224 3.95631C27.0253 3.93101 27.0342 3.90678 27.0485 3.88571C27.0628 3.86464 27.082 3.84736 27.1045 3.83534C27.1269 3.82332 27.1519 3.81693 27.1774 3.81672H28.4134C28.445 3.81704 28.4757 3.82686 28.5016 3.8449C28.5275 3.86293 28.5474 3.88835 28.5587 3.91784L30.2898 8.53516C30.3007 8.56584 30.3207 8.5924 30.3473 8.61118C30.3739 8.62997 30.4056 8.64006 30.4381 8.64006C30.4707 8.64006 30.5024 8.62997 30.529 8.61118C30.5555 8.5924 30.5756 8.56584 30.5865 8.53516L32.0899 3.93058C32.1003 3.8991 32.1204 3.87173 32.1473 3.85236C32.1742 3.83298 32.2065 3.82261 32.2397 3.82271H33.5183C33.544 3.82287 33.5692 3.82922 33.5918 3.84122C33.6144 3.85322 33.6338 3.87052 33.6483 3.89164C33.6628 3.91276 33.672 3.93707 33.675 3.96251C33.6781 3.98794 33.675 4.01374 33.6659 4.0377L30.9393 11.3083C30.3115 12.9982 29.2351 13.4304 28.0501 13.4304C27.8254 13.4364 27.6006 13.4094 27.3834 13.3502C27.3473 13.3407 27.3157 13.3187 27.2942 13.2881C27.2727 13.2576 27.2626 13.2204 27.2658 13.1832V13.1832ZM4.46758 0.00016131C2.84364 -0.0114086 1.27702 0.599801 0.0899688 1.70806C0.0392057 1.75455 0.007559 1.81827 0.00118963 1.88681C-0.00517973 1.95535 0.014184 2.02381 0.0555112 2.07885L0.790357 3.08262C0.81418 3.11604 0.845036 3.14383 0.880755 3.16405C0.916474 3.18426 0.956189 3.1964 0.997104 3.19961C1.03802 3.20282 1.07914 3.19703 1.11758 3.18265C1.15602 3.16826 1.19083 3.14562 1.21958 3.11633C1.64641 2.68961 2.15401 2.35224 2.71273 2.12394C3.27144 1.89565 3.87005 1.781 4.47358 1.78671C6.99348 1.78671 8.30961 3.68338 8.30961 5.55608C8.30961 7.59207 6.92681 9.02431 4.9395 9.05278C3.40389 9.05278 2.24657 8.03478 2.24657 6.69018C2.24817 6.3505 2.32512 6.0154 2.47189 5.70905C2.61865 5.4027 2.83156 5.13273 3.09527 4.91861C3.15102 4.87204 3.18626 4.80545 3.19341 4.73316C3.20055 4.66087 3.17903 4.58867 3.13348 4.53209L2.36118 3.55679C2.33782 3.52729 2.30879 3.50278 2.27581 3.48468C2.24282 3.46659 2.20654 3.45529 2.16912 3.45145C2.13169 3.44761 2.09388 3.45131 2.0579 3.46233C2.02193 3.47334 1.98853 3.49145 1.95967 3.51559C1.48536 3.89772 1.10261 4.38118 0.839485 4.93051C0.576359 5.47983 0.439532 6.08109 0.439039 6.69018C0.439039 9.00484 2.40612 10.8206 4.92602 10.8356H4.95973C7.95155 10.7966 10.1149 8.58086 10.1149 5.55233C10.1149 2.86314 8.13432 0.00016131 4.46833 0.00016131H4.46758Z" fill="var(--fill-0, white)"/>
</svg>
