<svg width="20" height="20" viewBox="0 0 20 20" fill="none" xmlns="http://www.w3.org/2000/svg">
<g clip-path="url(#clip0_1782_16023)">
<g clip-path="url(#clip1_1782_16023)">
<path d="M9.99935 1.66602L11.676 6.02525C11.911 6.63628 12.0285 6.94179 12.2112 7.19877C12.3732 7.42653 12.5722 7.62553 12.7999 7.78748C13.0569 7.9702 13.3624 8.08771 13.9734 8.32272L18.3327 9.99935L13.9734 11.676C13.3624 11.911 13.0569 12.0285 12.7999 12.2112C12.5722 12.3732 12.3732 12.5722 12.2112 12.7999C12.0285 13.0569 11.911 13.3624 11.676 13.9734L9.99935 18.3327L8.32272 13.9734C8.08771 13.3624 7.9702 13.0569 7.78748 12.7999C7.62553 12.5722 7.42653 12.3732 7.19877 12.2112C6.94179 12.0285 6.63628 11.911 6.02525 11.676L1.66602 9.99935L6.02525 8.32272C6.63628 8.08771 6.94179 7.97021 7.19877 7.78748C7.42653 7.62553 7.62552 7.42653 7.78748 7.19877C7.9702 6.94179 8.08771 6.63628 8.32272 6.02525L9.99935 1.66602Z" stroke="white" stroke-width="1.5" stroke-linecap="round" stroke-linejoin="round"/>
</g>
</g>
<defs>
<clipPath id="clip0_1782_16023">
<rect width="20" height="20" fill="white"/>
</clipPath>
<clipPath id="clip1_1782_16023">
<rect width="20" height="20" fill="white"/>
</clipPath>
</defs>
</svg>
