<svg preserveAspectRatio="none" width="100%" height="100%" overflow="visible" style="display: block;" viewBox="0 0 34.3242 12.5732" fill="none" xmlns="http://www.w3.org/2000/svg">
<path id="Bitpay" d="M30.6084 2.97949L30.252 4.54199L29.7109 6.89746C29.6618 7.0937 29.6305 7.27683 29.6182 7.44727C29.6058 7.61812 29.6263 7.76606 29.6797 7.88965C29.733 8.01334 29.825 8.10958 29.9561 8.17773C30.087 8.24609 30.2676 8.27926 30.4971 8.2793C30.6938 8.2793 30.8849 8.26008 31.0693 8.22168C31.1675 8.20121 31.2669 8.17552 31.3662 8.14648L31.5078 7.52246H31.5059L32.543 2.98438H34.3242L34.0889 4.01172C34.0903 4.01238 34.0922 4.01292 34.0938 4.01367L32.8613 9.4082C32.7417 9.948 32.5839 10.415 32.3887 10.8096C32.1931 11.2038 31.9494 11.5323 31.6582 11.7939C31.367 12.0557 31.0182 12.2511 30.6113 12.3799C30.2045 12.5085 29.7298 12.5732 29.1875 12.5732C28.8972 12.5732 28.6336 12.5564 28.3965 12.5244L28.7471 10.9883C28.9265 11.0141 29.1248 11.0283 29.3428 11.0283C29.853 11.0283 30.2376 10.9095 30.4971 10.6729C30.7238 10.4659 30.876 10.208 30.9639 9.89648L30.999 9.75586C30.9877 9.75878 30.9764 9.76192 30.9648 9.76465C30.6779 9.83294 30.3377 9.86718 29.9443 9.86719C29.3789 9.86719 28.9403 9.77915 28.6289 9.60449C28.3173 9.42969 28.0959 9.19068 27.9648 8.8877C27.8336 8.585 27.7764 8.23721 27.793 7.84473C27.8093 7.45226 27.8665 7.03774 27.9648 6.60254L28.7881 2.97949H30.6084ZM18.2256 2.98438C18.6756 2.98438 19.0641 3.05515 19.3896 3.19727C19.7153 3.33968 19.9832 3.53446 20.1924 3.78125C20.4014 4.02833 20.5565 4.31786 20.6572 4.64844C20.7575 4.97916 20.8076 5.33258 20.8076 5.70898C20.8076 6.32027 20.7106 6.87935 20.5176 7.38574C20.3247 7.89242 20.0575 8.33004 19.7158 8.69824C19.3738 9.06682 18.9637 9.3535 18.4854 9.55859C18.0068 9.7636 17.4858 9.86621 16.9229 9.86621C16.6494 9.8662 16.3758 9.84129 16.1025 9.79102L15.5596 12.0645H13.7744L15.8467 2.98438C16.1481 2.98419 17.7425 2.98437 18.2256 2.98438ZM8.34375 9.86816H6.5625L8.13477 2.98047H9.91699L8.34375 9.86816ZM12.7891 2.98145H14.8301L14.4619 4.54297H12.4326L11.8916 6.89844C11.8424 7.09486 11.8121 7.27865 11.7998 7.44922C11.7876 7.61991 11.8079 7.76707 11.8613 7.89062C11.9145 8.01435 12.0065 8.11051 12.1377 8.17871C12.2686 8.2471 12.4492 8.28124 12.6787 8.28125C12.8754 8.28125 13.0666 8.26203 13.251 8.22363C13.3715 8.19856 13.4966 8.1692 13.6211 8.125L13.25 9.74023C13.221 9.74755 13.1761 9.75854 13.1465 9.76562C12.8596 9.83381 12.5192 9.86814 12.126 9.86816C11.5603 9.86816 11.1209 9.78028 10.8096 9.60547C10.4982 9.43068 10.2765 9.19154 10.1455 8.88867C10.0145 8.58596 9.95706 8.23812 9.97363 7.8457C9.98995 7.45349 10.0472 7.03951 10.1455 6.60449L11.3506 1.30469L13.2568 0.998047L12.7891 2.98145ZM3.2002 3.21777C3.35995 3.14291 3.51088 3.08963 3.6709 3.04785C3.83064 3.00628 4.00262 2.98538 4.18652 2.98535C4.5704 2.98535 4.90255 3.05581 5.18262 3.19727C5.46242 3.33886 5.69487 3.5301 5.87891 3.77148C6.06273 4.01304 6.19805 4.29637 6.28613 4.62109C6.374 4.9457 6.41794 5.29545 6.41797 5.66992C6.41797 6.24433 6.3162 6.78782 6.1123 7.2998C5.90832 7.81189 5.6302 8.25784 5.27832 8.63672C4.92634 9.01556 4.51103 9.3157 4.03125 9.53613C3.5515 9.75667 3.03133 9.86715 2.47168 9.86719C2.39976 9.86719 2.27359 9.8644 2.09375 9.86035C1.91379 9.85601 1.70746 9.83789 1.47559 9.80469C1.2437 9.77131 0.997958 9.72086 0.738281 9.6543C0.478203 9.58779 0.231895 9.49658 0 9.37988L2.0752 0.299805L3.93555 0L3.2002 3.21777ZM26.8516 6.86035C26.7396 7.33452 26.7069 7.81084 26.7549 8.28906C26.8029 8.76748 26.9791 9.50035 27.1504 9.86719H25.4268C25.2163 9.49665 25.2253 9.32266 25.1855 9.20605C24.9618 9.39741 24.7138 9.555 24.4424 9.67969C24.1709 9.8043 23.8676 9.86714 23.5322 9.86719C23.1329 9.86719 22.7912 9.79373 22.5078 9.64844C22.2242 9.503 21.9922 9.30778 21.8125 9.0625C21.6327 8.8173 21.5025 8.52977 21.4229 8.20117C21.3429 7.87281 21.3027 7.52154 21.3027 7.14746C21.3027 6.57358 21.4008 6.03267 21.5967 5.52539C21.7923 5.01837 22.0638 4.57563 22.4111 4.19727C22.7586 3.81888 23.5975 2.98446 24.9736 2.98438H27.7373L26.8516 6.86035ZM16.4287 8.28418C16.5654 8.31772 16.7345 8.33398 16.9355 8.33398C17.2491 8.33394 17.5345 8.27372 17.792 8.15234C18.0492 8.03103 18.2683 7.86135 18.4492 7.64355C18.6302 7.42591 18.7704 7.16416 18.8711 6.8584C18.9715 6.55285 19.0225 6.21611 19.0225 5.84766C19.0225 5.48774 18.9457 5.1818 18.793 4.93066C18.6401 4.67952 18.372 4.54653 17.9941 4.54492C17.7299 4.54388 17.291 4.54297 17.291 4.54297L16.4287 8.28418ZM3.71289 4.54297C3.60095 4.54299 3.48528 4.55518 3.30566 4.59668C3.12576 4.63846 2.97003 4.72438 2.82617 4.85742L2.04395 8.28418C2.2748 8.32626 2.35507 8.33104 2.41113 8.33105H2.62695C2.90679 8.33105 3.17101 8.25977 3.41895 8.11816C3.66678 7.97665 3.88156 7.78707 4.06152 7.5498C4.24124 7.31255 4.38334 7.04368 4.4873 6.74414C4.59104 6.44457 4.64258 6.13226 4.64258 5.80762C4.64257 5.40811 4.57898 5.09579 4.45117 4.87109C4.32313 4.64618 4.05661 4.54297 3.71289 4.54297ZM25.5869 4.54297C24.7563 4.54297 24.5972 4.54376 24.2568 4.72754C24.0153 4.85791 23.8152 5.05361 23.6396 5.28223C23.4639 5.51095 23.3263 5.77497 23.2266 6.07422C23.1266 6.37365 23.0762 6.68553 23.0762 7.00977C23.0762 7.40889 23.1406 7.72527 23.2686 7.95801C23.3961 8.19094 23.632 8.30762 23.9756 8.30762C24.1591 8.30757 24.3249 8.27017 24.4727 8.19531C24.6204 8.1205 24.7786 7.9959 24.9463 7.82129C24.9622 7.61356 24.9875 7.39488 25.0234 7.16602C25.0593 6.9375 25.1055 6.72565 25.1455 6.53418L25.5869 4.54297ZM10.1016 2.18359H8.31934L8.59277 0.987305H10.374L10.1016 2.18359Z" fill="var(--fill-0, #002855)"/>
</svg>
