<svg preserveAspectRatio="none" width="100%" height="100%" overflow="visible" style="display: block;" viewBox="0 0 15.0569 15.8435" fill="none" xmlns="http://www.w3.org/2000/svg">
<path id="Qiwi" d="M6.86523 0C10.6631 0 13.7305 3.15779 13.7305 7.06738C13.7305 8.38298 13.3654 9.62327 12.7812 10.6758C12.7447 10.7134 12.708 10.7138 12.708 10.6387C12.4524 8.90954 11.4303 7.96975 9.96973 7.66895C9.82369 7.63136 9.82339 7.5557 10.0059 7.55566C10.4806 7.51807 11.1016 7.51857 11.4668 7.59375C11.5033 7.40581 11.5029 7.21775 11.5029 7.06738C11.5029 4.51111 9.45785 2.40625 6.97461 2.40625C4.49154 2.40645 2.44629 4.51123 2.44629 7.06738C2.44631 9.62351 4.49155 11.7283 6.97461 11.7285H7.19434C7.12132 11.3151 7.08458 10.9012 7.12109 10.4502C7.12117 10.1499 7.19421 10.1124 7.30371 10.3379C7.92447 11.4655 8.83728 12.4429 10.5898 12.8564C12.0141 13.1948 13.4385 13.5711 15.0088 15.5635C15.1546 15.7513 14.9361 15.9389 14.79 15.7891C13.2198 14.3606 11.7951 13.8711 10.4805 13.8711C8.83729 13.9087 7.85118 14.0967 6.86523 14.0967C3.06744 14.0966 2.1464e-05 10.9393 0 7.06738C0 3.19544 3.06743 0.00010216 6.86523 0ZM10.335 11.127C10.4809 11.1271 10.6633 11.2024 10.8457 11.3525C11.1378 11.6157 11.2476 11.917 11.1016 12.1426C11.0285 12.2552 10.8461 12.3299 10.7002 12.3301C10.5176 12.3301 10.3342 12.2554 10.2246 12.1426C9.93256 11.8794 9.85944 11.5029 10.042 11.2773C10.0786 11.2022 10.1889 11.127 10.335 11.127ZM11.832 9.96191C12.0876 10.0748 12.1973 10.4507 12.1973 10.6387C12.2338 10.9394 12.1603 11.0898 12.0508 11.0898C11.9413 11.0897 11.7954 10.9768 11.6494 10.7139C11.5034 10.4508 11.43 10.1875 11.5029 10.0371C11.6125 9.96192 11.7225 9.92432 11.832 9.96191Z" fill="var(--fill-0, #F28A1A)"/>
</svg>
