<svg preserveAspectRatio="none" width="100%" height="100%" overflow="visible" style="display: block;" viewBox="0 0 39.6667 13.0319" fill="none" xmlns="http://www.w3.org/2000/svg">
<path id="visa-logo" fill-rule="evenodd" clip-rule="evenodd" d="M9.91708 12.9304H6.48418L3.90993 2.82063C3.78774 2.35558 3.52831 1.94444 3.14669 1.75067C2.19431 1.26372 1.14486 0.876177 0 0.680721V0.291494H5.53013C6.29337 0.291494 6.8658 0.876177 6.96121 1.55522L8.29688 8.84775L11.7281 0.291494H15.0656L9.91708 12.9304ZM16.9737 12.9304H13.7316L16.4013 0.291494H19.6434L16.9737 12.9304ZM23.8378 3.79286C23.9332 3.11213 24.5057 2.7229 25.1735 2.7229C26.223 2.62518 27.3661 2.82063 28.3202 3.3059L28.8926 0.584683C27.9386 0.195456 26.8891 0 25.9367 0C22.7901 0 20.5003 1.75068 20.5003 4.1804C20.5003 6.02881 22.1222 6.99934 23.2671 7.58403C24.5057 8.16703 24.9827 8.55625 24.8873 9.13925C24.8873 10.0137 23.9332 10.403 22.9809 10.403C21.836 10.403 20.6911 10.1115 19.6434 9.62452L19.0709 12.3474C20.2158 12.8327 21.4544 13.0282 22.5992 13.0282C26.1276 13.1242 28.3202 11.3752 28.3202 8.75002C28.3202 5.44412 23.8378 5.25035 23.8378 3.79286V3.79286ZM39.6667 12.9304L37.0924 0.291494H34.3273C33.7549 0.291494 33.1825 0.680721 32.9917 1.26372L28.2248 12.9304H31.5623L32.2284 11.0837H36.3292L36.7108 12.9304H39.6667ZM34.8044 3.69514L35.7567 8.45854H33.0871L34.8044 3.69514Z" fill="var(--fill-0, #172B85)"/>
</svg>
