<svg preserveAspectRatio="none" width="100%" height="100%" overflow="visible" style="display: block;" viewBox="0 0 1100 146" fill="none" xmlns="http://www.w3.org/2000/svg">
<g id="Line background" opacity="0.1" style="mix-blend-mode:multiply">
<path d="M24.9292 35.7894L0 39V146H1100V0L1076.63 5.33233H1051.7L1040.01 10.3253H1024.43C1020.28 11.1574 1011.66 12.8218 1010.41 12.8218C1009.16 12.8218 1001.06 13.8204 997.167 14.3197L963.669 15.8175L944.193 17.8147L913.031 15.8175L896.671 14.3197L873.3 17.8147H849.15L828.895 14.3197C821.105 13.8204 805.212 12.8218 803.966 12.8218C802.72 12.8218 792.54 11.8232 787.606 11.3239H775.142L745.538 12.8218L719.83 14.3197L708.144 17.8147L673.088 19.3126L655.17 20.8105L634.915 23.307L615.439 29.2985H606.87L583.499 27.8006L560.906 23.307L541.431 20.8105H529.745L509.49 19.3126L480.666 20.8105H453.399L426.133 23.307L398.867 26.3028L378.612 29.2985L356.799 30.7964L327.195 29.2985L303.824 30.7964L280.453 32.2943L258.64 30.7964L229.037 34.2915L204.108 32.2943L179.178 34.2915H155.028L129.32 35.7894H102.833L76.3456 37.2873L50.6374 34.2915L24.9292 35.7894Z" fill="url(#paint0_linear_1560_43028)"/>
</g>
<defs>
<linearGradient id="paint0_linear_1560_43028" x1="550" y1="0" x2="550" y2="139.5" gradientUnits="userSpaceOnUse">
<stop stop-color="#7F56D9"/>
<stop offset="1" stop-color="#7F56D9" stop-opacity="0"/>
</linearGradient>
</defs>
</svg>
