<svg preserveAspectRatio="none" width="100%" height="100%" overflow="visible" style="display: block;" viewBox="0 0 37.2637 22.333" fill="none" xmlns="http://www.w3.org/2000/svg">
<g id="Mastercard">
<path id="Left" d="M25.9619 0C32.2034 0 37.2637 4.99981 37.2637 11.167C37.2635 17.334 32.2033 22.333 25.9619 22.333C23.1635 22.333 20.6046 21.3259 18.6309 19.6611C16.6572 21.3255 14.0989 22.333 11.3008 22.333C5.05961 22.3328 0.00017891 17.3339 0 11.167C0 4.99993 5.0595 0.00019556 11.3008 0C14.0986 0 16.6573 1.00689 18.6309 2.6709C20.6045 1.00648 23.1638 4.4979e-05 25.9619 0Z" fill="var(--fill-0, #ED0006)"/>
<path id="Right" d="M25.9617 0C32.2031 0 37.2635 4.99981 37.2635 11.167C37.2633 17.334 32.203 22.333 25.9617 22.333C23.1638 22.3329 20.6052 21.3263 18.6316 19.6621C21.0604 17.614 22.6022 14.5693 22.6023 11.167C22.6023 7.7645 21.0606 4.71906 18.6316 2.6709C20.6052 1.00675 23.1639 9.56555e-05 25.9617 0Z" fill="var(--fill-0, #F9A000)"/>
<path id="Middle" d="M18.6308 2.67055C21.0601 4.71872 22.6024 7.76384 22.6024 11.1666C22.6024 14.5692 21.0598 17.6136 18.6308 19.6618C16.2023 17.6136 14.661 14.5687 14.661 11.1666C14.661 7.76434 16.202 4.71871 18.6308 2.67055Z" fill="var(--fill-0, #FF5E00)"/>
</g>
</svg>
