<svg preserveAspectRatio="none" width="100%" height="100%" overflow="visible" style="display: block;" viewBox="0 0 22.8 19.3332" fill="none" xmlns="http://www.w3.org/2000/svg">
<path id="DinersClub" d="M12.9221 0.00119222C18.3251 -0.082858 22.7153 4.28806 22.8 9.66721V9.75119C22.6311 15.0465 18.3253 19.3332 12.9221 19.3332H9.46113C4.22683 19.2491 0.0050715 14.9624 0.0050715 9.75119C-0.163466 4.54023 3.88957 0.169392 9.03925 0.00119222H12.9221ZM9.71406 1.68283C5.32424 1.68303 1.6938 5.29679 1.69355 9.66721C1.69355 14.0378 5.32409 17.6524 9.71406 17.6526C14.1042 17.6526 17.7346 14.038 17.7346 9.66721C17.7343 5.29666 14.104 1.68283 9.71406 1.68283ZM8.44745 15.0471C5.49274 14.2905 3.71988 11.2642 4.47968 8.32248C4.98622 6.38944 6.50588 4.8767 8.44745 4.37229V15.0471ZM10.9807 4.37229C13.9354 5.12876 15.7929 8.07025 15.0334 11.0119C14.5268 13.0292 13.0069 14.5428 10.9807 15.0471V4.37229Z" fill="var(--fill-0, #0079BE)"/>
</svg>
