<svg preserveAspectRatio="none" width="100%" height="100%" overflow="visible" style="display: block;" viewBox="0 0 19.3145 22.6564" fill="none" xmlns="http://www.w3.org/2000/svg">
<path id="Sofort" d="M1.61523 17.6564C2.1914 17.6564 2.72499 17.9342 2.96191 18.4719L2.20215 18.965C2.05683 18.7213 1.8579 18.5609 1.58887 18.5607C1.2712 18.5607 1.07133 18.782 1.07129 19.0647C1.07129 19.4027 1.36224 19.5081 1.8252 19.6467C2.55207 19.8684 3.14443 20.2398 3.14453 21.0988C3.14453 22.0245 2.44468 22.6564 1.5293 22.6564C0.88864 22.6564 0.339254 22.3576 0 21.8811L0.629883 21.2316C0.818348 21.4811 1.1308 21.7531 1.54004 21.7531C1.92223 21.7531 2.18636 21.5205 2.18652 21.1438C2.18652 20.7446 1.8738 20.6443 1.38379 20.5002C0.484709 20.2286 0.118223 19.7466 0.118164 19.1203C0.118164 18.3332 0.699937 17.6565 1.61523 17.6564ZM5.22852 19.1203C6.19772 19.1204 6.9834 19.9189 6.9834 20.8889C6.98316 21.8587 6.19757 22.6564 5.22852 22.6564C4.25941 22.6564 3.47289 21.8587 3.47266 20.8889C3.47266 19.9188 4.25926 19.1203 5.22852 19.1203ZM11.248 19.1203C12.2173 19.1203 13.0039 19.9188 13.0039 20.8889C13.0037 21.8587 12.2172 22.6564 11.248 22.6564C10.2792 22.6562 9.4934 21.8586 9.49316 20.8889C9.49316 19.919 10.279 19.1206 11.248 19.1203ZM18.7012 21.3596C19.0403 21.3596 19.3144 21.6478 19.3145 21.9914C19.3145 22.3406 19.035 22.6232 18.7012 22.6232C18.3619 22.6232 18.0869 22.3406 18.0869 21.9914C18.087 21.6422 18.362 21.3596 18.7012 21.3596ZM16.7246 18.6652C16.7246 19.1198 17.0857 19.4637 17.5811 19.4748V20.3674C17.2149 20.3674 16.9292 20.2561 16.7246 20.0344V20.8557C16.7248 21.4429 17.097 21.7033 17.6084 21.6867V22.5734H17.4736C16.3536 22.5734 15.8096 21.8083 15.8096 20.9104V18.1389H16.7246V18.6652ZM9.25098 18.6047C8.73954 18.5825 8.36736 18.8485 8.36719 19.4357V19.7961C8.57177 19.5744 8.86296 19.4641 9.22363 19.4641V20.3615C8.7176 20.3727 8.36721 20.7056 8.36719 21.1711V22.5676H7.45215V19.3811C7.45215 18.4831 8.00157 17.718 9.11621 17.718H9.25098V18.6047ZM15.2812 20.1731C14.7323 20.1732 14.415 20.4841 14.415 21.0383V22.5676H13.499V19.2141H14.3877V19.5969C14.5707 19.2921 14.8668 19.1477 15.2812 19.1643V20.1731ZM5.22852 20.007C4.75466 20.007 4.3877 20.39 4.3877 20.8889C4.38791 21.3931 4.76018 21.7697 5.22852 21.7697C5.69669 21.7695 6.06814 21.3874 6.06836 20.8889C6.06836 20.3901 5.69683 20.0072 5.22852 20.007ZM11.248 20.007C10.7798 20.0073 10.4082 20.3901 10.4082 20.8889C10.4084 21.3929 10.7799 21.7695 11.248 21.7697C11.7218 21.7697 12.0887 21.3875 12.0889 20.8889C12.0889 20.39 11.7165 20.007 11.248 20.007ZM11.8516 1.09981C12.0508 0.312688 12.832 -0.153453 13.6074 0.0460976C14.302 0.256707 14.716 0.982818 14.5654 1.70332L13.3125 8.12715L13.8496 8.25606C14.0057 8.27823 14.2105 8.37751 14.4043 8.58809C14.7543 8.97054 14.9211 9.60811 14.8457 10.5393C14.6071 13.4865 13.2149 15.4276 10.0469 15.4602C10.0216 15.4675 9.99538 15.4728 9.96777 15.4729C7.62931 15.4729 5.64586 13.715 5.58594 11.2053L5.05664 10.6613C4.40509 9.99062 4.30288 9.05353 4.8252 8.49922L4.87891 8.43868C5.10304 8.20239 5.39769 8.07288 5.69922 8.05586C5.33536 7.31747 5.44882 6.50736 6.01465 6.11055L6.0957 6.05489C6.71683 5.68456 7.25207 5.83072 7.71094 6.30196L7.18262 1.83711C7.00496 1.06123 7.46817 0.207413 8.17871 0.051957C8.53949 -0.0256466 8.92256 0.0463969 9.22949 0.257035C9.53624 0.467646 9.75127 0.794681 9.82129 1.16036L10.7158 5.09981L11.8516 1.09981ZM10.2422 8.01192C10.0592 7.97867 9.8705 7.97316 9.69824 8.01192C9.43439 8.07289 9.26682 8.2227 9.18066 8.51094C9.06538 8.90673 9.07746 9.20721 9.3252 9.44844C9.38169 9.4715 9.42704 9.51029 9.45898 9.55879C9.62891 9.67544 9.86836 9.77695 10.1934 9.86836L12.4277 10.384C12.7993 10.4727 12.6811 11.0439 12.3096 10.9719L12.2393 10.9611C11.9595 10.9335 11.6421 10.955 11.3516 11.0656C10.8078 11.2762 10.468 11.7588 10.4248 12.6564C10.414 12.8227 10.2796 12.9451 10.1182 12.9397C9.95662 12.9286 9.83298 12.7895 9.84375 12.6232C9.88691 11.6315 10.2634 10.9832 10.8662 10.634L10.0537 10.4397C9.77224 10.3611 9.53588 10.2663 9.33887 10.1604C9.2444 10.3133 9.12347 10.448 8.97656 10.551L8.91211 10.5949C8.87497 10.6208 8.83646 10.6438 8.79785 10.6652C9.0592 11.1681 8.99059 11.8039 8.58887 12.2356L8.5293 12.2971C8.02311 12.8289 7.19898 12.8398 6.67676 12.3244L6.24219 11.8781C6.59079 13.6397 8.09348 14.8284 9.86816 14.8713C9.87939 14.8699 9.89075 14.8684 9.90234 14.8684C12.8208 14.8961 14.0487 13.2113 14.2695 10.4953C14.3341 9.71928 14.2047 9.24769 13.9785 8.99825C13.9194 8.93749 13.8604 8.89345 13.8066 8.87129L13.7422 8.84883L10.3496 8.03438C10.3335 8.02885 10.2959 8.02296 10.2422 8.01192ZM6.15039 8.78145C5.88796 8.59138 5.52322 8.61813 5.29883 8.85957L5.24512 8.9211C4.96517 9.22037 5.02401 9.78529 5.4707 10.2453L7.08594 11.8918C7.37129 12.18 7.82936 12.1747 8.10938 11.8811L8.16309 11.8195C8.42586 11.5437 8.43396 11.1147 8.19824 10.8244C7.77444 10.8299 7.35559 10.6238 7.09668 10.2346L6.15039 8.78145ZM7.56543 7.05879C7.19388 6.49894 6.83312 6.30479 6.40234 6.55977L6.34375 6.60371C6.01 6.842 5.96627 7.40732 6.31055 7.95039L7.58203 9.89668C7.80821 10.2401 8.26001 10.3285 8.59375 10.0959L8.65918 10.0568C8.74924 9.9961 8.82096 9.91094 8.87402 9.81465C8.55766 9.47925 8.47892 9.06702 8.56543 8.59493L7.91699 7.59883C7.8994 7.57863 7.88472 7.55605 7.87305 7.53145L7.56543 7.05879ZM13.4512 0.623246C12.999 0.506868 12.5361 0.788997 12.4121 1.25996L10.9639 6.37129C10.9207 6.53195 10.7586 6.6207 10.6025 6.57637C10.4803 6.54163 10.4015 6.43183 10.3936 6.30879L9.25098 1.28243C9.20792 1.06633 9.08383 0.878011 8.90625 0.756059C8.7286 0.63414 8.50781 0.595554 8.29785 0.639848C7.92093 0.722992 7.64085 1.24357 7.75391 1.70918L7.75879 1.74239L8.41211 7.28145L8.82324 7.91426C9.00247 7.65748 9.2594 7.49605 9.56836 7.42403C9.82671 7.36862 10.0908 7.37485 10.3438 7.41914C10.4191 7.43023 10.4736 7.4468 10.4951 7.45235L12.7451 7.99141L13.9951 1.58223C14.0813 1.16099 13.8388 0.745231 13.4512 0.623246Z" fill="var(--fill-0, white)"/>
</svg>
