<svg preserveAspectRatio="none" width="100%" height="100%" overflow="visible" style="display: block;" viewBox="0 0 24.1035 15.1043" fill="none" xmlns="http://www.w3.org/2000/svg">
<g id="Webmoney">
<path id="Webmoney-watermark" d="M22.9365 13.3941H22.9678L23.5537 11.5533H24.1035L23.1729 14.0543C22.9159 14.7444 22.6022 15.1041 22.0117 15.1041V14.6949C22.361 14.6949 22.5767 14.4241 22.7002 14.0543L21.7139 11.5533H22.2793L22.9365 13.3941ZM5.50391 11.4683C6.14587 11.4684 6.54102 11.874 6.54102 12.689V12.8736H4.86621C4.86621 13.4737 5.11825 13.7388 5.64746 13.7388C5.9249 13.7388 6.18223 13.6441 6.46484 13.4791V13.8589C6.23366 13.9892 5.92472 14.0894 5.55469 14.0894C4.69181 14.0893 4.33697 13.569 4.33691 12.7789C4.33691 12.0188 4.73321 11.4683 5.50391 11.4683ZM7.54297 11.6539C7.69701 11.5739 7.95897 11.4684 8.23633 11.4683C8.8733 11.4683 9.21772 11.8985 9.21777 12.6988C9.21777 13.6338 8.75581 14.0894 8.01074 14.0894C7.73836 14.0894 7.31709 14.0045 7.00879 13.8443V10.3531L7.54297 10.2281V11.6539ZM15.0547 11.4683C15.733 11.4683 16.2266 11.9036 16.2266 12.7789C16.2265 13.6341 15.7586 14.0894 15.0547 14.0894C14.351 14.0892 13.8839 13.6339 13.8838 12.7789C13.8838 11.9038 14.3767 11.4685 15.0547 11.4683ZM20.5166 11.4683C21.159 11.4683 21.5547 11.8739 21.5547 12.689V12.8736H19.8799C19.8799 13.4737 20.132 13.7388 20.6611 13.7388C20.9384 13.7387 21.1953 13.644 21.4775 13.4791V13.8589C21.2465 13.9891 20.9384 14.0894 20.5684 14.0894C19.7054 14.0894 19.3506 13.5691 19.3506 12.7789C19.3506 12.0189 19.7461 11.4684 20.5166 11.4683ZM1.15137 13.1285H1.18652L1.85449 10.483H2.3125L3.02637 13.1285H3.0625L3.58594 10.483H4.1875L3.35547 14.0289H2.7998L2.10156 11.5338H2.06543L1.38672 14.0289H0.832031L0 10.483H0.575195L1.15137 13.1285ZM11.5557 13.2789H11.582L12.6816 10.483H13.3184V14.0289H12.7637V11.4586H12.7168L11.6689 14.0289H11.3398L10.292 11.5181H10.2461V14.0289H9.7832V10.483H10.4053L11.5557 13.2789ZM18.0244 11.4683C18.6412 11.4683 18.872 11.7034 18.8721 12.2183V14.0289H18.3379V12.3336C18.3379 11.9385 18.1379 11.8687 17.876 11.8687C17.6703 11.8687 17.4082 11.9585 17.249 12.0484V14.0289H16.7148V11.8384C16.9461 11.7034 17.4341 11.4684 18.0244 11.4683ZM8.09766 11.8589C7.89226 11.859 7.74348 11.914 7.53809 12.024V13.6588C7.70236 13.7288 7.88225 13.7388 8.01074 13.7388C8.39096 13.7388 8.67871 13.5088 8.67871 12.6988C8.67867 12.0636 8.44185 11.8589 8.09766 11.8589ZM15.0547 11.8189C14.7157 11.8191 14.4229 12.1041 14.4229 12.7789C14.4229 13.4639 14.6903 13.7386 15.0547 13.7388C15.4194 13.7388 15.6874 13.4642 15.6875 12.7789C15.6875 12.1038 15.404 11.8189 15.0547 11.8189ZM5.48828 11.8033C5.17469 11.8033 4.9333 12.0386 4.87695 12.5386H6.05371C6.02826 12.0134 5.7657 11.8033 5.48828 11.8033ZM20.501 11.8033C20.1877 11.8035 19.9462 12.0388 19.8896 12.5386H21.0664C21.0409 12.0134 20.7784 11.8033 20.501 11.8033Z" fill="var(--fill-0, #0068A3)"/>
<path id="Webmoney-logo" d="M11.7069 0C12.414 0 13.0841 0.160756 13.6805 0.445312C13.774 0.488464 13.8673 0.5355 13.9608 0.587891L13.5467 0.949219L12.9237 0.322266L11.8729 1.23535L11.2479 0.572266L9.28988 2.29004L10.5457 3.63672L10.0516 4.05859L11.2889 5.4082L10.7977 5.8291L12.5653 7.74316L13.6141 6.80371L14.5204 7.81055C14.3401 7.94697 14.1439 8.07568 13.9276 8.19434C13.2718 8.55832 12.5134 8.7666 11.7069 8.7666C9.22678 8.76644 7.20405 6.79761 7.20395 4.38379C7.20395 1.96936 9.22672 0.000157137 11.7069 0ZM15.745 6.70215L14.9422 7.40625L14.2186 6.62402L15.0213 5.91992L15.745 6.70215ZM13.6834 6.01172L12.6121 6.9502L11.6483 5.90723L12.7186 4.96875L13.6834 6.01172ZM15.0389 5.12305L14.2352 5.82715L13.5125 5.04492L14.3153 4.3418L15.0389 5.12305ZM12.9217 4.20996L11.8504 5.14844L10.8866 4.10645L11.9569 3.16797L12.9217 4.20996ZM16.244 4.60547L15.7088 5.0752L15.2264 4.55371L15.7625 4.08496L16.244 4.60547ZM14.3514 3.4707L13.5487 4.1748L12.826 3.39355L13.6288 2.68945L14.3514 3.4707ZM15.5594 3.05762L15.0243 3.52637L14.5418 3.00488L15.078 2.53613L15.5594 3.05762ZM12.1551 2.43066L11.0838 3.36914L10.12 2.32617L11.1913 1.3877L12.1551 2.43066ZM13.6112 1.89941L12.8084 2.60352L12.0858 1.82129L12.8885 1.11719L13.6112 1.89941ZM14.8758 1.50879L14.3407 1.97754L13.8582 1.45703L14.3934 0.987305L14.8758 1.50879Z" fill="var(--fill-0, #0068A3)"/>
</g>
</svg>
