<svg preserveAspectRatio="none" width="100%" height="100%" overflow="visible" style="display: block;" viewBox="0 0 25.5527 10.0801" fill="none" xmlns="http://www.w3.org/2000/svg">
<g id="giropay">
<path id="Subtract" d="M23.6465 0C24.6995 0.000180928 25.5522 0.777406 25.5527 1.7373V8.34277C25.5523 9.30247 24.6996 10.0797 23.6465 10.0801H1.90723C0.854021 10.0797 0.000401678 9.30248 0 8.34277V1.7373C0.000566454 0.777395 0.854123 0.000164531 1.90723 0H23.6465ZM1.90723 0.743164C1.49277 0.743843 1.1322 0.953764 0.947266 1.26367C0.913556 1.32016 0.8856 1.37994 0.864258 1.44238C0.832418 1.53554 0.815687 1.63461 0.81543 1.7373V8.34277C0.816114 8.65181 0.970263 8.92795 1.21289 9.11035C1.26667 9.15078 1.32502 9.18621 1.38672 9.2168C1.51031 9.27806 1.64826 9.31821 1.79492 9.33203L1.90723 9.33789H13.2656V0.743164H1.90723Z" fill="var(--fill-0, #0F3365)"/>
<path id="Union" d="M22.351 5.37437H22.3617L22.9281 3.73179H23.8822L22.8705 6.07456C22.6004 6.70676 22.3935 7.32066 21.5189 7.32066C21.3175 7.32065 21.1214 7.30081 20.9252 7.26206L20.9896 6.60093C21.1164 6.63982 21.2329 6.65366 21.3656 6.65366C21.5984 6.65366 21.7786 6.52815 21.847 6.30601L20.7299 3.73179H21.7572L22.351 5.37437ZM16.0892 3.67417C16.8522 3.67417 17.2707 4.33549 17.2709 4.9437C17.2709 5.6874 16.8313 6.30589 16.0101 6.30601C15.6764 6.30601 15.3154 6.19525 15.1351 5.89585H15.1254V7.26206H14.1713V3.73179H15.0511V4.18589H15.0619C15.2526 3.83365 15.655 3.67425 16.0892 3.67417ZM19.2025 3.7562C19.9073 3.7562 20.517 4.0313 20.517 4.79917V5.73569C20.517 5.93381 20.5274 6.13247 20.5697 6.33042H19.6957C19.6905 6.19557 19.6742 6.06434 19.6742 5.93394H19.6635C19.4463 6.24772 19.1815 6.38804 18.7894 6.38804C18.2437 6.38799 17.7562 6.14189 17.7562 5.59605C17.7562 4.82826 18.6733 4.73667 19.182 4.73667C19.3355 4.73669 19.5046 4.75042 19.6263 4.76987C19.6209 4.42725 19.3399 4.3353 18.9955 4.3353C18.6886 4.33535 18.3816 4.38885 18.1166 4.52378L18.101 3.93491C18.4399 3.80922 18.7946 3.75623 19.2025 3.7562ZM19.224 5.20054C18.9007 5.20054 18.6459 5.29207 18.6459 5.53355C18.646 5.70703 18.8161 5.80894 19.0385 5.80894C19.399 5.80888 19.6263 5.50865 19.6263 5.21421C19.5046 5.20944 19.367 5.20054 19.224 5.20054ZM15.7084 4.34019C15.3585 4.34019 15.1244 4.62084 15.1244 4.99741C15.1244 5.36456 15.3903 5.63999 15.7084 5.63999C16.0683 5.63987 16.2855 5.36407 16.2855 4.96323C16.2854 4.63008 16.0788 4.34032 15.7084 4.34019Z" fill="var(--fill-0, #FFFFFE)"/>
<path id="Union_2" d="M3.41181 3.6743C3.81971 3.6743 4.14886 3.87708 4.35028 4.18602H4.36005V3.73192H5.22431V5.9536C5.22431 6.98689 4.67301 7.32079 3.56024 7.32079C3.10463 7.32078 2.72818 7.23278 2.50556 7.16063L2.55341 6.47508C2.84475 6.60548 3.08864 6.68308 3.48603 6.68309C4.03718 6.68309 4.33368 6.44618 4.33368 5.9536V5.81786H4.32294C4.09528 6.11279 3.77762 6.24752 3.39618 6.24754C2.63839 6.24754 2.16671 5.72688 2.16669 4.98289C2.16669 4.23429 2.55356 3.67433 3.41181 3.6743ZM11.1335 3.6743C12.0446 3.6743 12.739 4.15699 12.739 4.99266C12.7389 5.8233 12.0446 6.30614 11.1335 6.30614C10.2224 6.30598 9.52803 5.82316 9.52802 4.99266C9.52802 4.15712 10.2224 3.67445 11.1335 3.6743ZM6.83563 6.24754H5.88251V3.73192H6.83563V6.24754ZM9.16864 3.6743C9.27976 3.67431 9.39646 3.68839 9.49188 3.70262L9.44403 4.42723C9.33822 4.39835 9.23192 4.39891 9.12079 4.39891C8.67577 4.39894 8.42646 4.6933 8.42646 5.18602V6.24754H7.47333V3.73192H8.34149V4.19579H8.35224C8.51659 3.87722 8.75532 3.6743 9.16864 3.6743ZM11.1335 4.2827C10.694 4.28292 10.5143 4.61605 10.5143 4.99266C10.5144 5.36441 10.694 5.69752 11.1335 5.69774C11.5732 5.69774 11.7536 5.36453 11.7536 4.99266C11.7536 4.61592 11.5732 4.2827 11.1335 4.2827ZM3.69306 4.34032C3.33802 4.34032 3.15205 4.6255 3.15204 4.96825C3.15204 5.3593 3.40693 5.58153 3.69306 5.58153C4.03193 5.5814 4.30243 5.3205 4.30243 4.93407C4.30226 4.65399 4.12178 4.34044 3.69306 4.34032ZM6.83563 3.32176H5.88251V2.68407H6.83563V3.32176Z" fill="var(--fill-0, #D8232A)"/>
</g>
</svg>
