<svg preserveAspectRatio="none" width="100%" height="100%" overflow="visible" style="display: block;" viewBox="0 0 15.951 15.9489" fill="none" xmlns="http://www.w3.org/2000/svg">
<g id="Interac">
<path id="Vector" fill-rule="evenodd" clip-rule="evenodd" d="M15.951 14.6209C15.951 14.9731 15.8111 15.3109 15.562 15.5599C15.313 15.809 14.9752 15.9489 14.623 15.9489H1.3295C1.15498 15.9491 0.98213 15.9149 0.820837 15.8482C0.659543 15.7816 0.512968 15.6838 0.389493 15.5604C0.266018 15.4371 0.168064 15.2906 0.101232 15.1294C0.0343994 14.9682 -1.12681e-07 14.7954 0 14.6209V1.32799C-1.12681e-07 1.15347 0.0343994 0.980661 0.101232 0.819443C0.168064 0.658225 0.266018 0.511762 0.389493 0.388426C0.512968 0.265091 0.659543 0.167304 0.820837 0.100655C0.98213 0.0340057 1.15498 -0.000197462 1.3295 8.57511e-07H14.6221C14.9743 8.57511e-07 15.3121 0.139914 15.5611 0.38896C15.8102 0.638007 15.9501 0.975787 15.9501 1.32799L15.951 14.6209Z" fill="var(--fill-0, #EDAA00)"/>
<path id="Vector_2" d="M8.9063 8.14663V5.29054L9.65208 5.11398V5.48793C9.65208 5.48793 9.84495 4.99567 10.2928 4.88128C10.4308 4.84657 10.5002 4.8674 10.5002 4.8674V5.59598C10.366 5.59781 10.2334 5.62548 10.1096 5.67747C9.83317 5.78643 9.69434 6.02486 9.69434 6.38704V7.96403L8.9063 8.14663ZM4.97635 9.07532C4.97635 9.07532 4.85562 8.89423 4.85562 8.25075V6.8289L4.47171 6.91944V6.33422L4.85592 6.24368V5.60503L5.6488 5.41791V6.05504L6.20897 5.92224V6.50777L5.6488 6.64087V8.08958C5.6488 8.74785 5.82355 8.87431 5.82355 8.87431L4.97635 9.07532ZM6.29166 7.37639C6.29166 6.86844 6.3641 6.49811 6.51923 6.2138C6.70364 5.87637 7.00697 5.65664 7.44822 5.55614C8.31776 5.35845 8.63134 5.87335 8.61897 6.5633C8.61504 6.80988 8.61595 6.93031 8.61595 6.93031L7.08393 7.29038V7.31512C7.08393 7.79803 7.18534 8.02651 7.49078 7.96131C7.75457 7.90578 7.82791 7.74038 7.84873 7.53636C7.85235 7.50285 7.85356 7.41925 7.85356 7.41925L8.57158 7.24722C8.57158 7.24722 8.57339 7.30607 8.57158 7.37156C8.56494 7.64592 8.48526 8.32621 7.48776 8.56162C6.54308 8.78587 6.29076 8.2088 6.29076 7.37639H6.29166ZM7.47901 6.08794C7.22518 6.14559 7.09208 6.39459 7.08665 6.80717L7.85749 6.62366C7.859 6.60495 7.859 6.5633 7.859 6.49932C7.85749 6.18814 7.76121 6.02396 7.47931 6.08794H7.47901ZM13.1821 5.70614C13.1519 4.83631 13.3777 4.14575 14.348 3.92543C14.9674 3.78478 15.2019 3.94535 15.3208 4.10078C15.4352 4.24928 15.4793 4.44938 15.4793 4.72977V4.78168L14.7193 4.96277V4.85683C14.7193 4.52483 14.6287 4.39807 14.3873 4.45844C14.1003 4.53057 13.9844 4.80281 13.9844 5.34487V5.59749C13.9844 6.1483 14.0598 6.40062 14.3903 6.3312C14.6776 6.27084 14.7169 6.01973 14.7223 5.7988C14.7223 5.76409 14.7244 5.65302 14.7244 5.65302L15.4832 5.47435V5.59236C15.4811 6.3143 15.1005 6.76944 14.387 6.93544C13.4052 7.16603 13.2126 6.59771 13.1824 5.70614H13.1821ZM10.5572 6.92367C10.5572 6.26209 10.9454 6.05293 11.5288 5.81178C12.053 5.59477 12.0642 5.48702 12.0666 5.29869C12.0693 5.14024 11.996 5.00412 11.7346 5.07082C11.4947 5.13118 11.431 5.30563 11.4183 5.44447C11.4139 5.49323 11.4123 5.5422 11.4135 5.59115L10.678 5.7647C10.673 5.6181 10.6901 5.4716 10.7287 5.33008C10.8464 4.9344 11.1956 4.6682 11.7974 4.52906C12.5797 4.34797 12.8408 4.69204 12.842 5.22625V6.49117C12.842 7.10295 12.9555 7.19229 12.9555 7.19229L12.2332 7.36342C12.1933 7.2799 12.1608 7.19305 12.136 7.10385C12.136 7.10385 11.9782 7.50195 11.4331 7.63052C10.8597 7.76513 10.5578 7.4108 10.5578 6.92397L10.5572 6.92367ZM12.0624 6.02064C11.9406 6.10599 11.812 6.1812 11.6779 6.24549C11.4364 6.3635 11.3281 6.50837 11.3281 6.73171C11.3281 6.92518 11.4488 7.05254 11.6661 6.99822C11.9 6.93967 12.0624 6.72145 12.0624 6.41873V6.02064ZM0.831809 11.0773C0.749386 11.0771 0.668534 11.0547 0.597762 11.0125C0.52699 10.9702 0.468917 10.9097 0.429655 10.8372C0.390392 10.7647 0.371393 10.683 0.374656 10.6007C0.37792 10.5183 0.403326 10.4383 0.448201 10.3692L0.453029 10.3629L0.461782 10.3608L1.53927 10.1063V10.9251L1.52236 10.9291C1.27789 10.9879 0.985735 11.0546 0.925372 11.067C0.894464 11.0739 0.862878 11.0774 0.831205 11.0773H0.831809ZM0.831809 12.1249C0.710719 12.1249 0.594566 12.0769 0.508802 11.9914C0.423037 11.9059 0.374655 11.7899 0.374255 11.6688C0.373773 11.5804 0.399506 11.4939 0.448201 11.4201L0.453029 11.412L0.461782 11.4102L1.53927 11.1557V11.9746L1.52236 11.9791C1.27789 12.0376 0.985735 12.1056 0.925372 12.1173C0.894352 12.1234 0.862814 12.1264 0.831205 12.1264L0.831809 12.1249ZM0.831809 13.1743C0.71043 13.1742 0.594051 13.1259 0.508252 13.0401C0.422452 12.9542 0.374255 12.8378 0.374255 12.7164C0.373773 12.628 0.399506 12.5415 0.448201 12.4677L0.453029 12.4593L1.53957 12.2033V13.0222L1.52267 13.0264C1.26461 13.0886 0.977586 13.1535 0.925674 13.1652C0.894632 13.1712 0.863108 13.1742 0.831507 13.1743" fill="var(--fill-0, #231F20)"/>
<path id="Vector_3" d="M0.70504 10.0737L0.704738 5.49246L1.53986 5.29507V9.87604L0.70504 10.0737V10.0737Z" fill="var(--fill-0, #231F20)"/>
<path id="Vector_4" d="M2.78546 9.68407C2.78221 9.54955 2.72648 9.42164 2.63019 9.32765C2.5339 9.23366 2.40467 9.18104 2.27011 9.18104C2.13555 9.18104 2.00633 9.23366 1.91003 9.32765C1.81374 9.42164 1.75802 9.54955 1.75476 9.68407V13.9662C1.7554 14.336 1.90257 14.6905 2.16403 14.9521C2.4255 15.2136 2.77995 15.3608 3.14975 15.3615C3.5397 15.3615 4.60813 15.3597 4.60813 15.3597V11.5813C4.60833 11.4702 4.58107 11.3608 4.52878 11.2628C4.47649 11.1648 4.4008 11.0813 4.30843 11.0196L3.0082 10.1365V12.1418C3.00899 12.1568 3.00671 12.1718 3.0015 12.1859C2.9963 12.2 2.98828 12.2129 2.97793 12.2238C2.96758 12.2347 2.95512 12.2434 2.94131 12.2493C2.9275 12.2552 2.91262 12.2583 2.89759 12.2583C2.88256 12.2583 2.86768 12.2552 2.85387 12.2493C2.84006 12.2434 2.8276 12.2347 2.81725 12.2238C2.8069 12.2129 2.79888 12.2 2.79367 12.1859C2.78847 12.1718 2.78619 12.1568 2.78697 12.1418C2.78697 12.1203 2.78426 9.94876 2.78426 9.68407H2.78546ZM3.48145 6.48935C3.32355 6.52584 3.17538 6.59596 3.04704 6.69492C2.9187 6.79388 2.81321 6.91936 2.73778 7.0628V6.74197L1.98595 6.92004V8.97631C2.11782 8.92428 2.2615 8.90968 2.40114 8.93413C2.54078 8.95857 2.67096 9.02111 2.77731 9.11485V7.78686C2.77731 7.46904 2.93607 7.21491 3.16183 7.16511C3.33235 7.12769 3.47421 7.18866 3.47421 7.49138V9.42873L4.26587 9.24282V7.19379C4.26587 6.6967 4.07512 6.3487 3.48115 6.48935H3.48145ZM14.9912 3.5572C14.8943 3.55726 14.7996 3.52859 14.719 3.47482C14.6384 3.42104 14.5756 3.34458 14.5385 3.25509C14.5013 3.16561 14.4916 3.06712 14.5104 2.97209C14.5293 2.87706 14.5759 2.78974 14.6443 2.7212C14.7128 2.65265 14.8 2.60594 14.895 2.58698C14.9901 2.56802 15.0886 2.57766 15.1781 2.61468C15.2676 2.6517 15.3442 2.71444 15.398 2.79496C15.4519 2.87548 15.4807 2.97017 15.4808 3.06705C15.4805 3.19679 15.4289 3.32114 15.3371 3.41284C15.2453 3.50455 15.1209 3.55614 14.9912 3.5563V3.5572ZM14.9912 2.63848C14.9065 2.63848 14.8237 2.66359 14.7533 2.71063C14.6829 2.75768 14.628 2.82455 14.5956 2.90279C14.5631 2.98103 14.5546 3.06713 14.5711 3.15019C14.5876 3.23326 14.6284 3.30958 14.6883 3.36948C14.7481 3.42939 14.8244 3.4702 14.9075 3.48676C14.9905 3.50332 15.0766 3.49488 15.1549 3.46252C15.2332 3.43015 15.3001 3.3753 15.3472 3.30491C15.3943 3.23452 15.4194 3.15175 15.4195 3.06705C15.4193 2.95349 15.3742 2.84462 15.2939 2.76429C15.2136 2.68396 15.1048 2.63872 14.9912 2.63848" fill="var(--fill-0, #231F20)"/>
<path id="Vector_5" d="M14.8128 2.77581H15.0241C15.1083 2.77581 15.175 2.81776 15.175 2.92913C15.175 3.0067 15.1406 3.06646 15.0754 3.07672C15.1358 3.08276 15.166 3.11535 15.1687 3.19956C15.1687 3.23729 15.1705 3.28437 15.1723 3.32029C15.1723 3.33055 15.1749 3.34064 15.1799 3.34962C15.1848 3.35859 15.192 3.36616 15.2007 3.3716H15.0932C15.0824 3.35612 15.0767 3.33765 15.0769 3.31878C15.0733 3.28286 15.0739 3.24936 15.0727 3.2059C15.0727 3.14071 15.0513 3.11203 14.9855 3.11203H14.9097V3.3716H14.8141L14.8128 2.77581ZM14.9846 3.04201C14.9976 3.04321 15.0107 3.04151 15.0229 3.03702C15.0351 3.03253 15.0462 3.02538 15.0554 3.01607C15.0645 3.00677 15.0714 2.99555 15.0757 2.98322C15.0799 2.9709 15.0814 2.95778 15.08 2.94483C15.08 2.88114 15.0528 2.84794 14.9894 2.84794H14.9097V3.04201H14.9846Z" fill="var(--fill-0, #231F20)"/>
</g>
</svg>
