<svg preserveAspectRatio="none" width="100%" height="100%" overflow="visible" style="display: block;" viewBox="0 0 19 19" fill="none" xmlns="http://www.w3.org/2000/svg">
<path id="icon" d="M9.5 14.2308C9.72883 14.2308 9.92067 14.1533 10.0755 13.9985C10.2303 13.8437 10.3077 13.6518 10.3077 13.423C10.3077 13.1942 10.2303 13.0023 10.0755 12.8475C9.92067 12.6928 9.72883 12.6155 9.5 12.6155C9.27117 12.6155 9.07933 12.6928 8.9245 12.8475C8.76967 13.0023 8.69225 13.1942 8.69225 13.423C8.69225 13.6518 8.76967 13.8437 8.9245 13.9985C9.07933 14.1533 9.27117 14.2308 9.5 14.2308ZM9.50025 10.577C9.71292 10.577 9.891 10.5051 10.0345 10.3613C10.1782 10.2176 10.25 10.0395 10.25 9.827V5.327C10.25 5.1145 10.1781 4.93633 10.0343 4.7925C9.89042 4.64883 9.71225 4.577 9.49975 4.577C9.28708 4.577 9.109 4.64883 8.9655 4.7925C8.82183 4.93633 8.75 5.1145 8.75 5.327V9.827C8.75 10.0395 8.82192 10.2176 8.96575 10.3613C9.10958 10.5051 9.28775 10.577 9.50025 10.577ZM9.50175 19C8.18775 19 6.95267 18.7507 5.7965 18.252C4.64033 17.7533 3.63467 17.0766 2.7795 16.2218C1.92433 15.3669 1.24725 14.3617 0.74825 13.206C0.249417 12.0503 0 10.8156 0 9.50175C0 8.18775 0.249333 6.95267 0.748 5.7965C1.24667 4.64033 1.92342 3.63467 2.77825 2.7795C3.63308 1.92433 4.63833 1.24725 5.794 0.74825C6.94967 0.249417 8.18442 0 9.49825 0C10.8123 0 12.0473 0.249333 13.2035 0.748C14.3597 1.24667 15.3653 1.92342 16.2205 2.77825C17.0757 3.63308 17.7528 4.63833 18.2518 5.794C18.7506 6.94967 19 8.18442 19 9.49825C19 10.8123 18.7507 12.0473 18.252 13.2035C17.7533 14.3597 17.0766 15.3653 16.2218 16.2205C15.3669 17.0757 14.3617 17.7528 13.206 18.2518C12.0503 18.7506 10.8156 19 9.50175 19ZM9.5 17.5C11.7333 17.5 13.625 16.725 15.175 15.175C16.725 13.625 17.5 11.7333 17.5 9.5C17.5 7.26667 16.725 5.375 15.175 3.825C13.625 2.275 11.7333 1.5 9.5 1.5C7.26667 1.5 5.375 2.275 3.825 3.825C2.275 5.375 1.5 7.26667 1.5 9.5C1.5 11.7333 2.275 13.625 3.825 15.175C5.375 16.725 7.26667 17.5 9.5 17.5Z" fill="var(--fill-0, #277777)"/>
</svg>
