<svg preserveAspectRatio="none" width="100%" height="100%" overflow="visible" style="display: block;" viewBox="0 0 34.6667 14.4639" fill="none" xmlns="http://www.w3.org/2000/svg">
<g id="Paysafe">
<path id="Vector" d="M33.674 3.97907C34.2222 3.97907 34.6667 3.53462 34.6667 2.98636C34.6667 2.4381 34.2222 1.99365 33.674 1.99365C33.1257 1.99365 32.6813 2.4381 32.6813 2.98636C32.6813 3.53462 33.1257 3.97907 33.674 3.97907Z" fill="var(--fill-0, #7887E6)"/>
<path id="Vector_2" d="M33.674 7.08687C34.2222 7.08687 34.6667 6.64242 34.6667 6.09416C34.6667 5.5459 34.2222 5.10145 33.674 5.10145C33.1257 5.10145 32.6813 5.5459 32.6813 6.09416C32.6813 6.64242 33.1257 7.08687 33.674 7.08687Z" fill="var(--fill-0, #FF5073)"/>
<path id="Union" d="M6.65527 12.6123L7.22852 10.6064H8.07227C7.62642 11.8953 7.19133 13.1853 6.75098 14.4639H5.95508L6.40039 13.3125H6.14648C5.85975 12.4105 5.57864 11.5085 5.28711 10.6064H6.14648L6.65527 12.6123ZM4.11914 10.5439C4.74523 10.544 5.1316 10.8195 5.13184 11.4297V13.3135H4.35742V13.3125L4.30957 13.042C4.1607 13.2066 3.95969 13.376 3.62012 13.376C3.20099 13.3759 2.77637 13.1057 2.77637 12.5645C2.77659 11.9809 3.15364 11.594 4.2832 11.6152V11.4346C4.28294 11.2279 4.10805 11.1592 3.91211 11.1592C3.63639 11.1592 3.31192 11.2813 3.1582 11.3506L2.9248 10.8672C3.17934 10.7081 3.59374 10.544 4.11914 10.5439ZM13.4521 10.5439C14.0782 10.544 14.4646 10.8195 14.4648 11.4297V13.3135H13.6904V13.3125L13.6426 13.042C13.4937 13.2066 13.2927 13.376 12.9531 13.376C12.534 13.3759 12.1094 13.1057 12.1094 12.5645C12.1096 11.9809 12.4866 11.594 13.6162 11.6152V11.4346C13.6159 11.2279 13.4411 11.1593 13.2451 11.1592C12.9694 11.1592 12.6449 11.2813 12.4912 11.3506L12.2578 10.8672C12.5123 10.7081 12.9268 10.544 13.4521 10.5439ZM18.084 10.543C18.6621 10.5431 19.2342 10.8562 19.2344 11.8105V12.1289H17.6328C17.6753 12.5748 17.9458 12.7549 18.3066 12.7549C18.5775 12.7548 18.8844 12.6439 18.9854 12.5801L19.2246 13.1104C19.0552 13.238 18.6137 13.376 18.1787 13.376C17.298 13.3759 16.7462 12.8295 16.7461 11.9756C16.7463 11.1429 17.3308 10.543 18.084 10.543ZM16.0098 10.6074H16.5293V11.1855H16.0098V12.3848C16.0098 12.6603 16.1103 12.7459 16.2959 12.7461H16.5293V13.3135H15.9248V13.3125C15.6703 13.3125 15.1662 13.2808 15.166 12.5752V11.1846H14.752V10.6064H15.166V10.0918L16.0098 9.80078V10.6074ZM1.41211 9.65137C2.2503 9.65137 2.64829 10.1397 2.64844 10.7871C2.64841 11.5349 2.11803 11.9756 1.41211 11.9756H0.876953V13.3125H0.00683594V9.65137H1.41211ZM10.4756 12.6816H11.8711V13.3125H9.60547V9.65137H10.4756V12.6816ZM21.251 11.333C21.2029 11.3228 21.0919 11.3232 21.0391 11.3232C20.8163 11.3232 20.5776 11.4129 20.4287 11.5615V13.3125H19.5801V10.6064H20.3867V11.0996C20.5617 10.7658 20.8855 10.543 21.251 10.543V11.333ZM4.09277 12.1348C3.7535 12.1348 3.59393 12.2838 3.59375 12.5059C3.59388 12.7018 3.73752 12.8241 3.94922 12.8242C4.08141 12.8242 4.20361 12.776 4.2832 12.7178V12.1504C4.21415 12.1449 4.16122 12.1348 4.09277 12.1348ZM13.4258 12.1348C13.0865 12.1348 12.9269 12.2838 12.9268 12.5059C12.9269 12.7018 13.0705 12.8241 13.2822 12.8242C13.4144 12.8242 13.5366 12.776 13.6162 12.7178V12.1504C13.5472 12.1449 13.4942 12.1348 13.4258 12.1348ZM18.0732 11.1367C17.8401 11.1367 17.6652 11.3231 17.6328 11.6836H18.4551C18.4549 11.3176 18.2961 11.1367 18.0732 11.1367ZM0.876953 11.3389H1.31836C1.60966 11.3387 1.80566 11.1523 1.80566 10.8184C1.80543 10.506 1.63069 10.2883 1.31836 10.2881H0.876953V11.3389ZM22.0996 9.58984H21.8398V10.2305H21.5859V9.58984H21.3105V9.41016H22.0713L22.0996 9.58984ZM22.6748 9.99219C22.7214 9.79773 22.7671 9.6056 22.8164 9.41113H23.1357L23.2012 10.2305H22.9746L22.9443 9.63672C22.8916 9.83481 22.8387 10.0324 22.7832 10.2305H22.5605L22.4004 9.63672L22.3691 10.2305H22.1426C22.1672 9.9584 22.1887 9.6832 22.21 9.41113H22.5293L22.6748 9.99219ZM10.7217 2.1084L11.9258 5.01465L12.9756 2.1084H14.4922L12.0273 8.33789H10.5752L11.2168 6.74414L9.15918 2.1084H10.7217ZM29.3379 1.99414C30.6919 1.99437 31.6895 3.03968 31.6895 4.46582V4.84668H28.5264C28.5504 5.09615 28.6141 5.30009 28.71 5.46191L28.7607 5.53809C28.771 5.55249 28.782 5.56538 28.793 5.5791C28.7998 5.58727 28.807 5.59633 28.8145 5.60449C28.8328 5.62626 28.8526 5.64725 28.873 5.66699L28.875 5.66992C28.9257 5.71856 28.9829 5.76241 29.0459 5.80078C29.0472 5.80141 29.0482 5.80109 29.0488 5.80176C29.0769 5.81885 29.1069 5.83456 29.1377 5.84961C29.1439 5.85235 29.1498 5.85565 29.1553 5.8584C29.1736 5.8672 29.1932 5.87535 29.2129 5.88281C29.2307 5.88966 29.2488 5.89618 29.2666 5.90234C29.2796 5.90646 29.2939 5.90995 29.3076 5.91406C29.3328 5.92088 29.3579 5.92843 29.3838 5.93457C29.3927 5.93663 29.4022 5.93739 29.4111 5.93945C29.4363 5.94489 29.4615 5.94904 29.4873 5.95312C29.4949 5.9545 29.5022 5.95635 29.5098 5.95703C29.5419 5.96113 29.5746 5.96474 29.6074 5.9668C29.6157 5.96748 29.6236 5.96709 29.6318 5.96777C29.6668 5.96983 29.7019 5.97168 29.7383 5.97168C30.1526 5.97165 30.6151 5.85431 31.0713 5.5957L31.4961 6.54102C30.8231 7.00751 29.9499 7.08789 29.5088 7.08789C27.9256 7.08782 26.9337 6.1045 26.9336 4.56934C26.9336 3.07169 27.9836 1.99414 29.3379 1.99414ZM21.1787 1.99414C22.3045 1.99414 23.0007 2.48966 23 3.58594V6.97266H21.4736V6.75684C21.1691 6.94817 20.7703 7.08691 20.4033 7.08691C19.4732 7.0867 18.7666 6.38558 18.7666 5.55078C18.7666 4.69598 19.3713 3.77039 21.4746 3.91992V3.5957C21.4746 3.22403 21.1601 3.09972 20.8076 3.09961C20.3117 3.09961 19.7297 3.31917 19.4531 3.44336L19.0332 2.5752C19.4908 2.28919 20.235 1.9942 21.1787 1.99414ZM7.24316 1.99316C8.36896 1.99316 9.06542 2.48897 9.06543 3.58594V6.97266H7.53809V6.75586C7.23348 6.94727 6.83481 7.08594 6.46777 7.08594C5.53763 7.0858 4.83008 6.38464 4.83008 5.5498C4.83023 4.69508 5.4359 3.76941 7.53906 3.91895V3.59473C7.53897 3.22301 7.22367 3.09863 6.87109 3.09863C6.3754 3.09874 5.79415 3.31821 5.51758 3.44238L5.09766 2.5752C5.55523 2.28913 6.29924 1.99319 7.24316 1.99316ZM16.5967 1.99219C17.2169 1.99219 17.8279 2.18346 18.2285 2.38379L17.7988 3.38477C17.4935 3.25168 17.0735 3.1084 16.6729 3.1084C16.2915 3.10844 16.0625 3.25136 16.0625 3.48047C16.0628 4.12859 18.3135 3.86236 18.3135 5.46484C18.3132 6.51419 17.3594 7.08594 16.2529 7.08594C15.633 7.0859 14.9656 6.94377 14.3936 6.63867L14.8799 5.65625C15.2228 5.82835 15.6618 5.98042 16.1191 5.98047C16.5676 5.98047 16.8347 5.84665 16.835 5.58008C16.835 4.86522 14.5452 5.1603 14.5459 3.53711C14.546 2.50751 15.4614 1.99224 16.5967 1.99219ZM2.52734 0.390625C4.03442 0.390625 4.74984 1.2683 4.75 2.43164C4.75 3.77629 3.79585 4.56836 2.52734 4.56836H1.56445V6.97266H0V0.390625H2.52734ZM26.1279 0C26.4051 0 26.6436 0.0387612 26.8535 0.0957031V1.18164C26.73 1.14391 26.5487 1.11523 26.4053 1.11523C25.9374 1.11524 25.7656 1.42112 25.7656 1.85059V2.10742H26.8145V3.14746H25.7656V6.97266H24.249V3.14746H23.4385V2.10742H24.249V1.90723C24.249 0.753354 24.8973 7.78039e-05 26.1279 0ZM7.5957 4.88281C6.67177 4.72985 6.35558 5.12189 6.35547 5.52246C6.35547 5.87509 6.61367 6.09473 6.99512 6.09473C7.23379 6.09468 7.45373 6.00924 7.5957 5.9043V4.88281ZM21.4736 4.88281C20.55 4.73003 20.2345 5.12195 20.2344 5.52246C20.2344 5.87509 20.4926 6.09473 20.874 6.09473C21.1126 6.09465 21.3313 6.00917 21.4746 5.9043H21.4736V4.88281ZM29.3379 3.06152C28.9181 3.06152 28.5841 3.39513 28.5264 4.04395H30.1484C30.0908 3.39605 29.7575 3.06176 29.3379 3.06152ZM1.56445 1.53516V3.42383H2.35547C2.90293 3.42383 3.26369 3.06092 3.23145 2.40918C3.20664 1.91608 2.78677 1.53526 2.29297 1.53516H1.56445Z" fill="var(--fill-0, #2D2341)"/>
</g>
</svg>
