<svg preserveAspectRatio="none" width="100%" height="100%" overflow="visible" style="display: block;" viewBox="0 0 13.3905 12.9652" fill="none" xmlns="http://www.w3.org/2000/svg">
<path id="Yandex" d="M13.3905 5.27911C13.3204 4.84609 12.9348 4.55742 12.409 4.55742C12.2337 4.55742 12.0935 4.55742 11.9183 4.55742C11.6028 4.52133 11.5327 4.62959 11.5327 4.88218C11.5327 6.14515 11.5327 7.37203 11.5327 8.63499C11.5327 9.28452 10.9017 9.97013 10.1656 10.1145C7.85204 10.6557 5.53848 11.1609 3.22494 11.7022C2.97956 11.7744 2.69913 11.7744 2.4187 11.7744C2.31354 11.7744 2.13828 11.7022 2.10322 11.5939C2.06817 11.5218 2.17333 11.3774 2.24344 11.3053C2.3486 11.2331 2.48881 11.1609 2.62903 11.0888C3.04967 10.9444 3.50537 10.8001 3.92601 10.6557C5.64364 10.0784 7.36128 9.50102 9.07891 8.88758C9.85009 8.63499 10.2707 8.09372 10.2707 7.40811C10.3058 5.24303 10.2707 3.04186 10.2707 0.876777C10.2707 0.51593 10.0955 0.227253 9.70988 0.0829143C9.25418 -0.0975093 8.83353 0.0468274 8.44794 0.227251C5.99418 1.41805 3.57547 2.60885 1.12171 3.79964C0.420638 4.16049 0 4.66567 0 5.38737C0 7.4442 0 9.50103 0 11.5579C0 11.6661 -8.55803e-06 11.7744 0.0350452 11.8465C0.280421 12.5321 0.911397 12.9652 1.75269 12.9652C3.47032 12.9652 5.18794 12.9652 6.90558 12.9652C8.62321 12.9652 10.3058 12.9652 12.0234 12.9652C12.409 12.9652 12.7245 12.893 13.0049 12.6404C13.3555 12.3517 13.3555 11.9548 13.3555 11.5939C13.3555 9.81865 13.3905 5.27911 13.3905 5.27911ZM6.23956 4.62959C6.41483 4.16049 6.80042 3.87181 7.36128 3.79964C7.74687 3.76356 8.06235 3.98006 8.13246 4.34091C8.20257 4.88218 7.5716 5.53171 6.90558 5.53171C6.37977 5.53171 6.06429 5.13478 6.23956 4.62959Z" fill="var(--fill-0, #FD6727)"/>
</svg>
