<svg preserveAspectRatio="none" width="100%" height="100%" overflow="visible" style="display: block;" viewBox="0 0 42.0952 16.789" fill="none" xmlns="http://www.w3.org/2000/svg">
<path id="Shop Pay" d="M24.6167 4.95629C24.6167 7.44979 22.8685 9.22979 20.4256 9.22979H18.1241C18.0986 9.22979 18.0735 9.23481 18.05 9.24456C18.0266 9.25431 18.0053 9.2686 17.9873 9.28661C17.9694 9.30462 17.9552 9.326 17.9456 9.34951C17.9359 9.37302 17.931 9.3982 17.9312 9.42361V12.7008C17.9312 12.7521 17.9109 12.8012 17.8747 12.8376C17.8386 12.8739 17.7895 12.8944 17.7383 12.8947H16.1278C16.0895 12.8945 16.0521 12.883 16.0203 12.8617C15.9885 12.8404 15.9636 12.8101 15.9489 12.7748C15.9392 12.7517 15.9341 12.7269 15.9339 12.7018V0.875687C15.9338 0.850278 15.9387 0.825095 15.9484 0.801585C15.958 0.778074 15.9722 0.7567 15.9901 0.738689C16.008 0.720678 16.0293 0.706387 16.0528 0.696635C16.0763 0.686882 16.1014 0.681863 16.1268 0.681863H20.4359C22.8685 0.679054 24.6167 2.45905 24.6167 4.95629V4.95629ZM22.6082 4.95629C22.6082 3.52274 21.6307 2.47497 20.3048 2.47497H18.1241C18.0986 2.47497 18.0735 2.47999 18.05 2.48974C18.0266 2.49949 18.0053 2.51379 17.9873 2.5318C17.9694 2.54981 17.9552 2.57118 17.9456 2.59469C17.9359 2.6182 17.931 2.64338 17.9312 2.66879V7.23256C17.9312 7.28371 17.9515 7.33277 17.9877 7.36895C18.0238 7.40512 18.0729 7.42544 18.1241 7.42544H20.3048C21.6307 7.43481 22.6082 6.3861 22.6082 4.95629ZM25.0942 10.6259C25.0775 10.2435 25.1566 9.86292 25.3244 9.51886C25.4922 9.1748 25.7433 8.87812 26.0549 8.65581C26.6832 8.18295 27.6654 7.93856 29.1074 7.888L30.643 7.83369V7.3805C30.643 6.47224 30.0344 6.08834 29.0569 6.08834C28.0793 6.08834 27.4594 6.43479 27.3171 7.00128C27.3055 7.04112 27.281 7.07597 27.2475 7.10038C27.2139 7.12478 27.1732 7.13735 27.1317 7.13611H25.6148C25.5869 7.13688 25.5592 7.13147 25.5336 7.12029C25.5079 7.1091 25.4851 7.09241 25.4667 7.0714C25.4483 7.05039 25.4347 7.02558 25.427 6.99873C25.4193 6.97188 25.4175 6.94366 25.422 6.91607C25.6467 5.57335 26.7637 4.55273 29.1261 4.55273C31.6393 4.55273 32.5466 5.72316 32.5466 7.95729V12.7008C32.5461 12.7526 32.5252 12.802 32.4883 12.8383C32.4515 12.8747 32.4017 12.8949 32.35 12.8947H30.8209C30.7698 12.8945 30.7207 12.8744 30.6842 12.8385C30.6663 12.8205 30.6522 12.7992 30.6425 12.7757C30.6329 12.7523 30.628 12.7271 30.6281 12.7018V12.3469C30.6286 12.3176 30.6203 12.2888 30.6041 12.2643C30.588 12.2398 30.5648 12.2208 30.5376 12.2097C30.5105 12.1987 30.4806 12.1961 30.4519 12.2024C30.4233 12.2086 30.3972 12.2234 30.3771 12.2448C29.9183 12.7439 29.1776 13.1044 27.9913 13.1044C26.2459 13.1044 25.0942 12.1961 25.0942 10.6259V10.6259ZM30.643 9.59777V9.22979L28.6542 9.33466C27.6065 9.38803 26.9969 9.82343 26.9969 10.5566C26.9969 11.2195 27.5559 11.5866 28.5325 11.5866C29.8593 11.5866 30.643 10.8703 30.643 9.59777V9.59777ZM34.0822 16.479V15.1044C34.0825 15.0756 34.0892 15.0472 34.1017 15.0212C34.1142 14.9952 34.1322 14.9723 34.1545 14.9541C34.1769 14.9359 34.203 14.9228 34.2309 14.9158C34.2589 14.9087 34.288 14.9079 34.3163 14.9134C34.5504 14.9574 34.7892 14.9799 35.028 14.9808C35.4384 15.0008 35.8437 14.8825 36.179 14.6448C36.5143 14.4072 36.7602 14.0639 36.8772 13.67L36.9765 13.3535C36.9909 13.311 36.9909 13.2649 36.9765 13.2224L33.7901 5.03869C33.7786 5.00902 33.7744 4.977 33.778 4.94538C33.7816 4.91376 33.7928 4.88348 33.8107 4.85714C33.8285 4.8308 33.8525 4.8092 33.8806 4.79417C33.9086 4.77915 33.9399 4.77116 33.9717 4.7709H35.5167C35.5562 4.7713 35.5946 4.78357 35.627 4.80612C35.6594 4.82866 35.6843 4.86044 35.6984 4.8973L37.8623 10.669C37.8758 10.7073 37.9009 10.7405 37.9341 10.764C37.9673 10.7875 38.007 10.8001 38.0477 10.8001C38.0883 10.8001 38.128 10.7875 38.1612 10.764C38.1944 10.7405 38.2195 10.7073 38.2331 10.669L40.1123 4.91322C40.1253 4.87388 40.1505 4.83966 40.1841 4.81544C40.2177 4.79123 40.2581 4.77826 40.2996 4.77839H41.8979C41.93 4.77858 41.9615 4.78652 41.9897 4.80152C42.018 4.81653 42.0423 4.83815 42.0604 4.86455C42.0785 4.89095 42.09 4.92134 42.0938 4.95313C42.0976 4.98492 42.0937 5.01717 42.0824 5.04712L38.6741 14.1353C37.8894 16.2477 36.5439 16.788 35.0626 16.788C34.7817 16.7955 34.5008 16.7618 34.2292 16.6878C34.1841 16.6759 34.1446 16.6484 34.1177 16.6102C34.0908 16.572 34.0783 16.5255 34.0822 16.479V16.479ZM5.58448 0.000201638C3.55455 -0.0142608 1.59627 0.749752 0.112461 2.13508C0.0490071 2.19319 0.00944875 2.27284 0.00148704 2.35851C-0.00647466 2.44419 0.01773 2.52976 0.069389 2.59857L0.987947 3.85328C1.01772 3.89505 1.0563 3.92979 1.10094 3.95506C1.14559 3.98032 1.19524 3.9955 1.24638 3.99951C1.29752 4.00353 1.34893 3.99629 1.39697 3.97831C1.44502 3.96032 1.48854 3.93203 1.52447 3.89541C2.05801 3.36201 2.69252 2.9403 3.39091 2.65493C4.0893 2.36956 4.83756 2.22626 5.59197 2.23339C8.74185 2.23339 10.387 4.60423 10.387 6.9451C10.387 9.49009 8.65851 11.2804 6.17438 11.316C4.25487 11.316 2.80821 10.0435 2.80821 8.36273C2.81021 7.93812 2.9064 7.51925 3.08986 7.13631C3.27331 6.75337 3.53945 6.41591 3.86909 6.14827C3.93878 6.09005 3.98283 6.00681 3.99176 5.91645C4.00069 5.82609 3.97379 5.73584 3.91684 5.66511L2.95147 4.44598C2.92227 4.40912 2.88599 4.37847 2.84476 4.35586C2.80352 4.33324 2.75818 4.31912 2.7114 4.31432C2.66461 4.30952 2.61735 4.31414 2.57238 4.32791C2.52741 4.34168 2.48566 4.36431 2.44959 4.39448C1.8567 4.87215 1.37826 5.47648 1.04936 6.16314C0.720449 6.84979 0.549415 7.60136 0.548799 8.36273C0.548799 11.256 3.00765 13.5258 6.15753 13.5445H6.19966C9.93944 13.4958 12.6436 10.7261 12.6436 6.94041C12.6436 3.57892 10.1679 0.000201638 5.58542 0.000201638H5.58448Z" fill="var(--fill-0, white)"/>
</svg>
