<svg preserveAspectRatio="none" width="100%" height="100%" overflow="visible" style="display: block;" viewBox="0 0 27.1641 27.166" fill="none" xmlns="http://www.w3.org/2000/svg">
<path id="BitcoinCash" d="M13.582 0C21.0832 0 27.1641 6.08144 27.1641 13.583C27.1639 21.0845 21.0832 27.166 13.582 27.166C6.08094 27.166 0.000113905 21.0845 0 13.583C0 6.08147 6.08087 5.26184e-05 13.582 0ZM12.6572 7.49512L9.63867 6.75L9.24121 8.34277C9.26146 8.34739 10.3509 8.59632 10.3281 8.6123C10.9338 8.76344 11.044 9.16186 11.0254 9.47852L9.3457 16.1885C9.27153 16.3711 9.08291 16.6464 8.65918 16.542C8.67453 16.5632 7.57129 16.2725 7.57129 16.2725L6.82812 17.9795L9.8418 18.7363L9.22266 21.2139L10.7178 21.5859L11.3311 19.1348C11.7394 19.2443 12.1365 19.3474 12.5244 19.4434L11.9131 21.8818L13.4092 22.2539L14.0293 19.7822C16.5817 20.2628 18.5012 20.0691 19.3086 17.7695C19.7338 16.1715 19.2754 14.8497 17.9326 14.1533C18.9114 13.9291 19.6487 13.2887 19.8457 11.9648C20.1168 10.1568 18.734 9.18495 16.8447 8.53613L17.458 6.08594L15.9619 5.71387L15.3652 8.09961C14.9722 8.00195 14.5674 7.90922 14.165 7.81836L14.7666 5.41797L13.2715 5.0459L12.6572 7.49512ZM12.6416 14.0586C13.6568 14.3109 16.9091 14.8114 16.4258 16.7422C15.9625 18.5927 12.8342 17.5923 11.8193 17.3408L12.6416 14.0586ZM13.7627 9.58008C14.6082 9.79072 17.3284 10.1828 16.8896 11.9385C16.4677 13.6213 13.8631 12.7668 13.0176 12.5576L13.7627 9.58008Z" fill="var(--fill-0, #8FC258)"/>
</svg>
