<svg preserveAspectRatio="none" width="100%" height="100%" overflow="visible" style="display: block;" viewBox="0 0 28.623 18.432" fill="none" xmlns="http://www.w3.org/2000/svg">
<g id="UnionPay">
<path id="Vector" d="M5.60546 0.000770569H12.7497C13.747 0.000770569 14.3672 0.837541 14.1346 1.86755L10.8084 16.568C10.5737 17.5945 9.57522 18.432 8.57725 18.432H1.4337C0.437821 18.432 -0.183842 17.5945 0.0488026 16.568L3.37635 1.86755C3.609 0.837541 4.60697 0.000770569 5.60546 0.000770569Z" fill="var(--fill-0, #E21836)"/>
<path id="Vector_2" d="M12.1548 0H20.3705C21.3676 0 20.918 0.836771 20.6834 1.86678L17.3578 16.5673C17.1245 17.5937 17.1972 18.4312 16.1981 18.4312H7.98236C6.98317 18.4312 6.36482 17.5937 6.59955 16.5673L9.92501 1.86678C10.1611 0.836771 11.157 0 12.1548 0Z" fill="var(--fill-0, #00447C)"/>
<path id="Vector_3" d="M20.0448 0H27.189C28.1877 0 28.808 0.836771 28.5734 1.86678L25.2478 16.5673C25.013 17.5937 24.0138 18.4312 23.0154 18.4312H15.8744C14.8752 18.4312 14.2555 17.5937 14.4895 16.5673L17.8157 1.86678C18.0483 0.836771 19.0456 0 20.0448 0Z" fill="var(--fill-0, #007B84)"/>
<path id="Vector_4" d="M7.47093 4.71106C6.73625 4.71876 6.51928 4.71106 6.44997 4.69421C6.42333 4.82452 5.92757 7.1787 5.92618 7.18068C5.81943 7.65696 5.74177 7.99647 5.47795 8.2157C5.3282 8.34316 5.15336 8.40464 4.95067 8.40464C4.62486 8.40464 4.43506 8.23811 4.40319 7.92226L4.3971 7.81381C4.3971 7.81381 4.49635 7.17584 4.49635 7.17225C4.49635 7.17225 5.01667 5.02691 5.10983 4.74332C5.11471 4.72719 5.1161 4.71876 5.11732 4.71106C4.10455 4.7202 3.92502 4.71106 3.91265 4.69421C3.90586 4.71733 3.88078 4.85034 3.88078 4.85034L3.3495 7.26833L3.30387 7.4734L3.21559 8.14418C3.21559 8.34316 3.25355 8.50556 3.32912 8.64287C3.57117 9.07829 4.26162 9.14354 4.6522 9.14354C5.15545 9.14354 5.62753 9.03347 5.94655 8.83253C6.5003 8.4957 6.64518 7.96923 6.77439 7.50137L6.83429 7.26134C6.83429 7.26134 7.37028 5.03318 7.46135 4.74332C7.46483 4.72719 7.46623 4.71876 7.47093 4.71106ZM9.29459 6.50853C9.16539 6.50853 8.92926 6.5408 8.71716 6.64782C8.64019 6.68851 8.56741 6.73547 8.49061 6.78226L8.55992 6.52467L8.52196 6.48129C8.07217 6.57504 7.97151 6.58759 7.55603 6.64782L7.5212 6.67166C7.47297 7.08341 7.43013 7.39299 7.25129 8.20233C7.18321 8.50062 7.11251 8.80177 7.04163 9.09933L7.06079 9.13716C7.48655 9.11403 7.61576 9.11403 7.98579 9.12031L8.01575 9.08679C8.06276 8.83887 8.06886 8.78079 8.17299 8.2787C8.22192 8.04064 8.32396 7.51757 8.37429 7.33132C8.46676 7.28723 8.558 7.24385 8.64507 7.24385C8.85247 7.24385 8.82722 7.43009 8.81921 7.50431C8.81032 7.62889 8.73475 8.0358 8.65726 8.38517L8.60554 8.61068C8.5695 8.77721 8.52997 8.93908 8.49392 9.10417L8.50959 9.13716C8.92926 9.11403 9.05725 9.11403 9.41562 9.12031L9.45776 9.08679C9.52254 8.69959 9.54152 8.59598 9.65645 8.03222L9.71426 7.77319C9.82658 7.26625 9.883 7.0092 9.79802 6.79983C9.70816 6.56518 9.49259 6.50853 9.29459 6.50853ZM11.3318 7.0393C11.1088 7.08339 10.9665 7.11279 10.8251 7.13179C10.6849 7.15492 10.5482 7.17589 10.3326 7.20672L10.3156 7.22268L10.2999 7.2354C10.2774 7.40068 10.2618 7.54355 10.232 7.71151C10.2067 7.88521 10.1679 8.08257 10.1047 8.36615C10.0558 8.58323 10.0305 8.65888 10.0027 8.73524C9.9755 8.81161 9.94555 8.88582 9.89052 9.09931L9.90341 9.11903L9.9142 9.13714C10.1157 9.12728 10.2475 9.12029 10.383 9.11903C10.5183 9.11401 10.6585 9.11903 10.8754 9.12029L10.8944 9.10433L10.9148 9.08677C10.9461 8.89425 10.9508 8.84244 10.97 8.74851C10.989 8.64777 11.0217 8.50831 11.102 8.13581C11.1399 7.96086 11.1823 7.78644 11.2216 7.6079C11.2625 7.43008 11.3054 7.25494 11.3461 7.07999L11.34 7.05883L11.3318 7.0393ZM11.3366 6.32367C11.1339 6.20052 10.7781 6.2396 10.5387 6.40971C10.3 6.57642 10.2728 6.81304 10.4748 6.9378C10.674 7.05754 11.0312 7.02187 11.2685 6.85032C11.5067 6.68003 11.5365 6.44556 11.3366 6.32367ZM12.5624 9.17573C12.9725 9.17573 13.3929 9.05939 13.7093 8.71415C13.9527 8.43415 14.0643 8.01755 14.103 7.84601C14.2289 7.2774 14.1308 7.01192 14.0077 6.85023C13.8207 6.60376 13.4902 6.5247 13.1473 6.5247C12.9412 6.5247 12.4501 6.54568 12.0665 6.90975C11.791 7.17236 11.6637 7.52872 11.5869 7.87038C11.5094 8.2185 11.4203 8.84518 11.9801 9.0784C12.1528 9.15476 12.4019 9.17573 12.5624 9.17573ZM12.5304 7.89638C12.6249 7.4658 12.7365 7.10442 13.0214 7.10442C13.2447 7.10442 13.2609 7.37331 13.1616 7.80531C13.1439 7.90122 13.0624 8.25776 12.9521 8.40959C12.8752 8.52162 12.7841 8.58956 12.6834 8.58956C12.6535 8.58956 12.4753 8.58956 12.4726 8.31727C12.4712 8.18283 12.4978 8.04552 12.5304 7.89638ZM15.1281 9.12036L15.1602 9.08684C15.2056 8.83893 15.2131 8.78067 15.3138 8.27875C15.3641 8.0407 15.4682 7.51762 15.5171 7.33138C15.6098 7.2871 15.6995 7.24372 15.7893 7.24372C15.9953 7.24372 15.9702 7.42997 15.9621 7.50418C15.9546 7.62894 15.879 8.03568 15.8001 8.38505L15.7512 8.61055C15.7137 8.77726 15.673 8.93895 15.6369 9.10423L15.6526 9.13721C16.0737 9.11409 16.1968 9.11409 16.5572 9.12036L16.6008 9.08684C16.664 8.69947 16.6811 8.59585 16.7995 8.03227L16.8559 7.77307C16.9687 7.26613 17.0258 7.00925 16.9423 6.79988C16.8498 6.56523 16.6328 6.50859 16.4376 6.50859C16.3082 6.50859 16.0709 6.54068 15.86 6.64787C15.7846 6.68856 15.709 6.73535 15.6349 6.78231L15.6995 6.52472L15.6648 6.48116C15.2152 6.57509 15.1125 6.58764 14.6975 6.64787L14.6656 6.67171C14.6153 7.08346 14.5744 7.39286 14.3955 8.20239C14.3274 8.50067 14.2567 8.80182 14.186 9.09939L14.205 9.13721C14.6315 9.11409 14.7588 9.11409 15.1281 9.12036ZM18.2217 9.13712C18.2482 9.00411 18.4054 8.21574 18.4068 8.21574C18.4068 8.21574 18.5407 7.63728 18.5489 7.61631C18.5489 7.61631 18.5911 7.55608 18.6332 7.53223H18.6952C19.2801 7.53223 19.9406 7.53223 20.4583 7.1402C20.8106 6.87131 21.0514 6.47426 21.1589 5.9917C21.1867 5.87339 21.2073 5.73268 21.2073 5.59196C21.2073 5.40715 21.1712 5.2243 21.0671 5.08144C20.8031 4.70123 20.2774 4.69424 19.6705 4.69137C19.6686 4.69137 19.3714 4.69424 19.3714 4.69424C18.5945 4.7041 18.283 4.70123 18.155 4.6851C18.1442 4.74336 18.1239 4.84697 18.1239 4.84697C18.1239 4.84697 17.8456 6.17454 17.8456 6.17669C17.8456 6.17669 17.1797 8.99927 17.1484 9.13228C17.8266 9.12385 18.1047 9.12386 18.2217 9.13712ZM18.7373 6.77882C18.7373 6.77882 19.0332 5.45393 19.0318 5.45895L19.0414 5.39101L19.0456 5.33921L19.1638 5.35175C19.1638 5.35175 19.774 5.40571 19.7882 5.40715C20.0291 5.50305 20.1283 5.75024 20.059 6.0729C19.9958 6.36778 19.81 6.61569 19.5713 6.73544C19.3747 6.8369 19.1338 6.84532 18.8857 6.84532H18.7251L18.7373 6.77882ZM20.5794 7.92092C20.5012 8.26401 20.4114 8.8907 20.9684 9.11405C21.146 9.19185 21.3052 9.21497 21.467 9.20655C21.6378 9.19705 21.7961 9.10885 21.9427 8.98194C21.9295 9.0341 21.9162 9.08626 21.903 9.13861L21.9283 9.17213C22.3289 9.15474 22.4533 9.15474 22.8874 9.15815L22.9267 9.12731C22.9901 8.74371 23.0499 8.37121 23.2146 7.63733C23.2949 7.28581 23.375 6.93769 23.4573 6.5876L23.4444 6.54906C22.9962 6.63457 22.8764 6.65285 22.4453 6.71577L22.4125 6.7432C22.4082 6.77887 22.4036 6.81311 22.3995 6.84735C22.3324 6.73585 22.2353 6.64066 22.0853 6.58133C21.8936 6.50371 21.4433 6.60374 21.0562 6.96655C20.7842 7.22558 20.6536 7.58051 20.5794 7.92092ZM21.5208 7.94189C21.6167 7.51902 21.727 7.16123 22.0125 7.16123C22.1931 7.16123 22.2882 7.33278 22.2689 7.62532C22.2535 7.69828 22.237 7.77518 22.2173 7.86212C22.1888 7.98778 22.1578 8.11236 22.1276 8.23713C22.097 8.32245 22.0613 8.40294 22.0221 8.45654C21.9486 8.56373 21.7738 8.63024 21.6731 8.63024C21.6446 8.63024 21.4684 8.63024 21.4623 8.36278C21.4609 8.2296 21.4875 8.09247 21.5208 7.94189ZM26.4367 6.54564L26.402 6.50495C25.9585 6.59745 25.8782 6.61215 25.4708 6.66879L25.4408 6.69962C25.4394 6.70464 25.4382 6.71235 25.4361 6.71934L25.4347 6.71235C25.1314 7.43278 25.1403 7.27737 24.8933 7.84454C24.8919 7.81872 24.8919 7.80259 24.8906 7.77516L24.8287 6.54564L24.7899 6.50495C24.3253 6.59745 24.3143 6.61215 23.8853 6.66879L23.8518 6.69962C23.8471 6.71432 23.8471 6.73045 23.8444 6.74802L23.8471 6.7543C23.9008 7.03645 23.8879 6.97353 23.9417 7.4188C23.9668 7.63731 24.0002 7.85708 24.0253 8.07291C24.0676 8.43411 24.0913 8.61193 24.143 9.16315C23.8532 9.65539 23.7846 9.84163 23.5057 10.2736L23.5076 10.2779L23.3111 10.5977C23.2887 10.6314 23.2683 10.6546 23.2398 10.6644C23.2084 10.6804 23.1677 10.6832 23.1111 10.6832H23.0022L22.8405 11.2371L23.3954 11.247C23.7212 11.2456 23.926 11.0887 24.0362 10.8779L24.3852 10.2624H24.3796L24.4164 10.219C24.6511 9.69877 26.4367 6.54564 26.4367 6.54564ZM20.5794 13.8203H20.344L21.2153 10.8534H21.5044L21.5962 10.5478L21.605 10.8877C21.5942 11.0978 21.7548 11.284 22.1766 11.2532H22.6643L22.8322 10.6819H22.6486C22.5431 10.6819 22.4942 10.6545 22.5003 10.5957L22.4914 10.2499H21.5882V10.2517C21.2961 10.258 20.4241 10.2805 20.2475 10.3289C20.0338 10.3856 19.8087 10.5523 19.8087 10.5523L19.8971 10.2463H19.0522L18.8762 10.8534L17.9931 13.8657H17.8218L17.6537 14.4328H19.3366L19.2802 14.622H20.1094L20.1644 14.4328H20.3971L20.5794 13.8203ZM19.8889 11.4563C19.7536 11.4948 19.5018 11.6117 19.5018 11.6117L19.7258 10.8534H20.3971L20.2351 11.4059C20.2351 11.4059 20.0277 11.4185 19.8889 11.4563ZM19.9018 12.5395C19.9018 12.5395 19.6909 12.5668 19.5522 12.5991C19.4155 12.6417 19.1591 12.7762 19.1591 12.7762L19.3904 11.9871H20.0652L19.9018 12.5395ZM19.5257 13.8273H18.8523L19.0475 13.1614H19.7188L19.5257 13.8273ZM21.1473 11.9871H22.118L21.9785 12.4521H20.995L20.8473 12.9604H21.7079L21.0563 13.9049C21.0107 13.9743 20.9697 13.9989 20.9243 14.0184C20.8787 14.0422 20.8188 14.0702 20.7494 14.0702H20.5107L20.3467 14.627H20.9711C21.2957 14.627 21.4874 14.475 21.629 14.2755L22.0758 13.6459L22.1718 14.2851C22.1922 14.4049 22.2757 14.475 22.3323 14.5022C22.3949 14.5345 22.4595 14.5899 22.5507 14.5981C22.6486 14.6024 22.7193 14.6058 22.7663 14.6058H23.0731L23.2573 13.9827H23.1363C23.0668 13.9827 22.9472 13.9707 22.9268 13.9483C22.9065 13.9211 22.9065 13.8791 22.8955 13.8153L22.7981 13.1746H22.3996L22.5744 12.9604H23.556L23.707 12.4521H22.7981L22.9397 11.9871H23.8457L24.0138 11.4136H21.3126L21.1473 11.9871ZM12.9494 13.9568L13.1759 13.181H14.107L14.2772 12.6039H13.3452L13.4875 12.1264H14.3982L14.5669 11.5677H12.2882L12.1229 12.1264H12.6406L12.5025 12.6039H11.9834L11.8114 13.1908H12.3289L12.027 14.2173C11.9862 14.3531 12.0461 14.4049 12.0841 14.468C12.1229 14.5295 12.1623 14.5702 12.2507 14.5933C12.342 14.6143 12.4045 14.6269 12.4895 14.6269H13.5392L13.7262 13.9876L13.2609 14.0534C13.1711 14.0534 12.9222 14.0423 12.9494 13.9568ZM13.0562 10.2428L12.8202 10.6818C12.7697 10.7777 12.7243 10.8372 12.6834 10.8647C12.6473 10.8878 12.5759 10.8975 12.4725 10.8975H12.3494L12.1848 11.4591H12.5937C12.7903 11.4591 12.9412 11.3849 13.0133 11.3478C13.0908 11.3051 13.1112 11.3295 13.1711 11.27L13.3092 11.1468H14.586L14.7554 10.5621H13.8208L13.984 10.2428H13.0562ZM14.9411 13.9681C14.9193 13.9358 14.935 13.879 14.9682 13.7607L15.3172 12.5717H16.5586C16.7396 12.569 16.8702 12.5668 16.9551 12.5605C17.0464 12.5507 17.1456 12.5172 17.2538 12.4569C17.3654 12.3938 17.4225 12.3273 17.4707 12.251C17.5246 12.1748 17.6109 12.0081 17.6851 11.751L18.1238 10.2463L16.8355 10.2541C16.8355 10.2541 16.4388 10.3143 16.2642 10.3808C16.0879 10.455 15.8361 10.6622 15.8361 10.6622L15.9525 10.2497H15.1567L14.0425 14.0534C14.003 14.2011 13.9765 14.3083 13.9705 14.3727C13.9684 14.442 14.0554 14.5107 14.1119 14.5625C14.1785 14.6143 14.2771 14.6059 14.3717 14.6143C14.4711 14.622 14.6125 14.6268 14.8077 14.6268H15.4193L15.607 13.9743L15.0595 14.0276C15.001 14.0276 14.9587 13.9953 14.9411 13.9681ZM15.5424 11.7686H16.8463L16.7634 12.036C16.7517 12.0423 16.7239 12.0228 16.5912 12.0389H15.4621L15.5424 11.7686ZM15.8036 10.8716H17.1185L17.0239 11.1937C17.0239 11.1937 16.4042 11.1874 16.3049 11.2063C15.8682 11.2841 15.6131 11.5243 15.6131 11.5243L15.8036 10.8716ZM16.7926 12.9317C16.7818 12.9716 16.7647 12.996 16.7409 13.0143C16.7144 13.0319 16.6716 13.0381 16.6077 13.0381H16.4219L16.4328 12.7124H15.66L15.6287 14.3048C15.6275 14.4197 15.6383 14.4862 15.7199 14.5394C15.8016 14.6059 16.0532 14.6143 16.3919 14.6143H16.8762L17.051 14.0183L16.6294 14.0422L16.4892 14.0506C16.4701 14.0422 16.4518 14.0345 16.4314 14.0135C16.4137 13.9954 16.3837 14.0065 16.3886 13.8916L16.3919 13.4834L16.834 13.4646C17.0728 13.4646 17.1748 13.3846 17.2619 13.3085C17.3449 13.2355 17.3721 13.1516 17.4035 13.0381L17.4776 12.6768H16.8701L16.7926 12.9317Z" fill="var(--fill-0, #FEFEFE)"/>
</g>
</svg>
