<svg preserveAspectRatio="none" width="100%" height="100%" overflow="visible" style="display: block;" viewBox="0 0 750 135" fill="none" xmlns="http://www.w3.org/2000/svg">
<path id="Line" d="M0.50005 134.5L13.7896 125.492C16.3179 123.778 19.0879 122.452 22.008 121.556L25.2956 120.548C31.619 118.609 38.4706 119.479 44.1087 122.937C49.6901 126.36 56.4638 127.249 62.7393 125.381L66.5789 124.238C69.5446 123.355 72.6226 122.907 75.7168 122.907H83.2279C87.2025 122.907 91.1549 122.315 94.9549 121.15L101.129 119.256C104.929 118.091 108.881 117.499 112.856 117.499H117.413C121.384 117.499 125.314 116.704 128.973 115.161L132.854 113.525C137.764 111.455 143.302 111.455 148.212 113.525C154.123 116.017 160.875 115.486 166.323 112.101L170.091 109.76C175.052 106.677 181.151 106.037 186.644 108.022C190.702 109.489 195.138 109.536 199.226 108.157L208.946 104.879L215.213 102.765C221.583 100.616 228.515 100.411 235.011 102.141C241.657 103.911 248.756 103.626 255.224 101.288C258.558 100.084 261.68 98.361 264.477 96.1838L274.152 88.6528L292.859 77.8356L303.336 72.7869C308.752 70.1768 314.688 68.8214 320.7 68.8214H324.901C328.466 68.8214 332.014 68.3448 335.453 67.4044L340.876 65.9211C346.832 64.2922 353.154 64.6219 358.908 66.8614L361.102 67.7152C362.98 68.4462 364.978 68.8214 366.994 68.8214C370.231 68.8214 373.395 69.7887 376.079 71.5993L381.84 75.4859C384.155 77.0479 386.296 78.8542 388.225 80.8737L394.018 86.9381C398.488 91.617 404.026 95.1418 410.157 97.21L415.591 99.0427C416.429 99.3257 417.309 99.47 418.194 99.47C421.017 99.47 423.64 98.0075 425.123 95.6051L432.261 84.0488C434.788 79.9577 438.191 76.4783 442.225 73.8615L447.288 70.5771C449.09 69.4085 450.982 68.3869 452.948 67.5221L458.738 64.9745C461.099 63.9358 463.555 63.1279 466.071 62.562L478.635 59.7366C483.569 58.6272 487.862 55.6075 490.573 51.3392C493.015 47.4959 496.748 44.6507 501.101 43.3158L511.994 39.9756L529.462 35.3238C531.349 34.8214 533.293 34.567 535.245 34.567C538.929 34.567 542.548 35.4894 545.835 37.1545C548.725 38.6193 551.555 39.9756 552.08 39.9756C552.664 39.9756 557.942 41.6599 562.931 43.3018C567.06 44.6602 570.844 46.8924 574.061 49.8141L576.612 52.1307C580.774 55.9103 586.194 58.0042 591.816 58.0042H592.366C597.083 58.0042 601.664 56.4178 605.371 53.5001L605.892 53.0899C611.883 48.3742 620.038 47.4829 626.906 50.7928L637.262 54.2857C644.293 56.6575 651.993 56.003 658.524 52.4787C660.597 51.3596 662.809 50.5193 665.103 49.9796L677.497 47.0628C682.213 45.9529 686.638 43.9118 690.799 41.4306C692.215 40.5863 693.364 39.9756 693.716 39.9756C694.33 39.9756 697.552 36.8775 700.376 34.018C702.285 32.0849 704.875 30.9613 707.592 30.9613C711.505 30.9613 715.05 28.6575 716.64 25.0824L718.035 21.947C720.472 16.4652 725.951 12.9327 731.95 12.9327C736.491 12.9327 740.827 10.9151 743.732 7.42585L749.5 0.500013" stroke="var(--stroke-0, #15B79E)" stroke-linecap="round" stroke-linejoin="round"/>
</svg>
