<svg preserveAspectRatio="none" width="100%" height="100%" overflow="visible" style="display: block;" viewBox="0 0 27.2002 8.61703" fill="none" xmlns="http://www.w3.org/2000/svg">
<g id="Amazon">
<path id="Amazon_2" d="M2.02246 0.0117188C2.43208 0.0117188 2.96733 0.126451 3.28906 0.452148C3.66641 0.823809 3.66466 1.31019 3.66211 1.8418C3.6619 1.8857 3.66113 1.93013 3.66113 1.97461V3.35156C3.66113 3.72241 3.79182 3.90725 3.92969 4.10156C3.94607 4.12465 3.96312 4.14819 3.97949 4.17188C4.03283 4.25003 4.04472 4.34762 3.97949 4.40625C3.80746 4.55735 3.50156 4.83579 3.33398 4.99316L3.32715 4.99219C3.27178 5.0424 3.19265 5.05043 3.12891 5.0127C2.89069 4.80433 2.81832 4.69155 2.70801 4.51855C2.68911 4.48892 2.66867 4.45779 2.64648 4.42383C2.18426 4.91826 1.85743 5.06634 1.25977 5.06641C0.551501 5.06641 0 4.60666 0 3.6875C3.30557e-05 2.96965 0.372289 2.48177 0.893555 2.24219C1.2785 2.0646 1.79227 2.00957 2.23633 1.96191C2.31889 1.95305 2.39911 1.94463 2.47559 1.93555V1.60547C2.47173 1.45452 2.45315 1.30138 2.37402 1.17871C2.27124 1.01591 2.07562 0.949219 1.90137 0.949219C1.58041 0.949219 1.29465 1.12274 1.22461 1.48047C1.21574 1.56393 1.15418 1.63096 1.0752 1.64355L0.266602 1.5498C0.226291 1.54371 0.189645 1.5212 0.166016 1.48633C0.142371 1.45141 0.133851 1.40731 0.141602 1.36523C0.328596 0.325807 1.22198 0.0117973 2.02246 0.0117188ZM13.0498 0.00878906C13.4585 0.00881611 13.993 0.122852 14.3154 0.448242C14.6938 0.817979 14.6914 1.30111 14.6885 1.83008V3.34961C14.6885 3.71958 14.8192 3.90438 14.957 4.09863C14.9733 4.12151 14.9896 4.14449 15.0059 4.16797C15.0625 4.24939 15.0742 4.34539 15.002 4.39941C14.8299 4.55057 14.5249 4.82984 14.3574 4.98633C14.3017 5.03613 14.222 5.0444 14.1582 5.00684C13.9191 4.79764 13.8482 4.68596 13.7363 4.51074C13.7177 4.48159 13.6976 4.45045 13.6758 4.41699C13.214 4.9118 12.8849 5.05957 12.2891 5.05957C11.5809 5.05948 11.0303 4.59993 11.0303 3.68164C11.0304 2.96317 11.4006 2.47585 11.9277 2.23633C12.3135 2.05815 12.8301 2.00335 13.2754 1.95605C13.3559 1.9475 13.4341 1.93844 13.5088 1.92969V1.81836C13.5088 1.79672 13.5096 1.77428 13.5098 1.75195C13.5112 1.55697 13.5125 1.33967 13.4062 1.17676C13.3065 1.01406 13.108 0.946379 12.9346 0.946289C12.6136 0.946289 12.3286 1.11974 12.2578 1.47754C12.2486 1.56071 12.1881 1.62768 12.1094 1.64062L11.2939 1.54785C11.2533 1.54199 11.2162 1.51852 11.1924 1.4834C11.1687 1.44831 11.16 1.40453 11.168 1.3623C11.3557 0.321832 12.2492 0.00878906 13.0498 0.00878906ZM21.1797 0.00585938C22.4285 0.00602985 23.1035 1.13377 23.1035 2.56641C23.1035 3.95129 22.3592 5.04963 21.1797 5.0498C19.9546 5.0498 19.2871 3.92234 19.2871 2.51855C19.2871 1.11482 19.9628 0.00585938 21.1797 0.00585938ZM8.92383 0.0224609C9.36725 -0.0497405 9.8135 0.135033 10.0908 0.505859C10.358 0.887816 10.3028 1.445 10.3027 1.92871V4.79395C10.3019 4.83828 10.2844 4.88045 10.2539 4.91113C10.2234 4.94176 10.1828 4.95901 10.1406 4.95801H9.2998C9.21718 4.95343 9.15159 4.88186 9.15039 4.79492V2.3877C9.1504 2.19665 9.1663 1.71995 9.12695 1.53809C9.06442 1.23288 8.87619 1.14656 8.63281 1.14648C8.40959 1.15365 8.21167 1.30009 8.12988 1.51855C8.04367 1.74871 8.05078 2.12947 8.05078 2.3877V4.79395C8.04997 4.83814 8.03224 4.88047 8.00195 4.91113C7.97178 4.94153 7.93143 4.95867 7.88965 4.95801H7.0459C6.96355 4.95294 6.89903 4.88162 6.89746 4.79492V2.3877C6.89748 1.88117 6.97159 1.13485 6.37598 1.13477C5.78025 1.13477 5.79492 1.8608 5.79492 2.3877V4.79395C5.79412 4.83828 5.77654 4.88044 5.74609 4.91113C5.71568 4.94178 5.67493 4.95895 5.63281 4.95801H4.79102C4.71302 4.95371 4.64923 4.88933 4.6416 4.80762V0.266602C4.6446 0.175847 4.71634 0.103716 4.80273 0.104492H5.58691C5.66727 0.109153 5.73189 0.177245 5.73633 0.261719V0.854492H5.75195C5.95602 0.280607 6.34102 0.0136719 6.85938 0.0136719C7.37764 0.0137237 7.71511 0.280663 7.95117 0.854492C8.10876 0.412905 8.48049 0.0947179 8.92383 0.0224609ZM25.998 0C26.3749 2.24697e-05 26.7429 0.143724 26.9805 0.535156C27.1999 0.898354 27.2002 1.50921 27.2002 1.94824V4.80566C27.1879 4.88901 27.1183 4.94999 27.0381 4.94824H26.1924C26.1165 4.94479 26.0533 4.88476 26.043 4.80566V1.93945C26.0312 1.52578 25.9528 1.11719 25.5166 1.11719C25.3007 1.12778 25.11 1.26971 25.0293 1.48047C24.9117 1.75758 24.8965 2.03494 24.8965 2.3418V4.78516C24.8933 4.87733 24.8201 4.94997 24.7324 4.94824H23.8936C23.8108 4.94367 23.7452 4.87222 23.7441 4.78516V0.244141C23.7531 0.157979 23.8238 0.0935712 23.9062 0.0957031H24.6865C24.7576 0.0981414 24.818 0.150088 24.835 0.222656V0.916992H24.8516C25.0869 0.296132 25.4171 0 25.998 0ZM18.6406 0.0878906C18.6826 0.0864236 18.7238 0.102916 18.7539 0.133789C18.7838 0.164587 18.8001 0.207004 18.7998 0.250977V0.807617C18.7998 0.900785 18.7251 1.02322 18.5918 1.21582L17.1592 3.36621C17.6908 3.3529 18.2531 3.43607 18.7363 3.72168C18.8255 3.77167 18.8828 3.86842 18.8857 3.97461V4.66992C18.8857 4.76535 18.7865 4.8761 18.6816 4.81934C17.7644 4.32371 16.6753 4.32517 15.7598 4.82422C15.6637 4.87824 15.5635 4.76935 15.5635 4.67383V4.0127C15.5547 3.85685 15.5903 3.70171 15.666 3.56738L17.3262 1.06152H15.8779C15.8359 1.06316 15.7948 1.04648 15.7646 1.01562C15.7346 0.984821 15.7174 0.942542 15.7178 0.898438V0.250977C15.7159 0.206913 15.732 0.163908 15.7617 0.132812C15.7916 0.101675 15.833 0.0854735 15.875 0.0878906H18.6406ZM2.47949 2.64551C1.87103 2.64551 1.22852 2.78296 1.22852 3.53613C1.22866 3.91953 1.4169 4.17773 1.73926 4.17773C1.97597 4.17762 2.18826 4.02425 2.32227 3.77539C2.47994 3.48063 2.47979 3.20444 2.47949 2.87891V2.64551ZM13.5107 2.6416C12.9023 2.6416 12.2598 2.77827 12.2598 3.53223C12.2599 3.91483 12.4482 4.17285 12.7705 4.17285C13.0065 4.17279 13.2192 4.01951 13.3525 3.77148C13.5107 3.47517 13.5109 3.19769 13.5107 2.86816V2.6416ZM21.1875 0.933594C20.5673 0.93367 20.5274 1.82068 20.5273 2.375C20.5273 2.38098 20.5273 2.38743 20.5273 2.39355C20.5273 2.95519 20.5278 4.11328 21.1797 4.11328C21.8384 4.11299 21.8633 3.15861 21.8633 2.57617C21.8633 2.1941 21.8475 1.73457 21.7373 1.37207C21.6427 1.05915 21.454 0.933594 21.1875 0.933594Z" fill="var(--fill-0, black)"/>
<path id="Smile" fill-rule="evenodd" clip-rule="evenodd" d="M17.1011 7.84491C17.2925 7.34461 17.7185 6.22346 17.5159 5.95179H17.5174C17.3157 5.67952 16.1837 5.8224 15.6745 5.88667L15.6734 5.88681C15.5185 5.90638 15.4947 5.76467 15.6339 5.66211C16.5381 4.99427 18.0194 5.1853 18.1914 5.41079C18.3635 5.63627 18.1445 7.19742 17.2977 7.94277C17.1674 8.05708 17.043 7.99601 17.1011 7.84491ZM11.0172 8.61688C12.9863 8.61688 15.2794 7.96314 16.8591 6.73786V6.74021C17.1205 6.53352 16.8963 6.22974 16.6297 6.34875C14.9054 7.1133 13.0546 7.51239 11.1833 7.52314C8.58703 7.52314 6.07571 6.77466 4.04401 5.53215C3.86602 5.42333 3.73345 5.61514 3.8824 5.75529C5.83836 7.61048 8.38281 8.631 11.0172 8.61688Z" fill="var(--fill-0, #FF9900)"/>
</g>
</svg>
