<svg width="20" height="20" viewBox="0 0 20 20" fill="none" xmlns="http://www.w3.org/2000/svg">
<g clip-path="url(#clip0_1782_15995)">
<mask id="mask0_1782_15995" style="mask-type:alpha" maskUnits="userSpaceOnUse" x="0" y="0" width="20" height="20">
<rect width="20" height="20" fill="#D9D9D9"/>
</mask>
<g mask="url(#mask0_1782_15995)">
<path d="M4.47844 12.9884L6.40156 14.9116C6.51698 15.027 6.57601 15.1699 6.57865 15.3403C6.58129 15.5106 6.52226 15.6604 6.40156 15.7897C6.27226 15.919 6.12378 15.9836 5.95615 15.9836C5.78837 15.9836 5.63983 15.919 5.51052 15.7897L2.61156 12.8907C2.53351 12.8127 2.47851 12.7304 2.44656 12.6439C2.41448 12.5573 2.39844 12.4639 2.39844 12.3634C2.39844 12.263 2.41448 12.1695 2.44656 12.083C2.47851 11.9965 2.53351 11.9142 2.61156 11.8361L5.52344 8.92427C5.64733 8.80038 5.79233 8.73927 5.95844 8.74094C6.12455 8.74247 6.27226 8.80788 6.40156 8.93719C6.52226 9.06649 6.58476 9.21288 6.58906 9.37635C6.59337 9.53983 6.53087 9.68615 6.40156 9.81531L4.47844 11.7384H9.92073C10.0981 11.7384 10.2466 11.7983 10.3664 11.918C10.4859 12.0376 10.5457 12.1861 10.5457 12.3634C10.5457 12.5408 10.4859 12.6893 10.3664 12.8091C10.2466 12.9286 10.0981 12.9884 9.92073 12.9884H4.47844ZM15.5234 8.25281H10.0811C9.90379 8.25281 9.75524 8.19302 9.63552 8.07344C9.51594 7.95371 9.45615 7.80517 9.45615 7.62781C9.45615 7.45059 9.51594 7.30212 9.63552 7.1824C9.75524 7.06281 9.90379 7.00302 10.0811 7.00302H15.5234L13.6003 5.0799C13.4849 4.96448 13.4259 4.82156 13.4232 4.65115C13.4206 4.48073 13.4796 4.33087 13.6003 4.20156C13.7296 4.0724 13.8781 4.00781 14.0457 4.00781C14.2135 4.00781 14.362 4.0724 14.4914 4.20156L17.3903 7.10073C17.4684 7.17865 17.5234 7.26087 17.5553 7.3474C17.5874 7.43392 17.6034 7.5274 17.6034 7.62781C17.6034 7.72837 17.5874 7.82191 17.5553 7.90844C17.5234 7.99496 17.4684 8.07719 17.3903 8.1551L14.4784 11.067C14.3545 11.1909 14.2095 11.252 14.0434 11.2505C13.8773 11.2489 13.7296 11.1834 13.6003 11.0543C13.4796 10.925 13.4171 10.7786 13.4128 10.6151C13.4085 10.4516 13.471 10.3052 13.6003 10.1759L15.5234 8.25281Z" fill="white"/>
</g>
</g>
<defs>
<clipPath id="clip0_1782_15995">
<rect width="20" height="20" fill="white"/>
</clipPath>
</defs>
</svg>
