<svg preserveAspectRatio="none" width="100%" height="100%" overflow="visible" style="display: block;" viewBox="0 0 15.7012 14.0293" fill="none" xmlns="http://www.w3.org/2000/svg">
<g id="Ideal">
<path id="Union" d="M8.09082 0C13.5884 4.18461e-05 15.701 3.09272 15.7012 7.00195C15.7012 11.6785 12.7483 14.0293 8.09082 14.0293H0V0H8.09082ZM0.768555 13.2383H8.09082C12.5081 13.2382 14.9091 11.1099 14.9092 7.02734C14.9092 2.82099 12.3161 0.840875 8.09082 0.84082H0.768555V13.2383ZM4.10547 12.1992H1.75293V7.89355H4.10547V12.1992ZM2.92969 4.23145C3.73817 4.23185 4.39355 4.90786 4.39355 5.74121C4.39318 6.57423 3.73794 7.2496 2.92969 7.25C2.12111 7.25 1.46522 6.57447 1.46484 5.74121C1.46484 4.90762 2.12087 4.23145 2.92969 4.23145Z" fill="var(--fill-0, black)"/>
<path id="Shape" fill-rule="evenodd" clip-rule="evenodd" d="M12.2441 4.35486H12.9163V6.43332H13.9007C13.6366 2.64756 10.7316 1.80627 8.09071 1.80627H5.28177V4.35486H5.68991C6.45816 4.35486 6.91432 4.87448 6.91432 5.7405C6.91432 6.60653 6.45816 7.12614 5.71391 7.12614H5.28177V12.1986H8.09071C12.3881 12.1986 13.8526 10.1449 13.9247 7.12614H12.2441V4.35486ZM9.00301 6.43332V7.12614H7.32245V4.35486H8.955V5.04768H7.99468V5.36935H8.90698V6.06217H8.01868V6.43332H9.00301ZM9.29104 7.12614L10.1073 4.35486H11.0676L11.8839 7.12614H11.1877L11.0436 6.60653H10.1553L10.0113 7.12614H9.29104ZM10.3549 5.88896H10.3474V5.9137L10.3549 5.88896ZM10.3549 5.88896H10.8276L10.6115 5.12191H10.5875L10.3549 5.88896ZM5.28176 6.43333V5.04769H5.6899C5.95399 5.04769 6.24209 5.12192 6.24209 5.74051C6.24209 6.3591 5.978 6.43333 5.6899 6.43333H5.28176Z" fill="var(--fill-0, #D50072)"/>
</g>
</svg>
