<svg preserveAspectRatio="none" width="100%" height="100%" overflow="visible" style="display: block;" viewBox="0 0 27.5127 6.5" fill="none" xmlns="http://www.w3.org/2000/svg">
<path id="Klarna" d="M9.75488 1.84473C10.2136 1.8448 10.6388 1.99467 10.9912 2.24902V1.9668H12.2393V6.37793H10.9912V6.0957C10.6388 6.35005 10.2137 6.49993 9.75488 6.5C8.54037 6.5 7.55586 5.45813 7.55566 4.17285C7.55566 2.8874 8.54025 1.84473 9.75488 1.84473ZM22.9199 1.84473C23.3787 1.8448 23.8039 1.99468 24.1562 2.24902V1.9668H25.4043V6.37793H24.1562V6.0957C23.8038 6.35004 23.3787 6.49992 22.9199 6.5C21.7054 6.5 20.7209 5.45813 20.7207 4.17285C20.7207 2.8874 21.7053 1.84473 22.9199 1.84473ZM26.7295 4.81348C27.1618 4.81369 27.5127 5.18495 27.5127 5.64258C27.5125 6.09988 27.1617 6.47049 26.7295 6.4707C26.2972 6.4707 25.9465 6.10001 25.9463 5.64258C25.9463 5.18482 26.297 4.81348 26.7295 4.81348ZM1.38379 0V6.37988H0V0H1.38379ZM4.83789 0C4.83789 1.38113 4.32904 2.6661 3.42285 3.62109L5.33398 6.37988H3.62598L1.54883 3.38184L2.08496 2.95703C2.97421 2.25206 3.48438 1.17401 3.48438 0H4.83789ZM7.04395 6.37793H5.7373V0.000976562H7.04395V6.37793ZM14.1699 2.54102C14.4201 2.19665 14.8861 1.96689 15.3926 1.9668V3.25098C15.3877 3.2509 15.3829 3.25 15.3779 3.25C14.8842 3.25007 14.1729 3.62368 14.1729 4.31836V6.37793H12.8926V1.9668H14.1699V2.54102ZM18.5029 1.84863C19.5082 1.8487 20.2793 2.54679 20.2793 3.57324V6.37793H19.0332V4.05078C19.0332 3.40741 18.7174 3.06055 18.1689 3.06055C17.6574 3.06064 17.2326 3.38911 17.2324 4.05957V6.37793H15.9746V1.9668H17.2168V2.46387C17.5322 2.012 18.0044 1.84863 18.5029 1.84863ZM9.85742 3.03809C9.23297 3.03809 8.72656 3.54607 8.72656 4.17285C8.72675 4.79947 9.23309 5.30762 9.85742 5.30762C10.4816 5.30738 10.9871 4.79932 10.9873 4.17285C10.9873 3.54622 10.4817 3.03832 9.85742 3.03809ZM23.0225 3.03809C22.398 3.03809 21.8916 3.54607 21.8916 4.17285C21.8918 4.79947 22.3981 5.30762 23.0225 5.30762C23.6467 5.30738 24.1522 4.79932 24.1523 4.17285C24.1523 3.54622 23.6468 3.03832 23.0225 3.03809Z" fill="var(--fill-0, #17120F)"/>
</svg>
