<svg preserveAspectRatio="none" width="100%" height="100%" overflow="visible" style="display: block;" viewBox="0 0 21.7314 21.7324" fill="none" xmlns="http://www.w3.org/2000/svg">
<path id="BitcoinCash" d="M10.8652 0C16.8662 0 21.7314 4.86497 21.7314 10.8662C21.7314 16.8675 16.8662 21.7324 10.8652 21.7324C4.86449 21.7322 0 16.8673 0 10.8662C1.50145e-05 4.86512 4.8645 0.000253601 10.8652 0ZM10.126 5.99609L7.71191 5.40039L7.39355 6.6748C7.42471 6.68191 8.27765 6.87635 8.2627 6.88965C8.74727 7.01066 8.83531 7.33064 8.82031 7.58398L7.47656 12.9512C7.41719 13.0972 7.26627 13.3176 6.92773 13.2344C6.91488 13.244 6.07919 13.0233 6.05762 13.0176L5.46289 14.3838L7.87402 14.9893L7.37891 16.9717L8.57422 17.2686L9.06543 15.3086C9.39189 15.3962 9.70941 15.478 10.0195 15.5547L9.53027 17.5059L10.7275 17.8037L11.2236 15.8262C13.2654 16.2106 14.8014 16.0553 15.4473 14.2158C15.7874 12.9376 15.4206 11.8804 14.3467 11.3232C15.1295 11.1439 15.7193 10.6311 15.877 9.57227C16.0938 8.12597 14.9878 7.34816 13.4766 6.8291L13.9668 4.86914L12.7695 4.57227L12.292 6.48047C11.9779 6.40242 11.6546 6.32751 11.333 6.25488L11.8135 4.33496L10.6172 4.03711L10.126 5.99609ZM10.1133 11.2471C10.9256 11.4489 13.5276 11.8494 13.1416 13.3936C12.771 14.8737 10.2684 14.0734 9.45605 13.8721L10.1133 11.2471ZM11.0098 7.66406C11.6864 7.83257 13.8623 8.14667 13.5117 9.55078C13.1739 10.8964 11.0906 10.2133 10.4141 10.0459L11.0098 7.66406Z" fill="var(--fill-0, #8FC258)"/>
</svg>
