<svg preserveAspectRatio="none" width="100%" height="100%" overflow="visible" style="display: block;" viewBox="0 0 51 24" fill="none" xmlns="http://www.w3.org/2000/svg">
<g id="Discover">
<path id="Stripe" d="M32 24L51 18.25V21C51 22.6569 49.6569 24 48 24H32Z" fill="var(--fill-0, #FD6020)"/>
<path id="DISC-VER" d="M18.6406 0.184368C19.2504 0.184368 19.9481 0.274431 20.4707 0.632611V2.42363C20.0352 1.88636 19.3375 1.52812 18.6406 1.52812C17.2472 1.61792 16.1151 2.871 16.2021 4.30351V4.48222C16.2021 5.91494 17.3348 6.99003 18.7285 6.99003C19.4252 6.98992 20.0352 6.63171 20.4707 6.09452V7.88554C19.8609 8.15417 19.2506 8.33281 18.5537 8.33281C16.3761 8.33265 14.6338 6.4522 14.6338 4.21367C14.634 1.88585 16.3762 0.00558825 18.6406 0.184368ZM32.3174 5.55742L34.4072 0.184368H35.9756L32.7529 8.33281H31.9688L28.7451 0.184368H30.3135L32.3174 5.55742ZM11.6729 0.00565742C12.4567 0.00577995 13.2409 0.363987 13.8506 0.901165L13.0664 1.97538C12.718 1.61721 12.2822 1.34844 11.8467 1.34843C11.3241 1.25891 10.8889 1.70676 10.8018 2.24394C10.8018 2.69165 11.0626 2.87113 11.9336 3.22929C13.6758 3.94565 14.1111 4.48288 14.1982 5.55742V5.82597C14.1111 7.25863 12.9787 8.33348 11.585 8.24394C10.5398 8.24381 9.49426 7.70635 8.97168 6.72148L9.93066 5.73613C10.192 6.36288 10.8013 6.81124 11.498 6.81132H11.585C12.1075 6.81132 12.6306 6.27387 12.6309 5.64726C12.6309 5.28909 12.4566 5.01971 12.1953 4.84062C11.8469 4.66153 11.4978 4.4829 11.1494 4.39335C9.75592 3.94563 9.32031 3.3184 9.32031 2.24394V2.15409C9.40762 0.900666 10.4535 -0.0838775 11.6729 0.00565742ZM2.61328 0.184368C4.70372 0.273932 6.35837 2.06478 6.27148 4.21367C6.27148 5.37771 5.74895 6.45269 4.87793 7.25859C4.094 7.88531 3.13584 8.24361 2.17773 8.15409H0V0.184368H2.61328ZM8.3623 8.15409H6.88184V0.184368H8.3623V8.15409ZM40.8535 1.52812H38.1533V3.31816H40.7666V4.66191H38.1533V6.81132H40.8535V8.15409H36.6729V0.184368H40.8535V1.52812ZM43.9893 0.184368C45.7313 0.18438 46.6894 0.990373 46.6895 2.51249C46.7766 3.67658 45.9926 4.66153 44.9473 4.84062L47.2988 8.15409H45.4697L43.4668 4.93046H43.292V8.15409H41.8115V0.184368H43.9893ZM3.91992 2.15409C3.39728 1.70646 2.6128 1.43762 1.91602 1.52714H1.48047V6.81034H1.91602C2.61288 6.89989 3.39727 6.63112 3.91992 6.18339C4.44223 5.64627 4.704 4.93032 4.7041 4.1248C4.70406 3.4085 4.44252 2.69132 3.91992 2.15409ZM43.292 3.85527H43.7275C44.6856 3.85527 45.122 3.4081 45.1221 2.60234C45.122 1.88607 44.6857 1.43827 43.7275 1.43827H43.292V3.85527Z" fill="var(--fill-0, black)"/>
<path id="O" fill-rule="evenodd" clip-rule="evenodd" d="M24.9129 2.90537e-10C22.7352 2.90537e-10 20.9059 1.7909 20.9059 4.11907C20.9059 6.35769 22.6481 8.23813 24.9129 8.32768C27.1777 8.41722 28.9198 6.53678 29.0069 4.20861C28.9198 1.88044 27.1777 2.90537e-10 24.9129 2.90537e-10V2.90537e-10Z" fill="var(--fill-0, #FD6020)"/>
</g>
</svg>
