<svg preserveAspectRatio="none" width="100%" height="100%" overflow="visible" style="display: block;" viewBox="0 0 21.8573 13.4111" fill="none" xmlns="http://www.w3.org/2000/svg">
<g id="Maestro">
<path id="Left" d="M6.62891 0C10.2898 5.52664e-05 13.2578 3.0026 13.2578 6.70605C13.2577 10.4094 10.2897 13.4111 6.62891 13.4111C2.96802 13.4111 0.000158959 10.4094 0 6.70605C0 3.00257 2.96792 0 6.62891 0Z" fill="var(--fill-0, #ED0006)"/>
<path id="Right" d="M15.2284 0C18.8894 5.50057e-05 21.8573 3.0026 21.8573 6.70605C21.8572 10.4094 18.8893 13.4111 15.2284 13.4111C11.5675 13.4111 8.59968 10.4094 8.59952 6.70605C8.59952 3.00257 11.5674 0 15.2284 0Z" fill="var(--fill-0, #0099DF)"/>
<path id="Middle" d="M10.9287 1.6039C12.3533 2.83379 13.2577 4.66238 13.2578 6.70546C13.2578 8.74853 12.3532 10.5771 10.9287 11.807C9.50412 10.5771 8.59958 8.74858 8.59958 6.70546C8.59967 4.66233 9.50402 2.83379 10.9287 1.6039Z" fill="var(--fill-0, #6C6BBD)"/>
</g>
</svg>
