<svg preserveAspectRatio="none" width="100%" height="100%" overflow="visible" style="display: block;" viewBox="0 0 25.0952 23.3333" fill="none" xmlns="http://www.w3.org/2000/svg">
<path id="WeChat" d="M9.12653 14.7598C9.01325 14.82 8.88577 14.8549 8.7502 14.8549C8.43644 14.8549 8.16374 14.673 8.02055 14.4038L7.96571 14.2774L5.68136 8.99467C5.6567 8.93725 5.64143 8.87224 5.64143 8.80899C5.64143 8.56553 5.82876 8.3683 6.05978 8.3683C6.15349 8.3683 6.24027 8.40103 6.31002 8.45568L9.00571 10.4784C9.2026 10.614 9.43792 10.6936 9.69088 10.6936C9.84189 10.6936 9.98578 10.6641 10.12 10.6126L22.7968 4.66669C20.5245 1.84452 16.7822 0 12.5474 0C5.61739 0 0 4.93345 0 11.0196C0 14.3397 1.69008 17.3286 4.33549 19.3488C4.54765 19.5085 4.68663 19.7708 4.68663 20.0669C4.68663 20.1648 4.66671 20.2541 4.64241 20.3475C4.43113 21.178 4.09297 22.5082 4.07726 22.5705C4.05085 22.6747 4.0097 22.7836 4.0097 22.8926C4.0097 23.1361 4.19686 23.3333 4.42823 23.3333C4.51887 23.3333 4.5931 23.2977 4.66969 23.2513L7.41662 21.5799C7.62325 21.4544 7.84199 21.3764 8.08311 21.3764C8.2113 21.3764 8.33519 21.3974 8.45171 21.4349C9.73317 21.8234 11.1158 22.0392 12.5475 22.0392C19.4771 22.0392 25.0952 17.1054 25.0952 11.0196C25.0952 9.17618 24.5769 7.44012 23.6658 5.91295L9.21848 14.7039L9.12653 14.7598Z" fill="var(--fill-0, #1AAD19)"/>
</svg>
