<svg preserveAspectRatio="none" width="100%" height="100%" overflow="visible" style="display: block;" viewBox="0 0 46.6667 11.7667" fill="none" xmlns="http://www.w3.org/2000/svg">
<g id="Alipay">
<path id="Vector" d="M9.79932 0H1.86927C0.836542 0 0 0.844257 0 1.8847V9.88199C0 10.9224 0.836542 11.7667 1.86927 11.7667H9.79932C10.8321 11.7667 11.6675 10.9224 11.6675 9.88199V1.8847C11.6686 0.843155 10.8321 0 9.79932 0Z" fill="var(--fill-0, #1677FF)"/>
<path id="Vector_2" d="M9.60643 7.38889C9.14021 7.23128 8.51308 6.98991 7.81541 6.73531C8.23423 6.00017 8.56929 5.16362 8.78972 4.25434H6.48951V3.4189H9.30664V2.95269H6.48951V1.55955H5.33995C5.13826 1.55955 5.13826 1.76015 5.13826 1.76015V2.95158H2.28917V3.4178H5.13826V4.25324H2.78514V4.71945H7.34809C7.18167 5.29919 6.95683 5.84476 6.6912 6.33963C5.211 5.84697 3.6305 5.44798 2.63855 5.69376C2.00371 5.85137 1.59481 6.13242 1.35454 6.4278C0.252373 7.78016 1.04262 9.83459 3.37039 9.83459C4.74699 9.83459 6.07289 9.06087 7.10011 7.78567C8.63322 8.52852 11.6675 9.80483 11.6675 9.80483V7.98626C11.6686 7.98626 11.2872 7.9554 9.60643 7.38889ZM3.15326 9.04874C1.338 9.04874 0.801249 7.60712 1.69841 6.81797C1.9982 6.55125 2.54487 6.42119 2.83584 6.39253C3.91376 6.28562 4.91232 6.70004 6.09053 7.27978C5.2628 8.36871 4.20803 9.04874 3.15326 9.04874Z" fill="var(--fill-0, white)"/>
<path id="Vector_3" d="M25.3354 1.72268C25.3354 2.33108 25.7807 2.74108 26.4012 2.74108C27.0217 2.74108 27.467 2.33108 27.467 1.72268C27.467 1.12531 27.0217 0.704286 26.4012 0.704286C25.7807 0.704286 25.3354 1.12531 25.3354 1.72268Z" fill="var(--fill-0, #1677FF)"/>
<path id="Vector_4" d="M24.2112 0.9611H22.3618V9.50727H24.2112V0.9611Z" fill="var(--fill-0, black)"/>
<path id="Vector_5" d="M19.1192 1.25424H16.6371L13.863 9.50833H15.5724L16.0408 7.89256H18.9792L19.4245 9.50833H21.6134L19.1192 1.25424ZM16.4266 6.54572L17.5266 2.74105H17.5728L18.6144 6.54572H16.4266Z" fill="var(--fill-0, black)"/>
<path id="Vector_6" d="M27.3259 3.23267H25.4765V9.50839H27.3259V3.23267Z" fill="var(--fill-0, black)"/>
<path id="Vector_7" d="M46.6556 3.2448L46.6667 3.23267H44.923L43.822 7.04946H43.7636L42.4994 3.23267H40.4273L42.9204 9.53153L41.8789 11.4515V11.4978H43.5057L46.6556 3.2448Z" fill="var(--fill-0, black)"/>
<path id="Vector_8" d="M31.9274 3.10373C31.2485 3.10373 30.7216 3.36163 30.1243 3.8532V3.23268H28.2749V11.4978H30.1243V9.44888C30.4759 9.54256 30.8032 9.58995 31.2011 9.58995C32.8521 9.58995 34.3389 8.37206 34.3389 6.20631C34.3389 4.2632 33.2621 3.10373 31.9274 3.10373ZM30.7558 8.43048C30.5453 8.43048 30.3458 8.40733 30.1232 8.33679V4.94213C30.51 4.6732 30.8253 4.54425 31.2231 4.54425C31.9142 4.54425 32.4642 5.09423 32.4642 6.26583C32.4653 7.76367 31.6574 8.43048 30.7558 8.43048Z" fill="var(--fill-0, black)"/>
<path id="Vector_9" d="M40.0636 7.93891V5.31687C40.0636 3.88846 39.2205 3.10373 37.7336 3.10373C36.7847 3.10373 36.13 3.26795 34.9353 3.63056L35.2626 5.07109C36.3515 4.57952 36.831 4.36901 37.3347 4.36901C37.9431 4.36901 38.2131 4.80216 38.2131 5.47007V5.51636C36.0936 5.91424 35.4378 6.13688 35.0289 6.54688C34.7247 6.85108 34.5958 7.28423 34.5958 7.78792C34.5958 8.99368 35.5326 9.63735 36.4099 9.63735C37.0657 9.63735 37.5926 9.39156 38.3068 8.85261L38.4357 9.50839H40.2851L40.0636 7.93891ZM38.2142 7.9863C37.7226 8.25523 37.4416 8.36104 37.1142 8.36104C36.669 8.36104 36.3879 8.06786 36.3879 7.60055C36.3879 7.4253 36.4232 7.24896 36.5632 7.10898C36.7858 6.88635 37.2189 6.72212 38.2142 6.48847V7.9863Z" fill="var(--fill-0, black)"/>
</g>
</svg>
