<svg preserveAspectRatio="none" width="100%" height="100%" overflow="visible" style="display: block;" viewBox="0 0 19 19" fill="none" xmlns="http://www.w3.org/2000/svg">
<path id="icon" d="M8.08075 11.6463L5.75775 9.323C5.61925 9.18467 5.44517 9.11383 5.2355 9.1105C5.026 9.10733 4.84875 9.17817 4.70375 9.323C4.55892 9.468 4.4865 9.64367 4.4865 9.85C4.4865 10.0563 4.55892 10.232 4.70375 10.377L7.448 13.1212C7.62883 13.3019 7.83975 13.3923 8.08075 13.3923C8.32175 13.3923 8.53267 13.3019 8.7135 13.1212L14.277 7.55775C14.4153 7.41925 14.4862 7.24517 14.4895 7.0355C14.4927 6.826 14.4218 6.64875 14.277 6.50375C14.132 6.35892 13.9563 6.2865 13.75 6.2865C13.5437 6.2865 13.368 6.35892 13.223 6.50375L8.08075 11.6463ZM9.50175 19C8.18775 19 6.95267 18.7507 5.7965 18.252C4.64033 17.7533 3.63467 17.0766 2.7795 16.2218C1.92433 15.3669 1.24725 14.3617 0.74825 13.206C0.249417 12.0503 0 10.8156 0 9.50175C0 8.18775 0.249333 6.95267 0.748 5.7965C1.24667 4.64033 1.92342 3.63467 2.77825 2.7795C3.63308 1.92433 4.63833 1.24725 5.794 0.74825C6.94967 0.249417 8.18442 0 9.49825 0C10.8123 0 12.0473 0.249333 13.2035 0.748C14.3597 1.24667 15.3653 1.92342 16.2205 2.77825C17.0757 3.63308 17.7528 4.63833 18.2518 5.794C18.7506 6.94967 19 8.18442 19 9.49825C19 10.8123 18.7507 12.0473 18.252 13.2035C17.7533 14.3597 17.0766 15.3653 16.2218 16.2205C15.3669 17.0757 14.3617 17.7528 13.206 18.2518C12.0503 18.7506 10.8156 19 9.50175 19ZM9.5 17.5C11.7333 17.5 13.625 16.725 15.175 15.175C16.725 13.625 17.5 11.7333 17.5 9.5C17.5 7.26667 16.725 5.375 15.175 3.825C13.625 2.275 11.7333 1.5 9.5 1.5C7.26667 1.5 5.375 2.275 3.825 3.825C2.275 5.375 1.5 7.26667 1.5 9.5C1.5 11.7333 2.275 13.625 3.825 15.175C5.375 16.725 7.26667 17.5 9.5 17.5Z" fill="var(--fill-0, #067647)"/>
</svg>
