<svg preserveAspectRatio="none" width="100%" height="100%" overflow="visible" style="display: block;" viewBox="0 0 1102 41.0003" fill="none" xmlns="http://www.w3.org/2000/svg">
<path id="Line" d="M1.00011 40.0002L25.9293 36.7896L51.6375 35.2917L77.3457 38.2875L103.833 36.7896H130.32L156.028 35.2917H180.179L205.108 33.2945L230.037 35.2917L259.64 31.7966L281.453 33.2945L304.824 31.7966L328.196 30.2988L357.799 31.7966L379.612 30.2988L399.867 27.303L427.133 24.3072L454.4 21.8107H481.666L510.49 20.3128L530.745 21.8107H542.431L561.907 24.3072L584.499 28.8009L607.87 30.2988H616.439L635.915 24.3072L656.17 21.8107L674.088 20.3128L709.145 18.8149L720.83 15.3199L746.538 13.822L776.142 12.3241H788.606C793.54 12.8234 803.72 13.822 804.966 13.822C806.213 13.822 822.105 14.8206 829.895 15.3199L850.15 18.8149H874.3L897.671 15.3199L914.031 16.8178L945.193 18.8149L964.669 16.8178L998.167 15.3199C1002.06 14.8206 1010.16 13.822 1011.41 13.822C1012.66 13.822 1021.28 12.1577 1025.43 11.3255H1041.01L1052.7 6.33255H1077.63L1101 1.00022" stroke="var(--stroke-0, #7F56D9)" stroke-width="2" stroke-linecap="round" stroke-linejoin="round"/>
</svg>
