<svg preserveAspectRatio="none" width="100%" height="100%" overflow="visible" style="display: block;" viewBox="0 0 40.4766 15.0215" fill="none" xmlns="http://www.w3.org/2000/svg">
<g id="SEPA">
<path id="S-PA" d="M5.53027 12.7598C5.71961 12.7598 5.8759 12.8462 5.99902 13.0176V12.7988H6.37695V14.2178C6.37693 14.4042 6.36193 14.5437 6.33203 14.6357C6.30225 14.7281 6.25995 14.8 6.20605 14.8525C6.15213 14.9051 6.08024 14.9468 5.99023 14.9766C5.9003 15.0062 5.78669 15.0215 5.64941 15.0215C5.38982 15.0215 5.20552 14.9749 5.09668 14.8828C4.98788 14.7905 4.93359 14.673 4.93359 14.5312C4.9336 14.5173 4.93364 14.5004 4.93457 14.4805L5.39551 14.5322C5.40329 14.591 5.42132 14.6322 5.44922 14.6543C5.48786 14.6857 5.54909 14.7012 5.63184 14.7012C5.73764 14.7011 5.81704 14.6849 5.87012 14.6523C5.90559 14.6305 5.9328 14.5953 5.95117 14.5469C5.96365 14.512 5.96973 14.4477 5.96973 14.3545L5.97168 14.124C5.85175 14.2924 5.69924 14.377 5.51465 14.377C5.30876 14.3769 5.14558 14.2871 5.02539 14.1074C4.93119 13.9655 4.88477 13.7884 4.88477 13.5771C4.88481 13.3123 4.94583 13.1097 5.06934 12.9697C5.19282 12.83 5.34676 12.7598 5.53027 12.7598ZM22.7891 13.9189L23.1475 12.7988H23.5664L22.9287 14.5947C22.893 14.6871 22.8593 14.758 22.8271 14.8066C22.795 14.8551 22.7576 14.8947 22.7158 14.9248C22.6739 14.955 22.6225 14.9784 22.5615 14.9951C22.5004 15.0121 22.4305 15.0215 22.3535 15.0215C22.2757 15.0215 22.1989 15.0129 22.124 14.9961L22.0859 14.6689C22.1496 14.6821 22.2077 14.6885 22.2588 14.6885C22.3536 14.6885 22.4233 14.659 22.4688 14.6016C22.5142 14.5437 22.5491 14.4699 22.5732 14.3809L21.9902 12.7988H22.4219L22.7891 13.9189ZM0.861328 12.1592C1.12625 12.1592 1.326 12.2198 1.45996 12.3398C1.59367 12.46 1.66413 12.6201 1.6709 12.8203L1.24316 12.8379C1.22492 12.7259 1.18605 12.6449 1.12598 12.5957C1.06601 12.5466 0.975533 12.5225 0.855469 12.5225C0.731535 12.5225 0.634605 12.549 0.564453 12.6016C0.519401 12.6351 0.497088 12.68 0.49707 12.7363C0.49707 12.7879 0.51829 12.8323 0.560547 12.8691C0.614424 12.9155 0.745202 12.9636 0.952148 13.0137C1.1593 13.064 1.31274 13.1167 1.41211 13.1709C1.51125 13.225 1.58935 13.2989 1.64551 13.3926C1.70147 13.4865 1.72943 13.6024 1.72949 13.7402C1.72949 13.8656 1.69527 13.9835 1.62793 14.0928C1.5606 14.2018 1.46563 14.2829 1.34277 14.3359C1.21977 14.389 1.06644 14.416 0.882812 14.416C0.615743 14.416 0.41083 14.3516 0.267578 14.2236C0.124528 14.0956 0.0386997 13.9092 0.0107422 13.6641L0.425781 13.6201C0.450715 13.7643 0.500909 13.8707 0.577148 13.9385C0.653604 14.0061 0.757019 14.04 0.886719 14.04C1.02409 14.04 1.12751 14.0093 1.19727 13.9492C1.26676 13.8891 1.30176 13.8187 1.30176 13.7383C1.30167 13.6869 1.28684 13.6427 1.25781 13.6064C1.22852 13.5704 1.1771 13.5396 1.10449 13.5127C1.0545 13.4951 0.941369 13.4632 0.764648 13.418C0.536522 13.3599 0.376219 13.2882 0.28418 13.2031C0.154869 13.0836 0.0898543 12.9377 0.0898438 12.7656C0.0898438 12.6551 0.120602 12.5514 0.181641 12.4551C0.242522 12.3587 0.330693 12.2857 0.445312 12.2354C0.560145 12.185 0.699006 12.1592 0.861328 12.1592ZM8.3584 12.7598C8.58686 12.7598 8.76741 12.8382 8.89941 12.9941C9.03131 13.1503 9.09459 13.3891 9.08887 13.7109H8.07031C8.07313 13.8352 8.10589 13.9318 8.16895 14.001C8.23193 14.0698 8.31025 14.1044 8.4043 14.1045C8.46829 14.1045 8.52281 14.0873 8.56641 14.0518C8.60999 14.0164 8.64277 13.9587 8.66504 13.8799L9.06738 13.9492C9.01533 14.1011 8.9335 14.2174 8.82129 14.2969C8.70901 14.3766 8.56804 14.416 8.39941 14.416C8.13235 14.416 7.93474 14.3255 7.80664 14.1455C7.70547 14.0014 7.65527 13.8194 7.65527 13.5996C7.65532 13.3375 7.72147 13.1321 7.85449 12.9834C7.9874 12.8347 8.15523 12.7598 8.3584 12.7598ZM12.8662 13.5244C12.8662 13.7463 12.8737 13.8825 12.8887 13.9326C12.9035 13.9829 12.9304 14.0224 12.9697 14.0518C13.0092 14.0809 13.0595 14.0957 13.1201 14.0957C13.1891 14.0956 13.2511 14.0763 13.3057 14.0371C13.3604 13.998 13.3977 13.9496 13.418 13.8916C13.4381 13.8337 13.4482 13.6916 13.4482 13.4658V12.7988H13.8555V14.377H13.4775V14.1406C13.4216 14.2247 13.3488 14.2922 13.2578 14.3418C13.1669 14.3912 13.0707 14.4159 12.9697 14.416C12.8666 14.416 12.7734 14.3923 12.6914 14.3457C12.6098 14.2991 12.5502 14.2335 12.5137 14.1494C12.4771 14.0651 12.459 13.9485 12.459 13.7998V12.7988H12.8662V13.5244ZM16.2881 12.7598C16.5197 12.7598 16.7103 12.8376 16.8584 12.9932C17.0064 13.1488 17.0801 13.3463 17.0801 13.584C17.08 13.8234 17.0048 14.0222 16.8555 14.1797C16.7061 14.3371 16.5177 14.416 16.291 14.416C16.1508 14.416 16.0169 14.3828 15.8896 14.3174C15.7625 14.2518 15.6658 14.1558 15.5996 14.0293C15.5332 13.9024 15.5 13.7476 15.5 13.5654C15.5 13.4263 15.5332 13.2914 15.5996 13.1611C15.6658 13.0312 15.7594 12.9318 15.8809 12.8633C16.0023 12.7947 16.1383 12.7598 16.2881 12.7598ZM21.0537 12.7598C21.2341 12.7598 21.3687 12.7823 21.457 12.8262C21.5454 12.8706 21.6076 12.9272 21.6436 12.9951C21.6796 13.0631 21.6982 13.1877 21.6982 13.3691L21.6943 13.8574C21.6943 13.9963 21.7 14.0992 21.7129 14.165C21.7259 14.231 21.7506 14.3016 21.7861 14.377H21.3838C21.3731 14.3498 21.3601 14.3093 21.3447 14.2559C21.338 14.2314 21.3328 14.2149 21.3301 14.207C21.2609 14.2765 21.1871 14.3285 21.1084 14.3633C21.0297 14.398 20.9458 14.416 20.8564 14.416C20.699 14.416 20.575 14.3714 20.4844 14.2832C20.3937 14.1948 20.3486 14.0832 20.3486 13.9482C20.3486 13.859 20.369 13.779 20.4102 13.709C20.4516 13.6392 20.5097 13.586 20.584 13.5488C20.6586 13.5118 20.766 13.479 20.9062 13.4512C21.0955 13.4145 21.2267 13.3795 21.2998 13.3477V13.3057C21.2998 13.2246 21.2807 13.1665 21.2422 13.1318C21.2034 13.0973 21.1298 13.0801 21.0225 13.0801C20.9503 13.0801 20.8941 13.0948 20.8535 13.124C20.8129 13.1535 20.7798 13.2056 20.7549 13.2793L20.3906 13.21C20.4319 13.0571 20.5026 12.9436 20.6035 12.8701C20.7045 12.7968 20.8549 12.7598 21.0537 12.7598ZM27.2119 12.7598C27.4403 12.7598 27.62 12.8384 27.752 12.9941C27.8839 13.1503 27.9471 13.389 27.9414 13.7109H26.9229C26.9258 13.8352 26.9594 13.9318 27.0225 14.001C27.0853 14.0698 27.1636 14.1045 27.2578 14.1045C27.3216 14.1045 27.3754 14.0871 27.4189 14.0518C27.4628 14.0163 27.4963 13.9587 27.5186 13.8799L27.9209 13.9492C27.8687 14.1012 27.7861 14.2174 27.6738 14.2969C27.5615 14.3763 27.4213 14.416 27.2529 14.416C26.986 14.416 26.7884 14.3255 26.6602 14.1455C26.5589 14.0014 26.5078 13.8195 26.5078 13.5996C26.5079 13.3377 26.5745 13.132 26.707 12.9834C26.8401 12.8347 27.0085 12.7598 27.2119 12.7598ZM30.6748 12.7988H30.9512V13.1318H30.6748V13.7705C30.6748 13.8996 30.6774 13.9748 30.6826 13.9961C30.6877 14.0175 30.6994 14.0349 30.7178 14.0488C30.7362 14.0626 30.758 14.0702 30.7842 14.0703C30.8212 14.0703 30.8753 14.057 30.9453 14.0303L30.9805 14.3535C30.8867 14.3951 30.7805 14.416 30.6621 14.416C30.5894 14.416 30.5241 14.4032 30.4658 14.3779C30.4076 14.3528 30.3643 14.3196 30.3369 14.2793C30.3098 14.2392 30.2907 14.1846 30.2803 14.1162C30.2716 14.0674 30.2676 13.9688 30.2676 13.8213V13.1318H30.083V12.7988H30.2676V12.4834L30.6748 12.2373V12.7988ZM31.8779 12.7598C32.0885 12.7598 32.2452 12.7954 32.3477 12.8652C32.4497 12.9351 32.5198 13.0384 32.5586 13.1748L32.1777 13.249C32.1612 13.1877 32.1292 13.1401 32.083 13.1074C32.0367 13.0748 31.971 13.0586 31.8857 13.0586C31.7782 13.0586 31.7009 13.0736 31.6543 13.1045C31.623 13.1263 31.6074 13.1556 31.6074 13.1904C31.6076 13.2202 31.6206 13.2457 31.6475 13.2666C31.6841 13.2944 31.8117 13.3339 32.0283 13.3848C32.2444 13.4356 32.3955 13.4977 32.4814 13.5713C32.5662 13.646 32.6094 13.7503 32.6094 13.8838C32.6094 14.0291 32.5506 14.1542 32.4336 14.2588C32.3162 14.3635 32.1427 14.416 31.9131 14.416C31.7048 14.416 31.5395 14.3719 31.418 14.2852C31.2966 14.1982 31.2171 14.0806 31.1797 13.9316L31.5859 13.8672C31.6033 13.9477 31.6387 14.0089 31.6914 14.0508C31.7443 14.0926 31.8182 14.1133 31.9131 14.1133C32.0178 14.1133 32.0967 14.0935 32.1494 14.0537C32.1849 14.0257 32.2031 13.9883 32.2031 13.9414C32.2031 13.9097 32.193 13.883 32.1738 13.8623C32.1534 13.8422 32.1077 13.8237 32.0371 13.8066C31.7088 13.7318 31.5009 13.6631 31.4131 13.6016C31.2913 13.5162 31.2305 13.3978 31.2305 13.2461C31.2305 13.1089 31.2825 12.9936 31.3877 12.9004C31.4931 12.807 31.6567 12.7598 31.8779 12.7598ZM38 12.7598C38.2281 12.7598 38.408 12.8384 38.54 12.9941C38.6719 13.1503 38.7352 13.389 38.7295 13.7109H37.7109C37.7139 13.835 37.7468 13.9318 37.8096 14.001C37.8728 14.0699 37.9519 14.1045 38.0459 14.1045C38.1097 14.1044 38.1634 14.0871 38.207 14.0518C38.2506 14.0163 38.2842 13.9587 38.3066 13.8799L38.709 13.9492C38.6569 14.1012 38.5742 14.2174 38.4619 14.2969C38.3498 14.3763 38.2093 14.416 38.041 14.416C37.7739 14.416 37.5754 14.3255 37.4473 14.1455C37.3462 14.0014 37.2959 13.8193 37.2959 13.5996C37.2959 13.3376 37.3623 13.132 37.4951 12.9834C37.6279 12.8347 37.7968 12.7598 38 12.7598ZM39.7432 12.7598C39.9239 12.7598 40.0591 12.7822 40.1475 12.8262C40.2359 12.8706 40.298 12.9272 40.334 12.9951C40.37 13.0631 40.3887 13.1878 40.3887 13.3691L40.3838 13.8574C40.3838 13.9963 40.3904 14.0992 40.4033 14.165C40.4163 14.231 40.4412 14.3016 40.4766 14.377H40.0742C40.0635 14.3498 40.0507 14.3093 40.0352 14.2559C40.0286 14.2314 40.0232 14.2149 40.0205 14.207C39.9513 14.2765 39.8775 14.3284 39.7988 14.3633C39.7201 14.398 39.6362 14.416 39.5469 14.416C39.3895 14.416 39.2655 14.3714 39.1748 14.2832C39.0843 14.1948 39.0381 14.0832 39.0381 13.9482C39.0381 13.859 39.0593 13.779 39.1006 13.709C39.1419 13.6391 39.2001 13.586 39.2744 13.5488C39.349 13.5118 39.4564 13.479 39.5967 13.4512C39.7859 13.4145 39.9171 13.3795 39.9902 13.3477V13.3057C39.9902 13.2245 39.9702 13.1665 39.9316 13.1318C39.8929 13.0974 39.8199 13.0801 39.7129 13.0801C39.6408 13.0801 39.5845 13.0949 39.5439 13.124C39.5034 13.1535 39.4703 13.2056 39.4453 13.2793L39.0801 13.21C39.1214 13.0571 39.1931 12.9436 39.2939 12.8701C39.3949 12.7969 39.5447 12.7598 39.7432 12.7598ZM2.5791 14.377H2.17285V12.7988H2.5791V14.377ZM3.96289 12.7598C4.052 12.7598 4.13327 12.7775 4.20703 12.8105C4.28091 12.8437 4.33704 12.8859 4.375 12.9375C4.41296 12.9891 4.44019 13.0477 4.45508 13.1133C4.46993 13.1787 4.47656 13.2727 4.47656 13.3945V14.377H4.07031V13.5703C4.07031 13.3996 4.06209 13.2884 4.04492 13.2383C4.02768 13.1885 3.9994 13.1498 3.96094 13.1221C3.92217 13.0944 3.87478 13.0801 3.82031 13.0801C3.75062 13.0801 3.68823 13.1001 3.63281 13.1396C3.57727 13.1793 3.53908 13.2323 3.51855 13.2979C3.49796 13.3634 3.4873 13.4846 3.4873 13.6611V14.377H3.08105V12.7988H3.45801V13.0312C3.59149 12.8507 3.76032 12.7598 3.96289 12.7598ZM7.27051 14.377H6.86328V12.1982H7.27051V14.377ZM11.9824 12.5654H10.8467V13.0498H11.9033V13.417H10.8467V14.0098H12.0244V14.377H10.4189V12.1982H11.9824V12.5654ZM15.0684 12.7598C15.1607 12.7598 15.2504 12.7862 15.3359 12.8389L15.2119 13.2051C15.1435 13.1596 15.0793 13.1367 15.0205 13.1367C14.9637 13.1368 14.9154 13.1526 14.876 13.1846C14.8365 13.2169 14.8058 13.2753 14.7832 13.3594C14.7605 13.4436 14.749 13.6202 14.749 13.8887V14.377H14.3418V12.7988H14.7197V13.0234C14.7842 12.9176 14.8421 12.8473 14.8936 12.8125C14.945 12.7779 15.0031 12.7598 15.0684 12.7598ZM19.0889 12.1982C19.3478 12.1983 19.5169 12.2088 19.5957 12.2305C19.7166 12.2631 19.8177 12.3349 19.8994 12.4443C19.9811 12.5538 20.0225 12.6957 20.0225 12.8691C20.0224 13.0026 19.9991 13.1148 19.9521 13.2061C19.9052 13.2971 19.8449 13.3689 19.7725 13.4209C19.7001 13.473 19.6265 13.5075 19.5518 13.5244C19.4499 13.5453 19.3021 13.5557 19.1094 13.5557H18.832V14.377H18.4043V12.1982H19.0889ZM25.6367 12.7598C25.7491 12.7598 25.8441 12.7839 25.9219 12.8311C25.9998 12.8779 26.0582 12.9476 26.0967 13.0391C26.1244 13.1064 26.1387 13.2155 26.1387 13.3662V14.377H25.7324V13.4736C25.7324 13.3172 25.7181 13.2157 25.6904 13.1699C25.6529 13.1102 25.5952 13.0801 25.5176 13.0801C25.4608 13.0801 25.4073 13.098 25.3574 13.1338C25.3076 13.1696 25.272 13.222 25.25 13.291C25.2279 13.3598 25.2168 13.4686 25.2168 13.6172V14.377H24.8096V13.5107C24.8096 13.357 24.8025 13.2578 24.7881 13.2129C24.7738 13.1685 24.7517 13.1351 24.7217 13.1133C24.6914 13.0916 24.6496 13.0801 24.5977 13.0801C24.5355 13.0802 24.4794 13.0973 24.4297 13.1318C24.3799 13.1665 24.344 13.2169 24.3223 13.2822C24.3007 13.3478 24.29 13.4566 24.29 13.6084V14.377H23.8838V12.7988H24.2568V13.0146C24.3908 12.8452 24.5503 12.7598 24.7354 12.7598C24.8334 12.7598 24.919 12.7807 24.9912 12.8223C25.0635 12.864 25.1228 12.9275 25.1689 13.0117C25.2363 12.9275 25.309 12.864 25.3867 12.8223C25.4647 12.7807 25.5483 12.7598 25.6367 12.7598ZM29.2373 12.7598C29.3264 12.7598 29.4078 12.7775 29.4814 12.8105C29.5553 12.8437 29.6115 12.886 29.6494 12.9375C29.6874 12.9891 29.7136 13.0477 29.7285 13.1133C29.7435 13.1787 29.751 13.2726 29.751 13.3945V14.377H29.3447V13.5703C29.3447 13.3996 29.3364 13.2884 29.3193 13.2383C29.3021 13.1885 29.2738 13.1498 29.2354 13.1221C29.1966 13.0944 29.1492 13.0801 29.0947 13.0801C29.0251 13.0801 28.9625 13.1001 28.9072 13.1396C28.8517 13.1793 28.8136 13.2323 28.793 13.2979C28.7725 13.3634 28.7617 13.4846 28.7617 13.6611V14.377H28.3555V12.7988H28.7324V13.0312C28.866 12.8507 29.0347 12.7598 29.2373 12.7598ZM35.8682 14.377H35.4082L35.2246 13.8838H34.373L34.1992 14.377H33.7471L34.5654 12.1982H35.0146L35.8682 14.377ZM36.8857 12.7598C36.978 12.7598 37.0676 12.7862 37.1533 12.8389L37.0293 13.2051C36.9607 13.1596 36.8966 13.1367 36.8379 13.1367C36.7809 13.1368 36.7328 13.1526 36.6934 13.1846C36.6538 13.2169 36.6231 13.2752 36.6006 13.3594C36.5778 13.4436 36.5664 13.6202 36.5664 13.8887V14.377H36.1592V12.7988H36.5371V13.0234C36.6016 12.9176 36.6593 12.8473 36.7109 12.8125C36.7622 12.7779 36.8203 12.7598 36.8857 12.7598ZM21.0537 13.6846C20.9416 13.7093 20.8683 13.734 20.834 13.7578C20.7812 13.7966 20.7549 13.8457 20.7549 13.9053C20.7549 13.9641 20.7762 14.0147 20.8184 14.0576C20.8606 14.1003 20.9142 14.1221 20.9795 14.1221C21.0521 14.122 21.1214 14.0973 21.1875 14.0479C21.2363 14.0099 21.2689 13.963 21.2842 13.9082C21.2946 13.8723 21.2998 13.8042 21.2998 13.7041V13.6201C21.2479 13.6381 21.1659 13.6597 21.0537 13.6846ZM39.7441 13.6846C39.6321 13.7093 39.5589 13.734 39.5244 13.7578C39.4716 13.7966 39.4454 13.8457 39.4453 13.9053C39.4453 13.9641 39.4665 14.0147 39.5088 14.0576C39.5509 14.1003 39.6047 14.1221 39.6699 14.1221C39.7425 14.122 39.8119 14.0973 39.8779 14.0479C39.9268 14.0099 39.9593 13.963 39.9746 13.9082C39.985 13.8723 39.9902 13.8042 39.9902 13.7041V13.6201C39.9385 13.6381 39.8562 13.6597 39.7441 13.6846ZM16.291 13.1016C16.1849 13.1016 16.0957 13.144 16.0234 13.2275C15.9512 13.3109 15.9151 13.431 15.915 13.5879C15.915 13.7452 15.9511 13.8657 16.0234 13.9492C16.0957 14.0326 16.185 14.0742 16.291 14.0742C16.3968 14.0741 16.4859 14.0327 16.5576 13.9492C16.6294 13.8657 16.665 13.744 16.665 13.585C16.665 13.4302 16.6291 13.3109 16.5576 13.2275C16.4859 13.1441 16.3968 13.1017 16.291 13.1016ZM5.63086 13.0801C5.53464 13.0801 5.45491 13.1194 5.39258 13.1973C5.33026 13.2754 5.29984 13.3941 5.2998 13.5537C5.2998 13.7216 5.33013 13.845 5.39258 13.9229C5.45496 14.001 5.5324 14.04 5.62402 14.04C5.72207 14.04 5.80531 13.9999 5.87305 13.9199C5.94057 13.84 5.97459 13.7213 5.97461 13.5645C5.97461 13.4007 5.94175 13.2788 5.87695 13.1992C5.81203 13.1198 5.72998 13.0801 5.63086 13.0801ZM34.5029 13.5166H35.084L34.7891 12.708L34.5029 13.5166ZM8.38281 13.0801C8.29394 13.0801 8.22003 13.1143 8.16211 13.1816C8.10428 13.249 8.07623 13.3406 8.07715 13.4561H8.68555C8.68271 13.3333 8.6528 13.2398 8.59473 13.1758C8.53679 13.1119 8.46594 13.0801 8.38281 13.0801ZM27.2363 13.0801C27.1475 13.0801 27.0734 13.1143 27.0156 13.1816C26.9578 13.249 26.9297 13.3405 26.9307 13.4561H27.5391C27.5361 13.3333 27.5064 13.2398 27.4482 13.1758C27.3905 13.1119 27.3194 13.0801 27.2363 13.0801ZM38.0244 13.0801C37.9353 13.0801 37.8617 13.1143 37.8037 13.1816C37.7458 13.249 37.7167 13.3405 37.7178 13.4561H38.3271C38.3242 13.3333 38.2942 13.2398 38.2363 13.1758C38.1783 13.1119 38.1074 13.0801 38.0244 13.0801ZM18.832 13.1885H19.0645C19.2321 13.1885 19.3448 13.1773 19.4014 13.1543C19.4578 13.1313 19.5022 13.0948 19.5342 13.0459C19.5662 12.9971 19.582 12.9398 19.582 12.875C19.5819 12.7954 19.5596 12.7295 19.5146 12.6777C19.4697 12.626 19.4125 12.5941 19.3438 12.5811C19.2929 12.5711 19.1906 12.5654 19.0371 12.5654H18.832V13.1885ZM2.5791 12.583H2.17285V12.1982H2.5791V12.583ZM4.72559 0.0605469C5.8876 0.0605469 6.71629 0.129092 7.20996 0.265625C8.41459 0.599481 9.0166 1.53496 9.0166 3.07129C9.01659 3.19731 9.00806 3.38602 8.99023 3.6377H6.22168C6.22168 3.16917 6.16777 2.85438 6.06152 2.69434C5.89678 2.45758 5.44228 2.3389 4.69824 2.33887C3.97544 2.33887 3.49554 2.40741 3.26172 2.54395C3.0284 2.68097 2.91121 2.9785 2.91113 3.43652C2.91113 3.85165 3.01499 4.12584 3.22266 4.25684C3.37141 4.34974 3.56847 4.4036 3.81348 4.41992L4.37109 4.46094C5.56751 4.54282 6.3151 4.601 6.61328 4.63379C7.55958 4.73214 8.24622 4.99158 8.67188 5.41211C9.00662 5.74017 9.20582 6.16893 9.26953 6.69824C9.30682 7.01496 9.32616 7.37332 9.32617 7.77148C9.32617 8.68945 9.24042 9.36203 9.07031 9.78809C8.762 10.5697 8.06959 11.0632 6.99219 11.2705C6.54082 11.3582 5.85044 11.4023 4.92188 11.4023C3.37168 11.4023 2.29085 11.3074 1.68066 11.1162C0.931837 10.8819 0.438141 10.4063 0.199219 9.69141C0.0662185 9.29339 0 8.63064 0 7.70312H2.76855V7.94043C2.76855 8.43552 2.90721 8.75372 3.18262 8.89551C3.37349 8.99327 3.60408 9.0447 3.875 9.05078H4.89258C5.41194 9.05078 5.74372 9.0238 5.88672 8.96875C6.14094 8.8656 6.30785 8.69937 6.3877 8.46973C6.43006 8.32829 6.45115 8.14484 6.45117 7.9209C6.45117 7.4191 6.27349 7.11358 5.91895 7.00391C5.78627 6.96061 5.16832 6.89974 4.06641 6.82324C3.18168 6.75809 2.56685 6.69549 2.22266 6.63477C1.31639 6.45991 0.712562 6.10044 0.411133 5.55469C0.146186 5.09086 0.0136719 4.38891 0.0136719 3.4502C0.0136848 2.73552 0.0854426 2.16256 0.228516 1.73145C0.371788 1.30013 0.602291 0.972005 0.920898 0.748047C1.38759 0.404351 1.98502 0.202885 2.71191 0.142578C3.31671 0.0882238 3.98762 0.0605535 4.72559 0.0605469ZM26.71 0C27.4702 2.71106e-05 28.0506 0.0644538 28.4492 0.192383C29.361 0.487063 29.9728 1.09031 30.2861 2.00195C30.4478 2.48037 30.5293 3.20053 30.5293 4.16211C30.5293 5.31861 30.4392 6.15023 30.2617 6.65625C29.9061 7.65694 29.1738 8.23342 28.0684 8.38281C27.938 8.40521 27.3849 8.42537 26.4092 8.44141L25.915 8.45801H24.1406V11.4023H21.165V0H26.71ZM40.4639 11.4023H37.4492L36.8818 9.43164H32.9023L32.3682 11.4023H29.2891L32.6113 0H37.1006L40.4639 11.4023ZM33.543 7.20996H36.29L34.8955 2.26758L33.543 7.20996ZM24.1406 5.81348H25.9961C26.5843 5.79162 26.9425 5.74491 27.0713 5.67188C27.2471 5.57215 27.3651 5.37254 27.4238 5.07324C27.4614 4.87391 27.4805 4.57728 27.4805 4.18359C27.4805 3.7014 27.4432 3.34384 27.3682 3.11035C27.2611 2.78341 27.0046 2.58409 26.5986 2.51172C26.5184 2.50079 26.326 2.49512 26.0215 2.49512H24.1406V5.81348Z" fill="var(--fill-0, #10298E)"/>
<path id="Fill 26" fill-rule="evenodd" clip-rule="evenodd" d="M17.0574 1.6042C18.2848 1.6042 19.3803 2.18726 20.1004 3.10052L20.7419 1.68222C19.7386 0.704357 18.3731 0.101511 16.867 0.101511C14.522 0.101511 12.5161 1.56187 11.6928 3.62909H10.4419L9.70323 5.26194H11.3125C11.3004 5.41342 11.2926 5.56503 11.2926 5.71968C11.2926 5.90684 11.302 6.09179 11.32 6.27453H10.5112L9.77272 7.90794H11.7312C12.5779 9.92286 14.5588 11.3374 16.867 11.3374C18.0302 11.3374 19.1096 10.9781 20.0033 10.3641V8.36235C19.2836 9.20728 18.2309 9.74124 17.0574 9.74124C15.6855 9.74124 14.4789 9.01182 13.7762 7.90794H17.8773L18.6158 6.27453H13.1728C13.1447 6.07796 13.1297 5.8771 13.1297 5.67251C13.1297 5.53418 13.1367 5.39723 13.1496 5.26194H19.0735L19.812 3.62909H13.6619C14.342 2.41869 15.6077 1.6042 17.0574 1.6042" fill="var(--fill-0, #FFBE00)"/>
</g>
</svg>
