<svg preserveAspectRatio="none" width="100%" height="100%" overflow="visible" style="display: block;" viewBox="0 0 26 10.3748" fill="none" xmlns="http://www.w3.org/2000/svg">
<g id="Affirm">
<path id="Affirm_2" d="M2.12988 5.84331C3.17302 5.84331 3.97349 6.31069 3.97363 7.46147V10.2486H2.83008V9.58354C2.57012 10.0337 2.02339 10.3746 1.41016 10.3746C0.550518 10.3745 0.000229679 9.90688 0 9.13432C0 8.15916 0.992387 7.80992 2.25684 7.64506C2.59566 7.60127 2.77531 7.48951 2.77539 7.26713C2.77539 6.93804 2.50493 6.77398 2.01562 6.77397C1.50046 6.77397 0.929504 7.05032 0.576172 7.37358L0.173828 6.5269C0.614145 6.17602 1.42519 5.84343 2.12988 5.84331ZM9.97461 3.82963C10.6617 3.82966 11.0435 4.07367 11.0527 4.07963L10.6758 4.94291C10.6758 4.94291 10.4357 4.80623 10.1279 4.8062C9.849 4.8062 9.52547 4.96792 9.52539 5.53373V5.96928H10.6348V6.91362H9.52539V10.2486H8.30273V6.91362H6.44629V10.2486H5.22266V6.91362H4.5127V5.96928H5.22266V5.65483C5.22266 4.27121 6.1125 3.82979 6.89453 3.82963C7.3856 3.82963 7.74827 3.94707 7.97363 4.07963L7.5957 4.94291C7.41939 4.84324 7.20634 4.80622 7.04785 4.8062C6.7695 4.8062 6.44637 4.96792 6.44629 5.53373V5.96928H8.30273V5.65483C8.30273 4.27096 9.19247 3.82963 9.97461 3.82963ZM12.5869 5.96928V10.2486H11.3643V5.96928H12.5869ZM16.043 5.84331C16.2049 5.84332 16.4028 5.86128 16.5918 5.94194L16.3682 7.07377C16.2241 6.96599 16.0061 6.9185 15.8447 6.9185C15.4309 6.91865 14.8379 7.20691 14.8379 8.18706V10.2486H13.6143V5.96928H14.7568V6.68803C15.0179 6.12224 15.4137 5.84331 16.043 5.84331ZM22.2656 5.84331C23.0477 5.84331 23.6952 6.32878 23.6953 7.29057V10.2486H22.4727V7.67729C22.4725 7.11092 22.1309 6.87553 21.8076 6.87553C21.4031 6.8756 20.9982 7.24581 20.998 8.04545V10.2486H19.7754V7.68608C19.7753 7.10232 19.4533 6.87553 19.1035 6.87553C18.717 6.87583 18.3039 7.25469 18.3037 8.04545V10.2486H17.0781V5.96928H18.2588V6.61674C18.4657 6.20349 18.9133 5.84331 19.5605 5.84331C20.1536 5.84333 20.6488 6.11867 20.8828 6.59526C21.1346 6.22644 21.6185 5.84343 22.2656 5.84331ZM2.75 8.30913C1.76353 8.41345 1.22266 8.57913 1.22266 9.06206C1.22276 9.32299 1.38357 9.481 1.70508 9.481C2.31361 9.4809 2.74997 8.95514 2.75 8.30913Z" fill="var(--fill-0, #060809)"/>
<path id="Affirm-Arc" fill-rule="evenodd" clip-rule="evenodd" d="M18.4933 0C15.1896 0 12.2449 2.29338 11.4092 5.24209H12.6069C13.3049 3.04612 15.6743 1.11873 18.4933 1.11873C21.9199 1.11873 24.8813 3.72739 24.8813 7.78849C24.8813 8.70031 24.7631 9.52221 24.5395 10.2484H25.7014L25.713 10.2087C25.9032 9.45939 26 8.64555 26 7.78849C26 3.25937 22.6997 0 18.4933 0Z" fill="var(--fill-0, #0FA0EA)"/>
</g>
</svg>
