<svg preserveAspectRatio="none" width="100%" height="100%" overflow="visible" style="display: block;" viewBox="0 0 35.7787 23.0397" fill="none" xmlns="http://www.w3.org/2000/svg">
<g id="UnionPay">
<path id="Vector" d="M7.00682 0.000770569H15.9371C17.1837 0.000770569 17.9591 1.04673 17.6682 2.33425L13.5106 20.7099C13.2171 21.9929 11.969 23.0397 10.7216 23.0397H1.79212C0.547276 23.0397 -0.229803 21.9929 0.0610032 20.7099L4.22044 2.33425C4.51125 1.04673 5.75871 0.000770569 7.00682 0.000770569Z" fill="var(--fill-0, #E21836)"/>
<path id="Vector_2" d="M15.1935 0H25.4631C26.7095 0 26.1475 1.04596 25.8543 2.33348L21.6972 20.7091C21.4056 21.9921 21.4966 23.039 20.2476 23.039H9.97795C8.72897 23.039 7.95602 21.9921 8.24944 20.7091L12.4063 2.33348C12.7014 1.04596 13.9463 0 15.1935 0Z" fill="var(--fill-0, #00447C)"/>
<path id="Vector_3" d="M25.056 0H33.9863C35.2346 0 36.01 1.04596 35.7168 2.33348L31.5597 20.7091C31.2663 21.9921 30.0173 23.039 28.7692 23.039H19.843C18.594 23.039 17.8194 21.9921 18.1119 20.7091L22.2696 2.33348C22.5604 1.04596 23.807 0 25.056 0Z" fill="var(--fill-0, #007B84)"/>
<path id="Vector_4" d="M9.33866 5.88882C8.42031 5.89845 8.1491 5.88882 8.06247 5.86776C8.02916 6.03066 7.40946 8.97338 7.40772 8.97584C7.27429 9.5712 7.17721 9.99559 6.84744 10.2696C6.66024 10.4289 6.4417 10.5058 6.18834 10.5058C5.78108 10.5058 5.54382 10.2976 5.50399 9.90283L5.49637 9.76726C5.49637 9.76726 5.62044 8.9698 5.62044 8.96531C5.62044 8.96531 6.27083 6.28363 6.38729 5.92915C6.39338 5.90899 6.39512 5.89845 6.39665 5.88882C5.13068 5.90025 4.90627 5.88882 4.89081 5.86776C4.88232 5.89666 4.85098 6.06292 4.85098 6.06292L4.18687 9.08542L4.12984 9.34175L4.01948 10.1802C4.01948 10.4289 4.06694 10.632 4.1614 10.8036C4.46396 11.3479 5.32702 11.4294 5.81525 11.4294C6.44431 11.4294 7.03442 11.2918 7.43318 11.0407C8.12537 10.6196 8.30647 9.96153 8.46798 9.37671L8.54286 9.07668C8.54286 9.07668 9.21285 6.29147 9.32669 5.92915C9.33104 5.90899 9.33278 5.89845 9.33866 5.88882ZM11.6182 8.13567C11.4567 8.13567 11.1616 8.176 10.8965 8.30977C10.8002 8.36064 10.7093 8.41934 10.6133 8.47782L10.6999 8.15583L10.6524 8.10161C10.0902 8.2188 9.96439 8.23448 9.44503 8.30977L9.4015 8.33957C9.34121 8.85426 9.28766 9.24123 9.06411 10.2529C8.979 10.6258 8.89063 11.0022 8.80204 11.3742L8.82598 11.4214C9.35818 11.3925 9.51969 11.3925 9.98224 11.4004L10.0197 11.3585C10.0785 11.0486 10.0861 10.976 10.2162 10.3484C10.2774 10.0508 10.405 9.39696 10.4679 9.16415C10.5834 9.10903 10.6975 9.05481 10.8063 9.05481C11.0656 9.05481 11.034 9.28762 11.024 9.38038C11.0129 9.53611 10.9184 10.0448 10.8216 10.4815L10.7569 10.7633C10.7119 10.9715 10.6625 11.1738 10.6174 11.3802L10.637 11.4214C11.1616 11.3925 11.3216 11.3925 11.7695 11.4004L11.8222 11.3585C11.9032 10.8745 11.9269 10.745 12.0706 10.0403L12.1428 9.71649C12.2832 9.08282 12.3537 8.7615 12.2475 8.49978C12.1352 8.20647 11.8657 8.13567 11.6182 8.13567ZM14.1648 8.79912C13.886 8.85424 13.7081 8.89099 13.5314 8.91474C13.3562 8.94365 13.1853 8.96986 12.9158 9.0084L12.8945 9.02834L12.8749 9.04425C12.8468 9.25085 12.8272 9.42943 12.79 9.63939C12.7584 9.85651 12.7099 10.1032 12.6309 10.4577C12.5697 10.729 12.5382 10.8236 12.5033 10.9191C12.4694 11.0145 12.4319 11.1073 12.3631 11.3741L12.3793 11.3988L12.3927 11.4214C12.6446 11.4091 12.8094 11.4004 12.9787 11.3988C13.1478 11.3925 13.3231 11.3988 13.5943 11.4004L13.618 11.3804L13.6435 11.3585C13.6827 11.1178 13.6885 11.0531 13.7125 10.9356C13.7362 10.8097 13.7771 10.6354 13.8775 10.1698C13.9249 9.95107 13.9778 9.73305 14.027 9.50987C14.0782 9.28759 14.1317 9.06868 14.1826 8.84998L14.175 8.82354L14.1648 8.79912ZM14.1707 7.90458C13.9174 7.75065 13.4727 7.79949 13.1734 8.01214C12.875 8.22052 12.841 8.5163 13.0935 8.67225C13.3425 8.82193 13.7889 8.77734 14.0856 8.5629C14.3834 8.35004 14.4206 8.05695 14.1707 7.90458ZM15.703 11.4697C16.2156 11.4697 16.7411 11.3242 17.1366 10.8927C17.4409 10.5427 17.5804 10.0219 17.6287 9.80751C17.7861 9.09675 17.6636 8.7649 17.5097 8.56279C17.2759 8.2547 16.8628 8.15588 16.4342 8.15588C16.1764 8.15588 15.5626 8.1821 15.0831 8.63718C14.7387 8.96545 14.5796 9.4109 14.4836 9.83798C14.3868 10.2731 14.2753 11.0565 14.9751 11.348C15.1911 11.4434 15.5023 11.4697 15.703 11.4697ZM15.663 9.87047C15.7812 9.33225 15.9207 8.88053 16.2768 8.88053C16.5558 8.88053 16.5761 9.21663 16.452 9.75664C16.4298 9.87652 16.3279 10.3222 16.1902 10.512C16.0939 10.652 15.9801 10.737 15.8543 10.737C15.8169 10.737 15.5942 10.737 15.5907 10.3966C15.589 10.2285 15.6223 10.0569 15.663 9.87047ZM18.9101 11.4004L18.9502 11.3585C19.007 11.0487 19.0164 10.9758 19.1422 10.3484C19.2051 10.0509 19.3353 9.39703 19.3964 9.16422C19.5122 9.10888 19.6243 9.05465 19.7366 9.05465C19.9941 9.05465 19.9628 9.28746 19.9526 9.38023C19.9432 9.53618 19.8487 10.0446 19.7501 10.4813L19.689 10.7632C19.6422 10.9716 19.5912 11.1737 19.5462 11.3803L19.5658 11.4215C20.0921 11.3926 20.246 11.3926 20.6966 11.4004L20.751 11.3585C20.83 10.8743 20.8513 10.7448 20.9993 10.0403L21.0699 9.71633C21.2109 9.08266 21.2823 8.76157 21.1778 8.49985C21.0622 8.20654 20.791 8.13574 20.547 8.13574C20.3853 8.13574 20.0886 8.17584 19.825 8.30984C19.7308 8.3607 19.6363 8.41919 19.5436 8.47789L19.6243 8.1559L19.581 8.10145C19.019 8.21887 18.8906 8.23455 18.3719 8.30984L18.332 8.33964C18.2691 8.85433 18.218 9.24108 17.9944 10.253C17.9093 10.6258 17.8209 11.0023 17.7326 11.3742L17.7563 11.4215C18.2894 11.3926 18.4485 11.3926 18.9101 11.4004ZM22.7771 11.4214C22.8102 11.2551 23.0068 10.2697 23.0085 10.2697C23.0085 10.2697 23.1759 9.5466 23.1861 9.52038C23.1861 9.52038 23.2388 9.44509 23.2915 9.41529H23.369C24.1001 9.41529 24.9258 9.41529 25.5729 8.92525C26.0132 8.58914 26.3143 8.09283 26.4486 7.48963C26.4834 7.34174 26.5091 7.16584 26.5091 6.98995C26.5091 6.75893 26.464 6.53038 26.3339 6.35179C26.0039 5.87654 25.3467 5.8678 24.5882 5.86422C24.5858 5.86422 24.2142 5.8678 24.2142 5.8678C23.2432 5.88013 22.8538 5.87654 22.6938 5.85637C22.6803 5.9292 22.6548 6.05871 22.6548 6.05871C22.6548 6.05871 22.307 7.71818 22.307 7.72087C22.307 7.72087 21.4746 11.2491 21.4354 11.4154C22.2833 11.4048 22.6309 11.4048 22.7771 11.4214ZM23.4217 8.47352C23.4217 8.47352 23.7915 6.81741 23.7897 6.82369L23.8017 6.73877L23.8069 6.67401L23.9547 6.68969C23.9547 6.68969 24.7174 6.75714 24.7353 6.75893C25.0363 6.87881 25.1604 7.1878 25.0738 7.59113C24.9948 7.95973 24.7625 8.26962 24.4641 8.4193C24.2183 8.54612 23.9173 8.55665 23.6071 8.55665H23.4064L23.4217 8.47352ZM25.7243 9.90115C25.6265 10.33 25.5142 11.1134 26.2105 11.3926C26.4325 11.4898 26.6315 11.5187 26.8337 11.5082C27.0472 11.4963 27.2451 11.3861 27.4284 11.2274C27.4118 11.2926 27.3953 11.3578 27.3788 11.4233L27.4103 11.4652C27.9112 11.4434 28.0666 11.4434 28.6092 11.4477L28.6584 11.4091C28.7377 10.9296 28.8123 10.464 29.0182 9.54667C29.1186 9.10726 29.2187 8.67212 29.3217 8.23451L29.3056 8.18633C28.7453 8.29321 28.5955 8.31607 28.0566 8.39472L28.0157 8.429C28.0102 8.47359 28.0046 8.51639 27.9993 8.55919C27.9155 8.41981 27.7941 8.30083 27.6067 8.22666C27.367 8.12964 26.8041 8.25467 26.3202 8.70819C25.9802 9.03197 25.817 9.47564 25.7243 9.90115ZM26.901 9.92736C27.0209 9.39878 27.1587 8.95153 27.5157 8.95153C27.7414 8.95153 27.8602 9.16597 27.8361 9.53165C27.8169 9.62285 27.7962 9.71898 27.7716 9.82765C27.7359 9.98472 27.6972 10.1405 27.6595 10.2964C27.6212 10.4031 27.5766 10.5037 27.5276 10.5707C27.4358 10.7047 27.2172 10.7878 27.0914 10.7878C27.0557 10.7878 26.8355 10.7878 26.8278 10.4535C26.8261 10.287 26.8594 10.1156 26.901 9.92736ZM33.0459 8.18205L33.0026 8.13119C32.4482 8.24681 32.3478 8.26518 31.8385 8.33599L31.801 8.37453C31.7993 8.3808 31.7978 8.39044 31.7951 8.39918L31.7934 8.39044C31.4142 9.29098 31.4253 9.09671 31.1167 9.80567C31.1149 9.7734 31.1149 9.75324 31.1132 9.71895L31.0359 8.18205L30.9874 8.13119C30.4066 8.24681 30.3929 8.26518 29.8566 8.33599L29.8148 8.37453C29.8089 8.3929 29.8089 8.41307 29.8054 8.43503L29.8089 8.44287C29.876 8.79556 29.8599 8.71691 29.9271 9.2735C29.9585 9.54664 30.0002 9.82135 30.0316 10.0911C30.0845 10.5426 30.1141 10.7649 30.1787 11.4539C29.8165 12.0692 29.7308 12.302 29.3821 12.8421L29.3845 12.8474L29.1389 13.2472C29.1109 13.2893 29.0854 13.3182 29.0497 13.3305C29.0105 13.3505 28.9596 13.3541 28.8888 13.3541H28.7528L28.5506 14.0464L29.2443 14.0588C29.6515 14.057 29.9075 13.8609 30.0453 13.5974L30.4815 12.8279H30.4745L30.5205 12.7737C30.8139 12.1235 33.0459 8.18205 33.0459 8.18205ZM25.7242 17.2754H25.4299L26.5192 13.5668H26.8805L26.9952 13.1848L27.0063 13.6096C26.9928 13.8722 27.1935 14.105 27.7207 14.0665H28.3304L28.5402 13.3524H28.3108C28.1789 13.3524 28.1177 13.3181 28.1253 13.2446L28.1142 12.8124H26.9852V12.8146C26.6202 12.8224 25.5301 12.8507 25.3094 12.9112C25.0423 12.982 24.7608 13.1904 24.7608 13.1904L24.8714 12.8079H23.8153L23.5952 13.5668L22.4914 17.3321H22.2772L22.0672 18.0411H24.1707L24.1002 18.2775H25.1367L25.2055 18.0411H25.4963L25.7242 17.2754ZM24.8612 14.3204C24.692 14.3685 24.3773 14.5146 24.3773 14.5146L24.6572 13.5668H25.4963L25.2939 14.2574C25.2939 14.2574 25.0347 14.2731 24.8612 14.3204ZM24.8773 15.6744C24.8773 15.6744 24.6137 15.7085 24.4402 15.7488C24.2693 15.8021 23.9489 15.9702 23.9489 15.9702L24.238 14.9838H25.0815L24.8773 15.6744ZM24.4071 17.2841H23.5654L23.8094 16.4517H24.6485L24.4071 17.2841ZM26.4342 14.9838H27.6475L27.4731 15.5651H26.2437L26.0591 16.2005H27.1349L26.3203 17.3812C26.2633 17.4679 26.2122 17.4986 26.1553 17.523C26.0983 17.5528 26.0234 17.5878 25.9368 17.5878H25.6384L25.4333 18.2837H26.2139C26.6196 18.2837 26.8593 18.0937 27.0363 17.8443L27.5948 17.0574L27.7147 17.8564C27.7402 18.0061 27.8447 18.0937 27.9154 18.1278C27.9936 18.1681 28.0743 18.2373 28.1884 18.2477C28.3107 18.253 28.3991 18.2573 28.4578 18.2573H28.8414L29.0717 17.4784H28.9204C28.8335 17.4784 28.684 17.4634 28.6585 17.4354C28.6331 17.4013 28.6331 17.3489 28.6194 17.2691L28.4977 16.4683H27.9994L28.218 16.2005H29.445L29.6337 15.5651H28.4977L28.6746 14.9838H29.8072L30.0172 14.267H26.6407L26.4342 14.9838ZM16.1867 17.446L16.4699 16.4762H17.6338L17.8464 15.7549H16.6815L16.8593 15.158H17.9977L18.2086 14.4596H15.3602L15.1537 15.158H15.8008L15.6282 15.7549H14.9793L14.7643 16.4885H15.4112L15.0337 17.7716C14.9828 17.9414 15.0577 18.0062 15.1051 18.085C15.1537 18.1619 15.2029 18.2128 15.3134 18.2417C15.4275 18.2679 15.5056 18.2836 15.6119 18.2836H16.924L17.1577 17.4845L16.5761 17.5668C16.4638 17.5668 16.1528 17.5529 16.1867 17.446ZM16.3202 12.8035L16.0253 13.3523C15.9621 13.4721 15.9053 13.5465 15.8542 13.5808C15.8091 13.6097 15.7199 13.6218 15.5906 13.6218H15.4367L15.231 14.3238H15.7421C15.9878 14.3238 16.1766 14.2311 16.2667 14.1847C16.3635 14.1314 16.389 14.1618 16.4639 14.0874L16.6365 13.9335H18.2324L18.4442 13.2026H17.276L17.48 12.8035H16.3202ZM18.6764 17.4601C18.6491 17.4198 18.6687 17.3487 18.7103 17.2008L19.1465 15.7146H20.6983C20.9244 15.7112 21.0877 15.7085 21.1939 15.7007C21.308 15.6884 21.432 15.6465 21.5672 15.5712C21.7067 15.4923 21.7781 15.4092 21.8384 15.3137C21.9057 15.2185 22.0137 15.0101 22.1064 14.6888L22.6547 12.8079L21.0444 12.8176C21.0444 12.8176 20.5485 12.8929 20.3302 12.976C20.1099 13.0687 19.7952 13.3278 19.7952 13.3278L19.9406 12.8122H18.9458L17.5532 17.5667C17.5038 17.7514 17.4707 17.8854 17.4631 17.9658C17.4605 18.0525 17.5693 18.1384 17.6398 18.2031C17.7232 18.2679 17.8464 18.2573 17.9646 18.2679C18.0889 18.2775 18.2656 18.2836 18.5096 18.2836H19.2741L19.5087 17.4679L18.8244 17.5345C18.7512 17.5345 18.6983 17.4942 18.6764 17.4601ZM19.428 14.7107H21.0579L20.9543 15.0451C20.9397 15.0529 20.9048 15.0285 20.739 15.0486H19.3276L19.428 14.7107ZM19.7545 13.5895H21.3981L21.2799 13.9921C21.2799 13.9921 20.5052 13.9843 20.3811 14.0078C19.8352 14.1051 19.5163 14.4053 19.5163 14.4053L19.7545 13.5895ZM20.9907 16.1646C20.9772 16.2145 20.9559 16.245 20.9261 16.2679C20.893 16.2898 20.8395 16.2977 20.7596 16.2977H20.5273L20.541 15.8905H19.575L19.5358 17.881C19.5343 18.0246 19.5478 18.1077 19.6499 18.1743C19.752 18.2574 20.0665 18.2679 20.4899 18.2679H21.0952L21.3138 17.5229L20.7868 17.5527L20.6116 17.5632C20.5876 17.5527 20.5648 17.5431 20.5393 17.5168C20.5171 17.4942 20.4796 17.5081 20.4857 17.3645L20.4899 16.8543L21.0425 16.8307C21.341 16.8307 21.4685 16.7308 21.5774 16.6356C21.6812 16.5444 21.7151 16.4395 21.7543 16.2977L21.847 15.846H21.0876L20.9907 16.1646Z" fill="var(--fill-0, #FEFEFE)"/>
</g>
</svg>
