<svg preserveAspectRatio="none" width="100%" height="100%" overflow="visible" style="display: block;" viewBox="0 0 37.5824 9.67475" fill="none" xmlns="http://www.w3.org/2000/svg">
<path id="AMEX" fill-rule="evenodd" clip-rule="evenodd" d="M4.24148 0L0 9.66233H5.07765L5.70713 8.12175H7.14598L7.77546 9.66233H13.3645V8.48651L13.8625 9.66233H16.7536L17.2517 8.46166V9.66233H28.8754L30.2888 8.16176L31.6122 9.66233L37.5824 9.67475L33.3275 4.85814L37.5824 0H31.7048L30.329 1.47284L29.0472 0H16.4021L15.3163 2.49393L14.205 0H9.13791V1.13581L8.57423 0H4.24148ZM5.22398 1.37207H7.69906L10.5124 7.92414V1.37207H13.2238L15.3968 6.06987L17.3995 1.37207H20.0973V8.30542H18.4557L18.4423 2.87248L16.0491 8.30542H14.5806L12.174 2.87248V8.30542H8.79697L8.15674 6.75105H4.69784L4.05894 8.30406H2.24955L5.22398 1.37207ZM28.274 1.37207H21.5991V8.30133H28.1707L30.2888 6.00486L32.3303 8.30133H34.4645L31.3626 4.85678L34.4645 1.37207H32.4229L30.3156 3.64217L28.274 1.37207ZM6.42802 2.54515L5.28845 5.31413H7.56627L6.42802 2.54515ZM23.2475 4.07329V2.80761V2.8064H27.4124L29.2297 4.83055L27.3319 6.86576H23.2475V5.48399H26.8889V4.07329H23.2475Z" fill="var(--fill-0, white)"/>
</svg>
