<svg preserveAspectRatio="none" width="100%" height="100%" overflow="visible" style="display: block;" viewBox="0 0 34.6667 14.6667" fill="none" xmlns="http://www.w3.org/2000/svg">
<path id="Citadele" d="M0.505375 5.07721C0.192292 5.07721 0.161417 4.97555 0.161417 4.23455V4.1081C0.161417 3.36458 0.192292 3.26392 0.505375 3.26392H7.66458C7.97875 3.26392 8.00962 3.36458 8.00962 4.10709V4.23354C8.00962 4.97555 7.97821 5.07671 7.66458 5.07671H0.505375V5.07721V5.07721ZM0.505375 1.8143C0.192292 1.8143 0.161417 1.71314 0.161417 0.971135V0.844685C0.161417 0.100148 0.192292 0 0.505375 0H7.66458C7.97875 0 8.00962 0.101159 8.00962 0.844685V0.971135C8.00962 1.71314 7.97821 1.8143 7.66458 1.8143H0.505375ZM1.57788 11.5044C1.57788 10.2763 2.21867 9.60108 3.18283 9.60108C3.54683 9.60108 3.83825 9.70022 4.20279 9.86967C4.33496 9.93238 4.44437 9.90709 4.61771 9.52319L4.74392 9.2622C4.8685 8.94759 4.87771 8.8176 4.72658 8.7478C4.27971 8.5035 3.588 8.34923 2.99054 8.34923C1.28808 8.34923 0 9.60867 0 11.5044C0 13.3996 1.28808 14.6591 2.99 14.6591C3.588 14.6591 4.29542 14.5053 4.74392 14.2595C4.89342 14.1912 4.88367 14.0597 4.76017 13.7451L4.63558 13.4694C4.46225 13.085 4.35229 13.0633 4.21904 13.123C3.8545 13.2934 3.54737 13.3926 3.18283 13.3926C2.21867 13.3926 1.5795 12.732 1.5795 11.5044H1.57842H1.57788ZM21.8633 14.3687C21.8633 14.5357 21.7961 14.5812 21.2908 14.5812H21.2404C20.7079 14.5812 20.6337 14.5584 20.592 14.4365C20.5641 14.3538 20.5418 14.2695 20.5254 14.1841C20.2437 14.4987 19.9041 14.6667 19.3868 14.6667C18.1323 14.6667 17.3783 13.8068 17.3783 12.424C17.3783 10.9293 18.2173 10.0442 19.4615 10.0442C19.812 10.0442 20.1348 10.1453 20.384 10.3294V8.38717C20.384 8.25717 20.4003 8.20306 21.099 8.20306H21.1494C21.7961 8.20306 21.8628 8.25717 21.8628 8.38717V14.3687H21.8633ZM20.3845 11.4199C20.2991 11.3328 20.1952 11.2632 20.0794 11.2156C19.9635 11.1681 19.8383 11.1436 19.7118 11.1438C19.155 11.1438 18.8906 11.5955 18.8906 12.425C18.8906 12.9004 18.9984 13.2024 19.155 13.3607C19.2958 13.5241 19.5125 13.5767 19.721 13.5767C19.9783 13.5767 20.1771 13.5175 20.2692 13.4077C20.351 13.3238 20.384 13.1938 20.384 12.8943V11.4194L20.3851 11.4199H20.3845ZM29.4011 14.3991C29.4011 14.5281 29.3345 14.5812 28.6861 14.5812H28.6363C27.9386 14.5812 27.924 14.5281 27.924 14.3991V8.38717C27.924 8.25717 27.9386 8.20306 28.6357 8.20306H28.6856C29.3334 8.20306 29.4006 8.25717 29.4006 8.38717V14.3991H29.4011ZM24.199 12.8008C24.2813 13.3455 24.6464 13.6075 25.22 13.6075C25.6615 13.6075 26.0748 13.5165 26.5579 13.3238C26.6587 13.2858 26.7491 13.3238 26.8558 13.6288L26.9317 13.7997C27.0384 14.1143 27.0292 14.1841 26.9143 14.2443C26.3402 14.5433 25.7427 14.6657 25.0781 14.6657C23.6091 14.6657 22.6877 13.8311 22.6877 12.4022C22.6877 11.0128 23.5343 10.0442 24.9876 10.0442C26.4252 10.0442 27.163 10.9971 27.163 12.3172C27.163 12.7552 27.1223 12.8008 26.956 12.8008H24.199ZM25.6842 11.9495C25.6615 11.4902 25.4621 11.0897 24.9719 11.0897C24.5467 11.0897 24.239 11.3881 24.1811 11.9495H25.6842ZM31.7021 12.8008C31.7834 13.3455 32.1495 13.6075 32.7237 13.6075C33.1614 13.6075 33.5785 13.5165 34.06 13.3238C34.1586 13.2858 34.2518 13.3238 34.359 13.6288L34.4343 13.7997C34.541 14.1143 34.5323 14.1841 34.418 14.2443C33.8439 14.5433 33.2453 14.6657 32.5802 14.6657C31.1106 14.6657 30.1903 13.8311 30.1903 12.4022C30.1903 11.0128 31.0353 10.0442 32.4892 10.0442C33.9278 10.0442 34.6667 10.9971 34.6667 12.3172C34.6667 12.7552 34.625 12.8008 34.4587 12.8008H31.7016H31.7021ZM33.189 11.9495C33.1619 11.4902 32.9642 11.0897 32.474 11.0897C32.0504 11.0897 31.7417 11.3881 31.6843 11.9495H33.189V11.9495ZM15.0145 11.4503C14.9396 11.3581 14.843 11.2832 14.7322 11.2314C14.6213 11.1797 14.4992 11.1524 14.3753 11.1519C13.8185 11.1519 13.5536 11.6046 13.5536 12.4098C13.5536 13.0926 13.7508 13.5999 14.3574 13.5999C14.5828 13.5999 14.7474 13.5463 14.865 13.4376C14.9722 13.3314 15.0145 13.1847 15.0145 12.864V11.4503ZM16.5095 14.3687C16.5095 14.5357 16.4439 14.5812 15.9375 14.5812H15.8692C15.3384 14.5812 15.2636 14.5584 15.2225 14.4365C15.194 14.354 15.1717 14.2696 15.1558 14.1841C14.8742 14.4987 14.5329 14.6667 14.0172 14.6667C12.8131 14.6667 12.0402 13.821 12.0402 12.4411C12.0402 10.906 12.9957 10.0442 14.1256 10.0442C14.5828 10.0442 14.9803 10.2222 15.197 10.4751L15.2225 10.2829C15.2295 10.1919 15.256 10.1312 15.802 10.1312H15.8611C16.4266 10.1312 16.5084 10.1681 16.5084 10.3082V14.3687H16.5095V14.3687ZM9.57667 8.83379C10.1324 8.83379 10.166 8.84036 10.166 9.0093V10.1302H11.122C11.2542 10.1302 11.2954 10.1529 11.2954 10.5747V10.637C11.2954 11.0578 11.2542 11.0821 11.122 11.0821H10.166V13.0936C10.166 13.4305 10.2315 13.6075 10.5636 13.6075C10.7369 13.6075 10.8886 13.5767 11.0381 13.5317C11.1952 13.4755 11.2548 13.5463 11.362 13.8984L11.3869 13.9828C11.5028 14.3688 11.4687 14.3991 11.3208 14.4669C11.0218 14.5974 10.6221 14.6667 10.2489 14.6667C9.06967 14.6667 8.73763 14.1143 8.73763 13.1533V11.0821H8.18079C8.03996 11.0821 8.00475 11.0568 8.00475 10.637V10.5747C8.00475 10.1529 8.03942 10.1312 8.18079 10.1312H8.80371C8.87142 9.77053 8.98625 9.26271 9.06154 9.0093C9.10325 8.86312 9.12817 8.83379 9.57667 8.83379V8.83379ZM6.487 10.1312C7.13538 10.1312 7.19279 10.1833 7.19279 10.3148V14.3991C7.19279 14.5357 7.13538 14.5812 6.487 14.5812H6.44475C5.73138 14.5812 5.71513 14.5357 5.71513 14.3991V10.3148C5.71513 10.1833 5.73138 10.1312 6.44475 10.1312H6.487ZM6.44475 8.13477C6.91275 8.13477 7.25183 8.47214 7.25183 8.85554C7.24975 8.95162 7.22722 9.04635 7.18556 9.13423C7.1439 9.22211 7.08394 9.30137 7.00917 9.36741C6.8575 9.50144 6.65438 9.57428 6.44475 9.56973C5.98217 9.56973 5.63929 9.23236 5.63929 8.85554C5.63929 8.47113 5.98217 8.13477 6.44475 8.13477V8.13477Z" fill="var(--fill-0, #EE293D)"/>
</svg>
