<svg preserveAspectRatio="none" width="100%" height="100%" overflow="visible" style="display: block;" viewBox="0 0 43.3334 18.0801" fill="none" xmlns="http://www.w3.org/2000/svg">
<g id="Paysafe">
<path id="Vector" d="M42.0925 4.97384C42.7778 4.97384 43.3334 4.41827 43.3334 3.73295C43.3334 3.04763 42.7778 2.49206 42.0925 2.49206C41.4071 2.49206 40.8516 3.04763 40.8516 3.73295C40.8516 4.41827 41.4071 4.97384 42.0925 4.97384Z" fill="var(--fill-0, #7887E6)"/>
<path id="Vector_2" d="M42.0925 8.85859C42.7778 8.85859 43.3334 8.30302 43.3334 7.6177C43.3334 6.93237 42.7778 6.37681 42.0925 6.37681C41.4071 6.37681 40.8516 6.93237 40.8516 7.6177C40.8516 8.30302 41.4071 8.85859 42.0925 8.85859Z" fill="var(--fill-0, #FF5073)"/>
<path id="Union" d="M8.31934 15.7646L9.03516 13.2578H10.0898C9.53251 14.8689 8.98895 16.4818 8.43848 18.0801H7.44336V18.0791L8.00098 16.6406H7.68262C7.3242 15.5131 6.97282 14.3854 6.6084 13.2578H7.68262L8.31934 15.7646ZM5.14941 13.1797C5.93176 13.1799 6.41573 13.5246 6.41602 14.2871V16.6416H5.44727V16.6406L5.3877 16.3027C5.20164 16.5085 4.94975 16.7206 4.52539 16.7207C4.00156 16.7206 3.47087 16.3824 3.4707 15.7061C3.4709 14.9766 3.94176 14.4921 5.35352 14.5186V14.293C5.35305 14.0347 5.13456 13.9483 4.88965 13.9482C4.5452 13.9484 4.14041 14.1009 3.94824 14.1875L3.65723 13.584C3.97544 13.3852 4.49301 13.1797 5.14941 13.1797ZM16.8154 13.1797C17.5979 13.1798 18.0817 13.5245 18.082 14.2871V16.6416H17.1133V16.6406L17.0537 16.3027C16.8677 16.5085 16.6157 16.7206 16.1914 16.7207C15.6676 16.7205 15.1369 16.3823 15.1367 15.7061C15.1369 14.9765 15.6084 14.492 17.0205 14.5186V14.293C17.02 14.0348 16.8014 13.9484 16.5566 13.9482C16.2121 13.9482 15.8065 14.1009 15.6143 14.1875L15.3232 13.584C15.6414 13.3851 16.1589 13.1797 16.8154 13.1797ZM22.6045 13.1787C23.3273 13.1788 24.0438 13.5704 24.0439 14.7637V15.1611H22.041C22.0942 15.7185 22.4327 15.9443 22.8838 15.9443C23.2224 15.9442 23.6064 15.8053 23.7324 15.7256L24.0303 16.3887C23.8182 16.5481 23.2669 16.7207 22.7236 16.7207C21.6226 16.7206 20.9336 16.0364 20.9336 14.9688C20.934 13.9281 21.6632 13.1788 22.6045 13.1787ZM20.0127 13.2588H20.6621V13.9824H20.0127V15.4814C20.0128 15.8259 20.1388 15.9326 20.3711 15.9326H20.6621V16.6426H19.9062V16.6406C19.5881 16.6406 18.9571 16.601 18.957 15.7188V13.9814H18.4404V13.2578H18.957V12.6152L20.0127 12.251V13.2588ZM1.76562 12.0645C2.81304 12.0645 3.31116 12.6744 3.31152 13.4834C3.31152 14.4181 2.64795 14.9687 1.76562 14.9688H1.0957V16.6406H0.00878906V12.0645H1.76562ZM13.0947 15.8516H14.8389V16.6406H12.0068V12.0645H13.0947V15.8516ZM26.5645 14.166C26.5045 14.1532 26.3649 14.1533 26.2988 14.1533C26.0204 14.1534 25.7222 14.2664 25.5361 14.4521V16.6406H24.4746V13.2578H25.4834V13.875C25.7021 13.4576 26.1075 13.1787 26.5645 13.1787V14.166ZM5.11621 15.168C4.69217 15.168 4.49346 15.3544 4.49316 15.6318C4.49316 15.8771 4.67251 16.0303 4.9375 16.0303C5.10256 16.0301 5.25511 15.9701 5.35449 15.8975V15.1875C5.26812 15.1806 5.20175 15.168 5.11621 15.168ZM16.7822 15.168C16.3583 15.1681 16.1595 15.3544 16.1592 15.6318C16.1592 15.8771 16.3385 16.0303 16.6035 16.0303C16.7689 16.0302 16.9221 15.9703 17.0215 15.8975V15.1875C16.9349 15.1806 16.8679 15.168 16.7822 15.168ZM22.5918 13.9209C22.3004 13.9209 22.0815 14.1538 22.041 14.6045H23.0693C23.0692 14.1471 22.8702 13.921 22.5918 13.9209ZM1.09668 14.1729H1.64746C2.01176 14.1728 2.25677 13.9409 2.25684 13.5234C2.25666 13.1327 2.03822 12.8604 1.64746 12.8604H1.09668V14.1729ZM27.625 11.9873H27.2998V12.7881H26.9824V11.9873H26.6387V11.7627H27.5898L27.625 11.9873ZM28.3438 12.4912C28.402 12.2479 28.4588 12.007 28.5205 11.7637H28.9199L29.001 12.7881H28.7188L28.6807 12.0459C28.6147 12.2935 28.5489 12.5405 28.4795 12.7881H28.2012L28 12.0459L27.9619 12.7881H27.6777C27.7086 12.4479 27.7361 12.1038 27.7627 11.7637H28.1611L28.3438 12.4912ZM13.4023 2.63574L14.9082 6.26855L16.2197 2.63574H18.1152L15.0342 10.4219H13.2188L14.0215 8.42969L11.4492 2.63574H13.4023ZM36.6719 2.49219C38.3647 2.49222 39.6113 3.79919 39.6113 5.58203V6.05859H35.6582C35.6882 6.37075 35.7676 6.62574 35.8877 6.82812C35.8885 6.8289 35.889 6.8293 35.8896 6.83008C35.9093 6.86168 35.9298 6.89282 35.9512 6.92188C35.964 6.93988 35.9775 6.95648 35.9912 6.97363C35.9998 6.98389 36.0082 6.99561 36.0176 7.00586C36.0405 7.03306 36.0653 7.05931 36.0908 7.08398C36.0917 7.08484 36.0929 7.08606 36.0938 7.08691C36.1572 7.1478 36.2287 7.20295 36.3076 7.25098C36.3089 7.25158 36.3098 7.25142 36.3105 7.25195C36.3456 7.27334 36.3834 7.29367 36.4219 7.3125C36.4294 7.31586 36.4366 7.31891 36.4434 7.32227C36.4665 7.33341 36.4917 7.34408 36.5166 7.35352C36.5388 7.36205 36.5608 7.37025 36.583 7.37793C36.5992 7.38304 36.6168 7.38747 36.6338 7.39258C36.6655 7.40115 36.6979 7.41025 36.7305 7.41797C36.7415 7.4205 36.7526 7.42226 36.7637 7.4248C36.7953 7.43164 36.8269 7.43725 36.8594 7.44238C36.8687 7.44408 36.8774 7.44542 36.8867 7.44629C36.927 7.45143 36.9686 7.45544 37.0098 7.45801C37.02 7.45886 37.0298 7.4591 37.04 7.45996C37.0837 7.46252 37.1275 7.46387 37.1729 7.46387C37.6908 7.46383 38.2687 7.31837 38.8389 6.99512L39.3701 8.17676C38.5289 8.75974 37.4371 8.85938 36.8857 8.85938C34.9068 8.85918 33.667 7.63001 33.667 5.71094C33.6672 3.8391 34.9792 2.49219 36.6719 2.49219ZM26.4736 2.49219C27.8809 2.49219 28.7518 3.11207 28.751 4.48242V8.71582H26.8428V8.44629C26.4621 8.68551 25.9636 8.85835 25.5049 8.8584C24.342 8.8584 23.458 7.98213 23.458 6.93848C23.458 5.86997 24.2145 4.71344 26.8438 4.90039V4.49414C26.8436 4.0296 26.4495 3.87402 26.0088 3.87402C25.389 3.87406 24.6621 4.14847 24.3164 4.30371L23.791 3.21973C24.363 2.86213 25.2937 2.49221 26.4736 2.49219ZM9.05371 2.49121C10.461 2.49121 11.332 3.11121 11.332 4.48242V8.71582H9.42285V8.44531C9.0421 8.68456 8.54374 8.85742 8.08496 8.85742C6.92216 8.85737 6.03809 7.98112 6.03809 6.9375C6.03816 5.86902 6.79468 4.71248 9.42383 4.89941V4.49316C9.42358 4.02871 9.02951 3.87402 8.58887 3.87402C7.96895 3.87416 7.242 4.14853 6.89648 4.30371L6.37207 3.21875C6.94401 2.86122 7.874 2.49129 9.05371 2.49121ZM20.7461 2.49023C21.5213 2.49024 22.2843 2.72909 22.7852 2.97949L22.248 4.23145C21.8665 4.06512 21.3415 3.88574 20.8408 3.88574C20.3643 3.88585 20.0781 4.06425 20.0781 4.35059C20.0786 5.16069 22.8912 4.8274 22.8916 6.83008C22.8916 8.14214 21.6996 8.85742 20.3164 8.85742C19.5412 8.85742 18.7064 8.67946 17.9912 8.29785L18.5996 7.06934C19.0284 7.28458 19.5774 7.47559 20.1494 7.47559C20.7101 7.47555 21.0439 7.30811 21.0439 6.97461C21.0439 6.08108 18.182 6.45052 18.1826 4.42188C18.1826 3.13468 19.3268 2.49023 20.7461 2.49023ZM3.15918 0.489258C5.04323 0.489258 5.9375 1.58562 5.9375 3.04004C5.9375 4.72086 4.74481 5.71094 3.15918 5.71094H1.95508V8.71582H0V0.489258H3.15918ZM32.6602 0C33.0065 4.02641e-07 33.304 0.0479917 33.5664 0.119141V1.47754C33.4121 1.43042 33.186 1.39456 33.0068 1.39453C32.4221 1.39453 32.2071 1.77585 32.207 2.3125V2.63477H33.5186V3.93457H32.207V8.71582H30.3115V3.93457H29.2979V2.63477H30.3115V2.38379C30.3116 0.941502 31.1218 0 32.6602 0ZM9.49414 6.10449C8.33903 5.91326 7.94435 6.40252 7.94434 6.90332C7.94434 7.34411 8.26734 7.61816 8.74414 7.61816C9.04239 7.61805 9.31672 7.51102 9.49414 7.37988V6.10449ZM26.8428 6.10449C25.6877 5.91326 25.293 6.40252 25.293 6.90332C25.293 7.34401 25.6152 7.61805 26.0918 7.61816C26.3902 7.61816 26.6645 7.51109 26.8438 7.37988H26.8428V6.10449ZM36.6719 3.82715C36.147 3.82715 35.7302 4.24441 35.6582 5.05566H37.6855C37.6135 4.2453 37.1967 3.82718 36.6719 3.82715ZM1.95508 1.91895V4.2793H2.94531C3.62939 4.2791 4.07936 3.82622 4.03906 3.01172C4.00818 2.39523 3.48354 1.91907 2.86621 1.91895H1.95508Z" fill="var(--fill-0, #2D2341)"/>
</g>
</svg>
