<svg preserveAspectRatio="none" width="100%" height="100%" overflow="visible" style="display: block;" viewBox="0 0 34.0713 13.4404" fill="none" xmlns="http://www.w3.org/2000/svg">
<g id="giropay">
<path id="Subtract" d="M31.5283 0C32.9323 0.000219374 34.0705 1.03653 34.0713 2.31641V11.124C34.0706 12.4035 32.9324 13.44 31.5283 13.4404H2.54199C1.13799 13.4398 0.000727934 12.4034 0 11.124V2.31641C0.000755283 1.03663 1.13801 0.000385859 2.54199 0H31.5283ZM2.54199 0.990234C1.98957 0.991255 1.50924 1.2715 1.2627 1.68457C1.21778 1.75983 1.1808 1.83967 1.15234 1.92285C1.10983 2.04714 1.08726 2.17937 1.08691 2.31641V11.124C1.08782 11.4899 1.25063 11.8207 1.51367 12.0605C1.57942 12.1205 1.65121 12.175 1.72852 12.2227C1.92206 12.342 2.14879 12.4204 2.39355 12.4434L2.54199 12.4502H17.6875V0.990234H2.54199Z" fill="var(--fill-0, #0F3365)"/>
<path id="Union" d="M29.8013 7.1655H29.8149L30.5718 4.97604H31.8433L30.4937 8.09909C30.1336 8.94203 29.8579 9.76022 28.6919 9.76022C28.4235 9.76022 28.1623 9.7347 27.9009 9.68307L27.9858 8.80124C28.155 8.85318 28.3107 8.87155 28.4878 8.87155C28.7981 8.87148 29.0381 8.70381 29.1294 8.40768L27.6392 4.97604H29.0093L29.8013 7.1655ZM21.4526 4.8989C22.4701 4.8989 23.0278 5.78113 23.0278 6.59225C23.0278 7.58393 22.4413 8.40768 21.3462 8.40768C20.9013 8.40761 20.4214 8.25988 20.1812 7.86081H20.1665V9.68307H18.895V4.97604H20.0679V5.58151H20.0815C20.3358 5.11148 20.8733 4.89892 21.4526 4.8989ZM25.604 5.00827C26.5436 5.00833 27.356 5.37515 27.356 6.3989V7.64792C27.356 7.91205 27.3699 8.176 27.4263 8.43991H26.2603C26.2534 8.26026 26.232 8.0863 26.2319 7.91257H26.2183C25.9289 8.33062 25.5757 8.51793 25.0532 8.51804C24.3255 8.51804 23.6753 8.18926 23.6753 7.4614C23.6753 6.43767 24.8973 6.31491 25.5757 6.31491C25.7804 6.31491 26.006 6.33485 26.1685 6.36081C26.1615 5.90347 25.7871 5.78073 25.3276 5.78073C24.9182 5.78076 24.5083 5.85161 24.1548 6.03171L24.1343 5.24655C24.5864 5.07884 25.0598 5.00827 25.604 5.00827ZM25.6323 6.93307C25.2014 6.93307 24.8621 7.05574 24.8618 7.37741C24.8618 7.60883 25.0878 7.74552 25.3843 7.74557C25.8651 7.74557 26.1685 7.34522 26.1685 6.95261C26.0062 6.94624 25.8229 6.9331 25.6323 6.93307ZM20.9438 5.78757C20.4775 5.78774 20.1665 6.16156 20.1665 6.66354C20.1667 7.15279 20.52 7.5198 20.9438 7.51999C21.424 7.51999 21.7144 7.15222 21.7144 6.61765C21.7142 6.17334 21.438 5.78757 20.9438 5.78757Z" fill="var(--fill-0, #FFFFFE)"/>
<path id="Union_2" d="M4.54908 4.89907C5.09295 4.89907 5.53148 5.16976 5.80005 5.58169H5.81372V4.97622H6.96509V7.93813C6.96509 9.31577 6.23081 9.76034 4.74732 9.7604C4.13992 9.7604 3.63792 9.64468 3.34107 9.54848L3.40454 8.63344C3.79292 8.80727 4.11805 8.91073 4.64771 8.91079C5.38258 8.91079 5.77857 8.59491 5.77857 7.93813V7.75747H5.76392C5.46044 8.15059 5.03698 8.33061 4.52857 8.33071C3.51829 8.33071 2.88909 7.636 2.88892 6.64419C2.88892 5.64605 3.40475 4.89911 4.54908 4.89907ZM14.845 4.89907C16.0599 4.89907 16.9856 5.54266 16.9856 6.65688C16.9856 7.76439 16.0598 8.40786 14.845 8.40786C13.63 8.40777 12.7044 7.76432 12.7043 6.65688C12.7043 5.54273 13.63 4.89916 14.845 4.89907ZM9.1145 8.33071H7.84302V4.97622H9.1145V8.33071ZM12.2249 4.89907C12.373 4.89908 12.5283 4.91818 12.6555 4.93715L12.592 5.90298C12.451 5.86449 12.3095 5.86489 12.1614 5.86489C11.568 5.86489 11.2356 6.2577 11.2356 6.91469V8.33071H9.96411V4.97622H11.1223V5.59438H11.137C11.3561 5.16962 11.6738 4.89907 12.2249 4.89907ZM14.845 5.71059C14.2587 5.71073 14.0188 6.15464 14.0188 6.65688C14.0188 7.15263 14.2587 7.5962 14.845 7.59633C15.4313 7.59633 15.6721 7.15271 15.6721 6.65688C15.6721 6.15456 15.4313 5.71059 14.845 5.71059ZM4.92408 5.78774C4.45068 5.78774 4.20337 6.16764 4.20337 6.62465C4.20349 7.14589 4.54264 7.44204 4.92408 7.44204C5.37578 7.44187 5.73637 7.09474 5.73658 6.57973C5.73658 6.20616 5.49598 5.7879 4.92408 5.78774ZM9.1145 4.42837H7.84302V3.57876H9.1145V4.42837Z" fill="var(--fill-0, #D8232A)"/>
</g>
</svg>
