<svg preserveAspectRatio="none" width="100%" height="100%" overflow="visible" style="display: block;" viewBox="0 0 22.3175 21.6086" fill="none" xmlns="http://www.w3.org/2000/svg">
<path id="Yandex" d="M22.3175 8.79852C22.2007 8.07682 21.558 7.59569 20.6817 7.59569C20.3896 7.59569 20.1559 7.59569 19.8638 7.59569C19.338 7.53555 19.2211 7.71598 19.2211 8.13697C19.2211 10.2419 19.2211 12.2867 19.2211 14.3917C19.2211 15.4742 18.1695 16.6169 16.9426 16.8574C13.0867 17.7596 9.2308 18.6015 5.37489 19.5037C4.96593 19.6239 4.49856 19.6239 4.03118 19.6239C3.85591 19.6239 3.5638 19.5037 3.50537 19.3232C3.44695 19.2029 3.62222 18.9624 3.73906 18.8421C3.91433 18.7218 4.14802 18.6015 4.38172 18.4813C5.08279 18.2407 5.84228 18.0001 6.54335 17.7596C9.40607 16.7973 12.2688 15.835 15.1315 14.8126C16.4168 14.3916 17.1179 13.4895 17.1179 12.3469C17.1763 8.73838 17.1179 5.06977 17.1179 1.4613C17.1179 0.859883 16.8258 0.378755 16.1831 0.138191C15.4236 -0.162515 14.7226 0.0780456 14.0799 0.378752C9.9903 2.36341 5.95912 4.34808 1.86952 6.33273C0.701064 6.93415 0 7.77612 0 8.97894C0 12.407 0 15.835 0 19.2631C0 19.4435 -1.42634e-05 19.6239 0.0584086 19.7442C0.467369 20.8869 1.51899 21.6086 2.92114 21.6086C5.78386 21.6086 8.64657 21.6086 11.5093 21.6086C14.372 21.6086 17.1763 21.6086 20.039 21.6086C20.6817 21.6086 21.2075 21.4883 21.6749 21.0673C22.2591 20.5862 22.2591 19.9246 22.2591 19.3232C22.2591 16.3644 22.3175 8.79852 22.3175 8.79852ZM10.3993 7.71598C10.6914 6.93415 11.334 6.45302 12.2688 6.33273C12.9115 6.27259 13.4373 6.63344 13.5541 7.23485C13.6709 8.13697 12.6193 9.21951 11.5093 9.21951C10.633 9.21951 10.1072 8.55796 10.3993 7.71598Z" fill="var(--fill-0, #FD6727)"/>
</svg>
