<svg preserveAspectRatio="none" width="100%" height="100%" overflow="visible" style="display: block;" viewBox="0 0 23.3359 15.7038" fill="none" xmlns="http://www.w3.org/2000/svg">
<g id="Pay">
<path id="Union" d="M19.2842 9.74386H19.3125L21.6758 3.8132H23.3359L18.2305 15.7038H16.6553L18.5537 11.5446L15.2031 3.8132H16.8643L19.2842 9.74386ZM11.293 3.54367C12.4223 3.54367 13.3149 3.8512 13.9697 4.45773C14.6245 5.06422 14.9472 5.91168 14.9473 6.98019V12.0739H13.4854V10.9284H13.4189C12.7831 11.8718 11.9478 12.3435 10.8945 12.3435C10.0026 12.3434 9.24334 12.074 8.64551 11.5349C8.05712 11.0342 7.72516 10.2923 7.74414 9.51242C7.74424 8.65575 8.06647 7.9816 8.70215 7.4714C9.33789 6.96119 10.1922 6.71073 11.2549 6.71066C12.1659 6.71066 12.9067 6.88428 13.4951 7.21164V6.85519C13.495 6.32577 13.2676 5.82479 12.8691 5.47824C12.4611 5.11237 11.9384 4.91085 11.3975 4.91085C10.5435 4.91092 9.86942 5.27684 9.37598 6.00851L8.02832 5.15109C8.74951 4.08245 9.84115 3.54375 11.293 3.54367ZM4.05273 0.000698198C5.03007 -0.018438 5.9792 0.356405 6.67188 1.04953C8.0573 2.35888 8.14266 4.56389 6.84277 5.97921L6.67188 6.15304C5.96022 6.83652 5.08695 7.18322 4.05273 7.18332H1.52832V12.0739H0V0.000698198H4.05273ZM11.4932 7.96261C10.8763 7.96261 10.3541 8.11641 9.93652 8.41476C9.52839 8.71323 9.31934 9.0892 9.31934 9.54171C9.31934 9.94596 9.50923 10.3214 9.82227 10.5525C10.1639 10.822 10.5818 10.9663 11.0088 10.9568C11.6541 10.9568 12.271 10.697 12.7266 10.2351C13.2296 9.75371 13.4863 9.1856 13.4863 8.53097C13.0118 8.14585 12.3474 7.95299 11.4932 7.96261ZM1.52832 5.69992H4.09082C4.66029 5.71917 5.21045 5.48791 5.59961 5.07394C6.39689 4.23632 6.37845 2.88857 5.55273 2.0798C5.16358 1.69467 4.64134 1.48312 4.09082 1.48312H1.52832V5.69992Z" fill="var(--fill-0, #3C4043)"/>
</g>
</svg>
