<svg preserveAspectRatio="none" width="100%" height="100%" overflow="visible" style="display: block;" viewBox="0 0 40 19.0001" fill="none" xmlns="http://www.w3.org/2000/svg">
<g id="Discover">
<path id="Stripe" d="M21 19.0001L40 13.2501V16.0001C40 17.657 38.6569 19.0001 37 19.0001H21Z" fill="var(--fill-0, #FD6020)"/>
<path id="DISC-VER" d="M14.9131 0.148071C15.4008 0.148092 15.9579 0.219995 16.376 0.50647V1.93909C16.0276 1.50933 15.4705 1.22236 14.9131 1.22229C13.7982 1.29392 12.8923 2.29689 12.9619 3.44299V3.58655C12.962 4.73263 13.8675 5.59234 14.9824 5.59241C15.5399 5.59241 16.0275 5.30543 16.376 4.87561V6.30823C15.8882 6.52311 15.4002 6.66663 14.8428 6.66663C13.1009 6.66639 11.7071 5.1624 11.707 3.3717C11.707 1.50917 13.1012 0.00479946 14.9131 0.148071ZM25.8535 4.44592L27.5264 0.148071H28.7803L26.2021 6.66663H25.5752L22.9961 0.148071H24.251L25.8535 4.44592ZM9.33789 0.00451661C9.96507 0.00451661 10.5923 0.291498 11.0801 0.721313L10.4531 1.58069C10.1744 1.2942 9.8259 1.07882 9.47754 1.07874C9.05942 1.0071 8.71031 1.36572 8.64062 1.79553C8.64062 2.15369 8.8501 2.2971 9.54688 2.58362C10.9405 3.15666 11.2887 3.58643 11.3584 4.44592V4.66077C11.2887 5.80684 10.3834 6.66681 9.26855 6.59534C8.43238 6.59534 7.59588 6.16545 7.17773 5.37756L7.94434 4.58948C8.15338 5.09076 8.64094 5.4487 9.19824 5.44885H9.26855C9.68645 5.44866 10.1042 5.01933 10.1045 4.51819C10.1045 4.23164 9.96492 4.01595 9.75586 3.87268C9.47728 3.72949 9.19851 3.58688 8.91992 3.51526C7.80494 3.15708 7.45605 2.65516 7.45605 1.79553V1.72424C7.52574 0.721368 8.36232 -0.0670692 9.33789 0.00451661ZM2.09082 0.148071C3.76318 0.219832 5.08726 1.65252 5.01758 3.3717C5.01754 4.30292 4.59917 5.16256 3.90234 5.80725C3.2752 6.30864 2.50868 6.59565 1.74219 6.52405H0V0.148071H2.09082ZM35.1914 0.148071C36.585 0.148081 37.3515 0.792723 37.3516 2.01038C37.4212 2.94153 36.7941 3.72934 35.958 3.87268L37.8398 6.52405H36.376L34.7734 3.94495H34.6338V6.52405H33.4492V0.148071H35.1914ZM6.68945 6.52307H5.50488V0.148071H6.68945V6.52307ZM32.6826 1.22229H30.5225V2.65491H32.6133V3.7301H30.5225V5.44885H32.6826V6.52307H29.3379V0.148071H32.6826V1.22229ZM1.5332 1.22229H1.18457V5.44885H1.5332C2.09056 5.52044 2.71765 5.30591 3.13574 4.94788C3.55375 4.51817 3.76259 3.94493 3.7627 3.30042C3.7627 2.72737 3.5538 2.15405 3.13574 1.72424C2.71766 1.36609 2.09066 1.15071 1.5332 1.22229ZM34.6338 3.08557H34.9824C35.7487 3.08553 36.0975 2.72701 36.0977 2.08264C36.0977 1.50958 35.7489 1.15104 34.9824 1.151H34.6338V3.08557Z" fill="var(--fill-0, black)"/>
<path id="O" fill-rule="evenodd" clip-rule="evenodd" d="M19.9303 0.000141465C18.1881 0.000141465 16.7247 1.43286 16.7247 3.29539C16.7247 5.08629 18.1184 6.59065 19.9303 6.66228C21.7421 6.73392 23.1359 5.22956 23.2055 3.36703C23.1359 1.5045 21.7421 0.000141465 19.9303 0.000141465V0.000141465Z" fill="var(--fill-0, #FD6020)"/>
</g>
</svg>
