<svg preserveAspectRatio="none" width="100%" height="100%" overflow="visible" style="display: block;" viewBox="0 0 18.5727 19.5639" fill="none" xmlns="http://www.w3.org/2000/svg">
<path id="Forbrugsforeningen" d="M13.7188 0.456055C16.8201 1.28206 18.1637 3.34624 18.4844 7.58691C18.583 8.8881 18.5725 9.76026 18.5723 9.78125C18.5723 9.78125 18.5842 10.6595 18.4844 11.9766C18.0478 17.7492 15.7201 19.4934 9.63477 19.5635C9.54025 19.5641 9.01183 19.5641 8.91797 19.5635C7.86246 19.5511 6.92305 19.4871 6.08398 19.3623C6.11344 19.362 6.14214 19.3614 6.17188 19.3594C7.2729 19.2962 8.80641 18.4472 9.71875 16.4717C10.1172 15.6078 10.2236 14.0654 10.2236 14.0654V10.7861L10.2246 10.7852H13.7188V7.54102H10.2246V7.54004C10.2242 7.53912 10.2226 7.53621 10.2217 7.53125C10.2214 7.53022 10.221 7.52754 10.2207 7.52637C10.2189 7.52063 10.2178 7.51426 10.2148 7.50488C10.2146 7.50224 10.2132 7.49752 10.2129 7.49414C10.2105 7.48497 10.2088 7.47597 10.207 7.46387C10.2056 7.45873 10.2043 7.45133 10.2031 7.44531C10.2008 7.43321 10.1992 7.42068 10.1973 7.40625C10.1956 7.39935 10.1949 7.39056 10.1943 7.38281C10.192 7.36747 10.1904 7.35246 10.1885 7.33496C10.1879 7.32615 10.1884 7.3156 10.1875 7.30664C10.1863 7.28796 10.1849 7.26987 10.1846 7.24902V7.14941C10.1846 7.13948 10.1852 7.12786 10.1855 7.11719C10.1861 7.0912 10.1876 7.06491 10.1904 7.03613C10.191 7.02759 10.1918 7.01789 10.1924 7.00879C10.1952 6.97747 10.1993 6.94576 10.2041 6.91211C10.2047 6.90582 10.2064 6.89873 10.207 6.89258C10.2129 6.8544 10.2192 6.81524 10.2275 6.77441C10.2276 6.7736 10.2283 6.77259 10.2285 6.77148C10.2875 6.48797 10.4135 6.13854 10.667 5.74316C11.3489 4.6821 13.2858 4.73228 13.6572 4.75195C13.6961 4.7543 13.7182 4.75586 13.7188 4.75586V0.456055ZM6.14844 13.0625C6.15312 13.2434 6.10703 13.8596 5.57715 14.5215C4.88758 15.3836 3.89258 15.3193 3.89258 15.3193V18.7998C1.45402 17.8152 0.354985 15.7619 0.0683594 11.9766C0.0337091 11.5205 0.0129212 11.1192 0 10.7871L6.17188 10.7852C6.17129 10.8612 6.14638 13.008 6.14844 13.0625ZM9.63477 0.000976562C10.4035 0.00978715 11.1119 0.0454911 11.7646 0.112305C11.7168 0.11392 11.6699 0.115367 11.6172 0.121094C11.0828 0.1741 9.07278 0.0829899 7.24902 2.28613C6.27508 3.46389 6.17301 7.49462 6.17188 7.54102H0.0722656C0.518306 1.80535 2.84865 0.0707254 8.91797 0.000976562C9.01124 0.000391299 9.10223 0 9.19434 0H9.3584C9.45076 6.00962e-10 9.54123 0.000390882 9.63477 0.000976562Z" fill="var(--fill-0, #659AD2)"/>
</svg>
