<svg width="20" height="20" viewBox="0 0 20 20" fill="none" xmlns="http://www.w3.org/2000/svg">
<g clip-path="url(#clip0_1782_15979)">
<mask id="mask0_1782_15979" style="mask-type:alpha" maskUnits="userSpaceOnUse" x="0" y="0" width="20" height="20">
<rect width="20" height="20" fill="#D9D9D9"/>
</mask>
<g mask="url(#mask0_1782_15979)">
<path d="M5 15.8327H7.78854V11.634C7.78854 11.4207 7.86069 11.2418 8.005 11.0973C8.14944 10.953 8.32833 10.8809 8.54167 10.8809H11.4583C11.6717 10.8809 11.8506 10.953 11.995 11.0973C12.1393 11.2418 12.2115 11.4207 12.2115 11.634V15.8327H15V8.46086C15 8.41822 14.9906 8.37954 14.9719 8.34482C14.9533 8.3101 14.9279 8.27933 14.8958 8.25253L10.1523 4.6869C10.1095 4.64954 10.0587 4.63086 10 4.63086C9.94125 4.63086 9.89049 4.64954 9.84771 4.6869L5.10417 8.25253C5.07208 8.27933 5.04674 8.3101 5.02813 8.34482C5.00938 8.37954 5 8.41822 5 8.46086V15.8327ZM3.75 15.8327V8.46086C3.75 8.22239 3.80333 7.99648 3.91 7.78315C4.01681 7.56968 4.16431 7.39392 4.3525 7.25586L9.09625 3.68211C9.35944 3.48128 9.66028 3.38086 9.99875 3.38086C10.3372 3.38086 10.6389 3.48128 10.9038 3.68211L15.6475 7.25586C15.8357 7.39392 15.9832 7.56968 16.09 7.78315C16.1967 7.99648 16.25 8.22239 16.25 8.46086V15.8327C16.25 16.1736 16.1269 16.4671 15.8806 16.7134C15.6344 16.9596 15.3408 17.0827 15 17.0827H11.7148C11.5013 17.0827 11.3224 17.0105 11.1781 16.8661C11.0337 16.7218 10.9615 16.5429 10.9615 16.3294V12.1309H9.03854V16.3294C9.03854 16.5429 8.96632 16.7218 8.82188 16.8661C8.67757 17.0105 8.49868 17.0827 8.28521 17.0827H5C4.65917 17.0827 4.36562 16.9596 4.11937 16.7134C3.87312 16.4671 3.75 16.1736 3.75 15.8327Z" fill="white"/>
</g>
</g>
<defs>
<clipPath id="clip0_1782_15979">
<rect width="20" height="20" fill="white"/>
</clipPath>
</defs>
</svg>
