<svg width="20" height="20" viewBox="0 0 20 20" fill="none" xmlns="http://www.w3.org/2000/svg">
<g clip-path="url(#clip0_1782_16003)">
<mask id="mask0_1782_16003" style="mask-type:alpha" maskUnits="userSpaceOnUse" x="0" y="0" width="20" height="20">
<rect width="20" height="20" fill="#D9D9D9"/>
</mask>
<g mask="url(#mask0_1782_16003)">
<path d="M3.97503 17.1478C3.6235 17.1478 3.32461 17.0247 3.07836 16.7784C2.83211 16.532 2.70898 16.2331 2.70898 15.8817V7.16362C2.70898 6.81223 2.83211 6.51341 3.07836 6.26716C3.32461 6.02091 3.6235 5.89779 3.97503 5.89779H6.04232V3.83029C6.04232 3.4789 6.16544 3.18008 6.41169 2.93383C6.65794 2.68758 6.95683 2.56445 7.30836 2.56445H12.6929C13.0445 2.56445 13.3434 2.68758 13.5896 2.93383C13.8359 3.18008 13.959 3.4789 13.959 3.83029V9.23112H16.0263C16.3778 9.23112 16.6767 9.35424 16.9229 9.60049C17.1692 9.84674 17.2923 10.1456 17.2923 10.497V15.8817C17.2923 16.2331 17.1692 16.532 16.9229 16.7784C16.6767 17.0247 16.3778 17.1478 16.0263 17.1478H11.0423V13.8145H8.95898V17.1478H3.97503ZM3.95898 15.8978H6.04232V13.8145H3.95898V15.8978ZM3.95898 12.5645H6.04232V10.4811H3.95898V12.5645ZM3.95898 9.23112H6.04232V7.14779H3.95898V9.23112ZM7.29232 12.5645H9.37565V10.4811H7.29232V12.5645ZM7.29232 9.23112H9.37565V7.14779H7.29232V9.23112ZM7.29232 5.89779H9.37565V3.81445H7.29232V5.89779ZM10.6257 12.5645H12.709V10.4811H10.6257V12.5645ZM10.6257 9.23112H12.709V7.14779H10.6257V9.23112ZM10.6257 5.89779H12.709V3.81445H10.6257V5.89779ZM13.959 15.8978H16.0423V13.8145H13.959V15.8978ZM13.959 12.5645H16.0423V10.4811H13.959V12.5645Z" fill="white"/>
</g>
</g>
<defs>
<clipPath id="clip0_1782_16003">
<rect width="20" height="20" fill="white"/>
</clipPath>
</defs>
</svg>
