<svg width="20" height="20" viewBox="0 0 20 20" fill="none" xmlns="http://www.w3.org/2000/svg">
<g clip-path="url(#clip0_1782_15999)">
<mask id="mask0_1782_15999" style="mask-type:alpha" maskUnits="userSpaceOnUse" x="0" y="0" width="20" height="20">
<rect width="20" height="20" transform="matrix(-1 0 0 1 20 0)" fill="#D9D9D9"/>
</mask>
<g mask="url(#mask0_1782_15999)">
<path d="M2.53456 11.8357L8.16435 17.4654C8.31574 17.616 8.48609 17.729 8.67539 17.8044C8.8647 17.8797 9.05345 17.9173 9.24164 17.9173C9.42997 17.9173 9.61831 17.8797 9.80664 17.8044C9.99497 17.729 10.1644 17.616 10.315 17.4654L17.4768 10.3115C17.6189 10.1748 17.7277 10.0144 17.8031 9.83023C17.8784 9.64607 17.916 9.45232 17.916 9.24898V3.59836C17.916 3.18197 17.7689 2.82544 17.4746 2.52878C17.1801 2.23225 16.8225 2.08398 16.4016 2.08398H10.751C10.5498 2.08398 10.3548 2.12482 10.1662 2.20648C9.97747 2.28801 9.81393 2.3978 9.6756 2.53586L2.53456 9.68982C2.38192 9.84121 2.2706 10.0115 2.2006 10.2007C2.1306 10.39 2.0956 10.5797 2.0956 10.77C2.0956 10.9603 2.1306 11.1474 2.2006 11.3313C2.2706 11.5153 2.38192 11.6834 2.53456 11.8357ZM9.05539 16.5871L3.4256 10.9573C3.37227 10.904 3.3456 10.8412 3.3456 10.769C3.3456 10.6969 3.37227 10.6342 3.4256 10.5809L10.6596 3.3419H16.4016C16.4764 3.3419 16.5391 3.366 16.59 3.41419C16.6407 3.46225 16.666 3.52364 16.666 3.59836V9.23628C16.666 9.26836 16.6607 9.30037 16.65 9.33232C16.6393 9.3644 16.6206 9.39378 16.5939 9.42044L9.43206 16.5871C9.37858 16.6406 9.31581 16.6673 9.24372 16.6673C9.17164 16.6673 9.10886 16.6406 9.05539 16.5871ZM14.5618 6.48294C14.2713 6.48294 14.0245 6.38169 13.8214 6.17919C13.6185 5.97669 13.5171 5.73072 13.5171 5.44128C13.5171 5.14975 13.6183 4.90197 13.8208 4.69794C14.0233 4.49378 14.2693 4.39169 14.5587 4.39169C14.8503 4.39169 15.098 4.49343 15.3021 4.6969C15.5062 4.90037 15.6083 5.14746 15.6083 5.43815C15.6083 5.72871 15.5066 5.97551 15.3031 6.17857C15.0996 6.38148 14.8525 6.48294 14.5618 6.48294Z" fill="white"/>
</g>
</g>
<defs>
<clipPath id="clip0_1782_15999">
<rect width="20" height="20" fill="white"/>
</clipPath>
</defs>
</svg>
