<svg width="20" height="20" viewBox="0 0 20 20" fill="none" xmlns="http://www.w3.org/2000/svg">
<g clip-path="url(#clip0_1782_15983)">
<mask id="mask0_1782_15983" style="mask-type:alpha" maskUnits="userSpaceOnUse" x="0" y="0" width="20" height="20">
<rect width="20" height="20" fill="#D9D9D9"/>
</mask>
<g mask="url(#mask0_1782_15983)">
<path d="M17.9173 5.25646V14.7435C17.9173 15.1645 17.7715 15.5208 17.4798 15.8125C17.1882 16.1042 16.8318 16.25 16.4109 16.25H3.59044C3.16947 16.25 2.81315 16.1042 2.52148 15.8125C2.22982 15.5208 2.08398 15.1645 2.08398 14.7435V5.25646C2.08398 4.83549 2.22982 4.47917 2.52148 4.1875C2.81315 3.89583 3.16947 3.75 3.59044 3.75H16.4109C16.8318 3.75 17.1882 3.89583 17.4798 4.1875C17.7715 4.47917 17.9173 4.83549 17.9173 5.25646ZM3.33398 7.00333H16.6673V5.25646C16.6673 5.19229 16.6406 5.13354 16.5871 5.08021C16.5338 5.02674 16.475 5 16.4109 5H3.59044C3.52628 5 3.46753 5.02674 3.41419 5.08021C3.36072 5.13354 3.33398 5.19229 3.33398 5.25646V7.00333ZM3.33398 9.66333V14.7435C3.33398 14.8077 3.36072 14.8665 3.41419 14.9198C3.46753 14.9733 3.52628 15 3.59044 15H16.4109C16.475 15 16.5338 14.9733 16.5871 14.9198C16.6406 14.8665 16.6673 14.8077 16.6673 14.7435V9.66333H3.33398Z" fill="white"/>
</g>
</g>
<defs>
<clipPath id="clip0_1782_15983">
<rect width="20" height="20" fill="white"/>
</clipPath>
</defs>
</svg>
