<svg width="20" height="20" viewBox="0 0 20 20" fill="none" xmlns="http://www.w3.org/2000/svg">
<g clip-path="url(#clip0_1782_15987)">
<mask id="mask0_1782_15987" style="mask-type:alpha" maskUnits="userSpaceOnUse" x="0" y="0" width="20" height="20">
<rect width="20" height="20" fill="#D9D9D9"/>
</mask>
<g mask="url(#mask0_1782_15987)">
<path d="M4.22672 17.2923C3.80589 17.2923 3.44964 17.1465 3.15797 16.8548C2.8663 16.5632 2.72047 16.2068 2.72047 15.7859V9.12878C2.38492 8.85322 2.13304 8.49558 1.96485 8.05586C1.79651 7.61628 1.79304 7.14169 1.95443 6.63211L2.79735 3.87878C2.90846 3.52836 3.097 3.24579 3.36297 3.03107C3.62908 2.81635 3.94693 2.70898 4.31651 2.70898H15.6915C16.0612 2.70898 16.3769 2.81155 16.6386 3.01669C16.9004 3.22183 17.0911 3.50392 17.2107 3.86294L18.0696 6.63211C18.231 7.14169 18.2276 7.61468 18.0592 8.05107C17.891 8.48759 17.6392 8.85218 17.3036 9.14482V15.7859C17.3036 16.2068 17.1578 16.5632 16.8661 16.8548C16.5744 17.1465 16.2182 17.2923 15.7973 17.2923H4.22672ZM11.8455 8.54232C12.3006 8.54232 12.6428 8.40315 12.8719 8.12482C13.1011 7.84648 13.1948 7.5476 13.1532 7.22815L12.6467 3.95898H10.6369V7.25065C10.6369 7.60107 10.7555 7.90398 10.9928 8.1594C11.23 8.41468 11.5142 8.54232 11.8455 8.54232ZM8.09547 8.54232C8.47894 8.54232 8.79006 8.41468 9.02881 8.1594C9.26769 7.90398 9.38714 7.60107 9.38714 7.25065V3.95898H7.37735L6.8711 7.26023C6.8261 7.55621 6.91901 7.84392 7.14985 8.12336C7.38068 8.40267 7.69589 8.54232 8.09547 8.54232ZM4.38714 8.54232C4.69589 8.54232 4.96137 8.43468 5.1836 8.2194C5.40582 8.00412 5.54311 7.73357 5.59547 7.40773L6.08568 3.95898H4.31651C4.22568 3.95898 4.1536 3.97898 4.10026 4.01898C4.04679 4.05912 4.00672 4.11926 3.98006 4.1994L3.1786 6.91086C3.0686 7.26878 3.12047 7.63016 3.33422 7.99503C3.54783 8.35989 3.8988 8.54232 4.38714 8.54232ZM15.6371 8.54232C16.088 8.54232 16.433 8.36523 16.6723 8.01107C16.9117 7.6569 16.9694 7.29016 16.8455 6.91086L16.0023 4.18336C15.9757 4.10322 15.9357 4.04579 15.8823 4.01107C15.8289 3.97635 15.7567 3.95898 15.6659 3.95898H13.9384L14.4286 7.40773C14.481 7.73357 14.6183 8.00412 14.8405 8.2194C15.0627 8.43468 15.3283 8.54232 15.6371 8.54232ZM4.22672 16.0423H15.7973C15.8721 16.0423 15.9335 16.0183 15.9815 15.9702C16.0297 15.9222 16.0538 15.8607 16.0538 15.7859V9.71857C15.963 9.75176 15.8871 9.77232 15.8261 9.78023C15.7653 9.78829 15.7023 9.79232 15.6371 9.79232C15.2621 9.79232 14.9323 9.72447 14.6476 9.58878C14.3628 9.45308 14.0869 9.23565 13.8196 8.93648C13.5858 9.19718 13.3091 9.40503 12.9896 9.56003C12.6702 9.71489 12.3059 9.79232 11.8967 9.79232C11.5431 9.79232 11.2098 9.71885 10.8967 9.5719C10.5837 9.4251 10.2888 9.21329 10.0121 8.93648C9.75464 9.21329 9.46297 9.4251 9.13714 9.5719C8.81117 9.71885 8.48103 9.79232 8.14672 9.79232C7.77061 9.79232 7.41804 9.72419 7.08901 9.58794C6.75999 9.45169 6.47047 9.23454 6.22047 8.93648C5.86992 9.2869 5.54693 9.51718 5.25151 9.62732C4.95624 9.73732 4.66811 9.79232 4.38714 9.79232C4.32186 9.79232 4.2545 9.78829 4.18505 9.78023C4.11561 9.77232 4.04401 9.75176 3.97026 9.71857V15.7859C3.97026 15.8607 3.99436 15.9222 4.04256 15.9702C4.09061 16.0183 4.152 16.0423 4.22672 16.0423Z" fill="white"/>
</g>
</g>
<defs>
<clipPath id="clip0_1782_15987">
<rect width="20" height="20" fill="white"/>
</clipPath>
</defs>
</svg>
