<svg xmlns="http://www.w3.org/2000/svg" viewBox="0 0 24 12" fill="currentColor" aria-label="Worldline icon">
  <!-- leftmost tip -->
  <g transform="translate(0.35,8.47)">
    <path d="M0.405431 0C0.141106 1.032 0 2.1211 0 3.24532H1.57005C1.34349 2.05742 0.949979 0.955151 0.405431 0Z"/>
  </g>
  <!-- first arc -->
  <g transform="translate(1.33,5.23)">
    <path d="M3.72885 6.49064C3.41245 4.41005 2.68409 2.49321 1.59474 0.940957C1.35903 0.604745 1.10846 0.290365 0.849397 0C0.52875 0.499952 0.244202 1.0261 0 1.57627C0.991671 2.84907 1.72215 4.55415 2.05554 6.49064H3.72885Z"/>
  </g>
  <!-- second arc -->
  <g transform="translate(3.10,2.88)">
    <path d="M5.10265 8.83448C4.76504 6.06543 3.82912 3.50688 2.38252 1.46699C2.00217 0.928803 1.59404 0.44053 1.16455 0C0.747876 0.371087 0.35898 0.770386 0 1.1979C1.74362 2.97521 3.00219 5.69001 3.42527 8.83448H5.10265V8.83448Z"/>
  </g>
  <!-- central W-wave -->
  <g transform="translate(5.45,0.18)">
    <path d="M9.14072 11.5389C9.64793 7.18648 11.5281 4.25538 13.1416 2.4868C13.2749 2.34229 13.4083 2.2021 13.5417 2.06622C13.3187 1.90662 13.0869 1.75564 12.853 1.61113C12.7459 1.72113 12.6387 1.83329 12.536 1.9476C11.1586 3.45305 9.60202 5.75867 8.77562 9.00251C8.52201 7.69333 8.16784 6.42944 7.71529 5.22594C8.61165 3.24815 9.72445 1.72113 10.7476 0.590965C10.4722 0.489595 10.1901 0.399009 9.90591 0.317051C9.02485 1.32644 8.10007 2.61189 7.30208 4.20362C6.7271 2.88365 6.0275 1.64996 5.21421 0.532731C5.08085 0.35156 4.94749 0.172544 4.80976 0C4.18011 0.0948995 3.56796 0.241562 2.97549 0.429205C4.39655 2.05112 5.55308 4.1044 6.34669 6.44885C6.05373 7.27491 5.80232 8.16135 5.60337 9.11466C5.04369 6.59983 4.0402 4.29204 2.64318 2.37249C2.28463 1.88074 1.9086 1.42349 1.51507 1.00291C0.988187 1.2531 0.480976 1.53996 0 1.86132C2.24528 4.10225 3.83469 7.55745 4.28506 11.5368H6.06248C6.19584 10.1888 6.43852 8.9529 6.76208 7.82489C7.0769 9.00682 7.2999 10.2491 7.42233 11.5368H9.14072V11.5389Z"/>
  </g>
  <!-- right arc 1 -->
  <g transform="translate(16.64,3.79)">
    <path d="M0.814282 7.93087C1.29594 4.5682 2.77331 2.28303 4.05197 0.883341C4.14052 0.787326 4.22908 0.693444 4.31764 0.60383C4.14485 0.396863 3.96557 0.194164 3.77766 0C1.97631 1.82216 0.468698 4.46792 0 7.933H0.814282V7.93087Z"/>
  </g>
  <!-- right arc 2 -->
  <g transform="translate(19.78,6.13)">
    <path d="M0.82584 5.58916C1.21588 3.45361 2.09184 1.88856 2.94383 0.808756C2.82181 0.533342 2.69107 0.264485 2.54943 0C1.36623 1.388 0.396578 3.25033 0 5.58916H0.82584V5.58916Z"/>
  </g>
  <!-- rightmost tip -->
  <g transform="translate(22.92,9.74)">
    <path d="M0.640741 0C0.374968 0.598375 0.154519 1.26021 0 1.98325H0.784959C0.787019 1.30781 0.737573 0.645973 0.640741 0Z"/>
  </g>
</svg>
