<svg xmlns="http://www.w3.org/2000/svg" viewBox="0 0 182 18.18" fill="currentColor" aria-label="Worldline">
  <!-- W  x=0   y=0.55 -->
  <g transform="translate(0,0.55)">
    <path d="M17.3742 13.7119H17.0888L14.2593 0.470262H10.2632L7.74393 13.7119H7.37162L3.93402 0H0L4.21945 17.078H10.1143L12.2364 6.67031L14.5199 17.078H20.5388L24.2867 0H20.3402L17.3742 13.7119Z"/>
  </g>
  <!-- O  x=24.29 y=0 -->
  <g transform="translate(24.29,0)">
    <path d="M13.3136 0.766581C11.0956 -0.255527 7.46613 -0.255527 5.24812 0.766581C3.04271 1.72636 1.39181 3.47142 0.585259 5.64029C0.118973 6.84936 -0.0322561 8.0709 0.00555091 9.32984C0.0307556 12.6205 2.03453 15.9361 5.18511 17.3571C7.41572 18.454 11.1712 18.454 13.4018 17.3571C16.5524 15.9361 18.5562 12.6205 18.5814 9.32984C18.6822 6.97401 17.8756 4.56832 16.2247 2.81079C15.4308 1.95072 14.473 1.27763 13.3136 0.766581ZM9.29346 14.6647C5.97905 14.6647 4.0761 12.0845 4.0761 9.09302C4.0761 5.9893 5.86563 3.52128 9.29346 3.52128C12.2046 3.52128 14.5108 5.50317 14.5108 9.09302C14.5108 12.1095 12.5701 14.6647 9.29346 14.6647Z"/>
  </g>
  <!-- R  x=44.68 y=0.28 -->
  <g transform="translate(44.68,0.28)">
    <path d="M12.9503 9.31921C13.589 8.42097 13.8646 7.09857 13.8145 5.77616C13.8145 4.50366 13.5264 3.44324 12.9628 2.58243C11.6227 0.611302 9.28061 0.024951 6.78825 0H0V17.3534H3.88258V12.0264C3.95772 12.0264 6.73815 12.0264 6.82582 12.0264L10.4955 17.3534H14.9918L10.5832 11.1905C11.5851 10.7664 12.3742 10.1551 12.9503 9.31921ZM9.40586 7.48531C8.89236 8.37107 8.02817 8.79524 6.96359 8.79524H3.87006V3.38087H6.97612C7.53972 3.38087 8.02817 3.39334 8.44148 3.6179C8.85478 3.84246 9.18042 4.16682 9.40586 4.57851C9.88179 5.37695 9.89431 6.6744 9.40586 7.48531Z"/>
  </g>
  <!-- L  x=61.17 y=0.55 -->
  <g transform="translate(61.17,0.55)">
    <path d="M3.82731 0H0V17.078H10.4942V13.7119H3.82731V0Z"/>
  </g>
  <!-- D  x=73.46 y=0.28 -->
  <g transform="translate(73.46,0.28)">
    <path d="M13.2728 2.57259C11.4545 0.756754 9.06708 -0.0124576 6.33335 0.000152401H0V17.6289H6.33335C7.87958 17.6289 9.22789 17.3893 10.3783 16.8975C12.5554 16.0022 14.2006 14.3125 15.017 12.1688C15.4746 10.9834 15.6231 9.76028 15.586 8.5245C15.586 6.30514 14.8438 4.14884 13.2728 2.57259ZM11.2318 11.1474C10.7494 12.4336 9.84638 13.3541 8.58466 13.8459C7.94142 14.0981 7.22398 14.2116 6.40757 14.2116H3.83465V3.41746H6.40757C7.22398 3.41746 7.94142 3.53095 8.58466 3.74532C9.85875 4.18667 10.7494 5.09458 11.2318 6.36819C11.7142 7.71746 11.7266 9.7855 11.2318 11.1474Z"/>
  </g>
  <!-- L  x=91.75 y=0.55 -->
  <g transform="translate(91.75,0.55)">
    <path d="M1.4049 0H0V17.078H9.29489V15.8281H1.4049V0Z"/>
  </g>
  <!-- I  x=102.54 y=0.55 -->
  <g transform="translate(102.54,0.55)">
    <path d="M1.49918 0H0V17.078H1.49918V0Z"/>
  </g>
  <!-- N  x=107.64 y=0.55 -->
  <g transform="translate(107.64,0.55)">
    <path d="M12.7141 15.8281H12.4285L2.50804 0H0V17.078H1.3906V1.24991H1.72584L11.6463 17.078H14.0923V0H12.7141V15.8281Z"/>
  </g>
  <!-- E  x=125.03 y=0.55 -->
  <g transform="translate(125.03,0.55)">
    <path d="M1.40278 15.8281V8.935H9.04289V7.72222H1.40278V1.24991H9.6065V0H0V17.078H9.89456V15.8281H1.40278Z"/>
  </g>
  <!-- Wave mark — 7 sub-paths composing the ascending arcs -->
  <!-- leftmost tip -->
  <g transform="translate(142.21,12.95)">
    <path d="M0.619408 0C0.215578 1.57667 0 3.24056 0 4.95813H2.39869C2.05255 3.14328 1.45136 1.45926 0.619408 0Z"/>
  </g>
  <!-- first arc -->
  <g transform="translate(143.71,7.99)">
    <path d="M5.69686 9.91625C5.21347 6.73758 4.1007 3.80907 2.43641 1.43757C2.0763 0.923916 1.69349 0.443613 1.29769 0C0.807812 0.763815 0.373086 1.56765 0 2.40818C1.51505 4.35274 2.63107 6.95772 3.14041 9.91625H5.69686Z"/>
  </g>
  <!-- second arc -->
  <g transform="translate(146.40,4.41)">
    <path d="M7.79572 13.4971C7.27992 9.26663 5.85005 5.35774 3.63996 2.24123C3.05887 1.419 2.43534 0.673033 1.77917 0C1.14259 0.566939 0.548442 1.17698 0 1.83012C2.66386 4.54546 4.58668 8.69306 5.23305 13.4971H7.79572V13.4971Z"/>
  </g>
  <!-- central W-wave -->
  <g transform="translate(150.00,0.28)">
    <path d="M13.965 17.6289C14.7399 10.9793 17.6124 6.50127 20.0774 3.79927C20.2811 3.5785 20.4849 3.36432 20.6886 3.15673C20.3479 2.91289 19.9939 2.68223 19.6365 2.46146C19.4728 2.62951 19.3092 2.80085 19.1522 2.97549C17.0479 5.27549 14.6698 8.79797 13.4072 13.7538C13.0197 11.7537 12.4786 9.82276 11.7872 7.98408C13.1567 4.96245 14.8568 2.62951 16.42 0.902863C15.9991 0.747993 15.5682 0.609598 15.134 0.484383C13.788 2.0265 12.3751 3.99039 11.156 6.42219C10.2775 4.40558 9.20868 2.52077 7.96616 0.813895C7.76241 0.537105 7.55866 0.26361 7.34824 0C6.38629 0.144985 5.45106 0.369054 4.54589 0.655729C6.71696 3.13366 8.48388 6.27062 9.69634 9.85241C9.24876 11.1144 8.86465 12.4687 8.5607 13.9252C7.70563 10.0831 6.17252 6.55729 4.03819 3.62463C3.49041 2.87335 2.91592 2.17478 2.3147 1.53223C1.50973 1.91447 0.734824 2.35272 0 2.84369C3.43029 6.26732 5.85855 11.5461 6.54661 17.6256H9.26212C9.46587 15.5662 9.83662 13.678 10.331 11.9547C10.8119 13.7604 11.1526 15.6584 11.3397 17.6256H13.965V17.6289Z"/>
  </g>
  <!-- right arc 1 -->
  <g transform="translate(167.09,5.78)">
    <path d="M1.24404 12.1166C1.97991 6.97919 4.237 3.48797 6.19051 1.34955C6.3258 1.20286 6.4611 1.05943 6.59639 0.922518C6.3324 0.606319 6.05852 0.29664 5.77143 0C3.01936 2.78385 0.716066 6.82598 0 12.1199H1.24404V12.1166Z"/>
  </g>
  <!-- right arc 2 -->
  <g transform="translate(171.89,9.37)">
    <path d="M1.2617 8.539C1.8576 5.27635 3.19587 2.88529 4.49752 1.2356C4.31109 0.814828 4.11135 0.404075 3.89497 0C2.0873 2.12056 0.605884 4.96578 0 8.539H1.2617V8.539Z"/>
  </g>
  <!-- rightmost tip -->
  <g transform="translate(176.69,14.87)">
    <path d="M0.97891 0C0.572868 0.914185 0.236071 1.92533 0 3.02997H1.19924C1.20239 1.99805 1.12685 0.986904 0.97891 0Z"/>
  </g>
</svg>
